M48
; DRILL file {KiCad (5.1.4)-1} date 4/16/2020 7:55:46 PM
; FORMAT={-:-/ absolute / inch / decimal}
; #@! TF.CreationDate,2020-04-16T19:55:46-04:00
; #@! TF.GenerationSoftware,Kicad,Pcbnew,(5.1.4)-1
; #@! TF.FileFunction,Plated,1,2,PTH
FMAT,2
INCH
T1C0.0157
T2C0.0295
T3C0.0315
T4C0.0354
T5C0.0394
T6C0.0433
T7C0.0437
T8C0.0450
T9C0.0630
T10C0.1000
T11C0.1063
T12C0.1457
%
G90
G05
T1
X3.4Y-3.25
X3.65Y-4.85
X3.8Y-2.65
X3.85Y-3.1
X3.9Y-2.65
X3.9Y-2.8
X3.9Y-3.3
X4.0Y-2.15
X4.0Y-2.7
X4.75Y-2.9
X5.3Y-2.75
X5.45Y-3.5
X5.65Y-3.55
X5.85Y-3.95
T2
X5.8Y-3.5
X5.85Y-3.5
X5.9Y-3.5
T3
X5.2Y-2.75
X5.5Y-2.75
X5.25Y-2.15
X5.4469Y-2.15
X5.2Y-3.2
X5.5Y-3.2
X5.6031Y-2.15
X5.8Y-2.15
X5.25Y-1.5
X5.25Y-1.6
X5.35Y-1.5
X5.45Y-1.5
X5.55Y-1.5
X5.65Y-1.5
X5.65Y-1.6
X5.2Y-3.0
X5.5Y-3.0
X6.1Y-2.6
X6.1Y-2.9
X5.6Y-4.2
X5.6Y-4.5
T4
X6.05Y-2.35
X6.05Y-2.45
X5.8Y-2.6
X5.8Y-2.7
X5.65Y-3.2
X5.75Y-3.2
T5
X5.5Y-4.7
X4.35Y-1.3531
X4.35Y-1.55
X4.25Y-4.4031
X4.25Y-4.6
X5.05Y-4.4
X5.05Y-4.5969
X4.15Y-4.25
X5.8Y-4.1
X5.8Y-4.2969
X4.8531Y-1.7
X5.05Y-1.7
X3.9Y-2.25
X3.9Y-2.3484
X3.9Y-2.4469
T6
X6.05Y-4.6
X6.05Y-4.7
X6.05Y-3.75
X6.05Y-3.85
X3.6Y-3.35
X3.6Y-3.45
X3.6Y-3.55
X3.6Y-3.65
X5.3Y-2.45
X5.4Y-2.45
X5.5Y-2.45
X6.05Y-4.1
X6.05Y-4.2
X6.05Y-4.3
X4.9Y-1.45
X5.0Y-1.45
X4.55Y-1.45
X4.65Y-1.45
X3.6Y-4.55
X3.6Y-4.65
X3.6Y-4.75
T7
X4.15Y-2.2
X4.15Y-2.3
X4.15Y-2.4
X4.15Y-2.5
X4.15Y-2.6
X4.15Y-2.7
X4.15Y-2.8
X4.15Y-2.9
X4.15Y-3.0
X4.15Y-3.1
X4.15Y-3.2
X4.15Y-3.3
X4.15Y-3.4
X4.15Y-3.5
X4.15Y-3.6
X4.15Y-3.7
X4.95Y-2.6
X4.95Y-2.7
X4.95Y-2.8
X4.95Y-2.9
X4.95Y-3.0
X4.95Y-3.1
X4.95Y-3.2
X4.95Y-3.3
X4.95Y-3.4
X4.95Y-3.5
X4.95Y-3.6
X4.95Y-3.7
T8
X3.5Y-4.0
X3.5Y-4.2
X3.8Y-4.0
X3.8Y-4.1
X3.8Y-4.2
T9
X5.75Y-2.9
X5.25Y-3.4
X3.45Y-3.85
X5.25Y-1.85
X5.75Y-1.85
X6.15Y-3.55
X5.6Y-3.95
X4.25Y-4.8
X4.55Y-4.55
T10
X4.2Y-2.05
X4.2Y-3.85
X4.9Y-2.05
X4.9Y-3.85
T11
X6.05Y-1.9
X6.05Y-2.0969
T12
X6.05Y-1.5
X6.05Y-5.05
X3.55Y-5.05
X3.55Y-1.5
T0
M30
