G04 #@! TF.GenerationSoftware,KiCad,Pcbnew,(5.1.4)-1*
G04 #@! TF.CreationDate,2020-05-31T08:33:06-04:00*
G04 #@! TF.ProjectId,CameraTriggerSensorNodeOnly,43616d65-7261-4547-9269-676765725365,rev?*
G04 #@! TF.SameCoordinates,Original*
G04 #@! TF.FileFunction,Legend,Top*
G04 #@! TF.FilePolarity,Positive*
%FSLAX46Y46*%
G04 Gerber Fmt 4.6, Leading zero omitted, Abs format (unit mm)*
G04 Created by KiCad (PCBNEW (5.1.4)-1) date 2020-05-31 08:33:06*
%MOMM*%
%LPD*%
G04 APERTURE LIST*
%ADD10C,0.120000*%
%ADD11C,0.398780*%
%ADD12C,0.304800*%
%ADD13C,0.254000*%
%ADD14C,0.150000*%
%ADD15C,0.100000*%
%ADD16C,0.200000*%
%ADD17C,0.127000*%
G04 APERTURE END LIST*
D10*
X141337400Y-126478600D02*
X141337400Y-127478600D01*
X141837400Y-126978600D02*
X141337400Y-126478600D01*
X141337400Y-127478600D02*
X141837400Y-126978600D01*
X146557400Y-120568600D02*
X146247400Y-120568600D01*
X146557400Y-129388600D02*
X146247400Y-129388600D01*
X142347400Y-129388600D02*
X142037400Y-129388600D01*
X146557400Y-120568600D02*
X146557400Y-129388600D01*
X142037400Y-120568600D02*
X142347400Y-120568600D01*
X142037400Y-129388600D02*
X142037400Y-120568600D01*
X179291600Y-123318200D02*
X171551600Y-123318200D01*
X179291600Y-98078200D02*
X171551600Y-98078200D01*
X171551600Y-101328200D02*
X171551600Y-98078200D01*
X171551600Y-123318200D02*
X171551600Y-120068200D01*
X179291600Y-99578200D02*
X181991600Y-99578200D01*
X179291600Y-121818200D02*
X181991600Y-121818200D01*
X179291600Y-121818200D02*
X179291600Y-123318200D01*
X179291600Y-98078200D02*
X179291600Y-99578200D01*
X181991600Y-99578200D02*
X181991600Y-121818200D01*
X160051600Y-111778200D02*
X160051600Y-116278200D01*
X160051600Y-101778200D02*
X160991600Y-101778200D01*
X167051600Y-101778200D02*
X161791600Y-101778200D01*
X171551600Y-120068200D02*
X167051600Y-120068200D01*
X167051600Y-119618200D02*
X167051600Y-120068200D01*
X160051600Y-105178200D02*
X160051600Y-109578200D01*
X160051600Y-119618200D02*
X160991600Y-119618200D01*
X171551600Y-101328200D02*
X167051600Y-101328200D01*
X167051600Y-101778200D02*
X167051600Y-101328200D01*
X167051600Y-119618200D02*
X161791600Y-119618200D01*
X160051600Y-101778200D02*
X160051600Y-102278200D01*
X160051600Y-119618200D02*
X160051600Y-119078200D01*
X85940000Y-64671000D02*
X85940000Y-54630000D01*
X98180000Y-56280000D02*
X98180000Y-54630000D01*
X98180000Y-58779000D02*
X98180000Y-58020000D01*
X98180000Y-61279000D02*
X98180000Y-60520000D01*
X98180000Y-64671000D02*
X98180000Y-63021000D01*
X89876000Y-54630000D02*
X85940000Y-54630000D01*
X98180000Y-54630000D02*
X94243000Y-54630000D01*
X89876000Y-64671000D02*
X85940000Y-64671000D01*
X98180000Y-64671000D02*
X94243000Y-64671000D01*
D11*
X96959420Y-71160640D02*
G75*
G03X96959420Y-71160640I-139700J0D01*
G01*
D12*
X90520520Y-69662040D02*
X86360000Y-69662040D01*
X90520520Y-77657960D02*
X90520520Y-69662040D01*
X88521540Y-77657960D02*
X90520520Y-77657960D01*
X88521540Y-71661020D02*
X88521540Y-77657960D01*
X86360000Y-71661020D02*
X88521540Y-71661020D01*
D13*
X96172020Y-70660260D02*
X96172020Y-71412100D01*
X96172020Y-76659740D02*
X94521020Y-76659740D01*
X96172020Y-75907900D02*
X96172020Y-76659740D01*
X94521020Y-70660260D02*
X96172020Y-70660260D01*
X91920060Y-72161400D02*
X91920060Y-75158600D01*
D10*
X87830000Y-83230000D02*
X87830000Y-83630000D01*
X88470000Y-83230000D02*
X87830000Y-83230000D01*
X94810000Y-94331000D02*
X88070000Y-94331000D01*
X94810000Y-83470000D02*
X88070000Y-83470000D01*
X88070000Y-83470000D02*
X88070000Y-94331000D01*
X94810000Y-83470000D02*
X94810000Y-94331000D01*
X93690000Y-83470000D02*
X93690000Y-94331000D01*
X88590000Y-83470000D02*
X88590000Y-94331000D01*
X135309000Y-65500000D02*
X135309000Y-63990000D01*
X139010000Y-65500000D02*
X139010000Y-63990000D01*
X142280000Y-63990000D02*
X132040000Y-63990000D01*
X132040000Y-65500000D02*
X132040000Y-60859000D01*
X142280000Y-65500000D02*
X142280000Y-60859000D01*
X142280000Y-60859000D02*
X132040000Y-60859000D01*
X142280000Y-65500000D02*
X132040000Y-65500000D01*
D14*
X89380000Y-97790000D02*
G75*
G03X89380000Y-97790000I-1750000J0D01*
G01*
X147800000Y-73660000D02*
G75*
G03X147800000Y-73660000I-1750000J0D01*
G01*
X135100000Y-86360000D02*
G75*
G03X135100000Y-86360000I-1750000J0D01*
G01*
X109700000Y-121920000D02*
G75*
G03X109700000Y-121920000I-1750000J0D01*
G01*
X157960000Y-90170000D02*
G75*
G03X157960000Y-90170000I-1750000J0D01*
G01*
X143990000Y-100330000D02*
G75*
G03X143990000Y-100330000I-1750000J0D01*
G01*
X117320000Y-115570000D02*
G75*
G03X117320000Y-115570000I-1750000J0D01*
G01*
X139804600Y-113665000D02*
G75*
G03X139804600Y-113665000I-1400000J0D01*
G01*
D10*
X94710000Y-104140000D02*
G75*
G03X94710000Y-104140000I-2000000J0D01*
G01*
X97790000Y-107950000D02*
X97790000Y-100330000D01*
X87630000Y-107950000D02*
X97790000Y-107950000D01*
X87630000Y-107950000D02*
X87630000Y-100330000D01*
X97790000Y-100330000D02*
X87630000Y-100330000D01*
D15*
X143330000Y-36850000D02*
X143330000Y-36250000D01*
X143330000Y-36250000D02*
X143330000Y-36250000D01*
X143330000Y-36250000D02*
X143330000Y-36850000D01*
X143330000Y-36850000D02*
X143330000Y-36850000D01*
X143330000Y-36250000D02*
X143330000Y-36250000D01*
X143330000Y-36250000D02*
X133530000Y-36250000D01*
X133530000Y-36250000D02*
X133530000Y-36250000D01*
X133530000Y-36250000D02*
X143330000Y-36250000D01*
X133470000Y-36250000D02*
X133470000Y-36850000D01*
X133470000Y-36850000D02*
X133530000Y-36850000D01*
X133530000Y-36850000D02*
X133530000Y-36250000D01*
X133530000Y-36250000D02*
X133470000Y-36250000D01*
X143330000Y-41950000D02*
X143330000Y-41950000D01*
X143330000Y-41950000D02*
X133530000Y-41950000D01*
X133530000Y-41950000D02*
X133530000Y-41950000D01*
X133530000Y-41950000D02*
X143330000Y-41950000D01*
D16*
X140870000Y-35100000D02*
X140870000Y-35100000D01*
X140970000Y-35100000D02*
X140970000Y-35100000D01*
X140870000Y-35100000D02*
X140870000Y-35100000D01*
X140970000Y-35100000D02*
G75*
G02X140870000Y-35100000I-50000J0D01*
G01*
X140870000Y-35100000D02*
G75*
G02X140970000Y-35100000I50000J0D01*
G01*
X140970000Y-35100000D02*
G75*
G02X140870000Y-35100000I-50000J0D01*
G01*
D10*
X140870000Y-113760000D02*
X141200000Y-113760000D01*
X140870000Y-107220000D02*
X140870000Y-113760000D01*
X141200000Y-107220000D02*
X140870000Y-107220000D01*
X143610000Y-113760000D02*
X143280000Y-113760000D01*
X143610000Y-107220000D02*
X143610000Y-113760000D01*
X143280000Y-107220000D02*
X143610000Y-107220000D01*
X139160000Y-71220000D02*
X139160000Y-70890000D01*
X132620000Y-71220000D02*
X139160000Y-71220000D01*
X132620000Y-70890000D02*
X132620000Y-71220000D01*
X139160000Y-68480000D02*
X139160000Y-68810000D01*
X132620000Y-68480000D02*
X139160000Y-68480000D01*
X132620000Y-68810000D02*
X132620000Y-68480000D01*
X156310000Y-66580000D02*
X155980000Y-66580000D01*
X156310000Y-73120000D02*
X156310000Y-66580000D01*
X155980000Y-73120000D02*
X156310000Y-73120000D01*
X153570000Y-66580000D02*
X153900000Y-66580000D01*
X153570000Y-73120000D02*
X153570000Y-66580000D01*
X153900000Y-73120000D02*
X153570000Y-73120000D01*
X132620000Y-74830000D02*
X132620000Y-75160000D01*
X139160000Y-74830000D02*
X132620000Y-74830000D01*
X139160000Y-75160000D02*
X139160000Y-74830000D01*
X132620000Y-77570000D02*
X132620000Y-77240000D01*
X139160000Y-77570000D02*
X132620000Y-77570000D01*
X139160000Y-77240000D02*
X139160000Y-77570000D01*
X132620000Y-79910000D02*
X132620000Y-80240000D01*
X139160000Y-79910000D02*
X132620000Y-79910000D01*
X139160000Y-80240000D02*
X139160000Y-79910000D01*
X132620000Y-82650000D02*
X132620000Y-82320000D01*
X139160000Y-82650000D02*
X132620000Y-82650000D01*
X139160000Y-82320000D02*
X139160000Y-82650000D01*
X128860000Y-33220000D02*
X128460000Y-33220000D01*
X128860000Y-33860000D02*
X128860000Y-33220000D01*
X122840000Y-40200000D02*
X122840000Y-33460000D01*
X128620000Y-40200000D02*
X128620000Y-33460000D01*
X128620000Y-33460000D02*
X122840000Y-33460000D01*
X128620000Y-40200000D02*
X122840000Y-40200000D01*
X128620000Y-39080000D02*
X122840000Y-39080000D01*
X128620000Y-33980000D02*
X122840000Y-33980000D01*
X119970000Y-33220000D02*
X119570000Y-33220000D01*
X119970000Y-33860000D02*
X119970000Y-33220000D01*
X113950000Y-40200000D02*
X113950000Y-33460000D01*
X119730000Y-40200000D02*
X119730000Y-33460000D01*
X119730000Y-33460000D02*
X113950000Y-33460000D01*
X119730000Y-40200000D02*
X113950000Y-40200000D01*
X119730000Y-39080000D02*
X113950000Y-39080000D01*
X119730000Y-33980000D02*
X113950000Y-33980000D01*
X165452400Y-70682400D02*
X165452400Y-71082400D01*
X166092400Y-70682400D02*
X165452400Y-70682400D01*
X172432400Y-79242400D02*
X165692400Y-79242400D01*
X172432400Y-70922400D02*
X165692400Y-70922400D01*
X165692400Y-70922400D02*
X165692400Y-79242400D01*
X172432400Y-70922400D02*
X172432400Y-79242400D01*
X171312400Y-70922400D02*
X171312400Y-79242400D01*
X166212400Y-70922400D02*
X166212400Y-79242400D01*
X165452400Y-61792400D02*
X165452400Y-62192400D01*
X166092400Y-61792400D02*
X165452400Y-61792400D01*
X172432400Y-67812400D02*
X165692400Y-67812400D01*
X172432400Y-62032400D02*
X165692400Y-62032400D01*
X165692400Y-62032400D02*
X165692400Y-67812400D01*
X172432400Y-62032400D02*
X172432400Y-67812400D01*
X171312400Y-62032400D02*
X171312400Y-67812400D01*
X166212400Y-62032400D02*
X166212400Y-67812400D01*
X87830000Y-113710000D02*
X87830000Y-114110000D01*
X88470000Y-113710000D02*
X87830000Y-113710000D01*
X94810000Y-122270000D02*
X88070000Y-122270000D01*
X94810000Y-113950000D02*
X88070000Y-113950000D01*
X88070000Y-113950000D02*
X88070000Y-122270000D01*
X94810000Y-113950000D02*
X94810000Y-122270000D01*
X93690000Y-113950000D02*
X93690000Y-122270000D01*
X88590000Y-113950000D02*
X88590000Y-122270000D01*
X165452400Y-83382400D02*
X165452400Y-83782400D01*
X166092400Y-83382400D02*
X165452400Y-83382400D01*
X172432400Y-89402400D02*
X165692400Y-89402400D01*
X172432400Y-83622400D02*
X165692400Y-83622400D01*
X165692400Y-83622400D02*
X165692400Y-89402400D01*
X172432400Y-83622400D02*
X172432400Y-89402400D01*
X171312400Y-83622400D02*
X171312400Y-89402400D01*
X166212400Y-83622400D02*
X166212400Y-89402400D01*
X155080000Y-45550000D02*
X152260000Y-45550000D01*
X152260000Y-45550000D02*
X150960000Y-47250000D01*
X155080000Y-45550000D02*
X156380000Y-47250000D01*
X150960000Y-47250000D02*
X150960000Y-55970000D01*
X156380000Y-55970000D02*
X150960000Y-55970000D01*
X156380000Y-47250000D02*
X156380000Y-55970000D01*
D14*
X106810000Y-107950000D02*
G75*
G03X106810000Y-107950000I-1400000J0D01*
G01*
D10*
X152590000Y-59400000D02*
X152434000Y-59400000D01*
X154906000Y-59400000D02*
X154750000Y-59400000D01*
X152590163Y-62001130D02*
G75*
G02X152590000Y-59919039I1079837J1041130D01*
G01*
X154749837Y-62001130D02*
G75*
G03X154750000Y-59919039I-1079837J1041130D01*
G01*
X152591392Y-62632335D02*
G75*
G02X152434484Y-59400000I1078608J1672335D01*
G01*
X154748608Y-62632335D02*
G75*
G03X154905516Y-59400000I-1078608J1672335D01*
G01*
X143145000Y-49710000D02*
X143145000Y-44270000D01*
X142905000Y-49710000D02*
X142905000Y-44270000D01*
X143025000Y-49710000D02*
X143025000Y-44270000D01*
X134830000Y-44270000D02*
X134830000Y-45150000D01*
X144570000Y-44270000D02*
X134830000Y-44270000D01*
X144570000Y-45150000D02*
X144570000Y-44270000D01*
X134830000Y-49710000D02*
X134830000Y-48830000D01*
X144570000Y-49710000D02*
X134830000Y-49710000D01*
X144570000Y-48830000D02*
X144570000Y-49710000D01*
X146240000Y-65750000D02*
X146084000Y-65750000D01*
X148556000Y-65750000D02*
X148400000Y-65750000D01*
X146240163Y-68351130D02*
G75*
G02X146240000Y-66269039I1079837J1041130D01*
G01*
X148399837Y-68351130D02*
G75*
G03X148400000Y-66269039I-1079837J1041130D01*
G01*
X146241392Y-68982335D02*
G75*
G02X146084484Y-65750000I1078608J1672335D01*
G01*
X148398608Y-68982335D02*
G75*
G03X148555516Y-65750000I-1078608J1672335D01*
G01*
X146340000Y-80200000D02*
X146340000Y-80044000D01*
X146340000Y-82516000D02*
X146340000Y-82360000D01*
X143738870Y-80200163D02*
G75*
G02X145820961Y-80200000I1041130J-1079837D01*
G01*
X143738870Y-82359837D02*
G75*
G03X145820961Y-82360000I1041130J1079837D01*
G01*
X143107665Y-80201392D02*
G75*
G02X146340000Y-80044484I1672335J-1078608D01*
G01*
X143107665Y-82358608D02*
G75*
G03X146340000Y-82515516I1672335J1078608D01*
G01*
X109120000Y-33000000D02*
X111860000Y-33000000D01*
X109120000Y-40740000D02*
X111860000Y-40740000D01*
X111860000Y-40740000D02*
X111860000Y-33000000D01*
X109120000Y-40740000D02*
X109120000Y-33000000D01*
X106580000Y-110470000D02*
X109320000Y-110470000D01*
X106580000Y-118210000D02*
X109320000Y-118210000D01*
X109320000Y-118210000D02*
X109320000Y-110470000D01*
X106580000Y-118210000D02*
X106580000Y-110470000D01*
X148690000Y-110510000D02*
X145950000Y-110510000D01*
X148690000Y-102770000D02*
X145950000Y-102770000D01*
X145950000Y-102770000D02*
X145950000Y-110510000D01*
X148690000Y-102770000D02*
X148690000Y-110510000D01*
X121900000Y-44550000D02*
X121900000Y-41810000D01*
X129640000Y-44550000D02*
X129640000Y-41810000D01*
X129640000Y-41810000D02*
X121900000Y-41810000D01*
X129640000Y-44550000D02*
X121900000Y-44550000D01*
X133295225Y-52885000D02*
X133295225Y-53385000D01*
X133045225Y-53135000D02*
X133545225Y-53135000D01*
X138245997Y-55670000D02*
G75*
G02X133454003Y-55670000I-2395997J1060000D01*
G01*
X138245997Y-53550000D02*
G75*
G03X133454003Y-53550000I-2395997J-1060000D01*
G01*
X147374775Y-56335000D02*
X147374775Y-55835000D01*
X147624775Y-56085000D02*
X147124775Y-56085000D01*
X142424003Y-53550000D02*
G75*
G02X147215997Y-53550000I2395997J-1060000D01*
G01*
X142424003Y-55670000D02*
G75*
G03X147215997Y-55670000I2395997J1060000D01*
G01*
X118959800Y-122022999D02*
G75*
G02X118959800Y-119023000I6400000J1499999D01*
G01*
X131589800Y-120523000D02*
G75*
G03X131589800Y-120523000I-6230000J0D01*
G01*
D15*
X127000000Y-49530000D02*
X127000000Y-100330000D01*
X127000000Y-100330000D02*
X104140000Y-100330000D01*
X104140000Y-100330000D02*
X104140000Y-49530000D01*
X104140000Y-49530000D02*
X127000000Y-49530000D01*
D16*
X103610000Y-55880000D02*
X103610000Y-55880000D01*
X103410000Y-55880000D02*
X103410000Y-55880000D01*
X103410000Y-55880000D02*
G75*
G02X103610000Y-55880000I100000J0D01*
G01*
X103610000Y-55880000D02*
G75*
G02X103410000Y-55880000I-100000J0D01*
G01*
D10*
X146790000Y-90750000D02*
X150390000Y-90750000D01*
X146778547Y-90742156D02*
G75*
G02X147770000Y-86450000I1811453J1842156D01*
G01*
X150398445Y-90727684D02*
G75*
G03X149370000Y-86450000I-1808445J1827684D01*
G01*
X124425000Y-110513600D02*
X128275000Y-110513600D01*
X124042369Y-109935645D02*
G75*
G03X124425000Y-110513600I2322631J1122045D01*
G01*
X124008600Y-107714793D02*
G75*
G02X126365000Y-106213600I2356400J-1098807D01*
G01*
X128721400Y-107714793D02*
G75*
G03X126365000Y-106213600I-2356400J-1098807D01*
G01*
X128667383Y-109925864D02*
G75*
G02X128275000Y-110513600I-2302383J1112264D01*
G01*
X127120400Y-105230800D02*
X127120400Y-105560800D01*
X127120400Y-105560800D02*
X120580400Y-105560800D01*
X120580400Y-105560800D02*
X120580400Y-105230800D01*
X127120400Y-103150800D02*
X127120400Y-102820800D01*
X127120400Y-102820800D02*
X120580400Y-102820800D01*
X120580400Y-102820800D02*
X120580400Y-103150800D01*
X129355600Y-130910000D02*
X129355600Y-130580000D01*
X122815600Y-130910000D02*
X129355600Y-130910000D01*
X122815600Y-130580000D02*
X122815600Y-130910000D01*
X129355600Y-128170000D02*
X129355600Y-128500000D01*
X122815600Y-128170000D02*
X129355600Y-128170000D01*
X122815600Y-128500000D02*
X122815600Y-128170000D01*
X88493600Y-51104800D02*
X98653600Y-51104800D01*
X98653600Y-43484800D02*
X98653600Y-51104800D01*
X98653600Y-43484800D02*
X88493600Y-43484800D01*
X88493600Y-43484800D02*
X88493600Y-51104800D01*
X95573600Y-47294800D02*
G75*
G03X95573600Y-47294800I-2000000J0D01*
G01*
D14*
X141712161Y-124321933D02*
X141759780Y-124179076D01*
X141759780Y-123940980D01*
X141712161Y-123845742D01*
X141664542Y-123798123D01*
X141569304Y-123750504D01*
X141474066Y-123750504D01*
X141378828Y-123798123D01*
X141331209Y-123845742D01*
X141283590Y-123940980D01*
X141235971Y-124131457D01*
X141188352Y-124226695D01*
X141140733Y-124274314D01*
X141045495Y-124321933D01*
X140950257Y-124321933D01*
X140855019Y-124274314D01*
X140807400Y-124226695D01*
X140759780Y-124131457D01*
X140759780Y-123893361D01*
X140807400Y-123750504D01*
X140759780Y-123417171D02*
X141759780Y-123179076D01*
X141045495Y-122988600D01*
X141759780Y-122798123D01*
X140759780Y-122560028D01*
X141093114Y-121750504D02*
X141759780Y-121750504D01*
X140712161Y-121988600D02*
X141426447Y-122226695D01*
X141426447Y-121607647D01*
X157843980Y-111031533D02*
X158558266Y-111031533D01*
X158701123Y-111079152D01*
X158796361Y-111174390D01*
X158843980Y-111317247D01*
X158843980Y-111412485D01*
X157843980Y-110650580D02*
X157843980Y-109983914D01*
X158843980Y-110412485D01*
X92414761Y-67752380D02*
X92081428Y-67276190D01*
X91843333Y-67752380D02*
X91843333Y-66752380D01*
X92224285Y-66752380D01*
X92319523Y-66800000D01*
X92367142Y-66847619D01*
X92414761Y-66942857D01*
X92414761Y-67085714D01*
X92367142Y-67180952D01*
X92319523Y-67228571D01*
X92224285Y-67276190D01*
X91843333Y-67276190D01*
X92700476Y-66752380D02*
X93033809Y-67752380D01*
X93367142Y-66752380D01*
X94224285Y-67752380D02*
X93652857Y-67752380D01*
X93938571Y-67752380D02*
X93938571Y-66752380D01*
X93843333Y-66895238D01*
X93748095Y-66990476D01*
X93652857Y-67038095D01*
D17*
X95427800Y-69643171D02*
X95427800Y-70078600D01*
X95398771Y-70165685D01*
X95340714Y-70223742D01*
X95253628Y-70252771D01*
X95195571Y-70252771D01*
X95689057Y-69701228D02*
X95718085Y-69672200D01*
X95776142Y-69643171D01*
X95921285Y-69643171D01*
X95979342Y-69672200D01*
X96008371Y-69701228D01*
X96037400Y-69759285D01*
X96037400Y-69817342D01*
X96008371Y-69904428D01*
X95660028Y-70252771D01*
X96037400Y-70252771D01*
X92466885Y-77676828D02*
X92408828Y-77647800D01*
X92350771Y-77589742D01*
X92263685Y-77502657D01*
X92205628Y-77473628D01*
X92147571Y-77473628D01*
X92176600Y-77618771D02*
X92118542Y-77589742D01*
X92060485Y-77531685D01*
X92031457Y-77415571D01*
X92031457Y-77212371D01*
X92060485Y-77096257D01*
X92118542Y-77038200D01*
X92176600Y-77009171D01*
X92292714Y-77009171D01*
X92350771Y-77038200D01*
X92408828Y-77096257D01*
X92437857Y-77212371D01*
X92437857Y-77415571D01*
X92408828Y-77531685D01*
X92350771Y-77589742D01*
X92292714Y-77618771D01*
X92176600Y-77618771D01*
X92641057Y-77212371D02*
X92757171Y-77618771D01*
X92873285Y-77328485D01*
X92989400Y-77618771D01*
X93105514Y-77212371D01*
X93337742Y-77618771D02*
X93337742Y-77212371D01*
X93337742Y-77009171D02*
X93308714Y-77038200D01*
X93337742Y-77067228D01*
X93366771Y-77038200D01*
X93337742Y-77009171D01*
X93337742Y-77067228D01*
X93628028Y-77618771D02*
X93628028Y-77212371D01*
X93628028Y-77009171D02*
X93599000Y-77038200D01*
X93628028Y-77067228D01*
X93657057Y-77038200D01*
X93628028Y-77009171D01*
X93628028Y-77067228D01*
X94179571Y-77589742D02*
X94121514Y-77618771D01*
X94005400Y-77618771D01*
X93947342Y-77589742D01*
X93918314Y-77560714D01*
X93889285Y-77502657D01*
X93889285Y-77328485D01*
X93918314Y-77270428D01*
X93947342Y-77241400D01*
X94005400Y-77212371D01*
X94121514Y-77212371D01*
X94179571Y-77241400D01*
X94295685Y-77676828D02*
X94760142Y-77676828D01*
X95253628Y-77560714D02*
X95224600Y-77589742D01*
X95137514Y-77618771D01*
X95079457Y-77618771D01*
X94992371Y-77589742D01*
X94934314Y-77531685D01*
X94905285Y-77473628D01*
X94876257Y-77357514D01*
X94876257Y-77270428D01*
X94905285Y-77154314D01*
X94934314Y-77096257D01*
X94992371Y-77038200D01*
X95079457Y-77009171D01*
X95137514Y-77009171D01*
X95224600Y-77038200D01*
X95253628Y-77067228D01*
X95601971Y-77618771D02*
X95543914Y-77589742D01*
X95514885Y-77560714D01*
X95485857Y-77502657D01*
X95485857Y-77328485D01*
X95514885Y-77270428D01*
X95543914Y-77241400D01*
X95601971Y-77212371D01*
X95689057Y-77212371D01*
X95747114Y-77241400D01*
X95776142Y-77270428D01*
X95805171Y-77328485D01*
X95805171Y-77502657D01*
X95776142Y-77560714D01*
X95747114Y-77589742D01*
X95689057Y-77618771D01*
X95601971Y-77618771D01*
X96066428Y-77212371D02*
X96066428Y-77618771D01*
X96066428Y-77270428D02*
X96095457Y-77241400D01*
X96153514Y-77212371D01*
X96240600Y-77212371D01*
X96298657Y-77241400D01*
X96327685Y-77299457D01*
X96327685Y-77618771D01*
X96617971Y-77212371D02*
X96617971Y-77618771D01*
X96617971Y-77270428D02*
X96647000Y-77241400D01*
X96705057Y-77212371D01*
X96792142Y-77212371D01*
X96850200Y-77241400D01*
X96879228Y-77299457D01*
X96879228Y-77618771D01*
X97401742Y-77589742D02*
X97343685Y-77618771D01*
X97227571Y-77618771D01*
X97169514Y-77589742D01*
X97140485Y-77531685D01*
X97140485Y-77299457D01*
X97169514Y-77241400D01*
X97227571Y-77212371D01*
X97343685Y-77212371D01*
X97401742Y-77241400D01*
X97430771Y-77299457D01*
X97430771Y-77357514D01*
X97140485Y-77415571D01*
X97953285Y-77589742D02*
X97895228Y-77618771D01*
X97779114Y-77618771D01*
X97721057Y-77589742D01*
X97692028Y-77560714D01*
X97663000Y-77502657D01*
X97663000Y-77328485D01*
X97692028Y-77270428D01*
X97721057Y-77241400D01*
X97779114Y-77212371D01*
X97895228Y-77212371D01*
X97953285Y-77241400D01*
X98127457Y-77212371D02*
X98359685Y-77212371D01*
X98214542Y-77009171D02*
X98214542Y-77531685D01*
X98243571Y-77589742D01*
X98301628Y-77618771D01*
X98359685Y-77618771D01*
X98649971Y-77618771D02*
X98591914Y-77589742D01*
X98562885Y-77560714D01*
X98533857Y-77502657D01*
X98533857Y-77328485D01*
X98562885Y-77270428D01*
X98591914Y-77241400D01*
X98649971Y-77212371D01*
X98737057Y-77212371D01*
X98795114Y-77241400D01*
X98824142Y-77270428D01*
X98853171Y-77328485D01*
X98853171Y-77502657D01*
X98824142Y-77560714D01*
X98795114Y-77589742D01*
X98737057Y-77618771D01*
X98649971Y-77618771D01*
X99114428Y-77618771D02*
X99114428Y-77212371D01*
X99114428Y-77328485D02*
X99143457Y-77270428D01*
X99172485Y-77241400D01*
X99230542Y-77212371D01*
X99288600Y-77212371D01*
D14*
X95262380Y-89709523D02*
X95976666Y-89709523D01*
X96119523Y-89757142D01*
X96214761Y-89852380D01*
X96262380Y-89995238D01*
X96262380Y-90090476D01*
X96262380Y-88709523D02*
X96262380Y-89280952D01*
X96262380Y-88995238D02*
X95262380Y-88995238D01*
X95405238Y-89090476D01*
X95500476Y-89185714D01*
X95548095Y-89280952D01*
X95262380Y-88376190D02*
X95262380Y-87757142D01*
X95643333Y-88090476D01*
X95643333Y-87947619D01*
X95690952Y-87852380D01*
X95738571Y-87804761D01*
X95833809Y-87757142D01*
X96071904Y-87757142D01*
X96167142Y-87804761D01*
X96214761Y-87852380D01*
X96262380Y-87947619D01*
X96262380Y-88233333D01*
X96214761Y-88328571D01*
X96167142Y-88376190D01*
X136398095Y-65952380D02*
X136398095Y-66761904D01*
X136445714Y-66857142D01*
X136493333Y-66904761D01*
X136588571Y-66952380D01*
X136779047Y-66952380D01*
X136874285Y-66904761D01*
X136921904Y-66857142D01*
X136969523Y-66761904D01*
X136969523Y-65952380D01*
X137969523Y-66952380D02*
X137398095Y-66952380D01*
X137683809Y-66952380D02*
X137683809Y-65952380D01*
X137588571Y-66095238D01*
X137493333Y-66190476D01*
X137398095Y-66238095D01*
X89832380Y-101004285D02*
X89832380Y-100432857D01*
X90832380Y-100718571D02*
X89832380Y-100718571D01*
X90832380Y-100099523D02*
X89832380Y-100099523D01*
X89832380Y-99718571D01*
X89880000Y-99623333D01*
X89927619Y-99575714D01*
X90022857Y-99528095D01*
X90165714Y-99528095D01*
X90260952Y-99575714D01*
X90308571Y-99623333D01*
X90356190Y-99718571D01*
X90356190Y-100099523D01*
X89832380Y-99194761D02*
X89832380Y-98528095D01*
X90832380Y-98956666D01*
X90832380Y-98147142D02*
X89832380Y-98147142D01*
X89832380Y-97766190D01*
X89880000Y-97670952D01*
X89927619Y-97623333D01*
X90022857Y-97575714D01*
X90165714Y-97575714D01*
X90260952Y-97623333D01*
X90308571Y-97670952D01*
X90356190Y-97766190D01*
X90356190Y-98147142D01*
X90832380Y-97004285D02*
X90784761Y-97099523D01*
X90737142Y-97147142D01*
X90641904Y-97194761D01*
X90356190Y-97194761D01*
X90260952Y-97147142D01*
X90213333Y-97099523D01*
X90165714Y-97004285D01*
X90165714Y-96861428D01*
X90213333Y-96766190D01*
X90260952Y-96718571D01*
X90356190Y-96670952D01*
X90641904Y-96670952D01*
X90737142Y-96718571D01*
X90784761Y-96766190D01*
X90832380Y-96861428D01*
X90832380Y-97004285D01*
X90832380Y-96099523D02*
X90784761Y-96194761D01*
X90689523Y-96242380D01*
X89832380Y-96242380D01*
X90832380Y-95575714D02*
X90784761Y-95670952D01*
X90689523Y-95718571D01*
X89832380Y-95718571D01*
X90832380Y-94670952D02*
X90832380Y-95242380D01*
X90832380Y-94956666D02*
X89832380Y-94956666D01*
X89975238Y-95051904D01*
X90070476Y-95147142D01*
X90118095Y-95242380D01*
X148252380Y-76802857D02*
X148252380Y-76231428D01*
X149252380Y-76517142D02*
X148252380Y-76517142D01*
X149252380Y-75898095D02*
X148252380Y-75898095D01*
X148252380Y-75517142D01*
X148300000Y-75421904D01*
X148347619Y-75374285D01*
X148442857Y-75326666D01*
X148585714Y-75326666D01*
X148680952Y-75374285D01*
X148728571Y-75421904D01*
X148776190Y-75517142D01*
X148776190Y-75898095D01*
X148585714Y-74469523D02*
X149252380Y-74469523D01*
X148204761Y-74707619D02*
X148919047Y-74945714D01*
X148919047Y-74326666D01*
X148728571Y-73612380D02*
X148728571Y-73945714D01*
X149252380Y-73945714D02*
X148252380Y-73945714D01*
X148252380Y-73469523D01*
X149252380Y-73088571D02*
X148585714Y-73088571D01*
X148252380Y-73088571D02*
X148300000Y-73136190D01*
X148347619Y-73088571D01*
X148300000Y-73040952D01*
X148252380Y-73088571D01*
X148347619Y-73088571D01*
X149252380Y-72612380D02*
X148585714Y-72612380D01*
X148776190Y-72612380D02*
X148680952Y-72564761D01*
X148633333Y-72517142D01*
X148585714Y-72421904D01*
X148585714Y-72326666D01*
X149204761Y-71612380D02*
X149252380Y-71707619D01*
X149252380Y-71898095D01*
X149204761Y-71993333D01*
X149109523Y-72040952D01*
X148728571Y-72040952D01*
X148633333Y-71993333D01*
X148585714Y-71898095D01*
X148585714Y-71707619D01*
X148633333Y-71612380D01*
X148728571Y-71564761D01*
X148823809Y-71564761D01*
X148919047Y-72040952D01*
X149252380Y-70612380D02*
X149252380Y-71183809D01*
X149252380Y-70898095D02*
X148252380Y-70898095D01*
X148395238Y-70993333D01*
X148490476Y-71088571D01*
X148538095Y-71183809D01*
X135552380Y-89502857D02*
X135552380Y-88931428D01*
X136552380Y-89217142D02*
X135552380Y-89217142D01*
X136552380Y-88598095D02*
X135552380Y-88598095D01*
X135552380Y-88217142D01*
X135600000Y-88121904D01*
X135647619Y-88074285D01*
X135742857Y-88026666D01*
X135885714Y-88026666D01*
X135980952Y-88074285D01*
X136028571Y-88121904D01*
X136076190Y-88217142D01*
X136076190Y-88598095D01*
X135552380Y-87693333D02*
X135552380Y-87074285D01*
X135933333Y-87407619D01*
X135933333Y-87264761D01*
X135980952Y-87169523D01*
X136028571Y-87121904D01*
X136123809Y-87074285D01*
X136361904Y-87074285D01*
X136457142Y-87121904D01*
X136504761Y-87169523D01*
X136552380Y-87264761D01*
X136552380Y-87550476D01*
X136504761Y-87645714D01*
X136457142Y-87693333D01*
X136266666Y-86693333D02*
X136266666Y-86217142D01*
X136552380Y-86788571D02*
X135552380Y-86455238D01*
X136552380Y-86121904D01*
X136552380Y-85788571D02*
X135885714Y-85788571D01*
X136076190Y-85788571D02*
X135980952Y-85740952D01*
X135933333Y-85693333D01*
X135885714Y-85598095D01*
X135885714Y-85502857D01*
X136552380Y-85169523D02*
X135885714Y-85169523D01*
X135980952Y-85169523D02*
X135933333Y-85121904D01*
X135885714Y-85026666D01*
X135885714Y-84883809D01*
X135933333Y-84788571D01*
X136028571Y-84740952D01*
X136552380Y-84740952D01*
X136028571Y-84740952D02*
X135933333Y-84693333D01*
X135885714Y-84598095D01*
X135885714Y-84455238D01*
X135933333Y-84360000D01*
X136028571Y-84312380D01*
X136552380Y-84312380D01*
X136552380Y-83312380D02*
X136552380Y-83883809D01*
X136552380Y-83598095D02*
X135552380Y-83598095D01*
X135695238Y-83693333D01*
X135790476Y-83788571D01*
X135838095Y-83883809D01*
X110152380Y-125896190D02*
X110152380Y-125324761D01*
X111152380Y-125610476D02*
X110152380Y-125610476D01*
X111152380Y-124991428D02*
X110152380Y-124991428D01*
X110152380Y-124610476D01*
X110200000Y-124515238D01*
X110247619Y-124467619D01*
X110342857Y-124420000D01*
X110485714Y-124420000D01*
X110580952Y-124467619D01*
X110628571Y-124515238D01*
X110676190Y-124610476D01*
X110676190Y-124991428D01*
X110247619Y-124039047D02*
X110200000Y-123991428D01*
X110152380Y-123896190D01*
X110152380Y-123658095D01*
X110200000Y-123562857D01*
X110247619Y-123515238D01*
X110342857Y-123467619D01*
X110438095Y-123467619D01*
X110580952Y-123515238D01*
X111152380Y-124086666D01*
X111152380Y-123467619D01*
X110771428Y-123039047D02*
X110771428Y-122277142D01*
X111152380Y-122658095D02*
X110390476Y-122658095D01*
X110152380Y-121896190D02*
X110152380Y-121277142D01*
X110533333Y-121610476D01*
X110533333Y-121467619D01*
X110580952Y-121372380D01*
X110628571Y-121324761D01*
X110723809Y-121277142D01*
X110961904Y-121277142D01*
X111057142Y-121324761D01*
X111104761Y-121372380D01*
X111152380Y-121467619D01*
X111152380Y-121753333D01*
X111104761Y-121848571D01*
X111057142Y-121896190D01*
X111057142Y-120848571D02*
X111104761Y-120800952D01*
X111152380Y-120848571D01*
X111104761Y-120896190D01*
X111057142Y-120848571D01*
X111152380Y-120848571D01*
X110152380Y-120467619D02*
X110152380Y-119848571D01*
X110533333Y-120181904D01*
X110533333Y-120039047D01*
X110580952Y-119943809D01*
X110628571Y-119896190D01*
X110723809Y-119848571D01*
X110961904Y-119848571D01*
X111057142Y-119896190D01*
X111104761Y-119943809D01*
X111152380Y-120039047D01*
X111152380Y-120324761D01*
X111104761Y-120420000D01*
X111057142Y-120467619D01*
X110152380Y-119562857D02*
X111152380Y-119229523D01*
X110152380Y-118896190D01*
X111152380Y-118039047D02*
X111152380Y-118610476D01*
X111152380Y-118324761D02*
X110152380Y-118324761D01*
X110295238Y-118420000D01*
X110390476Y-118515238D01*
X110438095Y-118610476D01*
X154392380Y-88717142D02*
X154392380Y-88145714D01*
X155392380Y-88431428D02*
X154392380Y-88431428D01*
X155392380Y-87812380D02*
X154392380Y-87812380D01*
X154392380Y-87431428D01*
X154440000Y-87336190D01*
X154487619Y-87288571D01*
X154582857Y-87240952D01*
X154725714Y-87240952D01*
X154820952Y-87288571D01*
X154868571Y-87336190D01*
X154916190Y-87431428D01*
X154916190Y-87812380D01*
X155392380Y-86288571D02*
X155392380Y-86860000D01*
X155392380Y-86574285D02*
X154392380Y-86574285D01*
X154535238Y-86669523D01*
X154630476Y-86764761D01*
X154678095Y-86860000D01*
X155011428Y-85860000D02*
X155011428Y-85098095D01*
X155392380Y-85479047D02*
X154630476Y-85479047D01*
X154392380Y-84145714D02*
X154392380Y-84621904D01*
X154868571Y-84669523D01*
X154820952Y-84621904D01*
X154773333Y-84526666D01*
X154773333Y-84288571D01*
X154820952Y-84193333D01*
X154868571Y-84145714D01*
X154963809Y-84098095D01*
X155201904Y-84098095D01*
X155297142Y-84145714D01*
X155344761Y-84193333D01*
X155392380Y-84288571D01*
X155392380Y-84526666D01*
X155344761Y-84621904D01*
X155297142Y-84669523D01*
X144442380Y-101591904D02*
X144442380Y-101020476D01*
X145442380Y-101306190D02*
X144442380Y-101306190D01*
X145442380Y-100687142D02*
X144442380Y-100687142D01*
X144442380Y-100306190D01*
X144490000Y-100210952D01*
X144537619Y-100163333D01*
X144632857Y-100115714D01*
X144775714Y-100115714D01*
X144870952Y-100163333D01*
X144918571Y-100210952D01*
X144966190Y-100306190D01*
X144966190Y-100687142D01*
X145442380Y-99639523D02*
X145442380Y-99449047D01*
X145394761Y-99353809D01*
X145347142Y-99306190D01*
X145204285Y-99210952D01*
X145013809Y-99163333D01*
X144632857Y-99163333D01*
X144537619Y-99210952D01*
X144490000Y-99258571D01*
X144442380Y-99353809D01*
X144442380Y-99544285D01*
X144490000Y-99639523D01*
X144537619Y-99687142D01*
X144632857Y-99734761D01*
X144870952Y-99734761D01*
X144966190Y-99687142D01*
X145013809Y-99639523D01*
X145061428Y-99544285D01*
X145061428Y-99353809D01*
X145013809Y-99258571D01*
X144966190Y-99210952D01*
X144870952Y-99163333D01*
X117772380Y-116831904D02*
X117772380Y-116260476D01*
X118772380Y-116546190D02*
X117772380Y-116546190D01*
X118772380Y-115927142D02*
X117772380Y-115927142D01*
X117772380Y-115546190D01*
X117820000Y-115450952D01*
X117867619Y-115403333D01*
X117962857Y-115355714D01*
X118105714Y-115355714D01*
X118200952Y-115403333D01*
X118248571Y-115450952D01*
X118296190Y-115546190D01*
X118296190Y-115927142D01*
X118200952Y-114784285D02*
X118153333Y-114879523D01*
X118105714Y-114927142D01*
X118010476Y-114974761D01*
X117962857Y-114974761D01*
X117867619Y-114927142D01*
X117820000Y-114879523D01*
X117772380Y-114784285D01*
X117772380Y-114593809D01*
X117820000Y-114498571D01*
X117867619Y-114450952D01*
X117962857Y-114403333D01*
X118010476Y-114403333D01*
X118105714Y-114450952D01*
X118153333Y-114498571D01*
X118200952Y-114593809D01*
X118200952Y-114784285D01*
X118248571Y-114879523D01*
X118296190Y-114927142D01*
X118391428Y-114974761D01*
X118581904Y-114974761D01*
X118677142Y-114927142D01*
X118724761Y-114879523D01*
X118772380Y-114784285D01*
X118772380Y-114593809D01*
X118724761Y-114498571D01*
X118677142Y-114450952D01*
X118581904Y-114403333D01*
X118391428Y-114403333D01*
X118296190Y-114450952D01*
X118248571Y-114498571D01*
X118200952Y-114593809D01*
X140356980Y-114926904D02*
X140356980Y-114355476D01*
X141356980Y-114641190D02*
X140356980Y-114641190D01*
X141356980Y-114022142D02*
X140356980Y-114022142D01*
X140356980Y-113641190D01*
X140404600Y-113545952D01*
X140452219Y-113498333D01*
X140547457Y-113450714D01*
X140690314Y-113450714D01*
X140785552Y-113498333D01*
X140833171Y-113545952D01*
X140880790Y-113641190D01*
X140880790Y-114022142D01*
X141356980Y-112498333D02*
X141356980Y-113069761D01*
X141356980Y-112784047D02*
X140356980Y-112784047D01*
X140499838Y-112879285D01*
X140595076Y-112974523D01*
X140642695Y-113069761D01*
X87304761Y-105473333D02*
X87352380Y-105330476D01*
X87352380Y-105092380D01*
X87304761Y-104997142D01*
X87257142Y-104949523D01*
X87161904Y-104901904D01*
X87066666Y-104901904D01*
X86971428Y-104949523D01*
X86923809Y-104997142D01*
X86876190Y-105092380D01*
X86828571Y-105282857D01*
X86780952Y-105378095D01*
X86733333Y-105425714D01*
X86638095Y-105473333D01*
X86542857Y-105473333D01*
X86447619Y-105425714D01*
X86400000Y-105378095D01*
X86352380Y-105282857D01*
X86352380Y-105044761D01*
X86400000Y-104901904D01*
X86352380Y-104568571D02*
X87352380Y-104330476D01*
X86638095Y-104140000D01*
X87352380Y-103949523D01*
X86352380Y-103711428D01*
X86352380Y-103425714D02*
X86352380Y-102806666D01*
X86733333Y-103140000D01*
X86733333Y-102997142D01*
X86780952Y-102901904D01*
X86828571Y-102854285D01*
X86923809Y-102806666D01*
X87161904Y-102806666D01*
X87257142Y-102854285D01*
X87304761Y-102901904D01*
X87352380Y-102997142D01*
X87352380Y-103282857D01*
X87304761Y-103378095D01*
X87257142Y-103425714D01*
D13*
X138944047Y-40193333D02*
X139004523Y-40011904D01*
X139004523Y-39709523D01*
X138944047Y-39588571D01*
X138883571Y-39528095D01*
X138762619Y-39467619D01*
X138641666Y-39467619D01*
X138520714Y-39528095D01*
X138460238Y-39588571D01*
X138399761Y-39709523D01*
X138339285Y-39951428D01*
X138278809Y-40072380D01*
X138218333Y-40132857D01*
X138097380Y-40193333D01*
X137976428Y-40193333D01*
X137855476Y-40132857D01*
X137795000Y-40072380D01*
X137734523Y-39951428D01*
X137734523Y-39649047D01*
X137795000Y-39467619D01*
X137734523Y-39044285D02*
X139004523Y-38741904D01*
X138097380Y-38500000D01*
X139004523Y-38258095D01*
X137734523Y-37955714D01*
X139004523Y-36806666D02*
X139004523Y-37532380D01*
X139004523Y-37169523D02*
X137734523Y-37169523D01*
X137915952Y-37290476D01*
X138036904Y-37411428D01*
X138097380Y-37532380D01*
D14*
X145062380Y-110656666D02*
X144586190Y-110990000D01*
X145062380Y-111228095D02*
X144062380Y-111228095D01*
X144062380Y-110847142D01*
X144110000Y-110751904D01*
X144157619Y-110704285D01*
X144252857Y-110656666D01*
X144395714Y-110656666D01*
X144490952Y-110704285D01*
X144538571Y-110751904D01*
X144586190Y-110847142D01*
X144586190Y-111228095D01*
X144490952Y-110085238D02*
X144443333Y-110180476D01*
X144395714Y-110228095D01*
X144300476Y-110275714D01*
X144252857Y-110275714D01*
X144157619Y-110228095D01*
X144110000Y-110180476D01*
X144062380Y-110085238D01*
X144062380Y-109894761D01*
X144110000Y-109799523D01*
X144157619Y-109751904D01*
X144252857Y-109704285D01*
X144300476Y-109704285D01*
X144395714Y-109751904D01*
X144443333Y-109799523D01*
X144490952Y-109894761D01*
X144490952Y-110085238D01*
X144538571Y-110180476D01*
X144586190Y-110228095D01*
X144681428Y-110275714D01*
X144871904Y-110275714D01*
X144967142Y-110228095D01*
X145014761Y-110180476D01*
X145062380Y-110085238D01*
X145062380Y-109894761D01*
X145014761Y-109799523D01*
X144967142Y-109751904D01*
X144871904Y-109704285D01*
X144681428Y-109704285D01*
X144586190Y-109751904D01*
X144538571Y-109799523D01*
X144490952Y-109894761D01*
X135723333Y-67932380D02*
X135390000Y-67456190D01*
X135151904Y-67932380D02*
X135151904Y-66932380D01*
X135532857Y-66932380D01*
X135628095Y-66980000D01*
X135675714Y-67027619D01*
X135723333Y-67122857D01*
X135723333Y-67265714D01*
X135675714Y-67360952D01*
X135628095Y-67408571D01*
X135532857Y-67456190D01*
X135151904Y-67456190D01*
X136628095Y-66932380D02*
X136151904Y-66932380D01*
X136104285Y-67408571D01*
X136151904Y-67360952D01*
X136247142Y-67313333D01*
X136485238Y-67313333D01*
X136580476Y-67360952D01*
X136628095Y-67408571D01*
X136675714Y-67503809D01*
X136675714Y-67741904D01*
X136628095Y-67837142D01*
X136580476Y-67884761D01*
X136485238Y-67932380D01*
X136247142Y-67932380D01*
X136151904Y-67884761D01*
X136104285Y-67837142D01*
X153022380Y-70016666D02*
X152546190Y-70350000D01*
X153022380Y-70588095D02*
X152022380Y-70588095D01*
X152022380Y-70207142D01*
X152070000Y-70111904D01*
X152117619Y-70064285D01*
X152212857Y-70016666D01*
X152355714Y-70016666D01*
X152450952Y-70064285D01*
X152498571Y-70111904D01*
X152546190Y-70207142D01*
X152546190Y-70588095D01*
X152355714Y-69159523D02*
X153022380Y-69159523D01*
X151974761Y-69397619D02*
X152689047Y-69635714D01*
X152689047Y-69016666D01*
X135723333Y-79022380D02*
X135390000Y-78546190D01*
X135151904Y-79022380D02*
X135151904Y-78022380D01*
X135532857Y-78022380D01*
X135628095Y-78070000D01*
X135675714Y-78117619D01*
X135723333Y-78212857D01*
X135723333Y-78355714D01*
X135675714Y-78450952D01*
X135628095Y-78498571D01*
X135532857Y-78546190D01*
X135151904Y-78546190D01*
X136056666Y-78022380D02*
X136675714Y-78022380D01*
X136342380Y-78403333D01*
X136485238Y-78403333D01*
X136580476Y-78450952D01*
X136628095Y-78498571D01*
X136675714Y-78593809D01*
X136675714Y-78831904D01*
X136628095Y-78927142D01*
X136580476Y-78974761D01*
X136485238Y-79022380D01*
X136199523Y-79022380D01*
X136104285Y-78974761D01*
X136056666Y-78927142D01*
X135723333Y-84102380D02*
X135390000Y-83626190D01*
X135151904Y-84102380D02*
X135151904Y-83102380D01*
X135532857Y-83102380D01*
X135628095Y-83150000D01*
X135675714Y-83197619D01*
X135723333Y-83292857D01*
X135723333Y-83435714D01*
X135675714Y-83530952D01*
X135628095Y-83578571D01*
X135532857Y-83626190D01*
X135151904Y-83626190D01*
X136675714Y-84102380D02*
X136104285Y-84102380D01*
X136390000Y-84102380D02*
X136390000Y-83102380D01*
X136294761Y-83245238D01*
X136199523Y-83340476D01*
X136104285Y-83388095D01*
X124920476Y-40652380D02*
X124920476Y-41366666D01*
X124872857Y-41509523D01*
X124777619Y-41604761D01*
X124634761Y-41652380D01*
X124539523Y-41652380D01*
X125920476Y-41652380D02*
X125349047Y-41652380D01*
X125634761Y-41652380D02*
X125634761Y-40652380D01*
X125539523Y-40795238D01*
X125444285Y-40890476D01*
X125349047Y-40938095D01*
X126777619Y-40985714D02*
X126777619Y-41652380D01*
X126539523Y-40604761D02*
X126301428Y-41319047D01*
X126920476Y-41319047D01*
X116030476Y-40652380D02*
X116030476Y-41366666D01*
X115982857Y-41509523D01*
X115887619Y-41604761D01*
X115744761Y-41652380D01*
X115649523Y-41652380D01*
X117030476Y-41652380D02*
X116459047Y-41652380D01*
X116744761Y-41652380D02*
X116744761Y-40652380D01*
X116649523Y-40795238D01*
X116554285Y-40890476D01*
X116459047Y-40938095D01*
X117363809Y-40652380D02*
X117982857Y-40652380D01*
X117649523Y-41033333D01*
X117792380Y-41033333D01*
X117887619Y-41080952D01*
X117935238Y-41128571D01*
X117982857Y-41223809D01*
X117982857Y-41461904D01*
X117935238Y-41557142D01*
X117887619Y-41604761D01*
X117792380Y-41652380D01*
X117506666Y-41652380D01*
X117411428Y-41604761D01*
X117363809Y-41557142D01*
X168514780Y-80495733D02*
X169229066Y-80495733D01*
X169371923Y-80543352D01*
X169467161Y-80638590D01*
X169514780Y-80781447D01*
X169514780Y-80876685D01*
X168514780Y-79590971D02*
X168514780Y-79781447D01*
X168562400Y-79876685D01*
X168610019Y-79924304D01*
X168752876Y-80019542D01*
X168943352Y-80067161D01*
X169324304Y-80067161D01*
X169419542Y-80019542D01*
X169467161Y-79971923D01*
X169514780Y-79876685D01*
X169514780Y-79686209D01*
X169467161Y-79590971D01*
X169419542Y-79543352D01*
X169324304Y-79495733D01*
X169086209Y-79495733D01*
X168990971Y-79543352D01*
X168943352Y-79590971D01*
X168895733Y-79686209D01*
X168895733Y-79876685D01*
X168943352Y-79971923D01*
X168990971Y-80019542D01*
X169086209Y-80067161D01*
X168514780Y-69065733D02*
X169229066Y-69065733D01*
X169371923Y-69113352D01*
X169467161Y-69208590D01*
X169514780Y-69351447D01*
X169514780Y-69446685D01*
X168514780Y-68113352D02*
X168514780Y-68589542D01*
X168990971Y-68637161D01*
X168943352Y-68589542D01*
X168895733Y-68494304D01*
X168895733Y-68256209D01*
X168943352Y-68160971D01*
X168990971Y-68113352D01*
X169086209Y-68065733D01*
X169324304Y-68065733D01*
X169419542Y-68113352D01*
X169467161Y-68160971D01*
X169514780Y-68256209D01*
X169514780Y-68494304D01*
X169467161Y-68589542D01*
X169419542Y-68637161D01*
X95262380Y-118443333D02*
X95976666Y-118443333D01*
X96119523Y-118490952D01*
X96214761Y-118586190D01*
X96262380Y-118729047D01*
X96262380Y-118824285D01*
X95595714Y-117538571D02*
X96262380Y-117538571D01*
X95214761Y-117776666D02*
X95929047Y-118014761D01*
X95929047Y-117395714D01*
X163434780Y-91925733D02*
X164149066Y-91925733D01*
X164291923Y-91973352D01*
X164387161Y-92068590D01*
X164434780Y-92211447D01*
X164434780Y-92306685D01*
X163434780Y-91544780D02*
X163434780Y-90925733D01*
X163815733Y-91259066D01*
X163815733Y-91116209D01*
X163863352Y-91020971D01*
X163910971Y-90973352D01*
X164006209Y-90925733D01*
X164244304Y-90925733D01*
X164339542Y-90973352D01*
X164387161Y-91020971D01*
X164434780Y-91116209D01*
X164434780Y-91401923D01*
X164387161Y-91497161D01*
X164339542Y-91544780D01*
X157122380Y-51093333D02*
X157836666Y-51093333D01*
X157979523Y-51140952D01*
X158074761Y-51236190D01*
X158122380Y-51379047D01*
X158122380Y-51474285D01*
X158122380Y-50093333D02*
X158122380Y-50664761D01*
X158122380Y-50379047D02*
X157122380Y-50379047D01*
X157265238Y-50474285D01*
X157360476Y-50569523D01*
X157408095Y-50664761D01*
X153777142Y-44831428D02*
X153777142Y-43688571D01*
X153777142Y-57831428D02*
X153777142Y-56688571D01*
X154348571Y-57260000D02*
X153205714Y-57260000D01*
X95322380Y-127761904D02*
X94322380Y-127761904D01*
X94798571Y-127761904D02*
X94798571Y-127190476D01*
X95322380Y-127190476D02*
X94322380Y-127190476D01*
X94655714Y-126285714D02*
X95322380Y-126285714D01*
X94274761Y-126523809D02*
X94989047Y-126761904D01*
X94989047Y-126142857D01*
X178507380Y-38684104D02*
X177507380Y-38684104D01*
X177983571Y-38684104D02*
X177983571Y-38112676D01*
X178507380Y-38112676D02*
X177507380Y-38112676D01*
X177507380Y-37731723D02*
X177507380Y-37112676D01*
X177888333Y-37446009D01*
X177888333Y-37303152D01*
X177935952Y-37207914D01*
X177983571Y-37160295D01*
X178078809Y-37112676D01*
X178316904Y-37112676D01*
X178412142Y-37160295D01*
X178459761Y-37207914D01*
X178507380Y-37303152D01*
X178507380Y-37588866D01*
X178459761Y-37684104D01*
X178412142Y-37731723D01*
X95322380Y-38861904D02*
X94322380Y-38861904D01*
X94798571Y-38861904D02*
X94798571Y-38290476D01*
X95322380Y-38290476D02*
X94322380Y-38290476D01*
X94417619Y-37861904D02*
X94370000Y-37814285D01*
X94322380Y-37719047D01*
X94322380Y-37480952D01*
X94370000Y-37385714D01*
X94417619Y-37338095D01*
X94512857Y-37290476D01*
X94608095Y-37290476D01*
X94750952Y-37338095D01*
X95322380Y-37909523D01*
X95322380Y-37290476D01*
X178253380Y-128904904D02*
X177253380Y-128904904D01*
X177729571Y-128904904D02*
X177729571Y-128333476D01*
X178253380Y-128333476D02*
X177253380Y-128333476D01*
X178253380Y-127333476D02*
X178253380Y-127904904D01*
X178253380Y-127619190D02*
X177253380Y-127619190D01*
X177396238Y-127714428D01*
X177491476Y-127809666D01*
X177539095Y-127904904D01*
X107410000Y-109188095D02*
X107362380Y-109283333D01*
X107362380Y-109426190D01*
X107410000Y-109569047D01*
X107505238Y-109664285D01*
X107600476Y-109711904D01*
X107790952Y-109759523D01*
X107933809Y-109759523D01*
X108124285Y-109711904D01*
X108219523Y-109664285D01*
X108314761Y-109569047D01*
X108362380Y-109426190D01*
X108362380Y-109330952D01*
X108314761Y-109188095D01*
X108267142Y-109140476D01*
X107933809Y-109140476D01*
X107933809Y-109330952D01*
X108362380Y-108711904D02*
X107362380Y-108711904D01*
X108362380Y-108140476D01*
X107362380Y-108140476D01*
X108362380Y-107664285D02*
X107362380Y-107664285D01*
X107362380Y-107426190D01*
X107410000Y-107283333D01*
X107505238Y-107188095D01*
X107600476Y-107140476D01*
X107790952Y-107092857D01*
X107933809Y-107092857D01*
X108124285Y-107140476D01*
X108219523Y-107188095D01*
X108314761Y-107283333D01*
X108362380Y-107426190D01*
X108362380Y-107664285D01*
X108362380Y-106140476D02*
X108362380Y-106711904D01*
X108362380Y-106426190D02*
X107362380Y-106426190D01*
X107505238Y-106521428D01*
X107600476Y-106616666D01*
X107648095Y-106711904D01*
X157082380Y-61698095D02*
X156082380Y-61698095D01*
X156082380Y-61460000D01*
X156130000Y-61317142D01*
X156225238Y-61221904D01*
X156320476Y-61174285D01*
X156510952Y-61126666D01*
X156653809Y-61126666D01*
X156844285Y-61174285D01*
X156939523Y-61221904D01*
X157034761Y-61317142D01*
X157082380Y-61460000D01*
X157082380Y-61698095D01*
X156415714Y-60269523D02*
X157082380Y-60269523D01*
X156034761Y-60507619D02*
X156749047Y-60745714D01*
X156749047Y-60126666D01*
X138961904Y-51162380D02*
X138961904Y-50162380D01*
X139200000Y-50162380D01*
X139342857Y-50210000D01*
X139438095Y-50305238D01*
X139485714Y-50400476D01*
X139533333Y-50590952D01*
X139533333Y-50733809D01*
X139485714Y-50924285D01*
X139438095Y-51019523D01*
X139342857Y-51114761D01*
X139200000Y-51162380D01*
X138961904Y-51162380D01*
X139866666Y-50162380D02*
X140485714Y-50162380D01*
X140152380Y-50543333D01*
X140295238Y-50543333D01*
X140390476Y-50590952D01*
X140438095Y-50638571D01*
X140485714Y-50733809D01*
X140485714Y-50971904D01*
X140438095Y-51067142D01*
X140390476Y-51114761D01*
X140295238Y-51162380D01*
X140009523Y-51162380D01*
X139914285Y-51114761D01*
X139866666Y-51067142D01*
X145788095Y-50042380D02*
X145788095Y-49042380D01*
X146359523Y-50042380D02*
X145930952Y-49470952D01*
X146359523Y-49042380D02*
X145788095Y-49613809D01*
X150732380Y-68048095D02*
X149732380Y-68048095D01*
X149732380Y-67810000D01*
X149780000Y-67667142D01*
X149875238Y-67571904D01*
X149970476Y-67524285D01*
X150160952Y-67476666D01*
X150303809Y-67476666D01*
X150494285Y-67524285D01*
X150589523Y-67571904D01*
X150684761Y-67667142D01*
X150732380Y-67810000D01*
X150732380Y-68048095D01*
X149827619Y-67095714D02*
X149780000Y-67048095D01*
X149732380Y-66952857D01*
X149732380Y-66714761D01*
X149780000Y-66619523D01*
X149827619Y-66571904D01*
X149922857Y-66524285D01*
X150018095Y-66524285D01*
X150160952Y-66571904D01*
X150732380Y-67143333D01*
X150732380Y-66524285D01*
X144041904Y-84692380D02*
X144041904Y-83692380D01*
X144280000Y-83692380D01*
X144422857Y-83740000D01*
X144518095Y-83835238D01*
X144565714Y-83930476D01*
X144613333Y-84120952D01*
X144613333Y-84263809D01*
X144565714Y-84454285D01*
X144518095Y-84549523D01*
X144422857Y-84644761D01*
X144280000Y-84692380D01*
X144041904Y-84692380D01*
X145565714Y-84692380D02*
X144994285Y-84692380D01*
X145280000Y-84692380D02*
X145280000Y-83692380D01*
X145184761Y-83835238D01*
X145089523Y-83930476D01*
X144994285Y-83978095D01*
X108347142Y-37036666D02*
X108394761Y-37084285D01*
X108442380Y-37227142D01*
X108442380Y-37322380D01*
X108394761Y-37465238D01*
X108299523Y-37560476D01*
X108204285Y-37608095D01*
X108013809Y-37655714D01*
X107870952Y-37655714D01*
X107680476Y-37608095D01*
X107585238Y-37560476D01*
X107490000Y-37465238D01*
X107442380Y-37322380D01*
X107442380Y-37227142D01*
X107490000Y-37084285D01*
X107537619Y-37036666D01*
X107442380Y-36179523D02*
X107442380Y-36370000D01*
X107490000Y-36465238D01*
X107537619Y-36512857D01*
X107680476Y-36608095D01*
X107870952Y-36655714D01*
X108251904Y-36655714D01*
X108347142Y-36608095D01*
X108394761Y-36560476D01*
X108442380Y-36465238D01*
X108442380Y-36274761D01*
X108394761Y-36179523D01*
X108347142Y-36131904D01*
X108251904Y-36084285D01*
X108013809Y-36084285D01*
X107918571Y-36131904D01*
X107870952Y-36179523D01*
X107823333Y-36274761D01*
X107823333Y-36465238D01*
X107870952Y-36560476D01*
X107918571Y-36608095D01*
X108013809Y-36655714D01*
X105807142Y-114506666D02*
X105854761Y-114554285D01*
X105902380Y-114697142D01*
X105902380Y-114792380D01*
X105854761Y-114935238D01*
X105759523Y-115030476D01*
X105664285Y-115078095D01*
X105473809Y-115125714D01*
X105330952Y-115125714D01*
X105140476Y-115078095D01*
X105045238Y-115030476D01*
X104950000Y-114935238D01*
X104902380Y-114792380D01*
X104902380Y-114697142D01*
X104950000Y-114554285D01*
X104997619Y-114506666D01*
X104902380Y-113601904D02*
X104902380Y-114078095D01*
X105378571Y-114125714D01*
X105330952Y-114078095D01*
X105283333Y-113982857D01*
X105283333Y-113744761D01*
X105330952Y-113649523D01*
X105378571Y-113601904D01*
X105473809Y-113554285D01*
X105711904Y-113554285D01*
X105807142Y-113601904D01*
X105854761Y-113649523D01*
X105902380Y-113744761D01*
X105902380Y-113982857D01*
X105854761Y-114078095D01*
X105807142Y-114125714D01*
X150177142Y-106806666D02*
X150224761Y-106854285D01*
X150272380Y-106997142D01*
X150272380Y-107092380D01*
X150224761Y-107235238D01*
X150129523Y-107330476D01*
X150034285Y-107378095D01*
X149843809Y-107425714D01*
X149700952Y-107425714D01*
X149510476Y-107378095D01*
X149415238Y-107330476D01*
X149320000Y-107235238D01*
X149272380Y-107092380D01*
X149272380Y-106997142D01*
X149320000Y-106854285D01*
X149367619Y-106806666D01*
X149605714Y-105949523D02*
X150272380Y-105949523D01*
X149224761Y-106187619D02*
X149939047Y-106425714D01*
X149939047Y-105806666D01*
X125603333Y-46037142D02*
X125555714Y-46084761D01*
X125412857Y-46132380D01*
X125317619Y-46132380D01*
X125174761Y-46084761D01*
X125079523Y-45989523D01*
X125031904Y-45894285D01*
X124984285Y-45703809D01*
X124984285Y-45560952D01*
X125031904Y-45370476D01*
X125079523Y-45275238D01*
X125174761Y-45180000D01*
X125317619Y-45132380D01*
X125412857Y-45132380D01*
X125555714Y-45180000D01*
X125603333Y-45227619D01*
X125936666Y-45132380D02*
X126555714Y-45132380D01*
X126222380Y-45513333D01*
X126365238Y-45513333D01*
X126460476Y-45560952D01*
X126508095Y-45608571D01*
X126555714Y-45703809D01*
X126555714Y-45941904D01*
X126508095Y-46037142D01*
X126460476Y-46084761D01*
X126365238Y-46132380D01*
X126079523Y-46132380D01*
X125984285Y-46084761D01*
X125936666Y-46037142D01*
X135683333Y-51217142D02*
X135635714Y-51264761D01*
X135492857Y-51312380D01*
X135397619Y-51312380D01*
X135254761Y-51264761D01*
X135159523Y-51169523D01*
X135111904Y-51074285D01*
X135064285Y-50883809D01*
X135064285Y-50740952D01*
X135111904Y-50550476D01*
X135159523Y-50455238D01*
X135254761Y-50360000D01*
X135397619Y-50312380D01*
X135492857Y-50312380D01*
X135635714Y-50360000D01*
X135683333Y-50407619D01*
X136064285Y-50407619D02*
X136111904Y-50360000D01*
X136207142Y-50312380D01*
X136445238Y-50312380D01*
X136540476Y-50360000D01*
X136588095Y-50407619D01*
X136635714Y-50502857D01*
X136635714Y-50598095D01*
X136588095Y-50740952D01*
X136016666Y-51312380D01*
X136635714Y-51312380D01*
X144653333Y-58717142D02*
X144605714Y-58764761D01*
X144462857Y-58812380D01*
X144367619Y-58812380D01*
X144224761Y-58764761D01*
X144129523Y-58669523D01*
X144081904Y-58574285D01*
X144034285Y-58383809D01*
X144034285Y-58240952D01*
X144081904Y-58050476D01*
X144129523Y-57955238D01*
X144224761Y-57860000D01*
X144367619Y-57812380D01*
X144462857Y-57812380D01*
X144605714Y-57860000D01*
X144653333Y-57907619D01*
X145605714Y-58812380D02*
X145034285Y-58812380D01*
X145320000Y-58812380D02*
X145320000Y-57812380D01*
X145224761Y-57955238D01*
X145129523Y-58050476D01*
X145034285Y-58098095D01*
X124478847Y-113281571D02*
X124621704Y-113329190D01*
X124669323Y-113376809D01*
X124716942Y-113472047D01*
X124716942Y-113614904D01*
X124669323Y-113710142D01*
X124621704Y-113757761D01*
X124526466Y-113805380D01*
X124145514Y-113805380D01*
X124145514Y-112805380D01*
X124478847Y-112805380D01*
X124574085Y-112853000D01*
X124621704Y-112900619D01*
X124669323Y-112995857D01*
X124669323Y-113091095D01*
X124621704Y-113186333D01*
X124574085Y-113233952D01*
X124478847Y-113281571D01*
X124145514Y-113281571D01*
X125050276Y-112805380D02*
X125716942Y-112805380D01*
X125050276Y-113805380D01*
X125716942Y-113805380D01*
X126621704Y-113805380D02*
X126050276Y-113805380D01*
X126335990Y-113805380D02*
X126335990Y-112805380D01*
X126240752Y-112948238D01*
X126145514Y-113043476D01*
X126050276Y-113091095D01*
D13*
X116144523Y-76169761D02*
X114874523Y-76169761D01*
X116023571Y-74839285D02*
X116084047Y-74899761D01*
X116144523Y-75081190D01*
X116144523Y-75202142D01*
X116084047Y-75383571D01*
X115963095Y-75504523D01*
X115842142Y-75565000D01*
X115600238Y-75625476D01*
X115418809Y-75625476D01*
X115176904Y-75565000D01*
X115055952Y-75504523D01*
X114935000Y-75383571D01*
X114874523Y-75202142D01*
X114874523Y-75081190D01*
X114935000Y-74899761D01*
X114995476Y-74839285D01*
X116144523Y-73629761D02*
X116144523Y-74355476D01*
X116144523Y-73992619D02*
X114874523Y-73992619D01*
X115055952Y-74113571D01*
X115176904Y-74234523D01*
X115237380Y-74355476D01*
D14*
X148494761Y-85647619D02*
X148399523Y-85600000D01*
X148304285Y-85504761D01*
X148161428Y-85361904D01*
X148066190Y-85314285D01*
X147970952Y-85314285D01*
X148018571Y-85552380D02*
X147923333Y-85504761D01*
X147828095Y-85409523D01*
X147780476Y-85219047D01*
X147780476Y-84885714D01*
X147828095Y-84695238D01*
X147923333Y-84600000D01*
X148018571Y-84552380D01*
X148209047Y-84552380D01*
X148304285Y-84600000D01*
X148399523Y-84695238D01*
X148447142Y-84885714D01*
X148447142Y-85219047D01*
X148399523Y-85409523D01*
X148304285Y-85504761D01*
X148209047Y-85552380D01*
X148018571Y-85552380D01*
X149399523Y-85552380D02*
X148828095Y-85552380D01*
X149113809Y-85552380D02*
X149113809Y-84552380D01*
X149018571Y-84695238D01*
X148923333Y-84790476D01*
X148828095Y-84838095D01*
X126269761Y-105801219D02*
X126174523Y-105753600D01*
X126079285Y-105658361D01*
X125936428Y-105515504D01*
X125841190Y-105467885D01*
X125745952Y-105467885D01*
X125793571Y-105705980D02*
X125698333Y-105658361D01*
X125603095Y-105563123D01*
X125555476Y-105372647D01*
X125555476Y-105039314D01*
X125603095Y-104848838D01*
X125698333Y-104753600D01*
X125793571Y-104705980D01*
X125984047Y-104705980D01*
X126079285Y-104753600D01*
X126174523Y-104848838D01*
X126222142Y-105039314D01*
X126222142Y-105372647D01*
X126174523Y-105563123D01*
X126079285Y-105658361D01*
X125984047Y-105705980D01*
X125793571Y-105705980D01*
X126603095Y-104801219D02*
X126650714Y-104753600D01*
X126745952Y-104705980D01*
X126984047Y-104705980D01*
X127079285Y-104753600D01*
X127126904Y-104801219D01*
X127174523Y-104896457D01*
X127174523Y-104991695D01*
X127126904Y-105134552D01*
X126555476Y-105705980D01*
X127174523Y-105705980D01*
X123683733Y-107013180D02*
X123350400Y-106536990D01*
X123112304Y-107013180D02*
X123112304Y-106013180D01*
X123493257Y-106013180D01*
X123588495Y-106060800D01*
X123636114Y-106108419D01*
X123683733Y-106203657D01*
X123683733Y-106346514D01*
X123636114Y-106441752D01*
X123588495Y-106489371D01*
X123493257Y-106536990D01*
X123112304Y-106536990D01*
X124064685Y-106108419D02*
X124112304Y-106060800D01*
X124207542Y-106013180D01*
X124445638Y-106013180D01*
X124540876Y-106060800D01*
X124588495Y-106108419D01*
X124636114Y-106203657D01*
X124636114Y-106298895D01*
X124588495Y-106441752D01*
X124017066Y-107013180D01*
X124636114Y-107013180D01*
X125918933Y-127622380D02*
X125585600Y-127146190D01*
X125347504Y-127622380D02*
X125347504Y-126622380D01*
X125728457Y-126622380D01*
X125823695Y-126670000D01*
X125871314Y-126717619D01*
X125918933Y-126812857D01*
X125918933Y-126955714D01*
X125871314Y-127050952D01*
X125823695Y-127098571D01*
X125728457Y-127146190D01*
X125347504Y-127146190D01*
X126776076Y-126622380D02*
X126585600Y-126622380D01*
X126490361Y-126670000D01*
X126442742Y-126717619D01*
X126347504Y-126860476D01*
X126299885Y-127050952D01*
X126299885Y-127431904D01*
X126347504Y-127527142D01*
X126395123Y-127574761D01*
X126490361Y-127622380D01*
X126680838Y-127622380D01*
X126776076Y-127574761D01*
X126823695Y-127527142D01*
X126871314Y-127431904D01*
X126871314Y-127193809D01*
X126823695Y-127098571D01*
X126776076Y-127050952D01*
X126680838Y-127003333D01*
X126490361Y-127003333D01*
X126395123Y-127050952D01*
X126347504Y-127098571D01*
X126299885Y-127193809D01*
X99788361Y-48628133D02*
X99835980Y-48485276D01*
X99835980Y-48247180D01*
X99788361Y-48151942D01*
X99740742Y-48104323D01*
X99645504Y-48056704D01*
X99550266Y-48056704D01*
X99455028Y-48104323D01*
X99407409Y-48151942D01*
X99359790Y-48247180D01*
X99312171Y-48437657D01*
X99264552Y-48532895D01*
X99216933Y-48580514D01*
X99121695Y-48628133D01*
X99026457Y-48628133D01*
X98931219Y-48580514D01*
X98883600Y-48532895D01*
X98835980Y-48437657D01*
X98835980Y-48199561D01*
X98883600Y-48056704D01*
X98835980Y-47723371D02*
X99835980Y-47485276D01*
X99121695Y-47294800D01*
X99835980Y-47104323D01*
X98835980Y-46866228D01*
X98931219Y-46532895D02*
X98883600Y-46485276D01*
X98835980Y-46390038D01*
X98835980Y-46151942D01*
X98883600Y-46056704D01*
X98931219Y-46009085D01*
X99026457Y-45961466D01*
X99121695Y-45961466D01*
X99264552Y-46009085D01*
X99835980Y-46580514D01*
X99835980Y-45961466D01*
M02*
