G04 #@! TF.GenerationSoftware,KiCad,Pcbnew,(5.1.4)-1*
G04 #@! TF.CreationDate,2019-12-24T21:59:19-05:00*
G04 #@! TF.ProjectId,LightSensor,4c696768-7453-4656-9e73-6f722e6b6963,rev?*
G04 #@! TF.SameCoordinates,Original*
G04 #@! TF.FileFunction,Legend,Top*
G04 #@! TF.FilePolarity,Positive*
%FSLAX46Y46*%
G04 Gerber Fmt 4.6, Leading zero omitted, Abs format (unit mm)*
G04 Created by KiCad (PCBNEW (5.1.4)-1) date 2019-12-24 21:59:19*
%MOMM*%
%LPD*%
G04 APERTURE LIST*
%ADD10C,0.120000*%
%ADD11C,0.150000*%
G04 APERTURE END LIST*
D10*
X430840000Y51720000D02*
X430840000Y60040000D01*
X425740000Y51720000D02*
X425740000Y60040000D01*
X424620000Y51720000D02*
X424620000Y60040000D01*
X431360000Y51720000D02*
X431360000Y60040000D01*
X424620000Y51720000D02*
X431360000Y51720000D01*
X424620000Y60040000D02*
X431360000Y60040000D01*
X430960000Y51480000D02*
X431600000Y51480000D01*
X431600000Y51480000D02*
X431600000Y51880000D01*
X449546000Y57440000D02*
X449390000Y57440000D01*
X447230000Y57440000D02*
X447074000Y57440000D01*
X449388608Y54207665D02*
G75*
G03X449545516Y57440000I-1078608J1672335D01*
G01*
X447231392Y54207665D02*
G75*
G02X447074484Y57440000I1078608J1672335D01*
G01*
X449389837Y54838870D02*
G75*
G03X449390000Y56920961I-1079837J1041130D01*
G01*
X447230163Y54838870D02*
G75*
G02X447230000Y56920961I1079837J1041130D01*
G01*
X436150000Y59460000D02*
X436150000Y59790000D01*
X436150000Y59790000D02*
X442690000Y59790000D01*
X442690000Y59790000D02*
X442690000Y59460000D01*
X436150000Y57380000D02*
X436150000Y57050000D01*
X436150000Y57050000D02*
X442690000Y57050000D01*
X442690000Y57050000D02*
X442690000Y57380000D01*
X442690000Y51970000D02*
X442690000Y52300000D01*
X436150000Y51970000D02*
X442690000Y51970000D01*
X436150000Y52300000D02*
X436150000Y51970000D01*
X442690000Y54710000D02*
X442690000Y54380000D01*
X436150000Y54710000D02*
X442690000Y54710000D01*
X436150000Y54380000D02*
X436150000Y54710000D01*
D11*
X423072380Y55546666D02*
X423786666Y55546666D01*
X423929523Y55499047D01*
X424024761Y55403809D01*
X424072380Y55260952D01*
X424072380Y55165714D01*
X424072380Y56546666D02*
X424072380Y55975238D01*
X424072380Y56260952D02*
X423072380Y56260952D01*
X423215238Y56165714D01*
X423310476Y56070476D01*
X423358095Y55975238D01*
X451817619Y55784761D02*
X451770000Y55689523D01*
X451674761Y55594285D01*
X451531904Y55451428D01*
X451484285Y55356190D01*
X451484285Y55260952D01*
X451722380Y55308571D02*
X451674761Y55213333D01*
X451579523Y55118095D01*
X451389047Y55070476D01*
X451055714Y55070476D01*
X450865238Y55118095D01*
X450770000Y55213333D01*
X450722380Y55308571D01*
X450722380Y55499047D01*
X450770000Y55594285D01*
X450865238Y55689523D01*
X451055714Y55737142D01*
X451389047Y55737142D01*
X451579523Y55689523D01*
X451674761Y55594285D01*
X451722380Y55499047D01*
X451722380Y55308571D01*
X451722380Y56689523D02*
X451722380Y56118095D01*
X451722380Y56403809D02*
X450722380Y56403809D01*
X450865238Y56308571D01*
X450960476Y56213333D01*
X451008095Y56118095D01*
X439253333Y60337619D02*
X438920000Y60813809D01*
X438681904Y60337619D02*
X438681904Y61337619D01*
X439062857Y61337619D01*
X439158095Y61290000D01*
X439205714Y61242380D01*
X439253333Y61147142D01*
X439253333Y61004285D01*
X439205714Y60909047D01*
X439158095Y60861428D01*
X439062857Y60813809D01*
X438681904Y60813809D01*
X440205714Y60337619D02*
X439634285Y60337619D01*
X439920000Y60337619D02*
X439920000Y61337619D01*
X439824761Y61194761D01*
X439729523Y61099523D01*
X439634285Y61051904D01*
X439253333Y55257619D02*
X438920000Y55733809D01*
X438681904Y55257619D02*
X438681904Y56257619D01*
X439062857Y56257619D01*
X439158095Y56210000D01*
X439205714Y56162380D01*
X439253333Y56067142D01*
X439253333Y55924285D01*
X439205714Y55829047D01*
X439158095Y55781428D01*
X439062857Y55733809D01*
X438681904Y55733809D01*
X439634285Y56162380D02*
X439681904Y56210000D01*
X439777142Y56257619D01*
X440015238Y56257619D01*
X440110476Y56210000D01*
X440158095Y56162380D01*
X440205714Y56067142D01*
X440205714Y55971904D01*
X440158095Y55829047D01*
X439586666Y55257619D01*
X440205714Y55257619D01*
M02*
