G04 #@! TF.GenerationSoftware,KiCad,Pcbnew,(5.1.4)-1*
G04 #@! TF.CreationDate,2020-04-20T12:39:18-04:00*
G04 #@! TF.ProjectId,LightSensor2,4c696768-7453-4656-9e73-6f72322e6b69,rev?*
G04 #@! TF.SameCoordinates,Original*
G04 #@! TF.FileFunction,Copper,L2,Bot*
G04 #@! TF.FilePolarity,Positive*
%FSLAX46Y46*%
G04 Gerber Fmt 4.6, Leading zero omitted, Abs format (unit mm)*
G04 Created by KiCad (PCBNEW (5.1.4)-1) date 2020-04-20 12:39:18*
%MOMM*%
%LPD*%
G04 APERTURE LIST*
%ADD10O,1.600000X2.400000*%
%ADD11R,1.600000X2.400000*%
%ADD12C,2.100000*%
%ADD13R,2.100000X2.100000*%
%ADD14C,1.800000*%
%ADD15R,1.800000X1.800000*%
%ADD16O,1.600000X1.600000*%
%ADD17C,1.600000*%
%ADD18C,0.254000*%
G04 APERTURE END LIST*
D10*
X134620000Y203200000D03*
X142240000Y195580000D03*
X137160000Y203200000D03*
X139700000Y195580000D03*
X139700000Y203200000D03*
X137160000Y195580000D03*
X142240000Y203200000D03*
D11*
X134620000Y195580000D03*
D12*
X120650000Y196850000D03*
X120650000Y199390000D03*
D13*
X120650000Y201930000D03*
D14*
X152400000Y200660000D03*
D15*
X152400000Y198120000D03*
D16*
X128270000Y204470000D03*
D17*
X128270000Y194310000D03*
D18*
G36*
X126937818Y205021808D02*
G01*
X126855764Y204751309D01*
X126828057Y204470000D01*
X126855764Y204188691D01*
X126937818Y203918192D01*
X127071068Y203668899D01*
X127250392Y203450392D01*
X127468899Y203271068D01*
X127718192Y203137818D01*
X127988691Y203055764D01*
X128199508Y203035000D01*
X128340492Y203035000D01*
X128551309Y203055764D01*
X128821808Y203137818D01*
X129071101Y203271068D01*
X129289608Y203450392D01*
X129468932Y203668899D01*
X129469782Y203670491D01*
X133185000Y203670491D01*
X133185000Y202729508D01*
X133205764Y202518691D01*
X133287818Y202248192D01*
X133421068Y201998899D01*
X133600393Y201780392D01*
X133818900Y201601068D01*
X134068193Y201467818D01*
X134338692Y201385764D01*
X134620000Y201358057D01*
X134901309Y201385764D01*
X135171808Y201467818D01*
X135421101Y201601068D01*
X135639608Y201780392D01*
X135818932Y201998899D01*
X135890000Y202131858D01*
X135961068Y201998899D01*
X136140393Y201780392D01*
X136358900Y201601068D01*
X136608193Y201467818D01*
X136878692Y201385764D01*
X137160000Y201358057D01*
X137441309Y201385764D01*
X137711808Y201467818D01*
X137961101Y201601068D01*
X138179608Y201780392D01*
X138358932Y201998899D01*
X138430000Y202131858D01*
X138501068Y201998899D01*
X138680393Y201780392D01*
X138898900Y201601068D01*
X139148193Y201467818D01*
X139418692Y201385764D01*
X139700000Y201358057D01*
X139981309Y201385764D01*
X140251808Y201467818D01*
X140501101Y201601068D01*
X140719608Y201780392D01*
X140898932Y201998899D01*
X140970000Y202131858D01*
X141041068Y201998899D01*
X141220393Y201780392D01*
X141438900Y201601068D01*
X141688193Y201467818D01*
X141958692Y201385764D01*
X142240000Y201358057D01*
X142521309Y201385764D01*
X142791808Y201467818D01*
X143041101Y201601068D01*
X143190991Y201724080D01*
X151515525Y201724080D01*
X152400000Y200839605D01*
X153284475Y201724080D01*
X153200792Y201978261D01*
X152928225Y202109158D01*
X152635358Y202184365D01*
X152333447Y202200991D01*
X152034093Y202158397D01*
X151748801Y202058222D01*
X151599208Y201978261D01*
X151515525Y201724080D01*
X143190991Y201724080D01*
X143259608Y201780392D01*
X143438932Y201998899D01*
X143572182Y202248192D01*
X143654236Y202518691D01*
X143675000Y202729509D01*
X143675000Y203670492D01*
X143654236Y203881309D01*
X143572182Y204151808D01*
X143438932Y204401101D01*
X143259607Y204619608D01*
X143041100Y204798932D01*
X142791807Y204932182D01*
X142521308Y205014236D01*
X142240000Y205041943D01*
X141958691Y205014236D01*
X141688192Y204932182D01*
X141438899Y204798932D01*
X141220392Y204619607D01*
X141041068Y204401100D01*
X140970000Y204268142D01*
X140898932Y204401101D01*
X140719607Y204619608D01*
X140501100Y204798932D01*
X140251807Y204932182D01*
X139981308Y205014236D01*
X139700000Y205041943D01*
X139418691Y205014236D01*
X139148192Y204932182D01*
X138898899Y204798932D01*
X138680392Y204619607D01*
X138501068Y204401100D01*
X138430000Y204268142D01*
X138358932Y204401101D01*
X138179607Y204619608D01*
X137961100Y204798932D01*
X137711807Y204932182D01*
X137441308Y205014236D01*
X137160000Y205041943D01*
X136878691Y205014236D01*
X136608192Y204932182D01*
X136358899Y204798932D01*
X136140392Y204619607D01*
X135961068Y204401100D01*
X135890000Y204268142D01*
X135818932Y204401101D01*
X135639607Y204619608D01*
X135421100Y204798932D01*
X135171807Y204932182D01*
X134901308Y205014236D01*
X134620000Y205041943D01*
X134338691Y205014236D01*
X134068192Y204932182D01*
X133818899Y204798932D01*
X133600392Y204619607D01*
X133421068Y204401100D01*
X133287818Y204151807D01*
X133205764Y203881308D01*
X133185000Y203670491D01*
X129469782Y203670491D01*
X129602182Y203918192D01*
X129684236Y204188691D01*
X129711943Y204470000D01*
X129684236Y204751309D01*
X129602182Y205021808D01*
X129571078Y205080000D01*
X156820000Y205080000D01*
X156820001Y192430000D01*
X116230000Y192430000D01*
X116230000Y194451335D01*
X126835000Y194451335D01*
X126835000Y194168665D01*
X126890147Y193891426D01*
X126998320Y193630273D01*
X127155363Y193395241D01*
X127355241Y193195363D01*
X127590273Y193038320D01*
X127851426Y192930147D01*
X128128665Y192875000D01*
X128411335Y192875000D01*
X128688574Y192930147D01*
X128949727Y193038320D01*
X129184759Y193195363D01*
X129384637Y193395241D01*
X129541680Y193630273D01*
X129649853Y193891426D01*
X129705000Y194168665D01*
X129705000Y194451335D01*
X129649853Y194728574D01*
X129541680Y194989727D01*
X129384637Y195224759D01*
X129184759Y195424637D01*
X128949727Y195581680D01*
X128688574Y195689853D01*
X128411335Y195745000D01*
X128128665Y195745000D01*
X127851426Y195689853D01*
X127590273Y195581680D01*
X127355241Y195424637D01*
X127155363Y195224759D01*
X126998320Y194989727D01*
X126890147Y194728574D01*
X126835000Y194451335D01*
X116230000Y194451335D01*
X116230000Y200880000D01*
X118961928Y200880000D01*
X118974188Y200755518D01*
X119010498Y200635820D01*
X119069463Y200525506D01*
X119148815Y200428815D01*
X119245506Y200349463D01*
X119259546Y200341958D01*
X119156772Y200188147D01*
X119029754Y199881496D01*
X118965000Y199555958D01*
X118965000Y199224042D01*
X119029754Y198898504D01*
X119156772Y198591853D01*
X119341175Y198315875D01*
X119537050Y198120000D01*
X119341175Y197924125D01*
X119156772Y197648147D01*
X119029754Y197341496D01*
X118965000Y197015958D01*
X118965000Y196684042D01*
X119029754Y196358504D01*
X119156772Y196051853D01*
X119341175Y195775875D01*
X119575875Y195541175D01*
X119851853Y195356772D01*
X120158504Y195229754D01*
X120484042Y195165000D01*
X120815958Y195165000D01*
X121141496Y195229754D01*
X121448147Y195356772D01*
X121724125Y195541175D01*
X121958825Y195775875D01*
X122143228Y196051853D01*
X122270246Y196358504D01*
X122335000Y196684042D01*
X122335000Y196780000D01*
X133181928Y196780000D01*
X133181928Y194380000D01*
X133194188Y194255518D01*
X133230498Y194135820D01*
X133289463Y194025506D01*
X133368815Y193928815D01*
X133465506Y193849463D01*
X133575820Y193790498D01*
X133695518Y193754188D01*
X133820000Y193741928D01*
X135420000Y193741928D01*
X135544482Y193754188D01*
X135664180Y193790498D01*
X135774494Y193849463D01*
X135871185Y193928815D01*
X135950537Y194025506D01*
X136009502Y194135820D01*
X136045812Y194255518D01*
X136047581Y194273483D01*
X136140393Y194160392D01*
X136358900Y193981068D01*
X136608193Y193847818D01*
X136878692Y193765764D01*
X137160000Y193738057D01*
X137441309Y193765764D01*
X137711808Y193847818D01*
X137961101Y193981068D01*
X138179608Y194160392D01*
X138358932Y194378899D01*
X138427265Y194506741D01*
X138577399Y194277161D01*
X138775105Y194075500D01*
X139008354Y193916285D01*
X139268182Y193805633D01*
X139350961Y193788096D01*
X139573000Y193910085D01*
X139573000Y195453000D01*
X139827000Y195453000D01*
X139827000Y193910085D01*
X140049039Y193788096D01*
X140131818Y193805633D01*
X140391646Y193916285D01*
X140624895Y194075500D01*
X140822601Y194277161D01*
X140970000Y194502559D01*
X141117399Y194277161D01*
X141315105Y194075500D01*
X141548354Y193916285D01*
X141808182Y193805633D01*
X141890961Y193788096D01*
X142113000Y193910085D01*
X142113000Y195453000D01*
X142367000Y195453000D01*
X142367000Y193910085D01*
X142589039Y193788096D01*
X142671818Y193805633D01*
X142931646Y193916285D01*
X143164895Y194075500D01*
X143362601Y194277161D01*
X143517166Y194513517D01*
X143622650Y194775486D01*
X143675000Y195053000D01*
X143675000Y195453000D01*
X142367000Y195453000D01*
X142113000Y195453000D01*
X139827000Y195453000D01*
X139573000Y195453000D01*
X139553000Y195453000D01*
X139553000Y195707000D01*
X139573000Y195707000D01*
X139573000Y197249915D01*
X139827000Y197249915D01*
X139827000Y195707000D01*
X142113000Y195707000D01*
X142113000Y197249915D01*
X142367000Y197249915D01*
X142367000Y195707000D01*
X143675000Y195707000D01*
X143675000Y196107000D01*
X143622650Y196384514D01*
X143517166Y196646483D01*
X143362601Y196882839D01*
X143164895Y197084500D01*
X142931646Y197243715D01*
X142671818Y197354367D01*
X142589039Y197371904D01*
X142367000Y197249915D01*
X142113000Y197249915D01*
X141890961Y197371904D01*
X141808182Y197354367D01*
X141548354Y197243715D01*
X141315105Y197084500D01*
X141117399Y196882839D01*
X140970000Y196657441D01*
X140822601Y196882839D01*
X140624895Y197084500D01*
X140391646Y197243715D01*
X140131818Y197354367D01*
X140049039Y197371904D01*
X139827000Y197249915D01*
X139573000Y197249915D01*
X139350961Y197371904D01*
X139268182Y197354367D01*
X139008354Y197243715D01*
X138775105Y197084500D01*
X138577399Y196882839D01*
X138427265Y196653259D01*
X138358932Y196781101D01*
X138179607Y196999608D01*
X137961100Y197178932D01*
X137711807Y197312182D01*
X137441308Y197394236D01*
X137160000Y197421943D01*
X136878691Y197394236D01*
X136608192Y197312182D01*
X136358899Y197178932D01*
X136140392Y196999607D01*
X136047581Y196886517D01*
X136045812Y196904482D01*
X136009502Y197024180D01*
X135950537Y197134494D01*
X135871185Y197231185D01*
X135774494Y197310537D01*
X135664180Y197369502D01*
X135544482Y197405812D01*
X135420000Y197418072D01*
X133820000Y197418072D01*
X133695518Y197405812D01*
X133575820Y197369502D01*
X133465506Y197310537D01*
X133368815Y197231185D01*
X133289463Y197134494D01*
X133230498Y197024180D01*
X133194188Y196904482D01*
X133181928Y196780000D01*
X122335000Y196780000D01*
X122335000Y197015958D01*
X122270246Y197341496D01*
X122143228Y197648147D01*
X121958825Y197924125D01*
X121762950Y198120000D01*
X121958825Y198315875D01*
X122143228Y198591853D01*
X122270246Y198898504D01*
X122335000Y199224042D01*
X122335000Y199555958D01*
X122270246Y199881496D01*
X122143228Y200188147D01*
X122040454Y200341958D01*
X122054494Y200349463D01*
X122151185Y200428815D01*
X122230537Y200525506D01*
X122266852Y200593447D01*
X150859009Y200593447D01*
X150901603Y200294093D01*
X151001778Y200008801D01*
X151081739Y199859208D01*
X151335918Y199775526D01*
X151219970Y199659578D01*
X151266735Y199612813D01*
X151255820Y199609502D01*
X151145506Y199550537D01*
X151048815Y199471185D01*
X150969463Y199374494D01*
X150910498Y199264180D01*
X150874188Y199144482D01*
X150861928Y199020000D01*
X150861928Y197220000D01*
X150874188Y197095518D01*
X150910498Y196975820D01*
X150969463Y196865506D01*
X151048815Y196768815D01*
X151145506Y196689463D01*
X151255820Y196630498D01*
X151375518Y196594188D01*
X151500000Y196581928D01*
X153300000Y196581928D01*
X153424482Y196594188D01*
X153544180Y196630498D01*
X153654494Y196689463D01*
X153751185Y196768815D01*
X153830537Y196865506D01*
X153889502Y196975820D01*
X153925812Y197095518D01*
X153938072Y197220000D01*
X153938072Y199020000D01*
X153925812Y199144482D01*
X153889502Y199264180D01*
X153830537Y199374494D01*
X153751185Y199471185D01*
X153654494Y199550537D01*
X153544180Y199609502D01*
X153533265Y199612813D01*
X153580030Y199659578D01*
X153464082Y199775526D01*
X153718261Y199859208D01*
X153849158Y200131775D01*
X153924365Y200424642D01*
X153940991Y200726553D01*
X153898397Y201025907D01*
X153798222Y201311199D01*
X153718261Y201460792D01*
X153464080Y201544475D01*
X152579605Y200660000D01*
X152593748Y200645858D01*
X152414143Y200466253D01*
X152400000Y200480395D01*
X152385858Y200466253D01*
X152206253Y200645858D01*
X152220395Y200660000D01*
X151335920Y201544475D01*
X151081739Y201460792D01*
X150950842Y201188225D01*
X150875635Y200895358D01*
X150859009Y200593447D01*
X122266852Y200593447D01*
X122289502Y200635820D01*
X122325812Y200755518D01*
X122338072Y200880000D01*
X122335000Y201644250D01*
X122176250Y201803000D01*
X120777000Y201803000D01*
X120777000Y201783000D01*
X120523000Y201783000D01*
X120523000Y201803000D01*
X119123750Y201803000D01*
X118965000Y201644250D01*
X118961928Y200880000D01*
X116230000Y200880000D01*
X116230000Y202980000D01*
X118961928Y202980000D01*
X118965000Y202215750D01*
X119123750Y202057000D01*
X120523000Y202057000D01*
X120523000Y203456250D01*
X120777000Y203456250D01*
X120777000Y202057000D01*
X122176250Y202057000D01*
X122335000Y202215750D01*
X122338072Y202980000D01*
X122325812Y203104482D01*
X122289502Y203224180D01*
X122230537Y203334494D01*
X122151185Y203431185D01*
X122054494Y203510537D01*
X121944180Y203569502D01*
X121824482Y203605812D01*
X121700000Y203618072D01*
X120935750Y203615000D01*
X120777000Y203456250D01*
X120523000Y203456250D01*
X120364250Y203615000D01*
X119600000Y203618072D01*
X119475518Y203605812D01*
X119355820Y203569502D01*
X119245506Y203510537D01*
X119148815Y203431185D01*
X119069463Y203334494D01*
X119010498Y203224180D01*
X118974188Y203104482D01*
X118961928Y202980000D01*
X116230000Y202980000D01*
X116230000Y205080000D01*
X126968922Y205080000D01*
X126937818Y205021808D01*
X126937818Y205021808D01*
G37*
X126937818Y205021808D02*
X126855764Y204751309D01*
X126828057Y204470000D01*
X126855764Y204188691D01*
X126937818Y203918192D01*
X127071068Y203668899D01*
X127250392Y203450392D01*
X127468899Y203271068D01*
X127718192Y203137818D01*
X127988691Y203055764D01*
X128199508Y203035000D01*
X128340492Y203035000D01*
X128551309Y203055764D01*
X128821808Y203137818D01*
X129071101Y203271068D01*
X129289608Y203450392D01*
X129468932Y203668899D01*
X129469782Y203670491D01*
X133185000Y203670491D01*
X133185000Y202729508D01*
X133205764Y202518691D01*
X133287818Y202248192D01*
X133421068Y201998899D01*
X133600393Y201780392D01*
X133818900Y201601068D01*
X134068193Y201467818D01*
X134338692Y201385764D01*
X134620000Y201358057D01*
X134901309Y201385764D01*
X135171808Y201467818D01*
X135421101Y201601068D01*
X135639608Y201780392D01*
X135818932Y201998899D01*
X135890000Y202131858D01*
X135961068Y201998899D01*
X136140393Y201780392D01*
X136358900Y201601068D01*
X136608193Y201467818D01*
X136878692Y201385764D01*
X137160000Y201358057D01*
X137441309Y201385764D01*
X137711808Y201467818D01*
X137961101Y201601068D01*
X138179608Y201780392D01*
X138358932Y201998899D01*
X138430000Y202131858D01*
X138501068Y201998899D01*
X138680393Y201780392D01*
X138898900Y201601068D01*
X139148193Y201467818D01*
X139418692Y201385764D01*
X139700000Y201358057D01*
X139981309Y201385764D01*
X140251808Y201467818D01*
X140501101Y201601068D01*
X140719608Y201780392D01*
X140898932Y201998899D01*
X140970000Y202131858D01*
X141041068Y201998899D01*
X141220393Y201780392D01*
X141438900Y201601068D01*
X141688193Y201467818D01*
X141958692Y201385764D01*
X142240000Y201358057D01*
X142521309Y201385764D01*
X142791808Y201467818D01*
X143041101Y201601068D01*
X143190991Y201724080D01*
X151515525Y201724080D01*
X152400000Y200839605D01*
X153284475Y201724080D01*
X153200792Y201978261D01*
X152928225Y202109158D01*
X152635358Y202184365D01*
X152333447Y202200991D01*
X152034093Y202158397D01*
X151748801Y202058222D01*
X151599208Y201978261D01*
X151515525Y201724080D01*
X143190991Y201724080D01*
X143259608Y201780392D01*
X143438932Y201998899D01*
X143572182Y202248192D01*
X143654236Y202518691D01*
X143675000Y202729509D01*
X143675000Y203670492D01*
X143654236Y203881309D01*
X143572182Y204151808D01*
X143438932Y204401101D01*
X143259607Y204619608D01*
X143041100Y204798932D01*
X142791807Y204932182D01*
X142521308Y205014236D01*
X142240000Y205041943D01*
X141958691Y205014236D01*
X141688192Y204932182D01*
X141438899Y204798932D01*
X141220392Y204619607D01*
X141041068Y204401100D01*
X140970000Y204268142D01*
X140898932Y204401101D01*
X140719607Y204619608D01*
X140501100Y204798932D01*
X140251807Y204932182D01*
X139981308Y205014236D01*
X139700000Y205041943D01*
X139418691Y205014236D01*
X139148192Y204932182D01*
X138898899Y204798932D01*
X138680392Y204619607D01*
X138501068Y204401100D01*
X138430000Y204268142D01*
X138358932Y204401101D01*
X138179607Y204619608D01*
X137961100Y204798932D01*
X137711807Y204932182D01*
X137441308Y205014236D01*
X137160000Y205041943D01*
X136878691Y205014236D01*
X136608192Y204932182D01*
X136358899Y204798932D01*
X136140392Y204619607D01*
X135961068Y204401100D01*
X135890000Y204268142D01*
X135818932Y204401101D01*
X135639607Y204619608D01*
X135421100Y204798932D01*
X135171807Y204932182D01*
X134901308Y205014236D01*
X134620000Y205041943D01*
X134338691Y205014236D01*
X134068192Y204932182D01*
X133818899Y204798932D01*
X133600392Y204619607D01*
X133421068Y204401100D01*
X133287818Y204151807D01*
X133205764Y203881308D01*
X133185000Y203670491D01*
X129469782Y203670491D01*
X129602182Y203918192D01*
X129684236Y204188691D01*
X129711943Y204470000D01*
X129684236Y204751309D01*
X129602182Y205021808D01*
X129571078Y205080000D01*
X156820000Y205080000D01*
X156820001Y192430000D01*
X116230000Y192430000D01*
X116230000Y194451335D01*
X126835000Y194451335D01*
X126835000Y194168665D01*
X126890147Y193891426D01*
X126998320Y193630273D01*
X127155363Y193395241D01*
X127355241Y193195363D01*
X127590273Y193038320D01*
X127851426Y192930147D01*
X128128665Y192875000D01*
X128411335Y192875000D01*
X128688574Y192930147D01*
X128949727Y193038320D01*
X129184759Y193195363D01*
X129384637Y193395241D01*
X129541680Y193630273D01*
X129649853Y193891426D01*
X129705000Y194168665D01*
X129705000Y194451335D01*
X129649853Y194728574D01*
X129541680Y194989727D01*
X129384637Y195224759D01*
X129184759Y195424637D01*
X128949727Y195581680D01*
X128688574Y195689853D01*
X128411335Y195745000D01*
X128128665Y195745000D01*
X127851426Y195689853D01*
X127590273Y195581680D01*
X127355241Y195424637D01*
X127155363Y195224759D01*
X126998320Y194989727D01*
X126890147Y194728574D01*
X126835000Y194451335D01*
X116230000Y194451335D01*
X116230000Y200880000D01*
X118961928Y200880000D01*
X118974188Y200755518D01*
X119010498Y200635820D01*
X119069463Y200525506D01*
X119148815Y200428815D01*
X119245506Y200349463D01*
X119259546Y200341958D01*
X119156772Y200188147D01*
X119029754Y199881496D01*
X118965000Y199555958D01*
X118965000Y199224042D01*
X119029754Y198898504D01*
X119156772Y198591853D01*
X119341175Y198315875D01*
X119537050Y198120000D01*
X119341175Y197924125D01*
X119156772Y197648147D01*
X119029754Y197341496D01*
X118965000Y197015958D01*
X118965000Y196684042D01*
X119029754Y196358504D01*
X119156772Y196051853D01*
X119341175Y195775875D01*
X119575875Y195541175D01*
X119851853Y195356772D01*
X120158504Y195229754D01*
X120484042Y195165000D01*
X120815958Y195165000D01*
X121141496Y195229754D01*
X121448147Y195356772D01*
X121724125Y195541175D01*
X121958825Y195775875D01*
X122143228Y196051853D01*
X122270246Y196358504D01*
X122335000Y196684042D01*
X122335000Y196780000D01*
X133181928Y196780000D01*
X133181928Y194380000D01*
X133194188Y194255518D01*
X133230498Y194135820D01*
X133289463Y194025506D01*
X133368815Y193928815D01*
X133465506Y193849463D01*
X133575820Y193790498D01*
X133695518Y193754188D01*
X133820000Y193741928D01*
X135420000Y193741928D01*
X135544482Y193754188D01*
X135664180Y193790498D01*
X135774494Y193849463D01*
X135871185Y193928815D01*
X135950537Y194025506D01*
X136009502Y194135820D01*
X136045812Y194255518D01*
X136047581Y194273483D01*
X136140393Y194160392D01*
X136358900Y193981068D01*
X136608193Y193847818D01*
X136878692Y193765764D01*
X137160000Y193738057D01*
X137441309Y193765764D01*
X137711808Y193847818D01*
X137961101Y193981068D01*
X138179608Y194160392D01*
X138358932Y194378899D01*
X138427265Y194506741D01*
X138577399Y194277161D01*
X138775105Y194075500D01*
X139008354Y193916285D01*
X139268182Y193805633D01*
X139350961Y193788096D01*
X139573000Y193910085D01*
X139573000Y195453000D01*
X139827000Y195453000D01*
X139827000Y193910085D01*
X140049039Y193788096D01*
X140131818Y193805633D01*
X140391646Y193916285D01*
X140624895Y194075500D01*
X140822601Y194277161D01*
X140970000Y194502559D01*
X141117399Y194277161D01*
X141315105Y194075500D01*
X141548354Y193916285D01*
X141808182Y193805633D01*
X141890961Y193788096D01*
X142113000Y193910085D01*
X142113000Y195453000D01*
X142367000Y195453000D01*
X142367000Y193910085D01*
X142589039Y193788096D01*
X142671818Y193805633D01*
X142931646Y193916285D01*
X143164895Y194075500D01*
X143362601Y194277161D01*
X143517166Y194513517D01*
X143622650Y194775486D01*
X143675000Y195053000D01*
X143675000Y195453000D01*
X142367000Y195453000D01*
X142113000Y195453000D01*
X139827000Y195453000D01*
X139573000Y195453000D01*
X139553000Y195453000D01*
X139553000Y195707000D01*
X139573000Y195707000D01*
X139573000Y197249915D01*
X139827000Y197249915D01*
X139827000Y195707000D01*
X142113000Y195707000D01*
X142113000Y197249915D01*
X142367000Y197249915D01*
X142367000Y195707000D01*
X143675000Y195707000D01*
X143675000Y196107000D01*
X143622650Y196384514D01*
X143517166Y196646483D01*
X143362601Y196882839D01*
X143164895Y197084500D01*
X142931646Y197243715D01*
X142671818Y197354367D01*
X142589039Y197371904D01*
X142367000Y197249915D01*
X142113000Y197249915D01*
X141890961Y197371904D01*
X141808182Y197354367D01*
X141548354Y197243715D01*
X141315105Y197084500D01*
X141117399Y196882839D01*
X140970000Y196657441D01*
X140822601Y196882839D01*
X140624895Y197084500D01*
X140391646Y197243715D01*
X140131818Y197354367D01*
X140049039Y197371904D01*
X139827000Y197249915D01*
X139573000Y197249915D01*
X139350961Y197371904D01*
X139268182Y197354367D01*
X139008354Y197243715D01*
X138775105Y197084500D01*
X138577399Y196882839D01*
X138427265Y196653259D01*
X138358932Y196781101D01*
X138179607Y196999608D01*
X137961100Y197178932D01*
X137711807Y197312182D01*
X137441308Y197394236D01*
X137160000Y197421943D01*
X136878691Y197394236D01*
X136608192Y197312182D01*
X136358899Y197178932D01*
X136140392Y196999607D01*
X136047581Y196886517D01*
X136045812Y196904482D01*
X136009502Y197024180D01*
X135950537Y197134494D01*
X135871185Y197231185D01*
X135774494Y197310537D01*
X135664180Y197369502D01*
X135544482Y197405812D01*
X135420000Y197418072D01*
X133820000Y197418072D01*
X133695518Y197405812D01*
X133575820Y197369502D01*
X133465506Y197310537D01*
X133368815Y197231185D01*
X133289463Y197134494D01*
X133230498Y197024180D01*
X133194188Y196904482D01*
X133181928Y196780000D01*
X122335000Y196780000D01*
X122335000Y197015958D01*
X122270246Y197341496D01*
X122143228Y197648147D01*
X121958825Y197924125D01*
X121762950Y198120000D01*
X121958825Y198315875D01*
X122143228Y198591853D01*
X122270246Y198898504D01*
X122335000Y199224042D01*
X122335000Y199555958D01*
X122270246Y199881496D01*
X122143228Y200188147D01*
X122040454Y200341958D01*
X122054494Y200349463D01*
X122151185Y200428815D01*
X122230537Y200525506D01*
X122266852Y200593447D01*
X150859009Y200593447D01*
X150901603Y200294093D01*
X151001778Y200008801D01*
X151081739Y199859208D01*
X151335918Y199775526D01*
X151219970Y199659578D01*
X151266735Y199612813D01*
X151255820Y199609502D01*
X151145506Y199550537D01*
X151048815Y199471185D01*
X150969463Y199374494D01*
X150910498Y199264180D01*
X150874188Y199144482D01*
X150861928Y199020000D01*
X150861928Y197220000D01*
X150874188Y197095518D01*
X150910498Y196975820D01*
X150969463Y196865506D01*
X151048815Y196768815D01*
X151145506Y196689463D01*
X151255820Y196630498D01*
X151375518Y196594188D01*
X151500000Y196581928D01*
X153300000Y196581928D01*
X153424482Y196594188D01*
X153544180Y196630498D01*
X153654494Y196689463D01*
X153751185Y196768815D01*
X153830537Y196865506D01*
X153889502Y196975820D01*
X153925812Y197095518D01*
X153938072Y197220000D01*
X153938072Y199020000D01*
X153925812Y199144482D01*
X153889502Y199264180D01*
X153830537Y199374494D01*
X153751185Y199471185D01*
X153654494Y199550537D01*
X153544180Y199609502D01*
X153533265Y199612813D01*
X153580030Y199659578D01*
X153464082Y199775526D01*
X153718261Y199859208D01*
X153849158Y200131775D01*
X153924365Y200424642D01*
X153940991Y200726553D01*
X153898397Y201025907D01*
X153798222Y201311199D01*
X153718261Y201460792D01*
X153464080Y201544475D01*
X152579605Y200660000D01*
X152593748Y200645858D01*
X152414143Y200466253D01*
X152400000Y200480395D01*
X152385858Y200466253D01*
X152206253Y200645858D01*
X152220395Y200660000D01*
X151335920Y201544475D01*
X151081739Y201460792D01*
X150950842Y201188225D01*
X150875635Y200895358D01*
X150859009Y200593447D01*
X122266852Y200593447D01*
X122289502Y200635820D01*
X122325812Y200755518D01*
X122338072Y200880000D01*
X122335000Y201644250D01*
X122176250Y201803000D01*
X120777000Y201803000D01*
X120777000Y201783000D01*
X120523000Y201783000D01*
X120523000Y201803000D01*
X119123750Y201803000D01*
X118965000Y201644250D01*
X118961928Y200880000D01*
X116230000Y200880000D01*
X116230000Y202980000D01*
X118961928Y202980000D01*
X118965000Y202215750D01*
X119123750Y202057000D01*
X120523000Y202057000D01*
X120523000Y203456250D01*
X120777000Y203456250D01*
X120777000Y202057000D01*
X122176250Y202057000D01*
X122335000Y202215750D01*
X122338072Y202980000D01*
X122325812Y203104482D01*
X122289502Y203224180D01*
X122230537Y203334494D01*
X122151185Y203431185D01*
X122054494Y203510537D01*
X121944180Y203569502D01*
X121824482Y203605812D01*
X121700000Y203618072D01*
X120935750Y203615000D01*
X120777000Y203456250D01*
X120523000Y203456250D01*
X120364250Y203615000D01*
X119600000Y203618072D01*
X119475518Y203605812D01*
X119355820Y203569502D01*
X119245506Y203510537D01*
X119148815Y203431185D01*
X119069463Y203334494D01*
X119010498Y203224180D01*
X118974188Y203104482D01*
X118961928Y202980000D01*
X116230000Y202980000D01*
X116230000Y205080000D01*
X126968922Y205080000D01*
X126937818Y205021808D01*
M02*
