G04 #@! TF.GenerationSoftware,KiCad,Pcbnew,(5.1.4)-1*
G04 #@! TF.CreationDate,2020-04-20T12:39:18-04:00*
G04 #@! TF.ProjectId,LightSensor2,4c696768-7453-4656-9e73-6f72322e6b69,rev?*
G04 #@! TF.SameCoordinates,Original*
G04 #@! TF.FileFunction,Copper,L1,Top*
G04 #@! TF.FilePolarity,Positive*
%FSLAX46Y46*%
G04 Gerber Fmt 4.6, Leading zero omitted, Abs format (unit mm)*
G04 Created by KiCad (PCBNEW (5.1.4)-1) date 2020-04-20 12:39:18*
%MOMM*%
%LPD*%
G04 APERTURE LIST*
%ADD10O,1.600000X2.400000*%
%ADD11R,1.600000X2.400000*%
%ADD12C,2.100000*%
%ADD13R,2.100000X2.100000*%
%ADD14C,1.800000*%
%ADD15R,1.800000X1.800000*%
%ADD16O,1.600000X1.600000*%
%ADD17C,1.600000*%
%ADD18C,0.250000*%
G04 APERTURE END LIST*
D10*
X134620000Y203200000D03*
X142240000Y195580000D03*
X137160000Y203200000D03*
X139700000Y195580000D03*
X139700000Y203200000D03*
X137160000Y195580000D03*
X142240000Y203200000D03*
D11*
X134620000Y195580000D03*
D12*
X120650000Y196850000D03*
X120650000Y199390000D03*
D13*
X120650000Y201930000D03*
D14*
X152400000Y200660000D03*
D15*
X152400000Y198120000D03*
D16*
X128270000Y204470000D03*
D17*
X128270000Y194310000D03*
D18*
X120650000Y199390000D02*
X124460000Y199390000D01*
X124460000Y200660000D02*
X128270000Y204470000D01*
X124460000Y199390000D02*
X124460000Y200660000D01*
X128270000Y204470000D02*
X130810000Y204470000D01*
X139700000Y203600000D02*
X139700000Y203200000D01*
X138574990Y204725010D02*
X139700000Y203600000D01*
X130810000Y204470000D02*
X131729990Y205389990D01*
X138574990Y204725010D02*
X138174990Y204725010D01*
X137510010Y205389990D02*
X131729990Y205389990D01*
X138174990Y204725010D02*
X137510010Y205389990D01*
X128270000Y194310000D02*
X129540000Y194310000D01*
X129540000Y194310000D02*
X130810000Y193040000D01*
X137160000Y195180000D02*
X137160000Y195580000D01*
X135020000Y193040000D02*
X137160000Y195180000D01*
X130810000Y193040000D02*
X135020000Y193040000D01*
X137160000Y195180000D02*
X138430000Y193910000D01*
X145650000Y193910000D02*
X150730000Y193910000D01*
X145650000Y193910000D02*
X146450000Y193910000D01*
X138430000Y193910000D02*
X145650000Y193910000D01*
X152400000Y195580000D02*
X152400000Y198120000D01*
X150730000Y193910000D02*
X152400000Y195580000D01*
X139700000Y195580000D02*
X142240000Y195580000D01*
X142240000Y195580000D02*
X142240000Y195980000D01*
X142240000Y195580000D02*
X144780000Y195580000D01*
X149860000Y200660000D02*
X152400000Y200660000D01*
X144780000Y195580000D02*
X149860000Y200660000D01*
X137160000Y201750000D02*
X137160000Y203200000D01*
X132260000Y196850000D02*
X137160000Y201750000D01*
X120650000Y196850000D02*
X132260000Y196850000D01*
M02*
