G04 #@! TF.GenerationSoftware,KiCad,Pcbnew,(5.1.4)-1*
G04 #@! TF.CreationDate,2020-12-23T09:12:06-05:00*
G04 #@! TF.ProjectId,CameraTriggerR3SMD,43616d65-7261-4547-9269-676765725233,rev?*
G04 #@! TF.SameCoordinates,Original*
G04 #@! TF.FileFunction,Copper,L4,Bot*
G04 #@! TF.FilePolarity,Positive*
%FSLAX46Y46*%
G04 Gerber Fmt 4.6, Leading zero omitted, Abs format (unit mm)*
G04 Created by KiCad (PCBNEW (5.1.4)-1) date 2020-12-23 09:12:06*
%MOMM*%
%LPD*%
G04 APERTURE LIST*
%ADD10O,1.208000X2.416000*%
%ADD11O,2.416000X1.208000*%
%ADD12C,2.800000*%
%ADD13O,1.600000X1.600000*%
%ADD14R,1.600000X1.600000*%
%ADD15C,1.350000*%
%ADD16R,1.350000X1.350000*%
%ADD17C,1.778000*%
%ADD18O,2.200000X3.500000*%
%ADD19O,1.500000X2.500000*%
%ADD20R,1.500000X2.500000*%
%ADD21O,1.800000X1.150000*%
%ADD22O,2.000000X1.450000*%
%ADD23C,4.000000*%
%ADD24R,3.800000X3.800000*%
%ADD25R,1.500000X5.080000*%
%ADD26C,2.100000*%
%ADD27R,2.100000X2.100000*%
%ADD28C,2.900000*%
%ADD29C,3.400000*%
%ADD30C,0.800000*%
%ADD31C,6.400000*%
%ADD32C,2.000000*%
%ADD33R,2.000000X2.000000*%
%ADD34C,0.250000*%
%ADD35C,0.762000*%
G04 APERTURE END LIST*
D10*
X92012680Y-11135360D03*
D11*
X94012680Y-12985360D03*
X94012680Y-9285360D03*
D10*
X98912680Y-11135360D03*
D12*
X89971280Y-24225000D03*
X95471280Y-24225000D03*
X97871280Y-22225000D03*
D13*
X26670000Y-95072200D03*
D14*
X34290000Y-95072200D03*
D15*
X36017200Y-12384200D03*
X38017200Y-12384200D03*
X40017200Y-12384200D03*
X42017200Y-12384200D03*
X44017200Y-12384200D03*
X46017200Y-12384200D03*
X48017200Y-12384200D03*
X50017200Y-12384200D03*
X50017200Y-25984200D03*
X48017200Y-25984200D03*
X46017200Y-25984200D03*
X44017200Y-25984200D03*
X42017200Y-25984200D03*
X40017200Y-25984200D03*
X38017200Y-25984200D03*
D16*
X36017200Y-25984200D03*
D17*
X19050000Y-32588200D03*
X19050000Y-30048200D03*
X19050000Y-27508200D03*
X11430000Y-27508200D03*
X11430000Y-32588200D03*
X11236960Y-18719800D03*
X11236960Y-21259800D03*
X11236960Y-23799800D03*
X18856960Y-23799800D03*
X18856960Y-18719800D03*
X18796000Y-15377160D03*
X18796000Y-12837160D03*
X18796000Y-10297160D03*
X11176000Y-10297160D03*
X11176000Y-15377160D03*
D18*
X97987040Y-75534520D03*
X89787040Y-75534520D03*
D19*
X95887040Y-75534520D03*
X93887040Y-75534520D03*
D20*
X91887040Y-75534520D03*
D21*
X5736040Y-44774080D03*
X5736040Y-37024080D03*
D22*
X9536040Y-44624080D03*
X9536040Y-37174080D03*
D23*
X41817280Y-95448120D03*
D24*
X46817280Y-95448120D03*
D25*
X45747360Y-3606800D03*
X54247360Y-3606800D03*
D26*
X4729480Y-22352000D03*
D27*
X4729480Y-19812000D03*
D26*
X4688840Y-13893800D03*
D27*
X4688840Y-11353800D03*
D26*
X57287160Y-94681040D03*
D27*
X54747160Y-94681040D03*
D26*
X89590880Y-95879920D03*
X87050880Y-95879920D03*
D27*
X84510880Y-95879920D03*
D28*
X87086440Y-53761560D03*
D29*
X82006440Y-50591560D03*
X82006440Y-64551560D03*
D28*
X87086440Y-61381560D03*
X87086440Y-57571560D03*
X82006440Y-57571560D03*
D26*
X76601320Y-95570040D03*
D27*
X74061320Y-95570040D03*
D26*
X96631760Y-83027520D03*
X96631760Y-85567520D03*
D27*
X96631760Y-88107520D03*
D10*
X92170160Y-41239440D03*
D11*
X94170160Y-43089440D03*
X94170160Y-39389440D03*
D10*
X99070160Y-41239440D03*
D12*
X91038080Y-34410400D03*
X96538080Y-34410400D03*
X98938080Y-32410400D03*
D30*
X7107256Y-92415024D03*
X5410200Y-91712080D03*
X3713144Y-92415024D03*
X3010200Y-94112080D03*
X3713144Y-95809136D03*
X5410200Y-96512080D03*
X7107256Y-95809136D03*
X7810200Y-94112080D03*
D31*
X5410200Y-94112080D03*
D30*
X6736416Y-2265344D03*
X5039360Y-1562400D03*
X3342304Y-2265344D03*
X2639360Y-3962400D03*
X3342304Y-5659456D03*
X5039360Y-6362400D03*
X6736416Y-5659456D03*
X7439360Y-3962400D03*
D31*
X5039360Y-3962400D03*
D30*
X98176416Y-1955464D03*
X96479360Y-1252520D03*
X94782304Y-1955464D03*
X94079360Y-3652520D03*
X94782304Y-5349576D03*
X96479360Y-6052520D03*
X98176416Y-5349576D03*
X98879360Y-3652520D03*
D31*
X96479360Y-3652520D03*
D30*
X97409336Y-93471664D03*
X95712280Y-92768720D03*
X94015224Y-93471664D03*
X93312280Y-95168720D03*
X94015224Y-96865776D03*
X95712280Y-97568720D03*
X97409336Y-96865776D03*
X98112280Y-95168720D03*
D31*
X95712280Y-95168720D03*
D32*
X19503400Y-87086440D03*
D33*
X14503400Y-87086440D03*
D30*
X57993280Y-54137560D03*
X42052240Y-9850120D03*
X14081760Y-78734920D03*
X23733760Y-95117920D03*
X5125280Y-66015040D03*
X13759040Y-57330480D03*
X14056360Y-59649360D03*
X1468120Y-47970440D03*
X41525770Y-57894910D03*
X38201600Y-54503320D03*
X55173880Y-62478920D03*
X56200040Y-54213760D03*
X81037720Y-3466120D03*
X53273960Y-45999400D03*
X40233600Y-43596560D03*
X13164960Y-61693920D03*
X63658680Y-84994680D03*
X63007240Y-93400880D03*
X64536320Y-87315040D03*
X63492380Y-86271100D03*
X61539120Y-33045400D03*
X67670680Y-2301240D03*
X55900320Y-3627120D03*
X81003000Y-4666120D03*
X49997360Y-28839160D03*
X36001960Y-28905200D03*
X48017200Y-9844000D03*
X15336520Y-72486520D03*
X23713440Y-96596200D03*
X91709240Y-80385920D03*
X84571840Y-82372200D03*
X91572080Y-88712040D03*
X80639920Y-82443320D03*
X4760400Y-70515040D03*
X54279800Y-8509000D03*
X45755560Y-7879080D03*
X43423840Y-3637280D03*
X38618160Y-4663440D03*
X72110600Y-89291160D03*
X71135240Y-93715840D03*
X11120120Y-56311800D03*
X1508760Y-49265840D03*
X1564640Y-50459640D03*
X1452880Y-53152040D03*
X42985320Y-65056120D03*
X60182760Y-47142400D03*
X56474360Y-62163960D03*
X53654960Y-62006480D03*
X54955440Y-54168040D03*
X84475320Y-11927840D03*
X71810880Y-22519640D03*
X47254160Y-57429400D03*
X34706560Y-54899560D03*
X46908720Y-76611480D03*
X37668200Y-77525880D03*
X48285400Y-83804760D03*
X52308760Y-82732880D03*
X53784500Y-80652620D03*
X62946280Y-79679800D03*
X42377360Y-36779200D03*
X36901120Y-42605960D03*
X30307280Y-90858720D03*
X71719440Y-38003480D03*
X77957680Y-50591720D03*
X57576720Y-3606800D03*
X59496960Y-3606800D03*
X61153040Y-3606800D03*
X42303060Y-2690500D03*
X40680640Y-2209800D03*
X39126160Y-2209800D03*
X37531040Y-2209800D03*
X12761440Y-42199080D03*
X59811920Y-7659360D03*
X48407320Y-62641480D03*
X47858680Y-63926720D03*
X47058580Y-64726820D03*
X45648880Y-65191640D03*
X44211240Y-65191640D03*
X41803320Y-64978280D03*
X40706040Y-64734440D03*
X40027860Y-64056260D03*
X39380160Y-62961520D03*
X39410640Y-61483240D03*
X40433665Y-61058465D03*
X41378545Y-60113585D03*
X42321480Y-59623960D03*
X60121800Y-35036760D03*
X21701760Y-52445920D03*
X16068040Y-51318160D03*
X68732400Y-64089280D03*
X73482200Y-67284600D03*
X89976960Y-80573880D03*
X69143880Y-65948560D03*
X74581231Y-64551560D03*
X66354960Y-64612520D03*
X66403220Y-47795180D03*
X83098640Y-81097120D03*
X30952440Y-51038760D03*
X25435560Y-27315160D03*
X31765240Y-49646840D03*
X29443680Y-36743640D03*
X33207960Y-48249840D03*
X30896560Y-38404800D03*
X49743360Y-66222880D03*
X16865600Y-58907680D03*
X84348320Y-28585160D03*
X87503000Y-32517080D03*
X88493600Y-36113720D03*
X90200480Y-40599360D03*
X92806520Y-29966920D03*
X83309460Y-38483540D03*
X82077560Y-27213560D03*
X82428080Y-32400240D03*
X97871280Y-22225000D03*
X97871280Y-18262600D03*
X19319240Y-59979560D03*
X15712440Y-59893200D03*
X36398200Y-33304480D03*
X45664120Y-33594040D03*
X46725840Y-31409640D03*
X34630360Y-31653480D03*
X54117240Y-48808640D03*
X36804600Y-64622680D03*
X49641760Y-83118960D03*
X49611280Y-86121240D03*
X16951960Y-56499760D03*
X10591800Y-62738000D03*
X37802530Y-49577970D03*
X27101800Y-50474880D03*
X53578760Y-28676600D03*
X46263560Y-41153080D03*
X53883560Y-35524440D03*
X50515520Y-32461200D03*
X52699920Y-37322760D03*
X48199040Y-33655000D03*
X41799960Y-47602960D03*
X41010840Y-34980880D03*
X35387280Y-47675800D03*
X38354000Y-34777680D03*
X37078920Y-47818040D03*
X34122360Y-42717720D03*
X73853040Y-10652760D03*
X68686680Y-12039600D03*
X48746480Y-54118440D03*
D34*
X64536320Y-91871800D02*
X64536320Y-87315040D01*
X63007240Y-93400880D02*
X64536320Y-91871800D01*
D35*
X55759360Y-3606800D02*
X59811920Y-7659360D01*
X54247360Y-3606800D02*
X55759360Y-3606800D01*
X41583600Y-955040D02*
X37282120Y-955040D01*
X37282120Y-955040D02*
X34874200Y-3362960D01*
X59811920Y-7659360D02*
X59811920Y-7659360D01*
X41583600Y-1971040D02*
X42580560Y-2968000D01*
X41583600Y-955040D02*
X41583600Y-1971040D01*
X42754560Y-2968000D02*
X43423840Y-3637280D01*
X42580560Y-2968000D02*
X42754560Y-2968000D01*
X43454320Y-3606800D02*
X43423840Y-3637280D01*
X45747360Y-3606800D02*
X43454320Y-3606800D01*
D34*
X73082201Y-66884601D02*
X71786801Y-66884601D01*
X73482200Y-67284600D02*
X73082201Y-66884601D01*
X71786801Y-66884601D02*
X69382640Y-64480440D01*
X69132399Y-64489279D02*
X68732400Y-64089280D01*
X69373801Y-64489279D02*
X69132399Y-64489279D01*
X69382640Y-64480440D02*
X69373801Y-64489279D01*
X69543879Y-66348559D02*
X70011239Y-66348559D01*
X69143880Y-65948560D02*
X69543879Y-66348559D01*
X70011239Y-66348559D02*
X72278240Y-68615560D01*
X72278240Y-68615560D02*
X74112120Y-68615560D01*
X89976960Y-80573880D02*
X85303360Y-80573880D01*
X85303360Y-80573880D02*
X83825080Y-82052160D01*
X74112120Y-73183602D02*
X74112120Y-68615560D01*
X82980678Y-82052160D02*
X74112120Y-73183602D01*
X83825080Y-82052160D02*
X82980678Y-82052160D01*
X66354960Y-64612520D02*
X68056760Y-62910720D01*
X68056760Y-62910720D02*
X73314560Y-62910720D01*
X73314560Y-63284889D02*
X74581231Y-64551560D01*
X73314560Y-62910720D02*
X73314560Y-63284889D01*
X68056760Y-62910720D02*
X68056760Y-50241200D01*
X66403220Y-48587660D02*
X66403220Y-47795180D01*
X68056760Y-50241200D02*
X66403220Y-48587660D01*
X83498639Y-80697121D02*
X83498639Y-73635921D01*
X83098640Y-81097120D02*
X83498639Y-80697121D01*
X87086440Y-70048120D02*
X87086440Y-61381560D01*
X83498639Y-73635921D02*
X87086440Y-70048120D01*
X30386755Y-51038760D02*
X27802840Y-48454845D01*
X30952440Y-51038760D02*
X30386755Y-51038760D01*
X27802840Y-29682440D02*
X25435560Y-27315160D01*
X27802840Y-48454845D02*
X27802840Y-29682440D01*
X29443680Y-37309325D02*
X29443680Y-36743640D01*
X29443680Y-40031810D02*
X29443680Y-37309325D01*
X31365241Y-41953371D02*
X29443680Y-40031810D01*
X31365241Y-49246841D02*
X31365241Y-41953371D01*
X31765240Y-49646840D02*
X31365241Y-49246841D01*
X30896560Y-38404800D02*
X30896560Y-40848280D01*
X30896560Y-40848280D02*
X32679640Y-42631360D01*
X32679640Y-47721520D02*
X33207960Y-48249840D01*
X32679640Y-42631360D02*
X32679640Y-47721520D01*
X49743360Y-66222880D02*
X49743360Y-66832480D01*
X49743360Y-66832480D02*
X47879000Y-68696840D01*
X47879000Y-68696840D02*
X37424360Y-68696840D01*
X37424360Y-68696840D02*
X33543240Y-64815720D01*
X33543240Y-64815720D02*
X33543240Y-62809120D01*
X29641800Y-58907680D02*
X16865600Y-58907680D01*
X33543240Y-62809120D02*
X29641800Y-58907680D01*
X84348320Y-28585160D02*
X84348320Y-29362400D01*
X84348320Y-29362400D02*
X87503000Y-32517080D01*
X87503000Y-32517080D02*
X87503000Y-32517080D01*
X88493600Y-36113720D02*
X88493600Y-37368480D01*
X88493600Y-37368480D02*
X88493600Y-38892480D01*
X88493600Y-38892480D02*
X90200480Y-40599360D01*
X90200480Y-40599360D02*
X90200480Y-40599360D01*
X84289900Y-38483540D02*
X92806520Y-29966920D01*
X83309460Y-38483540D02*
X84289900Y-38483540D01*
X82077560Y-32049720D02*
X82428080Y-32400240D01*
X82077560Y-27213560D02*
X82077560Y-32049720D01*
X96718120Y-19415760D02*
X97871280Y-18262600D01*
X89347040Y-19415760D02*
X96718120Y-19415760D01*
X86498965Y-22263835D02*
X89347040Y-19415760D01*
X86461600Y-22263835D02*
X86498965Y-22263835D01*
X82077560Y-27213560D02*
X82077560Y-26647875D01*
X82077560Y-26647875D02*
X86461600Y-22263835D01*
X19232880Y-59893200D02*
X19319240Y-59979560D01*
X15712440Y-59893200D02*
X19232880Y-59893200D01*
X45374560Y-33304480D02*
X45664120Y-33594040D01*
X36398200Y-33304480D02*
X45374560Y-33304480D01*
X46482000Y-31653480D02*
X46725840Y-31409640D01*
X34630360Y-31653480D02*
X46482000Y-31653480D01*
X36804600Y-64622680D02*
X38668960Y-66487040D01*
X48406198Y-66487040D02*
X50346758Y-64546480D01*
X38668960Y-66487040D02*
X48406198Y-66487040D01*
X50346758Y-64546480D02*
X60086240Y-64546480D01*
X60086240Y-64546480D02*
X61610240Y-63022480D01*
X61610240Y-63022480D02*
X61610240Y-53944520D01*
X56474360Y-48808640D02*
X53898800Y-48808640D01*
X61610240Y-53944520D02*
X56474360Y-48808640D01*
X53898800Y-48808640D02*
X54117240Y-48808640D01*
X49641760Y-86090760D02*
X49611280Y-86121240D01*
X49641760Y-83118960D02*
X49641760Y-86090760D01*
X10591800Y-62040918D02*
X14862958Y-57769760D01*
X10591800Y-62738000D02*
X10591800Y-62040918D01*
X15681960Y-57769760D02*
X16951960Y-56499760D01*
X14862958Y-57769760D02*
X15681960Y-57769760D01*
X37402531Y-49977969D02*
X35762271Y-49977969D01*
X37802530Y-49577970D02*
X37402531Y-49977969D01*
X35762271Y-49977969D02*
X32527240Y-53213000D01*
X29839920Y-53213000D02*
X27101800Y-50474880D01*
X32527240Y-53213000D02*
X29839920Y-53213000D01*
X46829245Y-41153080D02*
X47398205Y-40584120D01*
X46263560Y-41153080D02*
X46829245Y-41153080D01*
X47398205Y-40584120D02*
X52318920Y-40584120D01*
X52318920Y-40584120D02*
X55514240Y-37388800D01*
X55514240Y-30612080D02*
X53578760Y-28676600D01*
X55514240Y-37388800D02*
X55514240Y-30612080D01*
X53578760Y-35524440D02*
X53883560Y-35524440D01*
X50515520Y-32461200D02*
X53578760Y-35524440D01*
X49032160Y-33655000D02*
X52699920Y-37322760D01*
X48199040Y-33655000D02*
X49032160Y-33655000D01*
X40958601Y-46761601D02*
X41799960Y-47602960D01*
X40958601Y-41771401D02*
X40958601Y-46761601D01*
X40111680Y-40924480D02*
X40958601Y-41771401D01*
X40111680Y-36445725D02*
X40111680Y-40924480D01*
X41010840Y-34980880D02*
X41010840Y-35546565D01*
X41010840Y-35546565D02*
X40111680Y-36445725D01*
X38354000Y-37413078D02*
X38354000Y-34777680D01*
X33268920Y-42498158D02*
X38354000Y-37413078D01*
X33268920Y-44038520D02*
X33268920Y-42498158D01*
X34987281Y-45756881D02*
X33268920Y-44038520D01*
X35387280Y-47675800D02*
X34987281Y-47275801D01*
X34987281Y-47275801D02*
X34987281Y-45756881D01*
X37078920Y-45674280D02*
X34122360Y-42717720D01*
X37078920Y-47818040D02*
X37078920Y-45674280D01*
X72466200Y-12039600D02*
X73853040Y-10652760D01*
X68686680Y-12039600D02*
X72466200Y-12039600D01*
M02*
