G04 #@! TF.GenerationSoftware,KiCad,Pcbnew,(5.1.4)-1*
G04 #@! TF.CreationDate,2020-12-23T09:12:06-05:00*
G04 #@! TF.ProjectId,CameraTriggerR3SMD,43616d65-7261-4547-9269-676765725233,rev?*
G04 #@! TF.SameCoordinates,Original*
G04 #@! TF.FileFunction,Legend,Top*
G04 #@! TF.FilePolarity,Positive*
%FSLAX46Y46*%
G04 Gerber Fmt 4.6, Leading zero omitted, Abs format (unit mm)*
G04 Created by KiCad (PCBNEW (5.1.4)-1) date 2020-12-23 09:12:06*
%MOMM*%
%LPD*%
G04 APERTURE LIST*
%ADD10C,0.100000*%
%ADD11C,0.200000*%
%ADD12C,0.120000*%
%ADD13C,0.127000*%
%ADD14C,0.300000*%
%ADD15C,0.150000*%
%ADD16C,0.398780*%
%ADD17C,0.304800*%
%ADD18C,0.254000*%
%ADD19C,0.050000*%
G04 APERTURE END LIST*
D10*
X60627120Y-29842560D02*
X60927120Y-29842560D01*
X60627120Y-31442560D02*
X60927120Y-31442560D01*
D11*
X59077120Y-30942560D02*
X59077120Y-30942560D01*
X59077120Y-31142560D02*
X59077120Y-31142560D01*
X59077120Y-31142560D02*
G75*
G02X59077120Y-30942560I0J100000D01*
G01*
X59077120Y-30942560D02*
G75*
G02X59077120Y-31142560I0J-100000D01*
G01*
D12*
X17455400Y-53455760D02*
X17455400Y-53555760D01*
X20695400Y-53455760D02*
X20695400Y-53555760D01*
X17455400Y-53555760D02*
X20695400Y-53555760D01*
X17455400Y-51315760D02*
X17455400Y-51415760D01*
X20695400Y-51315760D02*
X20695400Y-51415760D01*
X17455400Y-51315760D02*
X20695400Y-51315760D01*
X16693099Y-54130480D02*
X16367541Y-54130480D01*
X16693099Y-55150480D02*
X16367541Y-55150480D01*
D13*
X103012680Y-9135360D02*
X100012680Y-9135360D01*
X103012680Y-13135360D02*
X103012680Y-9135360D01*
X100012680Y-13135360D02*
X103012680Y-13135360D01*
X92212680Y-8635360D02*
X92512680Y-8635360D01*
X92212680Y-9335360D02*
X92212680Y-8635360D01*
X92212680Y-13635360D02*
X92512680Y-13635360D01*
X92212680Y-12935360D02*
X92212680Y-13635360D01*
X100012680Y-13135360D02*
X100012680Y-13635360D01*
X100012680Y-9135360D02*
X100012680Y-13135360D01*
X100012680Y-8635360D02*
X100012680Y-9135360D01*
D14*
X99086280Y-8090960D02*
G75*
G03X99086280Y-8090960I-150000J0D01*
G01*
D13*
X95712680Y-8635360D02*
X100012680Y-8635360D01*
X100012680Y-13635360D02*
X95712680Y-13635360D01*
D12*
X99191280Y-20005000D02*
X103191280Y-20005000D01*
X99191280Y-18105000D02*
X99191280Y-20005000D01*
X84951280Y-18105000D02*
X99191280Y-18105000D01*
X84951280Y-26545000D02*
X84951280Y-18105000D01*
X99191280Y-26545000D02*
X84951280Y-26545000D01*
X99191280Y-26245000D02*
X99191280Y-26545000D01*
X103191280Y-26245000D02*
X99191280Y-26245000D01*
X103191280Y-20005000D02*
X103191280Y-26245000D01*
X27205400Y-88198840D02*
X28665400Y-88198840D01*
X27205400Y-91358840D02*
X29365400Y-91358840D01*
X27205400Y-91358840D02*
X27205400Y-90428840D01*
X27205400Y-88198840D02*
X27205400Y-89128840D01*
X82508280Y-12567341D02*
X82508280Y-12892899D01*
X83528280Y-12567341D02*
X83528280Y-12892899D01*
X80612920Y-14190080D02*
X80612920Y-11905080D01*
X79142920Y-14190080D02*
X80612920Y-14190080D01*
X79142920Y-11905080D02*
X79142920Y-14190080D01*
X92219240Y-82717859D02*
X92219240Y-82392301D01*
X91199240Y-82717859D02*
X91199240Y-82392301D01*
X21716781Y-97080800D02*
X22042339Y-97080800D01*
X21716781Y-96060800D02*
X22042339Y-96060800D01*
X34744120Y-81137979D02*
X34744120Y-80812421D01*
X33724120Y-81137979D02*
X33724120Y-80812421D01*
X36189418Y-85665240D02*
X35672262Y-85665240D01*
X36189418Y-87085240D02*
X35672262Y-87085240D01*
X32763544Y-87959520D02*
X31559416Y-87959520D01*
X32763544Y-89779520D02*
X31559416Y-89779520D01*
X20261080Y-95841600D02*
X22546080Y-95841600D01*
X20261080Y-94371600D02*
X20261080Y-95841600D01*
X22546080Y-94371600D02*
X20261080Y-94371600D01*
X54246240Y-83683159D02*
X54246240Y-83357601D01*
X53226240Y-83683159D02*
X53226240Y-83357601D01*
X37944520Y-83474779D02*
X37944520Y-83149221D01*
X36924520Y-83474779D02*
X36924520Y-83149221D01*
X37279496Y-90180840D02*
X38483624Y-90180840D01*
X37279496Y-88360840D02*
X38483624Y-88360840D01*
X84031360Y-84414141D02*
X84031360Y-84739699D01*
X85051360Y-84414141D02*
X85051360Y-84739699D01*
X79437960Y-85064819D02*
X79437960Y-84739261D01*
X78417960Y-85064819D02*
X78417960Y-84739261D01*
X82349880Y-86543000D02*
X80889880Y-86543000D01*
X82349880Y-83383000D02*
X80189880Y-83383000D01*
X82349880Y-83383000D02*
X82349880Y-84313000D01*
X82349880Y-86543000D02*
X82349880Y-85613000D01*
X87039080Y-85865640D02*
X89324080Y-85865640D01*
X87039080Y-84395640D02*
X87039080Y-85865640D01*
X89324080Y-84395640D02*
X87039080Y-84395640D01*
X62072440Y-83846520D02*
X62072440Y-84946520D01*
X62342440Y-83846520D02*
X62072440Y-83846520D01*
X62342440Y-82346520D02*
X62342440Y-83846520D01*
X55712440Y-83846520D02*
X55712440Y-86676520D01*
X55442440Y-83846520D02*
X55712440Y-83846520D01*
X55442440Y-82346520D02*
X55442440Y-83846520D01*
X31156667Y-95707200D02*
X31156667Y-94437200D01*
X32510000Y-94507200D02*
X31156667Y-94507200D01*
X32510000Y-94627200D02*
X31156667Y-94627200D01*
X32510000Y-94747200D02*
X31156667Y-94747200D01*
X32510000Y-94867200D02*
X31156667Y-94867200D01*
X32510000Y-94987200D02*
X31156667Y-94987200D01*
X32510000Y-95107200D02*
X31156667Y-95107200D01*
X32510000Y-95227200D02*
X31156667Y-95227200D01*
X32510000Y-95347200D02*
X31156667Y-95347200D01*
X32510000Y-95467200D02*
X31156667Y-95467200D01*
X32510000Y-95587200D02*
X31156667Y-95587200D01*
X28450000Y-95707200D02*
X32510000Y-95707200D01*
X28450000Y-94437200D02*
X28450000Y-95707200D01*
X32510000Y-94437200D02*
X28450000Y-94437200D01*
X32510000Y-95707200D02*
X32510000Y-94437200D01*
X35670000Y-97732200D02*
X35670000Y-96349200D01*
X35670000Y-97732200D02*
X34286000Y-97732200D01*
X25530000Y-97492200D02*
X25530000Y-92652200D01*
X35430000Y-97492200D02*
X35430000Y-92652200D01*
X35430000Y-92652200D02*
X25530000Y-92652200D01*
X35430000Y-97492200D02*
X25530000Y-97492200D01*
X42185320Y-60509400D02*
X42185320Y-64509400D01*
X45485320Y-60509400D02*
X42185320Y-60509400D01*
X45522800Y-83547360D02*
X45522800Y-84647360D01*
X45792800Y-83547360D02*
X45522800Y-83547360D01*
X45792800Y-82047360D02*
X45792800Y-83547360D01*
X39162800Y-83547360D02*
X39162800Y-86377360D01*
X38892800Y-83547360D02*
X39162800Y-83547360D01*
X38892800Y-82047360D02*
X38892800Y-83547360D01*
D10*
X69457840Y-416120D02*
X69457840Y-116120D01*
X69057840Y-416120D02*
X69457840Y-416120D01*
D12*
X41336480Y-55462960D02*
X41336480Y-56802960D01*
X40386480Y-55462960D02*
X41336480Y-55462960D01*
X40386480Y-54512960D02*
X40386480Y-55462960D01*
X40386480Y-45242960D02*
X41336480Y-45242960D01*
X40386480Y-46192960D02*
X40386480Y-45242960D01*
X50606480Y-55462960D02*
X49656480Y-55462960D01*
X50606480Y-54512960D02*
X50606480Y-55462960D01*
X50606480Y-45242960D02*
X49656480Y-45242960D01*
X50606480Y-46192960D02*
X50606480Y-45242960D01*
X34617200Y-27584200D02*
X34617200Y-25284200D01*
X36717200Y-27584200D02*
X34617200Y-27584200D01*
X51142200Y-27309200D02*
X34892200Y-27309200D01*
X51142200Y-11059200D02*
X51142200Y-27309200D01*
X34892200Y-11059200D02*
X51142200Y-11059200D01*
X34892200Y-27309200D02*
X34892200Y-11059200D01*
X73764200Y-25444120D02*
X72099200Y-25444120D01*
X73764200Y-25164120D02*
X73764200Y-25444120D01*
X76149200Y-25164120D02*
X73764200Y-25164120D01*
X78534200Y-25164120D02*
X78534200Y-25444120D01*
X76149200Y-25164120D02*
X78534200Y-25164120D01*
X73764200Y-35684120D02*
X73764200Y-35404120D01*
X76149200Y-35684120D02*
X73764200Y-35684120D01*
X78534200Y-35684120D02*
X78534200Y-35404120D01*
X76149200Y-35684120D02*
X78534200Y-35684120D01*
X880200Y-71715040D02*
X1670200Y-71715040D01*
X1670200Y-64815040D02*
X880200Y-64815040D01*
X2720200Y-66665040D02*
X2720200Y-68365040D01*
X-129800Y-65415040D02*
X-129800Y-71115040D01*
X-1419800Y-68165040D02*
X-129800Y-68165040D01*
X-1629800Y-67065040D02*
X-1629800Y-67965040D01*
X-129800Y-66865040D02*
X-1419800Y-66865040D01*
X-1419800Y-68165040D02*
X-1629800Y-67965040D01*
X-1419800Y-66865040D02*
X-1629800Y-67065040D01*
X2720200Y-69665040D02*
X2720200Y-69865040D01*
X17240000Y-30048200D02*
G75*
G03X17240000Y-30048200I-2000000J0D01*
G01*
X20320000Y-33858200D02*
X20320000Y-26238200D01*
X10160000Y-33858200D02*
X20320000Y-33858200D01*
X10160000Y-33858200D02*
X10160000Y-26238200D01*
X20320000Y-26238200D02*
X10160000Y-26238200D01*
X17046960Y-21259800D02*
G75*
G03X17046960Y-21259800I-2000000J0D01*
G01*
X9966960Y-17449800D02*
X9966960Y-25069800D01*
X20126960Y-17449800D02*
X9966960Y-17449800D01*
X20126960Y-17449800D02*
X20126960Y-25069800D01*
X9966960Y-25069800D02*
X20126960Y-25069800D01*
X16986000Y-12837160D02*
G75*
G03X16986000Y-12837160I-2000000J0D01*
G01*
X20066000Y-16647160D02*
X20066000Y-9027160D01*
X9906000Y-16647160D02*
X20066000Y-16647160D01*
X9906000Y-16647160D02*
X9906000Y-9027160D01*
X20066000Y-9027160D02*
X9906000Y-9027160D01*
X92387040Y-72574520D02*
X91387040Y-72574520D01*
X91887040Y-73074520D02*
X92387040Y-72574520D01*
X91387040Y-72574520D02*
X91887040Y-73074520D01*
X98297040Y-77794520D02*
X98297040Y-77484520D01*
X89477040Y-77794520D02*
X89477040Y-77484520D01*
X89477040Y-73584520D02*
X89477040Y-73274520D01*
X98297040Y-77794520D02*
X89477040Y-77794520D01*
X98297040Y-73274520D02*
X98297040Y-73584520D01*
X89477040Y-73274520D02*
X98297040Y-73274520D01*
X12210320Y-74914441D02*
X12210320Y-75239999D01*
X13230320Y-74914441D02*
X13230320Y-75239999D01*
X65863730Y-22184320D02*
X65538172Y-22184320D01*
X65863730Y-23204320D02*
X65538172Y-23204320D01*
X70561419Y-40709120D02*
X70235861Y-40709120D01*
X70561419Y-41729120D02*
X70235861Y-41729120D01*
X17086129Y-76563280D02*
X15626129Y-76563280D01*
X17086129Y-73403280D02*
X14926129Y-73403280D01*
X17086129Y-73403280D02*
X17086129Y-74333280D01*
X17086129Y-76563280D02*
X17086129Y-75633280D01*
X67756920Y-24300720D02*
X67756920Y-22840720D01*
X70916920Y-24300720D02*
X70916920Y-22140720D01*
X70916920Y-24300720D02*
X69986920Y-24300720D01*
X67756920Y-24300720D02*
X68686920Y-24300720D01*
X74684160Y-41727240D02*
X73224160Y-41727240D01*
X74684160Y-38567240D02*
X72524160Y-38567240D01*
X74684160Y-38567240D02*
X74684160Y-39497240D01*
X74684160Y-41727240D02*
X74684160Y-40797240D01*
D15*
X10086040Y-42699080D02*
X10086040Y-43699080D01*
X10086040Y-39099080D02*
X10086040Y-38099080D01*
X10511040Y-39099080D02*
X10086040Y-39099080D01*
X10511040Y-39824080D02*
X10511040Y-39099080D01*
X6936040Y-45049080D02*
X8336040Y-45049080D01*
X4386040Y-45049080D02*
X4536040Y-45049080D01*
X4386040Y-44749080D02*
X4386040Y-45049080D01*
X3936040Y-44749080D02*
X4386040Y-44749080D01*
X4386040Y-37049080D02*
X3936040Y-37049080D01*
X4386040Y-36749080D02*
X4386040Y-37049080D01*
X4536040Y-36749080D02*
X4386040Y-36749080D01*
X8336040Y-36749080D02*
X6936040Y-36749080D01*
D12*
X8085240Y-53680440D02*
X8085240Y-53745440D01*
X4555240Y-53680440D02*
X4555240Y-53745440D01*
X8085240Y-47275440D02*
X8085240Y-47340440D01*
X4555240Y-47275440D02*
X4555240Y-47340440D01*
X3230240Y-47340440D02*
X4555240Y-47340440D01*
X4555240Y-53745440D02*
X8085240Y-53745440D01*
X4555240Y-47275440D02*
X8085240Y-47275440D01*
D16*
X9725660Y-56840120D02*
G75*
G03X9725660Y-56840120I-139700J0D01*
G01*
D17*
X3286760Y-55341520D02*
X-873760Y-55341520D01*
X3286760Y-63337440D02*
X3286760Y-55341520D01*
X1287780Y-63337440D02*
X3286760Y-63337440D01*
X1287780Y-57340500D02*
X1287780Y-63337440D01*
X-873760Y-57340500D02*
X1287780Y-57340500D01*
D18*
X8938260Y-56339740D02*
X8938260Y-57091580D01*
X8938260Y-62339220D02*
X7287260Y-62339220D01*
X8938260Y-61587380D02*
X8938260Y-62339220D01*
X7287260Y-56339740D02*
X8938260Y-56339740D01*
X4686300Y-57840880D02*
X4686300Y-60838080D01*
D12*
X49527280Y-96858120D02*
X49527280Y-94038120D01*
X49527280Y-94038120D02*
X47827280Y-92738120D01*
X49527280Y-96858120D02*
X47827280Y-98158120D01*
X47827280Y-92738120D02*
X39107280Y-92738120D01*
X39107280Y-98158120D02*
X39107280Y-92738120D01*
X47827280Y-98158120D02*
X39107280Y-98158120D01*
X49997360Y-6816800D02*
X49747360Y-7316800D01*
X49747360Y-7316800D02*
X50247360Y-7316800D01*
X50247360Y-7316800D02*
X49997360Y-6816800D01*
X1119480Y-17952000D02*
X1119480Y-18352000D01*
X1759480Y-17952000D02*
X1119480Y-17952000D01*
X8099480Y-23972000D02*
X1359480Y-23972000D01*
X8099480Y-18192000D02*
X1359480Y-18192000D01*
X1359480Y-18192000D02*
X1359480Y-23972000D01*
X8099480Y-18192000D02*
X8099480Y-23972000D01*
X6979480Y-18192000D02*
X6979480Y-23972000D01*
X1879480Y-18192000D02*
X1879480Y-23972000D01*
X1078840Y-9493800D02*
X1078840Y-9893800D01*
X1718840Y-9493800D02*
X1078840Y-9493800D01*
X8058840Y-15513800D02*
X1318840Y-15513800D01*
X8058840Y-9733800D02*
X1318840Y-9733800D01*
X1318840Y-9733800D02*
X1318840Y-15513800D01*
X8058840Y-9733800D02*
X8058840Y-15513800D01*
X6938840Y-9733800D02*
X6938840Y-15513800D01*
X1838840Y-9733800D02*
X1838840Y-15513800D01*
X52887160Y-98291040D02*
X53287160Y-98291040D01*
X52887160Y-97651040D02*
X52887160Y-98291040D01*
X58907160Y-91311040D02*
X58907160Y-98051040D01*
X53127160Y-91311040D02*
X53127160Y-98051040D01*
X53127160Y-98051040D02*
X58907160Y-98051040D01*
X53127160Y-91311040D02*
X58907160Y-91311040D01*
X53127160Y-92431040D02*
X58907160Y-92431040D01*
X53127160Y-97531040D02*
X58907160Y-97531040D01*
X82650880Y-99489920D02*
X83050880Y-99489920D01*
X82650880Y-98849920D02*
X82650880Y-99489920D01*
X91210880Y-92509920D02*
X91210880Y-99249920D01*
X82890880Y-92509920D02*
X82890880Y-99249920D01*
X82890880Y-99249920D02*
X91210880Y-99249920D01*
X82890880Y-92509920D02*
X91210880Y-92509920D01*
X82890880Y-93629920D02*
X91210880Y-93629920D01*
X82890880Y-98729920D02*
X91210880Y-98729920D01*
X99906440Y-70191560D02*
X92166440Y-70191560D01*
X99906440Y-44951560D02*
X92166440Y-44951560D01*
X92166440Y-48201560D02*
X92166440Y-44951560D01*
X92166440Y-70191560D02*
X92166440Y-66941560D01*
X99906440Y-46451560D02*
X102606440Y-46451560D01*
X99906440Y-68691560D02*
X102606440Y-68691560D01*
X99906440Y-68691560D02*
X99906440Y-70191560D01*
X99906440Y-44951560D02*
X99906440Y-46451560D01*
X102606440Y-46451560D02*
X102606440Y-68691560D01*
X80666440Y-58651560D02*
X80666440Y-63151560D01*
X80666440Y-48651560D02*
X81606440Y-48651560D01*
X87666440Y-48651560D02*
X82406440Y-48651560D01*
X92166440Y-66941560D02*
X87666440Y-66941560D01*
X87666440Y-66491560D02*
X87666440Y-66941560D01*
X80666440Y-52051560D02*
X80666440Y-56451560D01*
X80666440Y-66491560D02*
X81606440Y-66491560D01*
X92166440Y-48201560D02*
X87666440Y-48201560D01*
X87666440Y-48651560D02*
X87666440Y-48201560D01*
X87666440Y-66491560D02*
X82406440Y-66491560D01*
X80666440Y-48651560D02*
X80666440Y-49151560D01*
X80666440Y-66491560D02*
X80666440Y-65951560D01*
X72201320Y-99180040D02*
X72601320Y-99180040D01*
X72201320Y-98540040D02*
X72201320Y-99180040D01*
X78221320Y-92200040D02*
X78221320Y-98940040D01*
X72441320Y-92200040D02*
X72441320Y-98940040D01*
X72441320Y-98940040D02*
X78221320Y-98940040D01*
X72441320Y-92200040D02*
X78221320Y-92200040D01*
X72441320Y-93320040D02*
X78221320Y-93320040D01*
X72441320Y-98420040D02*
X78221320Y-98420040D01*
X100241760Y-89967520D02*
X100241760Y-89567520D01*
X99601760Y-89967520D02*
X100241760Y-89967520D01*
X93261760Y-81407520D02*
X100001760Y-81407520D01*
X93261760Y-89727520D02*
X100001760Y-89727520D01*
X100001760Y-89727520D02*
X100001760Y-81407520D01*
X93261760Y-89727520D02*
X93261760Y-81407520D01*
X94381760Y-89727520D02*
X94381760Y-81407520D01*
X99481760Y-89727520D02*
X99481760Y-81407520D01*
D13*
X103170160Y-39239440D02*
X100170160Y-39239440D01*
X103170160Y-43239440D02*
X103170160Y-39239440D01*
X100170160Y-43239440D02*
X103170160Y-43239440D01*
X92370160Y-38739440D02*
X92670160Y-38739440D01*
X92370160Y-39439440D02*
X92370160Y-38739440D01*
X92370160Y-43739440D02*
X92670160Y-43739440D01*
X92370160Y-43039440D02*
X92370160Y-43739440D01*
X100170160Y-43239440D02*
X100170160Y-43739440D01*
X100170160Y-39239440D02*
X100170160Y-43239440D01*
X100170160Y-38739440D02*
X100170160Y-39239440D01*
D14*
X99243760Y-38195040D02*
G75*
G03X99243760Y-38195040I-150000J0D01*
G01*
D13*
X95870160Y-38739440D02*
X100170160Y-38739440D01*
X100170160Y-43739440D02*
X95870160Y-43739440D01*
D12*
X100258080Y-30190400D02*
X104258080Y-30190400D01*
X100258080Y-28290400D02*
X100258080Y-30190400D01*
X86018080Y-28290400D02*
X100258080Y-28290400D01*
X86018080Y-36730400D02*
X86018080Y-28290400D01*
X100258080Y-36730400D02*
X86018080Y-36730400D01*
X100258080Y-36430400D02*
X100258080Y-36730400D01*
X104258080Y-36430400D02*
X100258080Y-36430400D01*
X104258080Y-30190400D02*
X104258080Y-36430400D01*
X14726129Y-77883280D02*
X17276129Y-77883280D01*
X14726129Y-79583280D02*
X17276129Y-79583280D01*
X14726129Y-77883280D02*
X14726129Y-79583280D01*
X70131040Y-27906040D02*
X67846040Y-27906040D01*
X70131040Y-29376040D02*
X70131040Y-27906040D01*
X67846040Y-29376040D02*
X70131040Y-29376040D01*
X69993880Y-30440960D02*
X67708880Y-30440960D01*
X69993880Y-31910960D02*
X69993880Y-30440960D01*
X67708880Y-31910960D02*
X69993880Y-31910960D01*
X42734960Y-39339739D02*
X42734960Y-39014181D01*
X41714960Y-39339739D02*
X41714960Y-39014181D01*
X55588440Y-44073861D02*
X55588440Y-44399419D01*
X56608440Y-44073861D02*
X56608440Y-44399419D01*
X56697661Y-47698120D02*
X57023219Y-47698120D01*
X56697661Y-46678120D02*
X57023219Y-46678120D01*
X10603400Y-88586439D02*
G75*
G02X10603400Y-85586440I6400000J1499999D01*
G01*
X23233400Y-87086440D02*
G75*
G03X23233400Y-87086440I-6230000J0D01*
G01*
D15*
X56715422Y-32524020D02*
X56382089Y-32047830D01*
X56143994Y-32524020D02*
X56143994Y-31524020D01*
X56524946Y-31524020D01*
X56620184Y-31571640D01*
X56667803Y-31619259D01*
X56715422Y-31714497D01*
X56715422Y-31857354D01*
X56667803Y-31952592D01*
X56620184Y-32000211D01*
X56524946Y-32047830D01*
X56143994Y-32047830D01*
X57096375Y-31619259D02*
X57143994Y-31571640D01*
X57239232Y-31524020D01*
X57477327Y-31524020D01*
X57572565Y-31571640D01*
X57620184Y-31619259D01*
X57667803Y-31714497D01*
X57667803Y-31809735D01*
X57620184Y-31952592D01*
X57048756Y-32524020D01*
X57667803Y-32524020D01*
X58001137Y-31524020D02*
X58620184Y-31524020D01*
X58286851Y-31904973D01*
X58429708Y-31904973D01*
X58524946Y-31952592D01*
X58572565Y-32000211D01*
X58620184Y-32095449D01*
X58620184Y-32333544D01*
X58572565Y-32428782D01*
X58524946Y-32476401D01*
X58429708Y-32524020D01*
X58143994Y-32524020D01*
X58048756Y-32476401D01*
X58001137Y-32428782D01*
D18*
X59539739Y-31217083D02*
X59539739Y-29947083D01*
X59842120Y-29947083D01*
X60023548Y-30007560D01*
X60144500Y-30128512D01*
X60204977Y-30249464D01*
X60265453Y-30491369D01*
X60265453Y-30672798D01*
X60204977Y-30914702D01*
X60144500Y-31035655D01*
X60023548Y-31156607D01*
X59842120Y-31217083D01*
X59539739Y-31217083D01*
X60688786Y-29947083D02*
X61535453Y-29947083D01*
X60991167Y-31217083D01*
D15*
X17742066Y-50840521D02*
X17884923Y-50888140D01*
X18123019Y-50888140D01*
X18218257Y-50840521D01*
X18265876Y-50792902D01*
X18313495Y-50697664D01*
X18313495Y-50602426D01*
X18265876Y-50507188D01*
X18218257Y-50459569D01*
X18123019Y-50411950D01*
X17932542Y-50364331D01*
X17837304Y-50316712D01*
X17789685Y-50269093D01*
X17742066Y-50173855D01*
X17742066Y-50078617D01*
X17789685Y-49983379D01*
X17837304Y-49935760D01*
X17932542Y-49888140D01*
X18170638Y-49888140D01*
X18313495Y-49935760D01*
X18646828Y-49888140D02*
X18884923Y-50888140D01*
X19075400Y-50173855D01*
X19265876Y-50888140D01*
X19503971Y-49888140D01*
X19789685Y-49888140D02*
X20456352Y-49888140D01*
X20027780Y-50888140D01*
X15887462Y-56522860D02*
X15554129Y-56046670D01*
X15316034Y-56522860D02*
X15316034Y-55522860D01*
X15696986Y-55522860D01*
X15792224Y-55570480D01*
X15839843Y-55618099D01*
X15887462Y-55713337D01*
X15887462Y-55856194D01*
X15839843Y-55951432D01*
X15792224Y-55999051D01*
X15696986Y-56046670D01*
X15316034Y-56046670D01*
X16268415Y-55618099D02*
X16316034Y-55570480D01*
X16411272Y-55522860D01*
X16649367Y-55522860D01*
X16744605Y-55570480D01*
X16792224Y-55618099D01*
X16839843Y-55713337D01*
X16839843Y-55808575D01*
X16792224Y-55951432D01*
X16220796Y-56522860D01*
X16839843Y-56522860D01*
X17744605Y-55522860D02*
X17268415Y-55522860D01*
X17220796Y-55999051D01*
X17268415Y-55951432D01*
X17363653Y-55903813D01*
X17601748Y-55903813D01*
X17696986Y-55951432D01*
X17744605Y-55999051D01*
X17792224Y-56094289D01*
X17792224Y-56332384D01*
X17744605Y-56427622D01*
X17696986Y-56475241D01*
X17601748Y-56522860D01*
X17363653Y-56522860D01*
X17268415Y-56475241D01*
X17220796Y-56427622D01*
X64766780Y-31798497D02*
X64290590Y-32131830D01*
X64766780Y-32369925D02*
X63766780Y-32369925D01*
X63766780Y-31988973D01*
X63814400Y-31893735D01*
X63862019Y-31846116D01*
X63957257Y-31798497D01*
X64100114Y-31798497D01*
X64195352Y-31846116D01*
X64242971Y-31893735D01*
X64290590Y-31988973D01*
X64290590Y-32369925D01*
X63862019Y-31417544D02*
X63814400Y-31369925D01*
X63766780Y-31274687D01*
X63766780Y-31036592D01*
X63814400Y-30941354D01*
X63862019Y-30893735D01*
X63957257Y-30846116D01*
X64052495Y-30846116D01*
X64195352Y-30893735D01*
X64766780Y-31465163D01*
X64766780Y-30846116D01*
X64100114Y-29988973D02*
X64766780Y-29988973D01*
X63719161Y-30227068D02*
X64433447Y-30465163D01*
X64433447Y-29846116D01*
X61601940Y-33718737D02*
X61125750Y-34052070D01*
X61601940Y-34290165D02*
X60601940Y-34290165D01*
X60601940Y-33909213D01*
X60649560Y-33813975D01*
X60697179Y-33766356D01*
X60792417Y-33718737D01*
X60935274Y-33718737D01*
X61030512Y-33766356D01*
X61078131Y-33813975D01*
X61125750Y-33909213D01*
X61125750Y-34290165D01*
X60697179Y-33337784D02*
X60649560Y-33290165D01*
X60601940Y-33194927D01*
X60601940Y-32956832D01*
X60649560Y-32861594D01*
X60697179Y-32813975D01*
X60792417Y-32766356D01*
X60887655Y-32766356D01*
X61030512Y-32813975D01*
X61601940Y-33385403D01*
X61601940Y-32766356D01*
X60697179Y-32385403D02*
X60649560Y-32337784D01*
X60601940Y-32242546D01*
X60601940Y-32004451D01*
X60649560Y-31909213D01*
X60697179Y-31861594D01*
X60792417Y-31813975D01*
X60887655Y-31813975D01*
X61030512Y-31861594D01*
X61601940Y-32433022D01*
X61601940Y-31813975D01*
X15224702Y-53378337D02*
X15272321Y-53425956D01*
X15319940Y-53568813D01*
X15319940Y-53664051D01*
X15272321Y-53806908D01*
X15177083Y-53902146D01*
X15081845Y-53949765D01*
X14891369Y-53997384D01*
X14748512Y-53997384D01*
X14558036Y-53949765D01*
X14462798Y-53902146D01*
X14367560Y-53806908D01*
X14319940Y-53664051D01*
X14319940Y-53568813D01*
X14367560Y-53425956D01*
X14415179Y-53378337D01*
X14319940Y-53045003D02*
X14319940Y-52425956D01*
X14700893Y-52759289D01*
X14700893Y-52616432D01*
X14748512Y-52521194D01*
X14796131Y-52473575D01*
X14891369Y-52425956D01*
X15129464Y-52425956D01*
X15224702Y-52473575D01*
X15272321Y-52521194D01*
X15319940Y-52616432D01*
X15319940Y-52902146D01*
X15272321Y-52997384D01*
X15224702Y-53045003D01*
X14319940Y-51806908D02*
X14319940Y-51711670D01*
X14367560Y-51616432D01*
X14415179Y-51568813D01*
X14510417Y-51521194D01*
X14700893Y-51473575D01*
X14938988Y-51473575D01*
X15129464Y-51521194D01*
X15224702Y-51568813D01*
X15272321Y-51616432D01*
X15319940Y-51711670D01*
X15319940Y-51806908D01*
X15272321Y-51902146D01*
X15224702Y-51949765D01*
X15129464Y-51997384D01*
X14938988Y-52045003D01*
X14700893Y-52045003D01*
X14510417Y-51997384D01*
X14415179Y-51949765D01*
X14367560Y-51902146D01*
X14319940Y-51806908D01*
X63045942Y-35207177D02*
X63093561Y-35254796D01*
X63141180Y-35397653D01*
X63141180Y-35492891D01*
X63093561Y-35635748D01*
X62998323Y-35730986D01*
X62903085Y-35778605D01*
X62712609Y-35826224D01*
X62569752Y-35826224D01*
X62379276Y-35778605D01*
X62284038Y-35730986D01*
X62188800Y-35635748D01*
X62141180Y-35492891D01*
X62141180Y-35397653D01*
X62188800Y-35254796D01*
X62236419Y-35207177D01*
X62236419Y-34826224D02*
X62188800Y-34778605D01*
X62141180Y-34683367D01*
X62141180Y-34445272D01*
X62188800Y-34350034D01*
X62236419Y-34302415D01*
X62331657Y-34254796D01*
X62426895Y-34254796D01*
X62569752Y-34302415D01*
X63141180Y-34873843D01*
X63141180Y-34254796D01*
X63141180Y-33778605D02*
X63141180Y-33588129D01*
X63093561Y-33492891D01*
X63045942Y-33445272D01*
X62903085Y-33350034D01*
X62712609Y-33302415D01*
X62331657Y-33302415D01*
X62236419Y-33350034D01*
X62188800Y-33397653D01*
X62141180Y-33492891D01*
X62141180Y-33683367D01*
X62188800Y-33778605D01*
X62236419Y-33826224D01*
X62331657Y-33873843D01*
X62569752Y-33873843D01*
X62664990Y-33826224D01*
X62712609Y-33778605D01*
X62760228Y-33683367D01*
X62760228Y-33492891D01*
X62712609Y-33397653D01*
X62664990Y-33350034D01*
X62569752Y-33302415D01*
X38955742Y-8415622D02*
X38908123Y-8463241D01*
X38765266Y-8510860D01*
X38670028Y-8510860D01*
X38527171Y-8463241D01*
X38431933Y-8368003D01*
X38384314Y-8272765D01*
X38336695Y-8082289D01*
X38336695Y-7939432D01*
X38384314Y-7748956D01*
X38431933Y-7653718D01*
X38527171Y-7558480D01*
X38670028Y-7510860D01*
X38765266Y-7510860D01*
X38908123Y-7558480D01*
X38955742Y-7606099D01*
X39336695Y-7606099D02*
X39384314Y-7558480D01*
X39479552Y-7510860D01*
X39717647Y-7510860D01*
X39812885Y-7558480D01*
X39860504Y-7606099D01*
X39908123Y-7701337D01*
X39908123Y-7796575D01*
X39860504Y-7939432D01*
X39289076Y-8510860D01*
X39908123Y-8510860D01*
X40479552Y-7939432D02*
X40384314Y-7891813D01*
X40336695Y-7844194D01*
X40289076Y-7748956D01*
X40289076Y-7701337D01*
X40336695Y-7606099D01*
X40384314Y-7558480D01*
X40479552Y-7510860D01*
X40670028Y-7510860D01*
X40765266Y-7558480D01*
X40812885Y-7606099D01*
X40860504Y-7701337D01*
X40860504Y-7748956D01*
X40812885Y-7844194D01*
X40765266Y-7891813D01*
X40670028Y-7939432D01*
X40479552Y-7939432D01*
X40384314Y-7987051D01*
X40336695Y-8034670D01*
X40289076Y-8129908D01*
X40289076Y-8320384D01*
X40336695Y-8415622D01*
X40384314Y-8463241D01*
X40479552Y-8510860D01*
X40670028Y-8510860D01*
X40765266Y-8463241D01*
X40812885Y-8415622D01*
X40860504Y-8320384D01*
X40860504Y-8129908D01*
X40812885Y-8034670D01*
X40765266Y-7987051D01*
X40670028Y-7939432D01*
D19*
X103535874Y-10829736D02*
X104108203Y-10829736D01*
X104222669Y-10867891D01*
X104298979Y-10944202D01*
X104337134Y-11058668D01*
X104337134Y-11134978D01*
X103802961Y-10104787D02*
X104337134Y-10104787D01*
X103497719Y-10295563D02*
X104070048Y-10486339D01*
X104070048Y-9990321D01*
X90510533Y-15047660D02*
X90548643Y-15085770D01*
X90586753Y-15200099D01*
X90586753Y-15276319D01*
X90548643Y-15390649D01*
X90472424Y-15466868D01*
X90396204Y-15504978D01*
X90243764Y-15543088D01*
X90129435Y-15543088D01*
X89976995Y-15504978D01*
X89900776Y-15466868D01*
X89824556Y-15390649D01*
X89786446Y-15276319D01*
X89786446Y-15200099D01*
X89824556Y-15085770D01*
X89862666Y-15047660D01*
X90586753Y-14361682D02*
X90167545Y-14361682D01*
X90091325Y-14399792D01*
X90053215Y-14476012D01*
X90053215Y-14628451D01*
X90091325Y-14704671D01*
X90548643Y-14361682D02*
X90586753Y-14437902D01*
X90586753Y-14628451D01*
X90548643Y-14704671D01*
X90472424Y-14742781D01*
X90396204Y-14742781D01*
X90319984Y-14704671D01*
X90281874Y-14628451D01*
X90281874Y-14437902D01*
X90243764Y-14361682D01*
X90586753Y-13980584D02*
X90053215Y-13980584D01*
X90129435Y-13980584D02*
X90091325Y-13942474D01*
X90053215Y-13866254D01*
X90053215Y-13751925D01*
X90091325Y-13675705D01*
X90167545Y-13637595D01*
X90586753Y-13637595D01*
X90167545Y-13637595D02*
X90091325Y-13599485D01*
X90053215Y-13523266D01*
X90053215Y-13408936D01*
X90091325Y-13332716D01*
X90167545Y-13294606D01*
X90586753Y-13294606D01*
X90548643Y-12608629D02*
X90586753Y-12684849D01*
X90586753Y-12837288D01*
X90548643Y-12913508D01*
X90472424Y-12951618D01*
X90167545Y-12951618D01*
X90091325Y-12913508D01*
X90053215Y-12837288D01*
X90053215Y-12684849D01*
X90091325Y-12608629D01*
X90167545Y-12570519D01*
X90243764Y-12570519D01*
X90319984Y-12951618D01*
X90586753Y-12227530D02*
X90053215Y-12227530D01*
X90205655Y-12227530D02*
X90129435Y-12189421D01*
X90091325Y-12151311D01*
X90053215Y-12075091D01*
X90053215Y-11998871D01*
X90586753Y-11389114D02*
X90167545Y-11389114D01*
X90091325Y-11427223D01*
X90053215Y-11503443D01*
X90053215Y-11655883D01*
X90091325Y-11732102D01*
X90548643Y-11389114D02*
X90586753Y-11465333D01*
X90586753Y-11655883D01*
X90548643Y-11732102D01*
X90472424Y-11770212D01*
X90396204Y-11770212D01*
X90319984Y-11732102D01*
X90281874Y-11655883D01*
X90281874Y-11465333D01*
X90243764Y-11389114D01*
X89862666Y-10436367D02*
X89824556Y-10398257D01*
X89786446Y-10322038D01*
X89786446Y-10131488D01*
X89824556Y-10055269D01*
X89862666Y-10017159D01*
X89938886Y-9979049D01*
X90015105Y-9979049D01*
X90129435Y-10017159D01*
X90586753Y-10474477D01*
X90586753Y-9979049D01*
X90510533Y-9636060D02*
X90548643Y-9597950D01*
X90586753Y-9636060D01*
X90548643Y-9674170D01*
X90510533Y-9636060D01*
X90586753Y-9636060D01*
X89786446Y-8873863D02*
X89786446Y-9254962D01*
X90167545Y-9293071D01*
X90129435Y-9254962D01*
X90091325Y-9178742D01*
X90091325Y-8988193D01*
X90129435Y-8911973D01*
X90167545Y-8873863D01*
X90243764Y-8835753D01*
X90434314Y-8835753D01*
X90510533Y-8873863D01*
X90548643Y-8911973D01*
X90586753Y-8988193D01*
X90586753Y-9178742D01*
X90548643Y-9254962D01*
X90510533Y-9293071D01*
X90586753Y-8492764D02*
X90053215Y-8492764D01*
X90129435Y-8492764D02*
X90091325Y-8454655D01*
X90053215Y-8378435D01*
X90053215Y-8264105D01*
X90091325Y-8187886D01*
X90167545Y-8149776D01*
X90586753Y-8149776D01*
X90167545Y-8149776D02*
X90091325Y-8111666D01*
X90053215Y-8035446D01*
X90053215Y-7921117D01*
X90091325Y-7844897D01*
X90167545Y-7806787D01*
X90586753Y-7806787D01*
X90586753Y-7425688D02*
X90053215Y-7425688D01*
X90129435Y-7425688D02*
X90091325Y-7387579D01*
X90053215Y-7311359D01*
X90053215Y-7197029D01*
X90091325Y-7120810D01*
X90167545Y-7082700D01*
X90586753Y-7082700D01*
X90167545Y-7082700D02*
X90091325Y-7044590D01*
X90053215Y-6968370D01*
X90053215Y-6854041D01*
X90091325Y-6777821D01*
X90167545Y-6739711D01*
X90586753Y-6739711D01*
D15*
X103773660Y-22658333D02*
X104487946Y-22658333D01*
X104630803Y-22705952D01*
X104726041Y-22801190D01*
X104773660Y-22944047D01*
X104773660Y-23039285D01*
X103773660Y-22277380D02*
X103773660Y-21658333D01*
X104154613Y-21991666D01*
X104154613Y-21848809D01*
X104202232Y-21753571D01*
X104249851Y-21705952D01*
X104345089Y-21658333D01*
X104583184Y-21658333D01*
X104678422Y-21705952D01*
X104726041Y-21753571D01*
X104773660Y-21848809D01*
X104773660Y-22134523D01*
X104726041Y-22229761D01*
X104678422Y-22277380D01*
X14378702Y-61722260D02*
X14045369Y-61246070D01*
X13807274Y-61722260D02*
X13807274Y-60722260D01*
X14188226Y-60722260D01*
X14283464Y-60769880D01*
X14331083Y-60817499D01*
X14378702Y-60912737D01*
X14378702Y-61055594D01*
X14331083Y-61150832D01*
X14283464Y-61198451D01*
X14188226Y-61246070D01*
X13807274Y-61246070D01*
X15331083Y-61722260D02*
X14759655Y-61722260D01*
X15045369Y-61722260D02*
X15045369Y-60722260D01*
X14950131Y-60865118D01*
X14854893Y-60960356D01*
X14759655Y-61007975D01*
X16235845Y-60722260D02*
X15759655Y-60722260D01*
X15712036Y-61198451D01*
X15759655Y-61150832D01*
X15854893Y-61103213D01*
X16092988Y-61103213D01*
X16188226Y-61150832D01*
X16235845Y-61198451D01*
X16283464Y-61293689D01*
X16283464Y-61531784D01*
X16235845Y-61627022D01*
X16188226Y-61674641D01*
X16092988Y-61722260D01*
X15854893Y-61722260D01*
X15759655Y-61674641D01*
X15712036Y-61627022D01*
X54456260Y-60509306D02*
X54456260Y-60985497D01*
X53456260Y-60985497D01*
X54456260Y-59652163D02*
X54456260Y-60223592D01*
X54456260Y-59937878D02*
X53456260Y-59937878D01*
X53599118Y-60033116D01*
X53694356Y-60128354D01*
X53741975Y-60223592D01*
X27870161Y-92826459D02*
X27774923Y-92778840D01*
X27679685Y-92683601D01*
X27536828Y-92540744D01*
X27441590Y-92493125D01*
X27346352Y-92493125D01*
X27393971Y-92731220D02*
X27298733Y-92683601D01*
X27203495Y-92588363D01*
X27155876Y-92397887D01*
X27155876Y-92064554D01*
X27203495Y-91874078D01*
X27298733Y-91778840D01*
X27393971Y-91731220D01*
X27584447Y-91731220D01*
X27679685Y-91778840D01*
X27774923Y-91874078D01*
X27822542Y-92064554D01*
X27822542Y-92397887D01*
X27774923Y-92588363D01*
X27679685Y-92683601D01*
X27584447Y-92731220D01*
X27393971Y-92731220D01*
X28155876Y-91731220D02*
X28774923Y-91731220D01*
X28441590Y-92112173D01*
X28584447Y-92112173D01*
X28679685Y-92159792D01*
X28727304Y-92207411D01*
X28774923Y-92302649D01*
X28774923Y-92540744D01*
X28727304Y-92635982D01*
X28679685Y-92683601D01*
X28584447Y-92731220D01*
X28298733Y-92731220D01*
X28203495Y-92683601D01*
X28155876Y-92635982D01*
X84900660Y-13372977D02*
X84424470Y-13706310D01*
X84900660Y-13944405D02*
X83900660Y-13944405D01*
X83900660Y-13563453D01*
X83948280Y-13468215D01*
X83995899Y-13420596D01*
X84091137Y-13372977D01*
X84233994Y-13372977D01*
X84329232Y-13420596D01*
X84376851Y-13468215D01*
X84424470Y-13563453D01*
X84424470Y-13944405D01*
X83995899Y-12992024D02*
X83948280Y-12944405D01*
X83900660Y-12849167D01*
X83900660Y-12611072D01*
X83948280Y-12515834D01*
X83995899Y-12468215D01*
X84091137Y-12420596D01*
X84186375Y-12420596D01*
X84329232Y-12468215D01*
X84900660Y-13039643D01*
X84900660Y-12420596D01*
X84900660Y-11468215D02*
X84900660Y-12039643D01*
X84900660Y-11753929D02*
X83900660Y-11753929D01*
X84043518Y-11849167D01*
X84138756Y-11944405D01*
X84186375Y-12039643D01*
X78900300Y-13443175D02*
X77900300Y-13443175D01*
X77900300Y-13205080D01*
X77947920Y-13062222D01*
X78043158Y-12966984D01*
X78138396Y-12919365D01*
X78328872Y-12871746D01*
X78471729Y-12871746D01*
X78662205Y-12919365D01*
X78757443Y-12966984D01*
X78852681Y-13062222D01*
X78900300Y-13205080D01*
X78900300Y-13443175D01*
X77900300Y-12014603D02*
X77900300Y-12205080D01*
X77947920Y-12300318D01*
X77995539Y-12347937D01*
X78138396Y-12443175D01*
X78328872Y-12490794D01*
X78709824Y-12490794D01*
X78805062Y-12443175D01*
X78852681Y-12395556D01*
X78900300Y-12300318D01*
X78900300Y-12109841D01*
X78852681Y-12014603D01*
X78805062Y-11966984D01*
X78709824Y-11919365D01*
X78471729Y-11919365D01*
X78376491Y-11966984D01*
X78328872Y-12014603D01*
X78281253Y-12109841D01*
X78281253Y-12300318D01*
X78328872Y-12395556D01*
X78376491Y-12443175D01*
X78471729Y-12490794D01*
X55243062Y-60883897D02*
X55290681Y-60931516D01*
X55338300Y-61074373D01*
X55338300Y-61169611D01*
X55290681Y-61312468D01*
X55195443Y-61407706D01*
X55100205Y-61455325D01*
X54909729Y-61502944D01*
X54766872Y-61502944D01*
X54576396Y-61455325D01*
X54481158Y-61407706D01*
X54385920Y-61312468D01*
X54338300Y-61169611D01*
X54338300Y-61074373D01*
X54385920Y-60931516D01*
X54433539Y-60883897D01*
X54433539Y-60502944D02*
X54385920Y-60455325D01*
X54338300Y-60360087D01*
X54338300Y-60121992D01*
X54385920Y-60026754D01*
X54433539Y-59979135D01*
X54528777Y-59931516D01*
X54624015Y-59931516D01*
X54766872Y-59979135D01*
X55338300Y-60550563D01*
X55338300Y-59931516D01*
X54338300Y-59598182D02*
X54338300Y-58931516D01*
X55338300Y-59360087D01*
X8371782Y-19418537D02*
X8419401Y-19466156D01*
X8467020Y-19609013D01*
X8467020Y-19704251D01*
X8419401Y-19847108D01*
X8324163Y-19942346D01*
X8228925Y-19989965D01*
X8038449Y-20037584D01*
X7895592Y-20037584D01*
X7705116Y-19989965D01*
X7609878Y-19942346D01*
X7514640Y-19847108D01*
X7467020Y-19704251D01*
X7467020Y-19609013D01*
X7514640Y-19466156D01*
X7562259Y-19418537D01*
X8467020Y-18466156D02*
X8467020Y-19037584D01*
X8467020Y-18751870D02*
X7467020Y-18751870D01*
X7609878Y-18847108D01*
X7705116Y-18942346D01*
X7752735Y-19037584D01*
X7562259Y-18085203D02*
X7514640Y-18037584D01*
X7467020Y-17942346D01*
X7467020Y-17704251D01*
X7514640Y-17609013D01*
X7562259Y-17561394D01*
X7657497Y-17513775D01*
X7752735Y-17513775D01*
X7895592Y-17561394D01*
X8467020Y-18132822D01*
X8467020Y-17513775D01*
X53666980Y-93220777D02*
X53190790Y-93554110D01*
X53666980Y-93792205D02*
X52666980Y-93792205D01*
X52666980Y-93411253D01*
X52714600Y-93316015D01*
X52762219Y-93268396D01*
X52857457Y-93220777D01*
X53000314Y-93220777D01*
X53095552Y-93268396D01*
X53143171Y-93316015D01*
X53190790Y-93411253D01*
X53190790Y-93792205D01*
X53666980Y-92268396D02*
X53666980Y-92839824D01*
X53666980Y-92554110D02*
X52666980Y-92554110D01*
X52809838Y-92649348D01*
X52905076Y-92744586D01*
X52952695Y-92839824D01*
X53666980Y-91316015D02*
X53666980Y-91887443D01*
X53666980Y-91601729D02*
X52666980Y-91601729D01*
X52809838Y-91696967D01*
X52905076Y-91792205D01*
X52952695Y-91887443D01*
X90731620Y-82721746D02*
X90255430Y-83055080D01*
X90731620Y-83293175D02*
X89731620Y-83293175D01*
X89731620Y-82912222D01*
X89779240Y-82816984D01*
X89826859Y-82769365D01*
X89922097Y-82721746D01*
X90064954Y-82721746D01*
X90160192Y-82769365D01*
X90207811Y-82816984D01*
X90255430Y-82912222D01*
X90255430Y-83293175D01*
X90731620Y-82245556D02*
X90731620Y-82055080D01*
X90684001Y-81959841D01*
X90636382Y-81912222D01*
X90493525Y-81816984D01*
X90303049Y-81769365D01*
X89922097Y-81769365D01*
X89826859Y-81816984D01*
X89779240Y-81864603D01*
X89731620Y-81959841D01*
X89731620Y-82150318D01*
X89779240Y-82245556D01*
X89826859Y-82293175D01*
X89922097Y-82340794D01*
X90160192Y-82340794D01*
X90255430Y-82293175D01*
X90303049Y-82245556D01*
X90350668Y-82150318D01*
X90350668Y-81959841D01*
X90303049Y-81864603D01*
X90255430Y-81816984D01*
X90160192Y-81769365D01*
X73713102Y-90777662D02*
X73665483Y-90825281D01*
X73522626Y-90872900D01*
X73427388Y-90872900D01*
X73284531Y-90825281D01*
X73189293Y-90730043D01*
X73141674Y-90634805D01*
X73094055Y-90444329D01*
X73094055Y-90301472D01*
X73141674Y-90110996D01*
X73189293Y-90015758D01*
X73284531Y-89920520D01*
X73427388Y-89872900D01*
X73522626Y-89872900D01*
X73665483Y-89920520D01*
X73713102Y-89968139D01*
X74665483Y-90872900D02*
X74094055Y-90872900D01*
X74379769Y-90872900D02*
X74379769Y-89872900D01*
X74284531Y-90015758D01*
X74189293Y-90110996D01*
X74094055Y-90158615D01*
X75284531Y-89872900D02*
X75379769Y-89872900D01*
X75475007Y-89920520D01*
X75522626Y-89968139D01*
X75570245Y-90063377D01*
X75617864Y-90253853D01*
X75617864Y-90491948D01*
X75570245Y-90682424D01*
X75522626Y-90777662D01*
X75475007Y-90825281D01*
X75379769Y-90872900D01*
X75284531Y-90872900D01*
X75189293Y-90825281D01*
X75141674Y-90777662D01*
X75094055Y-90682424D01*
X75046436Y-90491948D01*
X75046436Y-90253853D01*
X75094055Y-90063377D01*
X75141674Y-89968139D01*
X75189293Y-89920520D01*
X75284531Y-89872900D01*
X62388453Y-96218342D02*
X62340834Y-96265961D01*
X62197977Y-96313580D01*
X62102739Y-96313580D01*
X61959881Y-96265961D01*
X61864643Y-96170723D01*
X61817024Y-96075485D01*
X61769405Y-95885009D01*
X61769405Y-95742152D01*
X61817024Y-95551676D01*
X61864643Y-95456438D01*
X61959881Y-95361200D01*
X62102739Y-95313580D01*
X62197977Y-95313580D01*
X62340834Y-95361200D01*
X62388453Y-95408819D01*
X62864643Y-96313580D02*
X63055120Y-96313580D01*
X63150358Y-96265961D01*
X63197977Y-96218342D01*
X63293215Y-96075485D01*
X63340834Y-95885009D01*
X63340834Y-95504057D01*
X63293215Y-95408819D01*
X63245596Y-95361200D01*
X63150358Y-95313580D01*
X62959881Y-95313580D01*
X62864643Y-95361200D01*
X62817024Y-95408819D01*
X62769405Y-95504057D01*
X62769405Y-95742152D01*
X62817024Y-95837390D01*
X62864643Y-95885009D01*
X62959881Y-95932628D01*
X63150358Y-95932628D01*
X63245596Y-95885009D01*
X63293215Y-95837390D01*
X63340834Y-95742152D01*
X93099222Y-87009266D02*
X93146841Y-87056885D01*
X93194460Y-87199742D01*
X93194460Y-87294980D01*
X93146841Y-87437838D01*
X93051603Y-87533076D01*
X92956365Y-87580695D01*
X92765889Y-87628314D01*
X92623032Y-87628314D01*
X92432556Y-87580695D01*
X92337318Y-87533076D01*
X92242080Y-87437838D01*
X92194460Y-87294980D01*
X92194460Y-87199742D01*
X92242080Y-87056885D01*
X92289699Y-87009266D01*
X92194460Y-86675933D02*
X92194460Y-86009266D01*
X93194460Y-86437838D01*
X86462573Y-92032422D02*
X86414954Y-92080041D01*
X86272097Y-92127660D01*
X86176859Y-92127660D01*
X86034001Y-92080041D01*
X85938763Y-91984803D01*
X85891144Y-91889565D01*
X85843525Y-91699089D01*
X85843525Y-91556232D01*
X85891144Y-91365756D01*
X85938763Y-91270518D01*
X86034001Y-91175280D01*
X86176859Y-91127660D01*
X86272097Y-91127660D01*
X86414954Y-91175280D01*
X86462573Y-91222899D01*
X87319716Y-91127660D02*
X87129240Y-91127660D01*
X87034001Y-91175280D01*
X86986382Y-91222899D01*
X86891144Y-91365756D01*
X86843525Y-91556232D01*
X86843525Y-91937184D01*
X86891144Y-92032422D01*
X86938763Y-92080041D01*
X87034001Y-92127660D01*
X87224478Y-92127660D01*
X87319716Y-92080041D01*
X87367335Y-92032422D01*
X87414954Y-91937184D01*
X87414954Y-91699089D01*
X87367335Y-91603851D01*
X87319716Y-91556232D01*
X87224478Y-91508613D01*
X87034001Y-91508613D01*
X86938763Y-91556232D01*
X86891144Y-91603851D01*
X86843525Y-91699089D01*
X21712893Y-95593180D02*
X21379560Y-95116990D01*
X21141464Y-95593180D02*
X21141464Y-94593180D01*
X21522417Y-94593180D01*
X21617655Y-94640800D01*
X21665274Y-94688419D01*
X21712893Y-94783657D01*
X21712893Y-94926514D01*
X21665274Y-95021752D01*
X21617655Y-95069371D01*
X21522417Y-95116990D01*
X21141464Y-95116990D01*
X22046226Y-94593180D02*
X22712893Y-94593180D01*
X22284321Y-95593180D01*
X35958100Y-77570626D02*
X35481910Y-77903960D01*
X35958100Y-78142055D02*
X34958100Y-78142055D01*
X34958100Y-77761102D01*
X35005720Y-77665864D01*
X35053339Y-77618245D01*
X35148577Y-77570626D01*
X35291434Y-77570626D01*
X35386672Y-77618245D01*
X35434291Y-77665864D01*
X35481910Y-77761102D01*
X35481910Y-78142055D01*
X34958100Y-76713483D02*
X34958100Y-76903960D01*
X35005720Y-76999198D01*
X35053339Y-77046817D01*
X35196196Y-77142055D01*
X35386672Y-77189674D01*
X35767624Y-77189674D01*
X35862862Y-77142055D01*
X35910481Y-77094436D01*
X35958100Y-76999198D01*
X35958100Y-76808721D01*
X35910481Y-76713483D01*
X35862862Y-76665864D01*
X35767624Y-76618245D01*
X35529529Y-76618245D01*
X35434291Y-76665864D01*
X35386672Y-76713483D01*
X35339053Y-76808721D01*
X35339053Y-76999198D01*
X35386672Y-77094436D01*
X35434291Y-77142055D01*
X35529529Y-77189674D01*
X33256500Y-81141866D02*
X32780310Y-81475200D01*
X33256500Y-81713295D02*
X32256500Y-81713295D01*
X32256500Y-81332342D01*
X32304120Y-81237104D01*
X32351739Y-81189485D01*
X32446977Y-81141866D01*
X32589834Y-81141866D01*
X32685072Y-81189485D01*
X32732691Y-81237104D01*
X32780310Y-81332342D01*
X32780310Y-81713295D01*
X32256500Y-80237104D02*
X32256500Y-80713295D01*
X32732691Y-80760914D01*
X32685072Y-80713295D01*
X32637453Y-80618057D01*
X32637453Y-80379961D01*
X32685072Y-80284723D01*
X32732691Y-80237104D01*
X32827929Y-80189485D01*
X33066024Y-80189485D01*
X33161262Y-80237104D01*
X33208881Y-80284723D01*
X33256500Y-80379961D01*
X33256500Y-80618057D01*
X33208881Y-80713295D01*
X33161262Y-80760914D01*
X35097506Y-87953811D02*
X34764173Y-87953811D01*
X34764173Y-88477620D02*
X34764173Y-87477620D01*
X35240363Y-87477620D01*
X35954649Y-87953811D02*
X36097506Y-88001430D01*
X36145125Y-88049049D01*
X36192744Y-88144287D01*
X36192744Y-88287144D01*
X36145125Y-88382382D01*
X36097506Y-88430001D01*
X36002268Y-88477620D01*
X35621316Y-88477620D01*
X35621316Y-87477620D01*
X35954649Y-87477620D01*
X36049887Y-87525240D01*
X36097506Y-87572859D01*
X36145125Y-87668097D01*
X36145125Y-87763335D01*
X36097506Y-87858573D01*
X36049887Y-87906192D01*
X35954649Y-87953811D01*
X35621316Y-87953811D01*
X37145125Y-88477620D02*
X36573697Y-88477620D01*
X36859411Y-88477620D02*
X36859411Y-87477620D01*
X36764173Y-87620478D01*
X36668935Y-87715716D01*
X36573697Y-87763335D01*
X31828146Y-90618091D02*
X31494813Y-90618091D01*
X31494813Y-91141900D02*
X31494813Y-90141900D01*
X31971003Y-90141900D01*
X32875765Y-91141900D02*
X32304337Y-91141900D01*
X32590051Y-91141900D02*
X32590051Y-90141900D01*
X32494813Y-90284758D01*
X32399575Y-90379996D01*
X32304337Y-90427615D01*
X21007984Y-94128980D02*
X21007984Y-93128980D01*
X21246080Y-93128980D01*
X21388937Y-93176600D01*
X21484175Y-93271838D01*
X21531794Y-93367076D01*
X21579413Y-93557552D01*
X21579413Y-93700409D01*
X21531794Y-93890885D01*
X21484175Y-93986123D01*
X21388937Y-94081361D01*
X21246080Y-94128980D01*
X21007984Y-94128980D01*
X21912746Y-93128980D02*
X22531794Y-93128980D01*
X22198460Y-93509933D01*
X22341318Y-93509933D01*
X22436556Y-93557552D01*
X22484175Y-93605171D01*
X22531794Y-93700409D01*
X22531794Y-93938504D01*
X22484175Y-94033742D01*
X22436556Y-94081361D01*
X22341318Y-94128980D01*
X22055603Y-94128980D01*
X21960365Y-94081361D01*
X21912746Y-94033742D01*
X63794582Y-83727586D02*
X63842201Y-83775205D01*
X63889820Y-83918062D01*
X63889820Y-84013300D01*
X63842201Y-84156158D01*
X63746963Y-84251396D01*
X63651725Y-84299015D01*
X63461249Y-84346634D01*
X63318392Y-84346634D01*
X63127916Y-84299015D01*
X63032678Y-84251396D01*
X62937440Y-84156158D01*
X62889820Y-84013300D01*
X62889820Y-83918062D01*
X62937440Y-83775205D01*
X62985059Y-83727586D01*
X62889820Y-82822824D02*
X62889820Y-83299015D01*
X63366011Y-83346634D01*
X63318392Y-83299015D01*
X63270773Y-83203777D01*
X63270773Y-82965681D01*
X63318392Y-82870443D01*
X63366011Y-82822824D01*
X63461249Y-82775205D01*
X63699344Y-82775205D01*
X63794582Y-82822824D01*
X63842201Y-82870443D01*
X63889820Y-82965681D01*
X63889820Y-83203777D01*
X63842201Y-83299015D01*
X63794582Y-83346634D01*
X52663382Y-83687046D02*
X52711001Y-83734665D01*
X52758620Y-83877522D01*
X52758620Y-83972760D01*
X52711001Y-84115618D01*
X52615763Y-84210856D01*
X52520525Y-84258475D01*
X52330049Y-84306094D01*
X52187192Y-84306094D01*
X51996716Y-84258475D01*
X51901478Y-84210856D01*
X51806240Y-84115618D01*
X51758620Y-83972760D01*
X51758620Y-83877522D01*
X51806240Y-83734665D01*
X51853859Y-83687046D01*
X52091954Y-82829903D02*
X52758620Y-82829903D01*
X51711001Y-83067999D02*
X52425287Y-83306094D01*
X52425287Y-82687046D01*
X46187302Y-84413386D02*
X46234921Y-84461005D01*
X46282540Y-84603862D01*
X46282540Y-84699100D01*
X46234921Y-84841958D01*
X46139683Y-84937196D01*
X46044445Y-84984815D01*
X45853969Y-85032434D01*
X45711112Y-85032434D01*
X45520636Y-84984815D01*
X45425398Y-84937196D01*
X45330160Y-84841958D01*
X45282540Y-84699100D01*
X45282540Y-84603862D01*
X45330160Y-84461005D01*
X45377779Y-84413386D01*
X45282540Y-84080053D02*
X45282540Y-83461005D01*
X45663493Y-83794339D01*
X45663493Y-83651481D01*
X45711112Y-83556243D01*
X45758731Y-83508624D01*
X45853969Y-83461005D01*
X46092064Y-83461005D01*
X46187302Y-83508624D01*
X46234921Y-83556243D01*
X46282540Y-83651481D01*
X46282540Y-83937196D01*
X46234921Y-84032434D01*
X46187302Y-84080053D01*
X36361662Y-83478666D02*
X36409281Y-83526285D01*
X36456900Y-83669142D01*
X36456900Y-83764380D01*
X36409281Y-83907238D01*
X36314043Y-84002476D01*
X36218805Y-84050095D01*
X36028329Y-84097714D01*
X35885472Y-84097714D01*
X35694996Y-84050095D01*
X35599758Y-84002476D01*
X35504520Y-83907238D01*
X35456900Y-83764380D01*
X35456900Y-83669142D01*
X35504520Y-83526285D01*
X35552139Y-83478666D01*
X35552139Y-83097714D02*
X35504520Y-83050095D01*
X35456900Y-82954857D01*
X35456900Y-82716761D01*
X35504520Y-82621523D01*
X35552139Y-82573904D01*
X35647377Y-82526285D01*
X35742615Y-82526285D01*
X35885472Y-82573904D01*
X36456900Y-83145333D01*
X36456900Y-82526285D01*
X37714893Y-87807982D02*
X37667274Y-87855601D01*
X37524417Y-87903220D01*
X37429179Y-87903220D01*
X37286321Y-87855601D01*
X37191083Y-87760363D01*
X37143464Y-87665125D01*
X37095845Y-87474649D01*
X37095845Y-87331792D01*
X37143464Y-87141316D01*
X37191083Y-87046078D01*
X37286321Y-86950840D01*
X37429179Y-86903220D01*
X37524417Y-86903220D01*
X37667274Y-86950840D01*
X37714893Y-86998459D01*
X38667274Y-87903220D02*
X38095845Y-87903220D01*
X38381560Y-87903220D02*
X38381560Y-86903220D01*
X38286321Y-87046078D01*
X38191083Y-87141316D01*
X38095845Y-87188935D01*
X12407662Y-52097260D02*
X12074329Y-51621070D01*
X11836234Y-52097260D02*
X11836234Y-51097260D01*
X12217186Y-51097260D01*
X12312424Y-51144880D01*
X12360043Y-51192499D01*
X12407662Y-51287737D01*
X12407662Y-51430594D01*
X12360043Y-51525832D01*
X12312424Y-51573451D01*
X12217186Y-51621070D01*
X11836234Y-51621070D01*
X12788615Y-51192499D02*
X12836234Y-51144880D01*
X12931472Y-51097260D01*
X13169567Y-51097260D01*
X13264805Y-51144880D01*
X13312424Y-51192499D01*
X13360043Y-51287737D01*
X13360043Y-51382975D01*
X13312424Y-51525832D01*
X12740996Y-52097260D01*
X13360043Y-52097260D01*
X13979091Y-51097260D02*
X14074329Y-51097260D01*
X14169567Y-51144880D01*
X14217186Y-51192499D01*
X14264805Y-51287737D01*
X14312424Y-51478213D01*
X14312424Y-51716308D01*
X14264805Y-51906784D01*
X14217186Y-52002022D01*
X14169567Y-52049641D01*
X14074329Y-52097260D01*
X13979091Y-52097260D01*
X13883853Y-52049641D01*
X13836234Y-52002022D01*
X13788615Y-51906784D01*
X13740996Y-51716308D01*
X13740996Y-51478213D01*
X13788615Y-51287737D01*
X13836234Y-51192499D01*
X13883853Y-51144880D01*
X13979091Y-51097260D01*
X12636262Y-50923780D02*
X12302929Y-50447590D01*
X12064834Y-50923780D02*
X12064834Y-49923780D01*
X12445786Y-49923780D01*
X12541024Y-49971400D01*
X12588643Y-50019019D01*
X12636262Y-50114257D01*
X12636262Y-50257114D01*
X12588643Y-50352352D01*
X12541024Y-50399971D01*
X12445786Y-50447590D01*
X12064834Y-50447590D01*
X13588643Y-50923780D02*
X13017215Y-50923780D01*
X13302929Y-50923780D02*
X13302929Y-49923780D01*
X13207691Y-50066638D01*
X13112453Y-50161876D01*
X13017215Y-50209495D01*
X14064834Y-50923780D02*
X14255310Y-50923780D01*
X14350548Y-50876161D01*
X14398167Y-50828542D01*
X14493405Y-50685685D01*
X14541024Y-50495209D01*
X14541024Y-50114257D01*
X14493405Y-50019019D01*
X14445786Y-49971400D01*
X14350548Y-49923780D01*
X14160072Y-49923780D01*
X14064834Y-49971400D01*
X14017215Y-50019019D01*
X13969596Y-50114257D01*
X13969596Y-50352352D01*
X14017215Y-50447590D01*
X14064834Y-50495209D01*
X14160072Y-50542828D01*
X14350548Y-50542828D01*
X14445786Y-50495209D01*
X14493405Y-50447590D01*
X14541024Y-50352352D01*
X12676902Y-54596620D02*
X12343569Y-54120430D01*
X12105474Y-54596620D02*
X12105474Y-53596620D01*
X12486426Y-53596620D01*
X12581664Y-53644240D01*
X12629283Y-53691859D01*
X12676902Y-53787097D01*
X12676902Y-53929954D01*
X12629283Y-54025192D01*
X12581664Y-54072811D01*
X12486426Y-54120430D01*
X12105474Y-54120430D01*
X13629283Y-54596620D02*
X13057855Y-54596620D01*
X13343569Y-54596620D02*
X13343569Y-53596620D01*
X13248331Y-53739478D01*
X13153093Y-53834716D01*
X13057855Y-53882335D01*
X14200712Y-54025192D02*
X14105474Y-53977573D01*
X14057855Y-53929954D01*
X14010236Y-53834716D01*
X14010236Y-53787097D01*
X14057855Y-53691859D01*
X14105474Y-53644240D01*
X14200712Y-53596620D01*
X14391188Y-53596620D01*
X14486426Y-53644240D01*
X14534045Y-53691859D01*
X14581664Y-53787097D01*
X14581664Y-53834716D01*
X14534045Y-53929954D01*
X14486426Y-53977573D01*
X14391188Y-54025192D01*
X14200712Y-54025192D01*
X14105474Y-54072811D01*
X14057855Y-54120430D01*
X14010236Y-54215668D01*
X14010236Y-54406144D01*
X14057855Y-54501382D01*
X14105474Y-54549001D01*
X14200712Y-54596620D01*
X14391188Y-54596620D01*
X14486426Y-54549001D01*
X14534045Y-54501382D01*
X14581664Y-54406144D01*
X14581664Y-54215668D01*
X14534045Y-54120430D01*
X14486426Y-54072811D01*
X14391188Y-54025192D01*
X12524502Y-49379460D02*
X12191169Y-48903270D01*
X11953074Y-49379460D02*
X11953074Y-48379460D01*
X12334026Y-48379460D01*
X12429264Y-48427080D01*
X12476883Y-48474699D01*
X12524502Y-48569937D01*
X12524502Y-48712794D01*
X12476883Y-48808032D01*
X12429264Y-48855651D01*
X12334026Y-48903270D01*
X11953074Y-48903270D01*
X13476883Y-49379460D02*
X12905455Y-49379460D01*
X13191169Y-49379460D02*
X13191169Y-48379460D01*
X13095931Y-48522318D01*
X13000693Y-48617556D01*
X12905455Y-48665175D01*
X13810217Y-48379460D02*
X14476883Y-48379460D01*
X14048312Y-49379460D01*
X86423740Y-85219777D02*
X85947550Y-85553110D01*
X86423740Y-85791205D02*
X85423740Y-85791205D01*
X85423740Y-85410253D01*
X85471360Y-85315015D01*
X85518979Y-85267396D01*
X85614217Y-85219777D01*
X85757074Y-85219777D01*
X85852312Y-85267396D01*
X85899931Y-85315015D01*
X85947550Y-85410253D01*
X85947550Y-85791205D01*
X86423740Y-84267396D02*
X86423740Y-84838824D01*
X86423740Y-84553110D02*
X85423740Y-84553110D01*
X85566598Y-84648348D01*
X85661836Y-84743586D01*
X85709455Y-84838824D01*
X85423740Y-83648348D02*
X85423740Y-83553110D01*
X85471360Y-83457872D01*
X85518979Y-83410253D01*
X85614217Y-83362634D01*
X85804693Y-83315015D01*
X86042788Y-83315015D01*
X86233264Y-83362634D01*
X86328502Y-83410253D01*
X86376121Y-83457872D01*
X86423740Y-83553110D01*
X86423740Y-83648348D01*
X86376121Y-83743586D01*
X86328502Y-83791205D01*
X86233264Y-83838824D01*
X86042788Y-83886443D01*
X85804693Y-83886443D01*
X85614217Y-83838824D01*
X85518979Y-83791205D01*
X85471360Y-83743586D01*
X85423740Y-83648348D01*
X77950340Y-85068706D02*
X77474150Y-85402040D01*
X77950340Y-85640135D02*
X76950340Y-85640135D01*
X76950340Y-85259182D01*
X76997960Y-85163944D01*
X77045579Y-85116325D01*
X77140817Y-85068706D01*
X77283674Y-85068706D01*
X77378912Y-85116325D01*
X77426531Y-85163944D01*
X77474150Y-85259182D01*
X77474150Y-85640135D01*
X77378912Y-84497278D02*
X77331293Y-84592516D01*
X77283674Y-84640135D01*
X77188436Y-84687754D01*
X77140817Y-84687754D01*
X77045579Y-84640135D01*
X76997960Y-84592516D01*
X76950340Y-84497278D01*
X76950340Y-84306801D01*
X76997960Y-84211563D01*
X77045579Y-84163944D01*
X77140817Y-84116325D01*
X77188436Y-84116325D01*
X77283674Y-84163944D01*
X77331293Y-84211563D01*
X77378912Y-84306801D01*
X77378912Y-84497278D01*
X77426531Y-84592516D01*
X77474150Y-84640135D01*
X77569388Y-84687754D01*
X77759864Y-84687754D01*
X77855102Y-84640135D01*
X77902721Y-84592516D01*
X77950340Y-84497278D01*
X77950340Y-84306801D01*
X77902721Y-84211563D01*
X77855102Y-84163944D01*
X77759864Y-84116325D01*
X77569388Y-84116325D01*
X77474150Y-84163944D01*
X77426531Y-84211563D01*
X77378912Y-84306801D01*
X81494641Y-83010619D02*
X81399403Y-82963000D01*
X81304165Y-82867761D01*
X81161308Y-82724904D01*
X81066070Y-82677285D01*
X80970832Y-82677285D01*
X81018451Y-82915380D02*
X80923213Y-82867761D01*
X80827975Y-82772523D01*
X80780356Y-82582047D01*
X80780356Y-82248714D01*
X80827975Y-82058238D01*
X80923213Y-81963000D01*
X81018451Y-81915380D01*
X81208927Y-81915380D01*
X81304165Y-81963000D01*
X81399403Y-82058238D01*
X81447022Y-82248714D01*
X81447022Y-82582047D01*
X81399403Y-82772523D01*
X81304165Y-82867761D01*
X81208927Y-82915380D01*
X81018451Y-82915380D01*
X82304165Y-82248714D02*
X82304165Y-82915380D01*
X82066070Y-81867761D02*
X81827975Y-82582047D01*
X82447022Y-82582047D01*
X87785984Y-84153020D02*
X87785984Y-83153020D01*
X88024080Y-83153020D01*
X88166937Y-83200640D01*
X88262175Y-83295878D01*
X88309794Y-83391116D01*
X88357413Y-83581592D01*
X88357413Y-83724449D01*
X88309794Y-83914925D01*
X88262175Y-84010163D01*
X88166937Y-84105401D01*
X88024080Y-84153020D01*
X87785984Y-84153020D01*
X89214556Y-83486354D02*
X89214556Y-84153020D01*
X88976460Y-83105401D02*
X88738365Y-83819687D01*
X89357413Y-83819687D01*
X12646422Y-56447022D02*
X12598803Y-56494641D01*
X12455946Y-56542260D01*
X12360708Y-56542260D01*
X12217851Y-56494641D01*
X12122613Y-56399403D01*
X12074994Y-56304165D01*
X12027375Y-56113689D01*
X12027375Y-55970832D01*
X12074994Y-55780356D01*
X12122613Y-55685118D01*
X12217851Y-55589880D01*
X12360708Y-55542260D01*
X12455946Y-55542260D01*
X12598803Y-55589880D01*
X12646422Y-55637499D01*
X13027375Y-55637499D02*
X13074994Y-55589880D01*
X13170232Y-55542260D01*
X13408327Y-55542260D01*
X13503565Y-55589880D01*
X13551184Y-55637499D01*
X13598803Y-55732737D01*
X13598803Y-55827975D01*
X13551184Y-55970832D01*
X12979756Y-56542260D01*
X13598803Y-56542260D01*
X14455946Y-55542260D02*
X14265470Y-55542260D01*
X14170232Y-55589880D01*
X14122613Y-55637499D01*
X14027375Y-55780356D01*
X13979756Y-55970832D01*
X13979756Y-56351784D01*
X14027375Y-56447022D01*
X14074994Y-56494641D01*
X14170232Y-56542260D01*
X14360708Y-56542260D01*
X14455946Y-56494641D01*
X14503565Y-56447022D01*
X14551184Y-56351784D01*
X14551184Y-56113689D01*
X14503565Y-56018451D01*
X14455946Y-55970832D01*
X14360708Y-55923213D01*
X14170232Y-55923213D01*
X14074994Y-55970832D01*
X14027375Y-56018451D01*
X13979756Y-56113689D01*
X70383342Y-95655426D02*
X70430961Y-95703045D01*
X70478580Y-95845902D01*
X70478580Y-95941140D01*
X70430961Y-96083998D01*
X70335723Y-96179236D01*
X70240485Y-96226855D01*
X70050009Y-96274474D01*
X69907152Y-96274474D01*
X69716676Y-96226855D01*
X69621438Y-96179236D01*
X69526200Y-96083998D01*
X69478580Y-95941140D01*
X69478580Y-95845902D01*
X69526200Y-95703045D01*
X69573819Y-95655426D01*
X69907152Y-95083998D02*
X69859533Y-95179236D01*
X69811914Y-95226855D01*
X69716676Y-95274474D01*
X69669057Y-95274474D01*
X69573819Y-95226855D01*
X69526200Y-95179236D01*
X69478580Y-95083998D01*
X69478580Y-94893521D01*
X69526200Y-94798283D01*
X69573819Y-94750664D01*
X69669057Y-94703045D01*
X69716676Y-94703045D01*
X69811914Y-94750664D01*
X69859533Y-94798283D01*
X69907152Y-94893521D01*
X69907152Y-95083998D01*
X69954771Y-95179236D01*
X70002390Y-95226855D01*
X70097628Y-95274474D01*
X70288104Y-95274474D01*
X70383342Y-95226855D01*
X70430961Y-95179236D01*
X70478580Y-95083998D01*
X70478580Y-94893521D01*
X70430961Y-94798283D01*
X70383342Y-94750664D01*
X70288104Y-94703045D01*
X70097628Y-94703045D01*
X70002390Y-94750664D01*
X69954771Y-94798283D01*
X69907152Y-94893521D01*
X53844820Y-82138424D02*
X54654344Y-82138424D01*
X54749582Y-82090805D01*
X54797201Y-82043186D01*
X54844820Y-81947948D01*
X54844820Y-81757472D01*
X54797201Y-81662234D01*
X54749582Y-81614615D01*
X54654344Y-81566996D01*
X53844820Y-81566996D01*
X53844820Y-81186043D02*
X53844820Y-80566996D01*
X54225773Y-80900329D01*
X54225773Y-80757472D01*
X54273392Y-80662234D01*
X54321011Y-80614615D01*
X54416249Y-80566996D01*
X54654344Y-80566996D01*
X54749582Y-80614615D01*
X54797201Y-80662234D01*
X54844820Y-80757472D01*
X54844820Y-81043186D01*
X54797201Y-81138424D01*
X54749582Y-81186043D01*
X29146666Y-98896961D02*
X29289523Y-98944580D01*
X29527619Y-98944580D01*
X29622857Y-98896961D01*
X29670476Y-98849342D01*
X29718095Y-98754104D01*
X29718095Y-98658866D01*
X29670476Y-98563628D01*
X29622857Y-98516009D01*
X29527619Y-98468390D01*
X29337142Y-98420771D01*
X29241904Y-98373152D01*
X29194285Y-98325533D01*
X29146666Y-98230295D01*
X29146666Y-98135057D01*
X29194285Y-98039819D01*
X29241904Y-97992200D01*
X29337142Y-97944580D01*
X29575238Y-97944580D01*
X29718095Y-97992200D01*
X30051428Y-97944580D02*
X30289523Y-98944580D01*
X30480000Y-98230295D01*
X30670476Y-98944580D01*
X30908571Y-97944580D01*
X31813333Y-98944580D02*
X31241904Y-98944580D01*
X31527619Y-98944580D02*
X31527619Y-97944580D01*
X31432380Y-98087438D01*
X31337142Y-98182676D01*
X31241904Y-98230295D01*
X46261510Y-62985590D02*
X46737700Y-62985590D01*
X45737700Y-63318923D02*
X46261510Y-62985590D01*
X45737700Y-62652257D01*
X46737700Y-61795114D02*
X46737700Y-62366542D01*
X46737700Y-62080828D02*
X45737700Y-62080828D01*
X45880558Y-62176066D01*
X45975796Y-62271304D01*
X46023415Y-62366542D01*
X37295180Y-81839264D02*
X38104704Y-81839264D01*
X38199942Y-81791645D01*
X38247561Y-81744026D01*
X38295180Y-81648788D01*
X38295180Y-81458312D01*
X38247561Y-81363074D01*
X38199942Y-81315455D01*
X38104704Y-81267836D01*
X37295180Y-81267836D01*
X37390419Y-80839264D02*
X37342800Y-80791645D01*
X37295180Y-80696407D01*
X37295180Y-80458312D01*
X37342800Y-80363074D01*
X37390419Y-80315455D01*
X37485657Y-80267836D01*
X37580895Y-80267836D01*
X37723752Y-80315455D01*
X38295180Y-80886883D01*
X38295180Y-80267836D01*
X73395935Y5331499D02*
X73395935Y4521975D01*
X73443554Y4426737D01*
X73491173Y4379118D01*
X73586411Y4331499D01*
X73776887Y4331499D01*
X73872125Y4379118D01*
X73919744Y4426737D01*
X73967363Y4521975D01*
X73967363Y5331499D01*
X74919744Y5331499D02*
X74443554Y5331499D01*
X74395935Y4855308D01*
X74443554Y4902927D01*
X74538792Y4950546D01*
X74776887Y4950546D01*
X74872125Y4902927D01*
X74919744Y4855308D01*
X74967363Y4760070D01*
X74967363Y4521975D01*
X74919744Y4426737D01*
X74872125Y4379118D01*
X74776887Y4331499D01*
X74538792Y4331499D01*
X74443554Y4379118D01*
X74395935Y4426737D01*
X37548860Y-51114864D02*
X38358384Y-51114864D01*
X38453622Y-51067245D01*
X38501241Y-51019626D01*
X38548860Y-50924388D01*
X38548860Y-50733912D01*
X38501241Y-50638674D01*
X38453622Y-50591055D01*
X38358384Y-50543436D01*
X37548860Y-50543436D01*
X37882194Y-49638674D02*
X38548860Y-49638674D01*
X37501241Y-49876769D02*
X38215527Y-50114864D01*
X38215527Y-49495817D01*
X33299580Y-19946104D02*
X34109104Y-19946104D01*
X34204342Y-19898485D01*
X34251961Y-19850866D01*
X34299580Y-19755628D01*
X34299580Y-19565152D01*
X34251961Y-19469914D01*
X34204342Y-19422295D01*
X34109104Y-19374676D01*
X33299580Y-19374676D01*
X33299580Y-18469914D02*
X33299580Y-18660390D01*
X33347200Y-18755628D01*
X33394819Y-18803247D01*
X33537676Y-18898485D01*
X33728152Y-18946104D01*
X34109104Y-18946104D01*
X34204342Y-18898485D01*
X34251961Y-18850866D01*
X34299580Y-18755628D01*
X34299580Y-18565152D01*
X34251961Y-18469914D01*
X34204342Y-18422295D01*
X34109104Y-18374676D01*
X33871009Y-18374676D01*
X33775771Y-18422295D01*
X33728152Y-18469914D01*
X33680533Y-18565152D01*
X33680533Y-18755628D01*
X33728152Y-18850866D01*
X33775771Y-18898485D01*
X33871009Y-18946104D01*
X75387295Y-23776500D02*
X75387295Y-24586024D01*
X75434914Y-24681262D01*
X75482533Y-24728881D01*
X75577771Y-24776500D01*
X75768247Y-24776500D01*
X75863485Y-24728881D01*
X75911104Y-24681262D01*
X75958723Y-24586024D01*
X75958723Y-23776500D01*
X76958723Y-24776500D02*
X76387295Y-24776500D01*
X76673009Y-24776500D02*
X76673009Y-23776500D01*
X76577771Y-23919358D01*
X76482533Y-24014596D01*
X76387295Y-24062215D01*
X5204961Y-69598373D02*
X5252580Y-69455516D01*
X5252580Y-69217420D01*
X5204961Y-69122182D01*
X5157342Y-69074563D01*
X5062104Y-69026944D01*
X4966866Y-69026944D01*
X4871628Y-69074563D01*
X4824009Y-69122182D01*
X4776390Y-69217420D01*
X4728771Y-69407897D01*
X4681152Y-69503135D01*
X4633533Y-69550754D01*
X4538295Y-69598373D01*
X4443057Y-69598373D01*
X4347819Y-69550754D01*
X4300200Y-69503135D01*
X4252580Y-69407897D01*
X4252580Y-69169801D01*
X4300200Y-69026944D01*
X4252580Y-68693611D02*
X5252580Y-68455516D01*
X4538295Y-68265040D01*
X5252580Y-68074563D01*
X4252580Y-67836468D01*
X4252580Y-67026944D02*
X4252580Y-67217420D01*
X4300200Y-67312659D01*
X4347819Y-67360278D01*
X4490676Y-67455516D01*
X4681152Y-67503135D01*
X5062104Y-67503135D01*
X5157342Y-67455516D01*
X5204961Y-67407897D01*
X5252580Y-67312659D01*
X5252580Y-67122182D01*
X5204961Y-67026944D01*
X5157342Y-66979325D01*
X5062104Y-66931706D01*
X4824009Y-66931706D01*
X4728771Y-66979325D01*
X4681152Y-67026944D01*
X4633533Y-67122182D01*
X4633533Y-67312659D01*
X4681152Y-67407897D01*
X4728771Y-67455516D01*
X4824009Y-67503135D01*
X9834761Y-31381533D02*
X9882380Y-31238676D01*
X9882380Y-31000580D01*
X9834761Y-30905342D01*
X9787142Y-30857723D01*
X9691904Y-30810104D01*
X9596666Y-30810104D01*
X9501428Y-30857723D01*
X9453809Y-30905342D01*
X9406190Y-31000580D01*
X9358571Y-31191057D01*
X9310952Y-31286295D01*
X9263333Y-31333914D01*
X9168095Y-31381533D01*
X9072857Y-31381533D01*
X8977619Y-31333914D01*
X8930000Y-31286295D01*
X8882380Y-31191057D01*
X8882380Y-30952961D01*
X8930000Y-30810104D01*
X8882380Y-30476771D02*
X9882380Y-30238676D01*
X9168095Y-30048200D01*
X9882380Y-29857723D01*
X8882380Y-29619628D01*
X8882380Y-28762485D02*
X8882380Y-29238676D01*
X9358571Y-29286295D01*
X9310952Y-29238676D01*
X9263333Y-29143438D01*
X9263333Y-28905342D01*
X9310952Y-28810104D01*
X9358571Y-28762485D01*
X9453809Y-28714866D01*
X9691904Y-28714866D01*
X9787142Y-28762485D01*
X9834761Y-28810104D01*
X9882380Y-28905342D01*
X9882380Y-29143438D01*
X9834761Y-29238676D01*
X9787142Y-29286295D01*
X21261721Y-22593133D02*
X21309340Y-22450276D01*
X21309340Y-22212180D01*
X21261721Y-22116942D01*
X21214102Y-22069323D01*
X21118864Y-22021704D01*
X21023626Y-22021704D01*
X20928388Y-22069323D01*
X20880769Y-22116942D01*
X20833150Y-22212180D01*
X20785531Y-22402657D01*
X20737912Y-22497895D01*
X20690293Y-22545514D01*
X20595055Y-22593133D01*
X20499817Y-22593133D01*
X20404579Y-22545514D01*
X20356960Y-22497895D01*
X20309340Y-22402657D01*
X20309340Y-22164561D01*
X20356960Y-22021704D01*
X20309340Y-21688371D02*
X21309340Y-21450276D01*
X20595055Y-21259800D01*
X21309340Y-21069323D01*
X20309340Y-20831228D01*
X20642674Y-20021704D02*
X21309340Y-20021704D01*
X20261721Y-20259800D02*
X20976007Y-20497895D01*
X20976007Y-19878847D01*
X9580761Y-14170493D02*
X9628380Y-14027636D01*
X9628380Y-13789540D01*
X9580761Y-13694302D01*
X9533142Y-13646683D01*
X9437904Y-13599064D01*
X9342666Y-13599064D01*
X9247428Y-13646683D01*
X9199809Y-13694302D01*
X9152190Y-13789540D01*
X9104571Y-13980017D01*
X9056952Y-14075255D01*
X9009333Y-14122874D01*
X8914095Y-14170493D01*
X8818857Y-14170493D01*
X8723619Y-14122874D01*
X8676000Y-14075255D01*
X8628380Y-13980017D01*
X8628380Y-13741921D01*
X8676000Y-13599064D01*
X8628380Y-13265731D02*
X9628380Y-13027636D01*
X8914095Y-12837160D01*
X9628380Y-12646683D01*
X8628380Y-12408588D01*
X8628380Y-12122874D02*
X8628380Y-11503826D01*
X9009333Y-11837160D01*
X9009333Y-11694302D01*
X9056952Y-11599064D01*
X9104571Y-11551445D01*
X9199809Y-11503826D01*
X9437904Y-11503826D01*
X9533142Y-11551445D01*
X9580761Y-11599064D01*
X9628380Y-11694302D01*
X9628380Y-11980017D01*
X9580761Y-12075255D01*
X9533142Y-12122874D01*
X94543706Y-72949281D02*
X94686563Y-72996900D01*
X94924659Y-72996900D01*
X95019897Y-72949281D01*
X95067516Y-72901662D01*
X95115135Y-72806424D01*
X95115135Y-72711186D01*
X95067516Y-72615948D01*
X95019897Y-72568329D01*
X94924659Y-72520710D01*
X94734182Y-72473091D01*
X94638944Y-72425472D01*
X94591325Y-72377853D01*
X94543706Y-72282615D01*
X94543706Y-72187377D01*
X94591325Y-72092139D01*
X94638944Y-72044520D01*
X94734182Y-71996900D01*
X94972278Y-71996900D01*
X95115135Y-72044520D01*
X95448468Y-71996900D02*
X95686563Y-72996900D01*
X95877040Y-72282615D01*
X96067516Y-72996900D01*
X96305611Y-71996900D01*
X96638944Y-72092139D02*
X96686563Y-72044520D01*
X96781801Y-71996900D01*
X97019897Y-71996900D01*
X97115135Y-72044520D01*
X97162754Y-72092139D01*
X97210373Y-72187377D01*
X97210373Y-72282615D01*
X97162754Y-72425472D01*
X96591325Y-72996900D01*
X97210373Y-72996900D01*
X14662740Y-60779897D02*
X14186550Y-61113230D01*
X14662740Y-61351325D02*
X13662740Y-61351325D01*
X13662740Y-60970373D01*
X13710360Y-60875135D01*
X13757979Y-60827516D01*
X13853217Y-60779897D01*
X13996074Y-60779897D01*
X14091312Y-60827516D01*
X14138931Y-60875135D01*
X14186550Y-60970373D01*
X14186550Y-61351325D01*
X14662740Y-59827516D02*
X14662740Y-60398944D01*
X14662740Y-60113230D02*
X13662740Y-60113230D01*
X13805598Y-60208468D01*
X13900836Y-60303706D01*
X13948455Y-60398944D01*
X13662740Y-58970373D02*
X13662740Y-59160849D01*
X13710360Y-59256087D01*
X13757979Y-59303706D01*
X13900836Y-59398944D01*
X14091312Y-59446563D01*
X14472264Y-59446563D01*
X14567502Y-59398944D01*
X14615121Y-59351325D01*
X14662740Y-59256087D01*
X14662740Y-59065611D01*
X14615121Y-58970373D01*
X14567502Y-58922754D01*
X14472264Y-58875135D01*
X14234169Y-58875135D01*
X14138931Y-58922754D01*
X14091312Y-58970373D01*
X14043693Y-59065611D01*
X14043693Y-59256087D01*
X14091312Y-59351325D01*
X14138931Y-59398944D01*
X14234169Y-59446563D01*
X7444060Y-70116937D02*
X6967870Y-70450270D01*
X7444060Y-70688365D02*
X6444060Y-70688365D01*
X6444060Y-70307413D01*
X6491680Y-70212175D01*
X6539299Y-70164556D01*
X6634537Y-70116937D01*
X6777394Y-70116937D01*
X6872632Y-70164556D01*
X6920251Y-70212175D01*
X6967870Y-70307413D01*
X6967870Y-70688365D01*
X7444060Y-69164556D02*
X7444060Y-69735984D01*
X7444060Y-69450270D02*
X6444060Y-69450270D01*
X6586918Y-69545508D01*
X6682156Y-69640746D01*
X6729775Y-69735984D01*
X6777394Y-68307413D02*
X7444060Y-68307413D01*
X6396441Y-68545508D02*
X7110727Y-68783603D01*
X7110727Y-68164556D01*
X45883373Y-59752820D02*
X45550040Y-59276630D01*
X45311945Y-59752820D02*
X45311945Y-58752820D01*
X45692897Y-58752820D01*
X45788135Y-58800440D01*
X45835754Y-58848059D01*
X45883373Y-58943297D01*
X45883373Y-59086154D01*
X45835754Y-59181392D01*
X45788135Y-59229011D01*
X45692897Y-59276630D01*
X45311945Y-59276630D01*
X46835754Y-59752820D02*
X46264326Y-59752820D01*
X46550040Y-59752820D02*
X46550040Y-58752820D01*
X46454802Y-58895678D01*
X46359564Y-58990916D01*
X46264326Y-59038535D01*
X47169088Y-58752820D02*
X47788135Y-58752820D01*
X47454802Y-59133773D01*
X47597659Y-59133773D01*
X47692897Y-59181392D01*
X47740516Y-59229011D01*
X47788135Y-59324249D01*
X47788135Y-59562344D01*
X47740516Y-59657582D01*
X47692897Y-59705201D01*
X47597659Y-59752820D01*
X47311945Y-59752820D01*
X47216707Y-59705201D01*
X47169088Y-59657582D01*
X14602700Y-75720077D02*
X14126510Y-76053410D01*
X14602700Y-76291505D02*
X13602700Y-76291505D01*
X13602700Y-75910553D01*
X13650320Y-75815315D01*
X13697939Y-75767696D01*
X13793177Y-75720077D01*
X13936034Y-75720077D01*
X14031272Y-75767696D01*
X14078891Y-75815315D01*
X14126510Y-75910553D01*
X14126510Y-76291505D01*
X14602700Y-74767696D02*
X14602700Y-75339124D01*
X14602700Y-75053410D02*
X13602700Y-75053410D01*
X13745558Y-75148648D01*
X13840796Y-75243886D01*
X13888415Y-75339124D01*
X13697939Y-74386743D02*
X13650320Y-74339124D01*
X13602700Y-74243886D01*
X13602700Y-74005791D01*
X13650320Y-73910553D01*
X13697939Y-73862934D01*
X13793177Y-73815315D01*
X13888415Y-73815315D01*
X14031272Y-73862934D01*
X14602700Y-74434362D01*
X14602700Y-73815315D01*
X65534284Y-24576700D02*
X65200951Y-24100510D01*
X64962855Y-24576700D02*
X64962855Y-23576700D01*
X65343808Y-23576700D01*
X65439046Y-23624320D01*
X65486665Y-23671939D01*
X65534284Y-23767177D01*
X65534284Y-23910034D01*
X65486665Y-24005272D01*
X65439046Y-24052891D01*
X65343808Y-24100510D01*
X64962855Y-24100510D01*
X66391427Y-23910034D02*
X66391427Y-24576700D01*
X66153331Y-23529081D02*
X65915236Y-24243367D01*
X66534284Y-24243367D01*
X65675213Y-32701820D02*
X65341880Y-32225630D01*
X65103784Y-32701820D02*
X65103784Y-31701820D01*
X65484737Y-31701820D01*
X65579975Y-31749440D01*
X65627594Y-31797059D01*
X65675213Y-31892297D01*
X65675213Y-32035154D01*
X65627594Y-32130392D01*
X65579975Y-32178011D01*
X65484737Y-32225630D01*
X65103784Y-32225630D01*
X66008546Y-31701820D02*
X66627594Y-31701820D01*
X66294260Y-32082773D01*
X66437118Y-32082773D01*
X66532356Y-32130392D01*
X66579975Y-32178011D01*
X66627594Y-32273249D01*
X66627594Y-32511344D01*
X66579975Y-32606582D01*
X66532356Y-32654201D01*
X66437118Y-32701820D01*
X66151403Y-32701820D01*
X66056165Y-32654201D01*
X66008546Y-32606582D01*
X70231973Y-43101500D02*
X69898640Y-42625310D01*
X69660544Y-43101500D02*
X69660544Y-42101500D01*
X70041497Y-42101500D01*
X70136735Y-42149120D01*
X70184354Y-42196739D01*
X70231973Y-42291977D01*
X70231973Y-42434834D01*
X70184354Y-42530072D01*
X70136735Y-42577691D01*
X70041497Y-42625310D01*
X69660544Y-42625310D01*
X70612925Y-42196739D02*
X70660544Y-42149120D01*
X70755782Y-42101500D01*
X70993878Y-42101500D01*
X71089116Y-42149120D01*
X71136735Y-42196739D01*
X71184354Y-42291977D01*
X71184354Y-42387215D01*
X71136735Y-42530072D01*
X70565306Y-43101500D01*
X71184354Y-43101500D01*
X65761573Y-30314220D02*
X65428240Y-29838030D01*
X65190144Y-30314220D02*
X65190144Y-29314220D01*
X65571097Y-29314220D01*
X65666335Y-29361840D01*
X65713954Y-29409459D01*
X65761573Y-29504697D01*
X65761573Y-29647554D01*
X65713954Y-29742792D01*
X65666335Y-29790411D01*
X65571097Y-29838030D01*
X65190144Y-29838030D01*
X66713954Y-30314220D02*
X66142525Y-30314220D01*
X66428240Y-30314220D02*
X66428240Y-29314220D01*
X66333001Y-29457078D01*
X66237763Y-29552316D01*
X66142525Y-29599935D01*
X16230890Y-73030899D02*
X16135652Y-72983280D01*
X16040414Y-72888041D01*
X15897557Y-72745184D01*
X15802319Y-72697565D01*
X15707081Y-72697565D01*
X15754700Y-72935660D02*
X15659462Y-72888041D01*
X15564224Y-72792803D01*
X15516605Y-72602327D01*
X15516605Y-72268994D01*
X15564224Y-72078518D01*
X15659462Y-71983280D01*
X15754700Y-71935660D01*
X15945176Y-71935660D01*
X16040414Y-71983280D01*
X16135652Y-72078518D01*
X16183271Y-72268994D01*
X16183271Y-72602327D01*
X16135652Y-72792803D01*
X16040414Y-72888041D01*
X15945176Y-72935660D01*
X15754700Y-72935660D01*
X17088033Y-71935660D02*
X16611843Y-71935660D01*
X16564224Y-72411851D01*
X16611843Y-72364232D01*
X16707081Y-72316613D01*
X16945176Y-72316613D01*
X17040414Y-72364232D01*
X17088033Y-72411851D01*
X17135652Y-72507089D01*
X17135652Y-72745184D01*
X17088033Y-72840422D01*
X17040414Y-72888041D01*
X16945176Y-72935660D01*
X16707081Y-72935660D01*
X16611843Y-72888041D01*
X16564224Y-72840422D01*
X72384539Y-23635958D02*
X72336920Y-23731196D01*
X72241681Y-23826434D01*
X72098824Y-23969291D01*
X72051205Y-24064529D01*
X72051205Y-24159767D01*
X72289300Y-24112148D02*
X72241681Y-24207386D01*
X72146443Y-24302624D01*
X71955967Y-24350243D01*
X71622634Y-24350243D01*
X71432158Y-24302624D01*
X71336920Y-24207386D01*
X71289300Y-24112148D01*
X71289300Y-23921672D01*
X71336920Y-23826434D01*
X71432158Y-23731196D01*
X71622634Y-23683577D01*
X71955967Y-23683577D01*
X72146443Y-23731196D01*
X72241681Y-23826434D01*
X72289300Y-23921672D01*
X72289300Y-24112148D01*
X71384539Y-23302624D02*
X71336920Y-23255005D01*
X71289300Y-23159767D01*
X71289300Y-22921672D01*
X71336920Y-22826434D01*
X71384539Y-22778815D01*
X71479777Y-22731196D01*
X71575015Y-22731196D01*
X71717872Y-22778815D01*
X72289300Y-23350243D01*
X72289300Y-22731196D01*
X73828921Y-38194859D02*
X73733683Y-38147240D01*
X73638445Y-38052001D01*
X73495588Y-37909144D01*
X73400350Y-37861525D01*
X73305112Y-37861525D01*
X73352731Y-38099620D02*
X73257493Y-38052001D01*
X73162255Y-37956763D01*
X73114636Y-37766287D01*
X73114636Y-37432954D01*
X73162255Y-37242478D01*
X73257493Y-37147240D01*
X73352731Y-37099620D01*
X73543207Y-37099620D01*
X73638445Y-37147240D01*
X73733683Y-37242478D01*
X73781302Y-37432954D01*
X73781302Y-37766287D01*
X73733683Y-37956763D01*
X73638445Y-38052001D01*
X73543207Y-38099620D01*
X73352731Y-38099620D01*
X74733683Y-38099620D02*
X74162255Y-38099620D01*
X74447969Y-38099620D02*
X74447969Y-37099620D01*
X74352731Y-37242478D01*
X74257493Y-37337716D01*
X74162255Y-37385335D01*
X10638420Y-41708603D02*
X11352706Y-41708603D01*
X11495563Y-41756222D01*
X11590801Y-41851460D01*
X11638420Y-41994318D01*
X11638420Y-42089556D01*
X11638420Y-40708603D02*
X11638420Y-41280032D01*
X11638420Y-40994318D02*
X10638420Y-40994318D01*
X10781278Y-41089556D01*
X10876516Y-41184794D01*
X10924135Y-41280032D01*
X10638420Y-40375270D02*
X10638420Y-39756222D01*
X11019373Y-40089556D01*
X11019373Y-39946699D01*
X11066992Y-39851460D01*
X11114611Y-39803841D01*
X11209849Y-39756222D01*
X11447944Y-39756222D01*
X11543182Y-39803841D01*
X11590801Y-39851460D01*
X11638420Y-39946699D01*
X11638420Y-40232413D01*
X11590801Y-40327651D01*
X11543182Y-40375270D01*
X5510716Y-45727820D02*
X5510716Y-46442106D01*
X5463097Y-46584963D01*
X5367859Y-46680201D01*
X5225001Y-46727820D01*
X5129763Y-46727820D01*
X6510716Y-46727820D02*
X5939287Y-46727820D01*
X6225001Y-46727820D02*
X6225001Y-45727820D01*
X6129763Y-45870678D01*
X6034525Y-45965916D01*
X5939287Y-46013535D01*
X7415478Y-45727820D02*
X6939287Y-45727820D01*
X6891668Y-46204011D01*
X6939287Y-46156392D01*
X7034525Y-46108773D01*
X7272620Y-46108773D01*
X7367859Y-46156392D01*
X7415478Y-46204011D01*
X7463097Y-46299249D01*
X7463097Y-46537344D01*
X7415478Y-46632582D01*
X7367859Y-46680201D01*
X7272620Y-46727820D01*
X7034525Y-46727820D01*
X6939287Y-46680201D01*
X6891668Y-46632582D01*
D13*
X7903754Y-55322651D02*
X7903754Y-55758080D01*
X7874725Y-55845165D01*
X7816668Y-55903222D01*
X7729582Y-55932251D01*
X7671525Y-55932251D01*
X8513354Y-55932251D02*
X8165011Y-55932251D01*
X8339182Y-55932251D02*
X8339182Y-55322651D01*
X8281125Y-55409737D01*
X8223068Y-55467794D01*
X8165011Y-55496822D01*
X9035868Y-55525851D02*
X9035868Y-55932251D01*
X8890725Y-55293622D02*
X8745582Y-55729051D01*
X9122954Y-55729051D01*
X5233125Y-63356308D02*
X5175068Y-63327280D01*
X5117011Y-63269222D01*
X5029925Y-63182137D01*
X4971868Y-63153108D01*
X4913811Y-63153108D01*
X4942839Y-63298251D02*
X4884782Y-63269222D01*
X4826725Y-63211165D01*
X4797697Y-63095051D01*
X4797697Y-62891851D01*
X4826725Y-62775737D01*
X4884782Y-62717680D01*
X4942839Y-62688651D01*
X5058954Y-62688651D01*
X5117011Y-62717680D01*
X5175068Y-62775737D01*
X5204097Y-62891851D01*
X5204097Y-63095051D01*
X5175068Y-63211165D01*
X5117011Y-63269222D01*
X5058954Y-63298251D01*
X4942839Y-63298251D01*
X5407297Y-62891851D02*
X5523411Y-63298251D01*
X5639525Y-63007965D01*
X5755639Y-63298251D01*
X5871754Y-62891851D01*
X6103982Y-63298251D02*
X6103982Y-62891851D01*
X6103982Y-62688651D02*
X6074954Y-62717680D01*
X6103982Y-62746708D01*
X6133011Y-62717680D01*
X6103982Y-62688651D01*
X6103982Y-62746708D01*
X6394268Y-63298251D02*
X6394268Y-62891851D01*
X6394268Y-62688651D02*
X6365239Y-62717680D01*
X6394268Y-62746708D01*
X6423297Y-62717680D01*
X6394268Y-62688651D01*
X6394268Y-62746708D01*
X6945811Y-63269222D02*
X6887754Y-63298251D01*
X6771639Y-63298251D01*
X6713582Y-63269222D01*
X6684554Y-63240194D01*
X6655525Y-63182137D01*
X6655525Y-63007965D01*
X6684554Y-62949908D01*
X6713582Y-62920880D01*
X6771639Y-62891851D01*
X6887754Y-62891851D01*
X6945811Y-62920880D01*
X7061925Y-63356308D02*
X7526382Y-63356308D01*
X8019868Y-63240194D02*
X7990839Y-63269222D01*
X7903754Y-63298251D01*
X7845697Y-63298251D01*
X7758611Y-63269222D01*
X7700554Y-63211165D01*
X7671525Y-63153108D01*
X7642497Y-63036994D01*
X7642497Y-62949908D01*
X7671525Y-62833794D01*
X7700554Y-62775737D01*
X7758611Y-62717680D01*
X7845697Y-62688651D01*
X7903754Y-62688651D01*
X7990839Y-62717680D01*
X8019868Y-62746708D01*
X8368211Y-63298251D02*
X8310154Y-63269222D01*
X8281125Y-63240194D01*
X8252097Y-63182137D01*
X8252097Y-63007965D01*
X8281125Y-62949908D01*
X8310154Y-62920880D01*
X8368211Y-62891851D01*
X8455297Y-62891851D01*
X8513354Y-62920880D01*
X8542382Y-62949908D01*
X8571411Y-63007965D01*
X8571411Y-63182137D01*
X8542382Y-63240194D01*
X8513354Y-63269222D01*
X8455297Y-63298251D01*
X8368211Y-63298251D01*
X8832668Y-62891851D02*
X8832668Y-63298251D01*
X8832668Y-62949908D02*
X8861697Y-62920880D01*
X8919754Y-62891851D01*
X9006840Y-62891851D01*
X9064897Y-62920880D01*
X9093925Y-62978937D01*
X9093925Y-63298251D01*
X9384211Y-62891851D02*
X9384211Y-63298251D01*
X9384211Y-62949908D02*
X9413240Y-62920880D01*
X9471297Y-62891851D01*
X9558382Y-62891851D01*
X9616440Y-62920880D01*
X9645468Y-62978937D01*
X9645468Y-63298251D01*
X10167982Y-63269222D02*
X10109925Y-63298251D01*
X9993811Y-63298251D01*
X9935754Y-63269222D01*
X9906725Y-63211165D01*
X9906725Y-62978937D01*
X9935754Y-62920880D01*
X9993811Y-62891851D01*
X10109925Y-62891851D01*
X10167982Y-62920880D01*
X10197011Y-62978937D01*
X10197011Y-63036994D01*
X9906725Y-63095051D01*
X10719525Y-63269222D02*
X10661468Y-63298251D01*
X10545354Y-63298251D01*
X10487297Y-63269222D01*
X10458268Y-63240194D01*
X10429240Y-63182137D01*
X10429240Y-63007965D01*
X10458268Y-62949908D01*
X10487297Y-62920880D01*
X10545354Y-62891851D01*
X10661468Y-62891851D01*
X10719525Y-62920880D01*
X10893697Y-62891851D02*
X11125925Y-62891851D01*
X10980782Y-62688651D02*
X10980782Y-63211165D01*
X11009811Y-63269222D01*
X11067868Y-63298251D01*
X11125925Y-63298251D01*
X11416211Y-63298251D02*
X11358154Y-63269222D01*
X11329125Y-63240194D01*
X11300097Y-63182137D01*
X11300097Y-63007965D01*
X11329125Y-62949908D01*
X11358154Y-62920880D01*
X11416211Y-62891851D01*
X11503297Y-62891851D01*
X11561354Y-62920880D01*
X11590382Y-62949908D01*
X11619411Y-63007965D01*
X11619411Y-63182137D01*
X11590382Y-63240194D01*
X11561354Y-63269222D01*
X11503297Y-63298251D01*
X11416211Y-63298251D01*
X11880668Y-63298251D02*
X11880668Y-62891851D01*
X11880668Y-63007965D02*
X11909697Y-62949908D01*
X11938725Y-62920880D01*
X11996782Y-62891851D01*
X12054840Y-62891851D01*
D15*
X43507756Y-98900500D02*
X43507756Y-99614786D01*
X43460137Y-99757643D01*
X43364899Y-99852881D01*
X43222041Y-99900500D01*
X43126803Y-99900500D01*
X44507756Y-99900500D02*
X43936327Y-99900500D01*
X44222041Y-99900500D02*
X44222041Y-98900500D01*
X44126803Y-99043358D01*
X44031565Y-99138596D01*
X43936327Y-99186215D01*
X44888708Y-98995739D02*
X44936327Y-98948120D01*
X45031565Y-98900500D01*
X45269660Y-98900500D01*
X45364899Y-98948120D01*
X45412518Y-98995739D01*
X45460137Y-99090977D01*
X45460137Y-99186215D01*
X45412518Y-99329072D01*
X44841089Y-99900500D01*
X45460137Y-99900500D01*
X50245851Y-95555262D02*
X51388708Y-95555262D01*
X37245851Y-95555262D02*
X38388708Y-95555262D01*
X37817280Y-96126691D02*
X37817280Y-94983834D01*
X46187836Y-7019180D02*
X46187836Y-7733466D01*
X46140217Y-7876323D01*
X46044979Y-7971561D01*
X45902121Y-8019180D01*
X45806883Y-8019180D01*
X47187836Y-8019180D02*
X46616407Y-8019180D01*
X46902121Y-8019180D02*
X46902121Y-7019180D01*
X46806883Y-7162038D01*
X46711645Y-7257276D01*
X46616407Y-7304895D01*
X48044979Y-7019180D02*
X47854502Y-7019180D01*
X47759264Y-7066800D01*
X47711645Y-7114419D01*
X47616407Y-7257276D01*
X47568788Y-7447752D01*
X47568788Y-7828704D01*
X47616407Y-7923942D01*
X47664026Y-7971561D01*
X47759264Y-8019180D01*
X47949740Y-8019180D01*
X48044979Y-7971561D01*
X48092598Y-7923942D01*
X48140217Y-7828704D01*
X48140217Y-7590609D01*
X48092598Y-7495371D01*
X48044979Y-7447752D01*
X47949740Y-7400133D01*
X47759264Y-7400133D01*
X47664026Y-7447752D01*
X47616407Y-7495371D01*
X47568788Y-7590609D01*
X8551860Y-21891523D02*
X9266146Y-21891523D01*
X9409003Y-21939142D01*
X9504241Y-22034380D01*
X9551860Y-22177238D01*
X9551860Y-22272476D01*
X9551860Y-20891523D02*
X9551860Y-21462952D01*
X9551860Y-21177238D02*
X8551860Y-21177238D01*
X8694718Y-21272476D01*
X8789956Y-21367714D01*
X8837575Y-21462952D01*
X9551860Y-19939142D02*
X9551860Y-20510571D01*
X9551860Y-20224857D02*
X8551860Y-20224857D01*
X8694718Y-20320095D01*
X8789956Y-20415333D01*
X8837575Y-20510571D01*
X8511220Y-13433323D02*
X9225506Y-13433323D01*
X9368363Y-13480942D01*
X9463601Y-13576180D01*
X9511220Y-13719038D01*
X9511220Y-13814276D01*
X9511220Y-12433323D02*
X9511220Y-13004752D01*
X9511220Y-12719038D02*
X8511220Y-12719038D01*
X8654078Y-12814276D01*
X8749316Y-12909514D01*
X8796935Y-13004752D01*
X8511220Y-11814276D02*
X8511220Y-11719038D01*
X8558840Y-11623800D01*
X8606459Y-11576180D01*
X8701697Y-11528561D01*
X8892173Y-11480942D01*
X9130268Y-11480942D01*
X9320744Y-11528561D01*
X9415982Y-11576180D01*
X9463601Y-11623800D01*
X9511220Y-11719038D01*
X9511220Y-11814276D01*
X9463601Y-11909514D01*
X9415982Y-11957133D01*
X9320744Y-12004752D01*
X9130268Y-12052371D01*
X8892173Y-12052371D01*
X8701697Y-12004752D01*
X8606459Y-11957133D01*
X8558840Y-11909514D01*
X8511220Y-11814276D01*
X55683826Y-89763420D02*
X55683826Y-90477706D01*
X55636207Y-90620563D01*
X55540969Y-90715801D01*
X55398112Y-90763420D01*
X55302874Y-90763420D01*
X56207636Y-90763420D02*
X56398112Y-90763420D01*
X56493350Y-90715801D01*
X56540969Y-90668182D01*
X56636207Y-90525325D01*
X56683826Y-90334849D01*
X56683826Y-89953897D01*
X56636207Y-89858659D01*
X56588588Y-89811040D01*
X56493350Y-89763420D01*
X56302874Y-89763420D01*
X56207636Y-89811040D01*
X56160017Y-89858659D01*
X56112398Y-89953897D01*
X56112398Y-90191992D01*
X56160017Y-90287230D01*
X56207636Y-90334849D01*
X56302874Y-90382468D01*
X56493350Y-90382468D01*
X56588588Y-90334849D01*
X56636207Y-90287230D01*
X56683826Y-90191992D01*
X86717546Y-90962300D02*
X86717546Y-91676586D01*
X86669927Y-91819443D01*
X86574689Y-91914681D01*
X86431832Y-91962300D01*
X86336594Y-91962300D01*
X87336594Y-91390872D02*
X87241356Y-91343253D01*
X87193737Y-91295634D01*
X87146118Y-91200396D01*
X87146118Y-91152777D01*
X87193737Y-91057539D01*
X87241356Y-91009920D01*
X87336594Y-90962300D01*
X87527070Y-90962300D01*
X87622308Y-91009920D01*
X87669927Y-91057539D01*
X87717546Y-91152777D01*
X87717546Y-91200396D01*
X87669927Y-91295634D01*
X87622308Y-91343253D01*
X87527070Y-91390872D01*
X87336594Y-91390872D01*
X87241356Y-91438491D01*
X87193737Y-91486110D01*
X87146118Y-91581348D01*
X87146118Y-91771824D01*
X87193737Y-91867062D01*
X87241356Y-91914681D01*
X87336594Y-91962300D01*
X87527070Y-91962300D01*
X87622308Y-91914681D01*
X87669927Y-91867062D01*
X87717546Y-91771824D01*
X87717546Y-91581348D01*
X87669927Y-91486110D01*
X87622308Y-91438491D01*
X87527070Y-91390872D01*
X78458820Y-57904893D02*
X79173106Y-57904893D01*
X79315963Y-57952512D01*
X79411201Y-58047750D01*
X79458820Y-58190607D01*
X79458820Y-58285845D01*
X78458820Y-57523940D02*
X78458820Y-56857274D01*
X79458820Y-57285845D01*
X74997986Y-90652420D02*
X74997986Y-91366706D01*
X74950367Y-91509563D01*
X74855129Y-91604801D01*
X74712272Y-91652420D01*
X74617034Y-91652420D01*
X75902748Y-90652420D02*
X75712272Y-90652420D01*
X75617034Y-90700040D01*
X75569415Y-90747659D01*
X75474177Y-90890516D01*
X75426558Y-91080992D01*
X75426558Y-91461944D01*
X75474177Y-91557182D01*
X75521796Y-91604801D01*
X75617034Y-91652420D01*
X75807510Y-91652420D01*
X75902748Y-91604801D01*
X75950367Y-91557182D01*
X75997986Y-91461944D01*
X75997986Y-91223849D01*
X75950367Y-91128611D01*
X75902748Y-91080992D01*
X75807510Y-91033373D01*
X75617034Y-91033373D01*
X75521796Y-91080992D01*
X75474177Y-91128611D01*
X75426558Y-91223849D01*
X91714140Y-85900853D02*
X92428426Y-85900853D01*
X92571283Y-85948472D01*
X92666521Y-86043710D01*
X92714140Y-86186567D01*
X92714140Y-86281805D01*
X91714140Y-84948472D02*
X91714140Y-85424662D01*
X92190331Y-85472281D01*
X92142712Y-85424662D01*
X92095093Y-85329424D01*
X92095093Y-85091329D01*
X92142712Y-84996091D01*
X92190331Y-84948472D01*
X92285569Y-84900853D01*
X92523664Y-84900853D01*
X92618902Y-84948472D01*
X92666521Y-84996091D01*
X92714140Y-85091329D01*
X92714140Y-85329424D01*
X92666521Y-85424662D01*
X92618902Y-85472281D01*
D19*
X103693354Y-40933816D02*
X104265683Y-40933816D01*
X104380149Y-40971971D01*
X104456459Y-41048282D01*
X104494614Y-41162748D01*
X104494614Y-41239058D01*
X103769665Y-40590419D02*
X103731510Y-40552264D01*
X103693354Y-40475953D01*
X103693354Y-40285177D01*
X103731510Y-40208867D01*
X103769665Y-40170711D01*
X103845975Y-40132556D01*
X103922286Y-40132556D01*
X104036751Y-40170711D01*
X104494614Y-40628574D01*
X104494614Y-40132556D01*
X90668013Y-45151740D02*
X90706123Y-45189850D01*
X90744233Y-45304179D01*
X90744233Y-45380399D01*
X90706123Y-45494729D01*
X90629904Y-45570948D01*
X90553684Y-45609058D01*
X90401244Y-45647168D01*
X90286915Y-45647168D01*
X90134475Y-45609058D01*
X90058256Y-45570948D01*
X89982036Y-45494729D01*
X89943926Y-45380399D01*
X89943926Y-45304179D01*
X89982036Y-45189850D01*
X90020146Y-45151740D01*
X90744233Y-44465762D02*
X90325025Y-44465762D01*
X90248805Y-44503872D01*
X90210695Y-44580092D01*
X90210695Y-44732531D01*
X90248805Y-44808751D01*
X90706123Y-44465762D02*
X90744233Y-44541982D01*
X90744233Y-44732531D01*
X90706123Y-44808751D01*
X90629904Y-44846861D01*
X90553684Y-44846861D01*
X90477464Y-44808751D01*
X90439354Y-44732531D01*
X90439354Y-44541982D01*
X90401244Y-44465762D01*
X90744233Y-44084664D02*
X90210695Y-44084664D01*
X90286915Y-44084664D02*
X90248805Y-44046554D01*
X90210695Y-43970334D01*
X90210695Y-43856005D01*
X90248805Y-43779785D01*
X90325025Y-43741675D01*
X90744233Y-43741675D01*
X90325025Y-43741675D02*
X90248805Y-43703565D01*
X90210695Y-43627346D01*
X90210695Y-43513016D01*
X90248805Y-43436796D01*
X90325025Y-43398686D01*
X90744233Y-43398686D01*
X90706123Y-42712709D02*
X90744233Y-42788929D01*
X90744233Y-42941368D01*
X90706123Y-43017588D01*
X90629904Y-43055698D01*
X90325025Y-43055698D01*
X90248805Y-43017588D01*
X90210695Y-42941368D01*
X90210695Y-42788929D01*
X90248805Y-42712709D01*
X90325025Y-42674599D01*
X90401244Y-42674599D01*
X90477464Y-43055698D01*
X90744233Y-42331610D02*
X90210695Y-42331610D01*
X90363135Y-42331610D02*
X90286915Y-42293501D01*
X90248805Y-42255391D01*
X90210695Y-42179171D01*
X90210695Y-42102951D01*
X90744233Y-41493194D02*
X90325025Y-41493194D01*
X90248805Y-41531303D01*
X90210695Y-41607523D01*
X90210695Y-41759963D01*
X90248805Y-41836182D01*
X90706123Y-41493194D02*
X90744233Y-41569413D01*
X90744233Y-41759963D01*
X90706123Y-41836182D01*
X90629904Y-41874292D01*
X90553684Y-41874292D01*
X90477464Y-41836182D01*
X90439354Y-41759963D01*
X90439354Y-41569413D01*
X90401244Y-41493194D01*
X90020146Y-40540447D02*
X89982036Y-40502337D01*
X89943926Y-40426118D01*
X89943926Y-40235568D01*
X89982036Y-40159349D01*
X90020146Y-40121239D01*
X90096366Y-40083129D01*
X90172585Y-40083129D01*
X90286915Y-40121239D01*
X90744233Y-40578557D01*
X90744233Y-40083129D01*
X90668013Y-39740140D02*
X90706123Y-39702030D01*
X90744233Y-39740140D01*
X90706123Y-39778250D01*
X90668013Y-39740140D01*
X90744233Y-39740140D01*
X89943926Y-38977943D02*
X89943926Y-39359042D01*
X90325025Y-39397151D01*
X90286915Y-39359042D01*
X90248805Y-39282822D01*
X90248805Y-39092273D01*
X90286915Y-39016053D01*
X90325025Y-38977943D01*
X90401244Y-38939833D01*
X90591794Y-38939833D01*
X90668013Y-38977943D01*
X90706123Y-39016053D01*
X90744233Y-39092273D01*
X90744233Y-39282822D01*
X90706123Y-39359042D01*
X90668013Y-39397151D01*
X90744233Y-38596844D02*
X90210695Y-38596844D01*
X90286915Y-38596844D02*
X90248805Y-38558735D01*
X90210695Y-38482515D01*
X90210695Y-38368185D01*
X90248805Y-38291966D01*
X90325025Y-38253856D01*
X90744233Y-38253856D01*
X90325025Y-38253856D02*
X90248805Y-38215746D01*
X90210695Y-38139526D01*
X90210695Y-38025197D01*
X90248805Y-37948977D01*
X90325025Y-37910867D01*
X90744233Y-37910867D01*
X90744233Y-37529768D02*
X90210695Y-37529768D01*
X90286915Y-37529768D02*
X90248805Y-37491659D01*
X90210695Y-37415439D01*
X90210695Y-37301109D01*
X90248805Y-37224890D01*
X90325025Y-37186780D01*
X90744233Y-37186780D01*
X90325025Y-37186780D02*
X90248805Y-37148670D01*
X90210695Y-37072450D01*
X90210695Y-36958121D01*
X90248805Y-36881901D01*
X90325025Y-36843791D01*
X90744233Y-36843791D01*
D15*
X104840460Y-32843733D02*
X105554746Y-32843733D01*
X105697603Y-32891352D01*
X105792841Y-32986590D01*
X105840460Y-33129447D01*
X105840460Y-33224685D01*
X105840460Y-31843733D02*
X105840460Y-32415161D01*
X105840460Y-32129447D02*
X104840460Y-32129447D01*
X104983318Y-32224685D01*
X105078556Y-32319923D01*
X105126175Y-32415161D01*
X4648295Y-90364460D02*
X4648295Y-89364460D01*
X4648295Y-89840651D02*
X5219723Y-89840651D01*
X5219723Y-90364460D02*
X5219723Y-89364460D01*
X6124485Y-89697794D02*
X6124485Y-90364460D01*
X5886390Y-89316841D02*
X5648295Y-90031127D01*
X6267342Y-90031127D01*
X4277455Y-214780D02*
X4277455Y785219D01*
X4277455Y309028D02*
X4848883Y309028D01*
X4848883Y-214780D02*
X4848883Y785219D01*
X5229836Y785219D02*
X5848883Y785219D01*
X5515550Y404266D01*
X5658407Y404266D01*
X5753645Y356647D01*
X5801264Y309028D01*
X5848883Y213790D01*
X5848883Y-24304D01*
X5801264Y-119542D01*
X5753645Y-167161D01*
X5658407Y-214780D01*
X5372693Y-214780D01*
X5277455Y-167161D01*
X5229836Y-119542D01*
X95717455Y95099D02*
X95717455Y1095099D01*
X95717455Y618908D02*
X96288883Y618908D01*
X96288883Y95099D02*
X96288883Y1095099D01*
X96717455Y999860D02*
X96765074Y1047480D01*
X96860312Y1095099D01*
X97098407Y1095099D01*
X97193645Y1047480D01*
X97241264Y999860D01*
X97288883Y904622D01*
X97288883Y809384D01*
X97241264Y666527D01*
X96669836Y95099D01*
X97288883Y95099D01*
X94950375Y-91421100D02*
X94950375Y-90421100D01*
X94950375Y-90897291D02*
X95521803Y-90897291D01*
X95521803Y-91421100D02*
X95521803Y-90421100D01*
X96521803Y-91421100D02*
X95950375Y-91421100D01*
X96236089Y-91421100D02*
X96236089Y-90421100D01*
X96140851Y-90563958D01*
X96045613Y-90659196D01*
X95950375Y-90706815D01*
X15488033Y-77335660D02*
X15488033Y-76335660D01*
X15726129Y-76335660D01*
X15868986Y-76383280D01*
X15964224Y-76478518D01*
X16011843Y-76573756D01*
X16059462Y-76764232D01*
X16059462Y-76907089D01*
X16011843Y-77097565D01*
X15964224Y-77192803D01*
X15868986Y-77288041D01*
X15726129Y-77335660D01*
X15488033Y-77335660D01*
X16964224Y-76335660D02*
X16488033Y-76335660D01*
X16440414Y-76811851D01*
X16488033Y-76764232D01*
X16583271Y-76716613D01*
X16821367Y-76716613D01*
X16916605Y-76764232D01*
X16964224Y-76811851D01*
X17011843Y-76907089D01*
X17011843Y-77145184D01*
X16964224Y-77240422D01*
X16916605Y-77288041D01*
X16821367Y-77335660D01*
X16583271Y-77335660D01*
X16488033Y-77288041D01*
X16440414Y-77240422D01*
X67907944Y-30523420D02*
X67907944Y-29523420D01*
X68146040Y-29523420D01*
X68288897Y-29571040D01*
X68384135Y-29666278D01*
X68431754Y-29761516D01*
X68479373Y-29951992D01*
X68479373Y-30094849D01*
X68431754Y-30285325D01*
X68384135Y-30380563D01*
X68288897Y-30475801D01*
X68146040Y-30523420D01*
X67907944Y-30523420D01*
X68860325Y-29618659D02*
X68907944Y-29571040D01*
X69003182Y-29523420D01*
X69241278Y-29523420D01*
X69336516Y-29571040D01*
X69384135Y-29618659D01*
X69431754Y-29713897D01*
X69431754Y-29809135D01*
X69384135Y-29951992D01*
X68812706Y-30523420D01*
X69431754Y-30523420D01*
X67770784Y-33058340D02*
X67770784Y-32058340D01*
X68008880Y-32058340D01*
X68151737Y-32105960D01*
X68246975Y-32201198D01*
X68294594Y-32296436D01*
X68342213Y-32486912D01*
X68342213Y-32629769D01*
X68294594Y-32820245D01*
X68246975Y-32915483D01*
X68151737Y-33010721D01*
X68008880Y-33058340D01*
X67770784Y-33058340D01*
X69294594Y-33058340D02*
X68723165Y-33058340D01*
X69008880Y-33058340D02*
X69008880Y-32058340D01*
X68913641Y-32201198D01*
X68818403Y-32296436D01*
X68723165Y-32344055D01*
X45664062Y-63507857D02*
X45711681Y-63555476D01*
X45759300Y-63698333D01*
X45759300Y-63793571D01*
X45711681Y-63936428D01*
X45616443Y-64031666D01*
X45521205Y-64079285D01*
X45330729Y-64126904D01*
X45187872Y-64126904D01*
X44997396Y-64079285D01*
X44902158Y-64031666D01*
X44806920Y-63936428D01*
X44759300Y-63793571D01*
X44759300Y-63698333D01*
X44806920Y-63555476D01*
X44854539Y-63507857D01*
X44854539Y-63126904D02*
X44806920Y-63079285D01*
X44759300Y-62984047D01*
X44759300Y-62745952D01*
X44806920Y-62650714D01*
X44854539Y-62603095D01*
X44949777Y-62555476D01*
X45045015Y-62555476D01*
X45187872Y-62603095D01*
X45759300Y-63174523D01*
X45759300Y-62555476D01*
X44759300Y-61650714D02*
X44759300Y-62126904D01*
X45235491Y-62174523D01*
X45187872Y-62126904D01*
X45140253Y-62031666D01*
X45140253Y-61793571D01*
X45187872Y-61698333D01*
X45235491Y-61650714D01*
X45330729Y-61603095D01*
X45568824Y-61603095D01*
X45664062Y-61650714D01*
X45711681Y-61698333D01*
X45759300Y-61793571D01*
X45759300Y-62031666D01*
X45711681Y-62126904D01*
X45664062Y-62174523D01*
X58001502Y-60906897D02*
X58049121Y-60954516D01*
X58096740Y-61097373D01*
X58096740Y-61192611D01*
X58049121Y-61335468D01*
X57953883Y-61430706D01*
X57858645Y-61478325D01*
X57668169Y-61525944D01*
X57525312Y-61525944D01*
X57334836Y-61478325D01*
X57239598Y-61430706D01*
X57144360Y-61335468D01*
X57096740Y-61192611D01*
X57096740Y-61097373D01*
X57144360Y-60954516D01*
X57191979Y-60906897D01*
X57191979Y-60525944D02*
X57144360Y-60478325D01*
X57096740Y-60383087D01*
X57096740Y-60144992D01*
X57144360Y-60049754D01*
X57191979Y-60002135D01*
X57287217Y-59954516D01*
X57382455Y-59954516D01*
X57525312Y-60002135D01*
X58096740Y-60573563D01*
X58096740Y-59954516D01*
X57430074Y-59097373D02*
X58096740Y-59097373D01*
X57049121Y-59335468D02*
X57763407Y-59573563D01*
X57763407Y-58954516D01*
X59616942Y-60917057D02*
X59664561Y-60964676D01*
X59712180Y-61107533D01*
X59712180Y-61202771D01*
X59664561Y-61345628D01*
X59569323Y-61440866D01*
X59474085Y-61488485D01*
X59283609Y-61536104D01*
X59140752Y-61536104D01*
X58950276Y-61488485D01*
X58855038Y-61440866D01*
X58759800Y-61345628D01*
X58712180Y-61202771D01*
X58712180Y-61107533D01*
X58759800Y-60964676D01*
X58807419Y-60917057D01*
X58807419Y-60536104D02*
X58759800Y-60488485D01*
X58712180Y-60393247D01*
X58712180Y-60155152D01*
X58759800Y-60059914D01*
X58807419Y-60012295D01*
X58902657Y-59964676D01*
X58997895Y-59964676D01*
X59140752Y-60012295D01*
X59712180Y-60583723D01*
X59712180Y-59964676D01*
X58807419Y-59583723D02*
X58759800Y-59536104D01*
X58712180Y-59440866D01*
X58712180Y-59202771D01*
X58759800Y-59107533D01*
X58807419Y-59059914D01*
X58902657Y-59012295D01*
X58997895Y-59012295D01*
X59140752Y-59059914D01*
X59712180Y-59631342D01*
X59712180Y-59012295D01*
X41152102Y-39819817D02*
X41199721Y-39867436D01*
X41247340Y-40010293D01*
X41247340Y-40105531D01*
X41199721Y-40248388D01*
X41104483Y-40343626D01*
X41009245Y-40391245D01*
X40818769Y-40438864D01*
X40675912Y-40438864D01*
X40485436Y-40391245D01*
X40390198Y-40343626D01*
X40294960Y-40248388D01*
X40247340Y-40105531D01*
X40247340Y-40010293D01*
X40294960Y-39867436D01*
X40342579Y-39819817D01*
X41247340Y-38867436D02*
X41247340Y-39438864D01*
X41247340Y-39153150D02*
X40247340Y-39153150D01*
X40390198Y-39248388D01*
X40485436Y-39343626D01*
X40533055Y-39438864D01*
X40247340Y-38534102D02*
X40247340Y-37867436D01*
X41247340Y-38296007D01*
X59352782Y-44991257D02*
X59400401Y-45038876D01*
X59448020Y-45181733D01*
X59448020Y-45276971D01*
X59400401Y-45419828D01*
X59305163Y-45515066D01*
X59209925Y-45562685D01*
X59019449Y-45610304D01*
X58876592Y-45610304D01*
X58686116Y-45562685D01*
X58590878Y-45515066D01*
X58495640Y-45419828D01*
X58448020Y-45276971D01*
X58448020Y-45181733D01*
X58495640Y-45038876D01*
X58543259Y-44991257D01*
X58543259Y-44610304D02*
X58495640Y-44562685D01*
X58448020Y-44467447D01*
X58448020Y-44229352D01*
X58495640Y-44134114D01*
X58543259Y-44086495D01*
X58638497Y-44038876D01*
X58733735Y-44038876D01*
X58876592Y-44086495D01*
X59448020Y-44657923D01*
X59448020Y-44038876D01*
X59448020Y-43086495D02*
X59448020Y-43657923D01*
X59448020Y-43372209D02*
X58448020Y-43372209D01*
X58590878Y-43467447D01*
X58686116Y-43562685D01*
X58733735Y-43657923D01*
X10297102Y-58590417D02*
X10344721Y-58638036D01*
X10392340Y-58780893D01*
X10392340Y-58876131D01*
X10344721Y-59018988D01*
X10249483Y-59114226D01*
X10154245Y-59161845D01*
X9963769Y-59209464D01*
X9820912Y-59209464D01*
X9630436Y-59161845D01*
X9535198Y-59114226D01*
X9439960Y-59018988D01*
X9392340Y-58876131D01*
X9392340Y-58780893D01*
X9439960Y-58638036D01*
X9487579Y-58590417D01*
X9487579Y-58209464D02*
X9439960Y-58161845D01*
X9392340Y-58066607D01*
X9392340Y-57828512D01*
X9439960Y-57733274D01*
X9487579Y-57685655D01*
X9582817Y-57638036D01*
X9678055Y-57638036D01*
X9820912Y-57685655D01*
X10392340Y-58257083D01*
X10392340Y-57638036D01*
X9392340Y-57018988D02*
X9392340Y-56923750D01*
X9439960Y-56828512D01*
X9487579Y-56780893D01*
X9582817Y-56733274D01*
X9773293Y-56685655D01*
X10011388Y-56685655D01*
X10201864Y-56733274D01*
X10297102Y-56780893D01*
X10344721Y-56828512D01*
X10392340Y-56923750D01*
X10392340Y-57018988D01*
X10344721Y-57114226D01*
X10297102Y-57161845D01*
X10201864Y-57209464D01*
X10011388Y-57257083D01*
X9773293Y-57257083D01*
X9582817Y-57209464D01*
X9487579Y-57161845D01*
X9439960Y-57114226D01*
X9392340Y-57018988D01*
X35204342Y-55989457D02*
X35251961Y-56037076D01*
X35299580Y-56179933D01*
X35299580Y-56275171D01*
X35251961Y-56418028D01*
X35156723Y-56513266D01*
X35061485Y-56560885D01*
X34871009Y-56608504D01*
X34728152Y-56608504D01*
X34537676Y-56560885D01*
X34442438Y-56513266D01*
X34347200Y-56418028D01*
X34299580Y-56275171D01*
X34299580Y-56179933D01*
X34347200Y-56037076D01*
X34394819Y-55989457D01*
X35299580Y-55037076D02*
X35299580Y-55608504D01*
X35299580Y-55322790D02*
X34299580Y-55322790D01*
X34442438Y-55418028D01*
X34537676Y-55513266D01*
X34585295Y-55608504D01*
X35299580Y-54560885D02*
X35299580Y-54370409D01*
X35251961Y-54275171D01*
X35204342Y-54227552D01*
X35061485Y-54132314D01*
X34871009Y-54084695D01*
X34490057Y-54084695D01*
X34394819Y-54132314D01*
X34347200Y-54179933D01*
X34299580Y-54275171D01*
X34299580Y-54465647D01*
X34347200Y-54560885D01*
X34394819Y-54608504D01*
X34490057Y-54656123D01*
X34728152Y-54656123D01*
X34823390Y-54608504D01*
X34871009Y-54560885D01*
X34918628Y-54465647D01*
X34918628Y-54275171D01*
X34871009Y-54179933D01*
X34823390Y-54132314D01*
X34728152Y-54084695D01*
X36301622Y-55588137D02*
X36349241Y-55635756D01*
X36396860Y-55778613D01*
X36396860Y-55873851D01*
X36349241Y-56016708D01*
X36254003Y-56111946D01*
X36158765Y-56159565D01*
X35968289Y-56207184D01*
X35825432Y-56207184D01*
X35634956Y-56159565D01*
X35539718Y-56111946D01*
X35444480Y-56016708D01*
X35396860Y-55873851D01*
X35396860Y-55778613D01*
X35444480Y-55635756D01*
X35492099Y-55588137D01*
X36396860Y-54635756D02*
X36396860Y-55207184D01*
X36396860Y-54921470D02*
X35396860Y-54921470D01*
X35539718Y-55016708D01*
X35634956Y-55111946D01*
X35682575Y-55207184D01*
X35825432Y-54064327D02*
X35777813Y-54159565D01*
X35730194Y-54207184D01*
X35634956Y-54254803D01*
X35587337Y-54254803D01*
X35492099Y-54207184D01*
X35444480Y-54159565D01*
X35396860Y-54064327D01*
X35396860Y-53873851D01*
X35444480Y-53778613D01*
X35492099Y-53730994D01*
X35587337Y-53683375D01*
X35634956Y-53683375D01*
X35730194Y-53730994D01*
X35777813Y-53778613D01*
X35825432Y-53873851D01*
X35825432Y-54064327D01*
X35873051Y-54159565D01*
X35920670Y-54207184D01*
X36015908Y-54254803D01*
X36206384Y-54254803D01*
X36301622Y-54207184D01*
X36349241Y-54159565D01*
X36396860Y-54064327D01*
X36396860Y-53873851D01*
X36349241Y-53778613D01*
X36301622Y-53730994D01*
X36206384Y-53683375D01*
X36015908Y-53683375D01*
X35920670Y-53730994D01*
X35873051Y-53778613D01*
X35825432Y-53873851D01*
X38366462Y-44112782D02*
X38318843Y-44160401D01*
X38175986Y-44208020D01*
X38080748Y-44208020D01*
X37937891Y-44160401D01*
X37842653Y-44065163D01*
X37795034Y-43969925D01*
X37747415Y-43779449D01*
X37747415Y-43636592D01*
X37795034Y-43446116D01*
X37842653Y-43350878D01*
X37937891Y-43255640D01*
X38080748Y-43208020D01*
X38175986Y-43208020D01*
X38318843Y-43255640D01*
X38366462Y-43303259D01*
X39318843Y-44208020D02*
X38747415Y-44208020D01*
X39033129Y-44208020D02*
X39033129Y-43208020D01*
X38937891Y-43350878D01*
X38842653Y-43446116D01*
X38747415Y-43493735D01*
X40175986Y-43208020D02*
X39985510Y-43208020D01*
X39890272Y-43255640D01*
X39842653Y-43303259D01*
X39747415Y-43446116D01*
X39699796Y-43636592D01*
X39699796Y-44017544D01*
X39747415Y-44112782D01*
X39795034Y-44160401D01*
X39890272Y-44208020D01*
X40080748Y-44208020D01*
X40175986Y-44160401D01*
X40223605Y-44112782D01*
X40271224Y-44017544D01*
X40271224Y-43779449D01*
X40223605Y-43684211D01*
X40175986Y-43636592D01*
X40080748Y-43588973D01*
X39890272Y-43588973D01*
X39795034Y-43636592D01*
X39747415Y-43684211D01*
X39699796Y-43779449D01*
X57885582Y-44879497D02*
X57933201Y-44927116D01*
X57980820Y-45069973D01*
X57980820Y-45165211D01*
X57933201Y-45308068D01*
X57837963Y-45403306D01*
X57742725Y-45450925D01*
X57552249Y-45498544D01*
X57409392Y-45498544D01*
X57218916Y-45450925D01*
X57123678Y-45403306D01*
X57028440Y-45308068D01*
X56980820Y-45165211D01*
X56980820Y-45069973D01*
X57028440Y-44927116D01*
X57076059Y-44879497D01*
X57980820Y-43927116D02*
X57980820Y-44498544D01*
X57980820Y-44212830D02*
X56980820Y-44212830D01*
X57123678Y-44308068D01*
X57218916Y-44403306D01*
X57266535Y-44498544D01*
X57314154Y-43069973D02*
X57980820Y-43069973D01*
X56933201Y-43308068D02*
X57647487Y-43546163D01*
X57647487Y-42927116D01*
X9253822Y-30172897D02*
X9301441Y-30220516D01*
X9349060Y-30363373D01*
X9349060Y-30458611D01*
X9301441Y-30601468D01*
X9206203Y-30696706D01*
X9110965Y-30744325D01*
X8920489Y-30791944D01*
X8777632Y-30791944D01*
X8587156Y-30744325D01*
X8491918Y-30696706D01*
X8396680Y-30601468D01*
X8349060Y-30458611D01*
X8349060Y-30363373D01*
X8396680Y-30220516D01*
X8444299Y-30172897D01*
X9349060Y-29220516D02*
X9349060Y-29791944D01*
X9349060Y-29506230D02*
X8349060Y-29506230D01*
X8491918Y-29601468D01*
X8587156Y-29696706D01*
X8634775Y-29791944D01*
X8349060Y-28887182D02*
X8349060Y-28268135D01*
X8730013Y-28601468D01*
X8730013Y-28458611D01*
X8777632Y-28363373D01*
X8825251Y-28315754D01*
X8920489Y-28268135D01*
X9158584Y-28268135D01*
X9253822Y-28315754D01*
X9301441Y-28363373D01*
X9349060Y-28458611D01*
X9349060Y-28744325D01*
X9301441Y-28839563D01*
X9253822Y-28887182D01*
X8336222Y-13149817D02*
X8383841Y-13197436D01*
X8431460Y-13340293D01*
X8431460Y-13435531D01*
X8383841Y-13578388D01*
X8288603Y-13673626D01*
X8193365Y-13721245D01*
X8002889Y-13768864D01*
X7860032Y-13768864D01*
X7669556Y-13721245D01*
X7574318Y-13673626D01*
X7479080Y-13578388D01*
X7431460Y-13435531D01*
X7431460Y-13340293D01*
X7479080Y-13197436D01*
X7526699Y-13149817D01*
X8431460Y-12197436D02*
X8431460Y-12768864D01*
X8431460Y-12483150D02*
X7431460Y-12483150D01*
X7574318Y-12578388D01*
X7669556Y-12673626D01*
X7717175Y-12768864D01*
X8431460Y-11245055D02*
X8431460Y-11816483D01*
X8431460Y-11530769D02*
X7431460Y-11530769D01*
X7574318Y-11626007D01*
X7669556Y-11721245D01*
X7717175Y-11816483D01*
X56217582Y-46115262D02*
X56169963Y-46162881D01*
X56027106Y-46210500D01*
X55931868Y-46210500D01*
X55789011Y-46162881D01*
X55693773Y-46067643D01*
X55646154Y-45972405D01*
X55598535Y-45781929D01*
X55598535Y-45639072D01*
X55646154Y-45448596D01*
X55693773Y-45353358D01*
X55789011Y-45258120D01*
X55931868Y-45210500D01*
X56027106Y-45210500D01*
X56169963Y-45258120D01*
X56217582Y-45305739D01*
X57169963Y-46210500D02*
X56598535Y-46210500D01*
X56884249Y-46210500D02*
X56884249Y-45210500D01*
X56789011Y-45353358D01*
X56693773Y-45448596D01*
X56598535Y-45496215D01*
X58074725Y-45210500D02*
X57598535Y-45210500D01*
X57550916Y-45686691D01*
X57598535Y-45639072D01*
X57693773Y-45591453D01*
X57931868Y-45591453D01*
X58027106Y-45639072D01*
X58074725Y-45686691D01*
X58122344Y-45781929D01*
X58122344Y-46020024D01*
X58074725Y-46115262D01*
X58027106Y-46162881D01*
X57931868Y-46210500D01*
X57693773Y-46210500D01*
X57598535Y-46162881D01*
X57550916Y-46115262D01*
X42883422Y-62989697D02*
X42931041Y-63037316D01*
X42978660Y-63180173D01*
X42978660Y-63275411D01*
X42931041Y-63418268D01*
X42835803Y-63513506D01*
X42740565Y-63561125D01*
X42550089Y-63608744D01*
X42407232Y-63608744D01*
X42216756Y-63561125D01*
X42121518Y-63513506D01*
X42026280Y-63418268D01*
X41978660Y-63275411D01*
X41978660Y-63180173D01*
X42026280Y-63037316D01*
X42073899Y-62989697D01*
X42073899Y-62608744D02*
X42026280Y-62561125D01*
X41978660Y-62465887D01*
X41978660Y-62227792D01*
X42026280Y-62132554D01*
X42073899Y-62084935D01*
X42169137Y-62037316D01*
X42264375Y-62037316D01*
X42407232Y-62084935D01*
X42978660Y-62656363D01*
X42978660Y-62037316D01*
X41978660Y-61703982D02*
X41978660Y-61084935D01*
X42359613Y-61418268D01*
X42359613Y-61275411D01*
X42407232Y-61180173D01*
X42454851Y-61132554D01*
X42550089Y-61084935D01*
X42788184Y-61084935D01*
X42883422Y-61132554D01*
X42931041Y-61180173D01*
X42978660Y-61275411D01*
X42978660Y-61561125D01*
X42931041Y-61656363D01*
X42883422Y-61703982D01*
X16122447Y-79845011D02*
X16265304Y-79892630D01*
X16312923Y-79940249D01*
X16360542Y-80035487D01*
X16360542Y-80178344D01*
X16312923Y-80273582D01*
X16265304Y-80321201D01*
X16170066Y-80368820D01*
X15789114Y-80368820D01*
X15789114Y-79368820D01*
X16122447Y-79368820D01*
X16217685Y-79416440D01*
X16265304Y-79464059D01*
X16312923Y-79559297D01*
X16312923Y-79654535D01*
X16265304Y-79749773D01*
X16217685Y-79797392D01*
X16122447Y-79845011D01*
X15789114Y-79845011D01*
X16693876Y-79368820D02*
X17360542Y-79368820D01*
X16693876Y-80368820D01*
X17360542Y-80368820D01*
X18265304Y-80368820D02*
X17693876Y-80368820D01*
X17979590Y-80368820D02*
X17979590Y-79368820D01*
X17884352Y-79511678D01*
X17789114Y-79606916D01*
X17693876Y-79654535D01*
M02*
