M48
; DRILL file {KiCad (5.1.4)-1} date 12/23/2020 9:12:09 AM
; FORMAT={-:-/ absolute / inch / decimal}
; #@! TF.CreationDate,2020-12-23T09:12:09-05:00
; #@! TF.GenerationSoftware,Kicad,Pcbnew,(5.1.4)-1
; #@! TF.FileFunction,Plated,1,4,PTH
FMAT,2
INCH
T1C0.0157
T2C0.0197
T3C0.0217
T4C0.0276
T5C0.0315
T6C0.0335
T7C0.0394
T8C0.0433
T9C0.0450
T10C0.0472
T11C0.0591
T12C0.0630
T13C0.0787
T14C0.1063
T15C0.1260
%
G90
G05
T1
X0.0572Y-2.0926
X0.0578Y-1.8886
X0.0594Y-1.9396
X0.0616Y-1.9866
X0.1874Y-2.7762
X0.2018Y-2.599
X0.417Y-2.47
X0.4378Y-2.217
X0.5024Y-1.6614
X0.5183Y-2.4289
X0.5417Y-2.2571
X0.5534Y-2.3484
X0.5544Y-3.0998
X0.6038Y-2.8538
X0.6186Y-2.358
X0.6326Y-2.0204
X0.664Y-2.3192
X0.6674Y-2.2244
X0.7606Y-2.3614
X0.8544Y-2.0648
X0.9336Y-3.803
X0.9344Y-3.7448
X1.0014Y-1.0754
X1.067Y-1.9872
X1.1592Y-1.4466
X1.1932Y-3.5771
X1.2164Y-1.512
X1.2186Y-2.0094
X1.2506Y-1.9546
X1.3074Y-1.8996
X1.3434Y-1.6818
X1.3634Y-1.2462
X1.3664Y-2.1614
X1.3932Y-1.877
X1.4174Y-1.138
X1.433Y-1.3112
X1.449Y-2.5442
X1.4528Y-1.6774
X1.4598Y-1.8826
X1.4776Y-0.087
X1.483Y-3.0522
X1.4883Y-1.9519
X1.504Y-2.1458
X1.51Y-1.3692
X1.5204Y-0.1836
X1.5404Y-0.087
X1.5504Y-2.4788
X1.5516Y-2.4206
X1.5759Y-2.5219
X1.584Y-1.7164
X1.5919Y-2.4039
X1.6016Y-0.087
X1.6026Y-2.5486
X1.6146Y-1.3772
X1.6291Y-2.3667
X1.6349Y-2.2793
X1.6457Y-1.8741
X1.6458Y-2.5582
X1.6556Y-0.3878
X1.6655Y-0.1059
X1.6662Y-2.3474
X1.6684Y-1.448
X1.6923Y-2.5613
X1.7096Y-0.1432
X1.7406Y-2.5666
X1.7972Y-2.5666
X1.7978Y-1.3226
X1.8014Y-0.3102
X1.8214Y-1.6202
X1.8396Y-1.2366
X1.8468Y-3.0162
X1.8527Y-2.5483
X1.8604Y-2.261
X1.8842Y-2.5168
X1.8904Y-0.3876
X1.8976Y-1.325
X1.901Y-3.2994
X1.9058Y-2.4662
X1.9192Y-2.1306
X1.9532Y-3.3906
X1.9544Y-3.2724
X1.9584Y-2.6072
X1.9684Y-1.1354
X1.9888Y-1.278
X2.0594Y-3.2572
X2.0748Y-1.4694
X2.0974Y-1.811
X2.1094Y-1.129
X2.1124Y-2.4412
X2.1175Y-3.1753
X2.1214Y-1.3986
X2.1306Y-1.9216
X2.137Y-0.335
X2.1636Y-2.1326
X2.1722Y-2.4598
X2.2008Y-0.1428
X2.2126Y-2.1344
X2.2234Y-2.4474
X2.2668Y-0.142
X2.2832Y-2.1314
X2.3424Y-0.142
X2.3548Y-0.3015
X2.367Y-1.3794
X2.3694Y-1.856
X2.4076Y-0.142
X2.4228Y-1.301
X2.4782Y-3.137
X2.4806Y-3.6772
X2.4997Y-3.3965
X2.5062Y-3.3462
X2.5408Y-3.4376
X2.6124Y-2.5438
X2.6143Y-1.8817
X2.6642Y-0.0906
X2.7042Y-0.474
X2.706Y-2.5232
X2.7222Y-2.5964
X2.8006Y-3.6896
X2.8236Y-1.4962
X2.8272Y-0.8866
X2.839Y-3.5154
X2.893Y-2.649
X2.9076Y-0.4194
X2.9363Y-2.5414
X3.0692Y-1.9918
X3.1748Y-3.2458
X3.1891Y-0.1837
X3.1905Y-0.1365
X3.2314Y-1.0714
X3.2452Y-1.2756
X3.2716Y-3.1928
X3.2799Y-1.5151
X3.3208Y-1.1254
X3.3258Y-0.4696
X3.3296Y-3.243
X3.445Y-1.2802
X3.484Y-1.4218
X3.5424Y-3.1722
X3.5512Y-1.5984
X3.6052Y-3.4926
X3.6106Y-3.1648
X3.6538Y-1.1798
X3.8532Y-0.719
X3.8532Y-0.875
T2
X3.7039Y-0.1438
X3.7316Y-0.077
X3.7316Y-0.2106
X3.7984Y-0.0493
X3.7984Y-0.2383
X3.8652Y-0.077
X3.8652Y-0.2106
X3.8929Y-0.1438
X0.1185Y-3.7052
X0.1462Y-3.6384
X0.1462Y-3.772
X0.213Y-3.6107
X0.213Y-3.7997
X0.2798Y-3.6384
X0.2798Y-3.772
X0.3075Y-3.7052
X3.6737Y-3.7468
X3.7014Y-3.68
X3.7014Y-3.8136
X3.7682Y-3.6523
X3.7682Y-3.8413
X3.835Y-3.68
X3.835Y-3.8136
X3.8627Y-3.7468
X0.1039Y-0.156
X0.1316Y-0.0892
X0.1316Y-0.2228
X0.1984Y-0.0615
X0.1984Y-0.2505
X0.2652Y-0.0892
X0.2652Y-0.2228
X0.2929Y-0.156
T4
X3.6287Y-1.6236
X3.7075Y-1.5508
X3.7075Y-1.6964
X3.9004Y-1.6236
X3.6225Y-0.4384
X3.7013Y-0.3656
X3.7013Y-0.5112
X3.8942Y-0.4384
T5
X3.6176Y-2.9738
X3.6963Y-2.9738
X3.7751Y-2.9738
X1.418Y-0.4876
X1.418Y-1.023
X1.4967Y-0.4876
X1.4967Y-1.023
X1.5755Y-0.4876
X1.5755Y-1.023
X1.6542Y-0.4876
X1.6542Y-1.023
X1.733Y-0.4876
X1.733Y-1.023
X1.8117Y-0.4876
X1.8117Y-1.023
X1.8904Y-0.4876
X1.8904Y-1.023
X1.9692Y-0.4876
X1.9692Y-1.023
X1.05Y-3.743
X1.35Y-3.743
T7
X0.571Y-3.4286
X0.7679Y-3.4286
T8
X3.3272Y-3.7748
X3.4272Y-3.7748
X3.5272Y-3.7748
X3.8044Y-3.2688
X3.8044Y-3.3688
X3.8044Y-3.4688
X0.1846Y-0.447
X0.1846Y-0.547
X2.9158Y-3.7626
X3.0158Y-3.7626
X2.1554Y-3.7276
X2.2554Y-3.7276
X0.1862Y-0.78
X0.1862Y-0.88
T9
X0.4424Y-0.737
X0.4424Y-0.837
X0.4424Y-0.937
X0.7424Y-0.737
X0.7424Y-0.937
X0.44Y-0.4054
X0.44Y-0.6054
X0.74Y-0.4054
X0.74Y-0.5054
X0.74Y-0.6054
X0.45Y-1.083
X0.45Y-1.283
X0.75Y-1.083
X0.75Y-1.183
X0.75Y-1.283
T10
X3.2286Y-2.2666
X3.4286Y-2.1166
X3.4286Y-2.2666
X3.4286Y-2.4166
T11
X3.5349Y-2.9738
X3.8578Y-2.9738
T12
X3.2286Y-1.9918
X3.2286Y-2.5414
T13
X3.5842Y-1.3547
X3.8007Y-1.3547
X3.8952Y-1.276
X3.5422Y-0.9537
X3.7587Y-0.9537
X3.8532Y-0.875
T14
X1.6463Y-3.7578
X1.8432Y-3.7578
T15
X3.7984Y-0.1438
X0.213Y-3.7052
X3.7682Y-3.7468
X0.1984Y-0.156
T3
G00X0.2386Y-1.4576
M15
G01X0.213Y-1.4576
M16
G05
G00X0.2386Y-1.7628
M15
G01X0.213Y-1.7628
M16
G05
T6
G00X0.3863Y-1.4635
M15
G01X0.3646Y-1.4635
M16
G05
G00X0.3863Y-1.7569
M15
G01X0.3646Y-1.7569
M16
G05
T0
M30
