G04 #@! TF.GenerationSoftware,KiCad,Pcbnew,(5.1.4)-1*
G04 #@! TF.CreationDate,2020-12-23T09:12:06-05:00*
G04 #@! TF.ProjectId,CameraTriggerR3SMD,43616d65-7261-4547-9269-676765725233,rev?*
G04 #@! TF.SameCoordinates,Original*
G04 #@! TF.FileFunction,Profile,NP*
%FSLAX46Y46*%
G04 Gerber Fmt 4.6, Leading zero omitted, Abs format (unit mm)*
G04 Created by KiCad (PCBNEW (5.1.4)-1) date 2020-12-23 09:12:06*
%MOMM*%
%LPD*%
G04 APERTURE LIST*
%ADD10C,0.100000*%
%ADD11C,0.001000*%
G04 APERTURE END LIST*
D10*
X100330000Y0D02*
X100330000Y-100330000D01*
X0Y-100330000D02*
X100330000Y-100330000D01*
X0Y0D02*
X0Y-100330000D01*
X0Y0D02*
X100330000Y0D01*
D11*
X93262680Y-9635360D02*
X93262680Y-8935360D01*
X94762680Y-9635360D02*
X93262680Y-9635360D01*
X94762680Y-8935360D02*
X94762680Y-9635360D01*
X93262680Y-8935360D02*
X94762680Y-8935360D01*
X93262680Y-13335360D02*
X93262680Y-12635360D01*
X94762680Y-13335360D02*
X93262680Y-13335360D01*
X94762680Y-12635360D02*
X94762680Y-13335360D01*
X93262680Y-12635360D02*
X94762680Y-12635360D01*
X91662680Y-10385360D02*
X92362680Y-10385360D01*
X91662680Y-11885360D02*
X91662680Y-10385360D01*
X92362680Y-11885360D02*
X91662680Y-11885360D01*
X92362680Y-10385360D02*
X92362680Y-11885360D01*
X98562680Y-10385360D02*
X99262680Y-10385360D01*
X98562680Y-11885360D02*
X98562680Y-10385360D01*
X99262680Y-11885360D02*
X98562680Y-11885360D01*
X99262680Y-10385360D02*
X99262680Y-11885360D01*
X93420160Y-39739440D02*
X93420160Y-39039440D01*
X94920160Y-39739440D02*
X93420160Y-39739440D01*
X94920160Y-39039440D02*
X94920160Y-39739440D01*
X93420160Y-39039440D02*
X94920160Y-39039440D01*
X93420160Y-43439440D02*
X93420160Y-42739440D01*
X94920160Y-43439440D02*
X93420160Y-43439440D01*
X94920160Y-42739440D02*
X94920160Y-43439440D01*
X93420160Y-42739440D02*
X94920160Y-42739440D01*
X91820160Y-40489440D02*
X92520160Y-40489440D01*
X91820160Y-41989440D02*
X91820160Y-40489440D01*
X92520160Y-41989440D02*
X91820160Y-41989440D01*
X92520160Y-40489440D02*
X92520160Y-41989440D01*
X98720160Y-40489440D02*
X99420160Y-40489440D01*
X98720160Y-41989440D02*
X98720160Y-40489440D01*
X99420160Y-41989440D02*
X98720160Y-41989440D01*
X99420160Y-40489440D02*
X99420160Y-41989440D01*
M02*
