G04 #@! TF.GenerationSoftware,KiCad,Pcbnew,(5.1.4)-1*
G04 #@! TF.CreationDate,2020-12-23T09:12:06-05:00*
G04 #@! TF.ProjectId,CameraTriggerR3SMD,43616d65-7261-4547-9269-676765725233,rev?*
G04 #@! TF.SameCoordinates,Original*
G04 #@! TF.FileFunction,Legend,Bot*
G04 #@! TF.FilePolarity,Positive*
%FSLAX46Y46*%
G04 Gerber Fmt 4.6, Leading zero omitted, Abs format (unit mm)*
G04 Created by KiCad (PCBNEW (5.1.4)-1) date 2020-12-23 09:12:06*
%MOMM*%
%LPD*%
G04 APERTURE LIST*
%ADD10C,0.150000*%
G04 APERTURE END LIST*
D10*
X28867146Y-61433700D02*
X28867146Y-60433700D01*
X28867146Y-60909891D02*
X28295718Y-60909891D01*
X28295718Y-61433700D02*
X28295718Y-60433700D01*
X27438575Y-61386081D02*
X27533813Y-61433700D01*
X27724289Y-61433700D01*
X27819527Y-61386081D01*
X27867146Y-61290843D01*
X27867146Y-60909891D01*
X27819527Y-60814653D01*
X27724289Y-60767034D01*
X27533813Y-60767034D01*
X27438575Y-60814653D01*
X27390956Y-60909891D01*
X27390956Y-61005129D01*
X27867146Y-61100367D01*
X26962384Y-61433700D02*
X26962384Y-60767034D01*
X26962384Y-60433700D02*
X27010003Y-60481320D01*
X26962384Y-60528939D01*
X26914765Y-60481320D01*
X26962384Y-60433700D01*
X26962384Y-60528939D01*
X26533813Y-61386081D02*
X26438575Y-61433700D01*
X26248099Y-61433700D01*
X26152860Y-61386081D01*
X26105241Y-61290843D01*
X26105241Y-61243224D01*
X26152860Y-61147986D01*
X26248099Y-61100367D01*
X26390956Y-61100367D01*
X26486194Y-61052748D01*
X26533813Y-60957510D01*
X26533813Y-60909891D01*
X26486194Y-60814653D01*
X26390956Y-60767034D01*
X26248099Y-60767034D01*
X26152860Y-60814653D01*
X25295718Y-61386081D02*
X25390956Y-61433700D01*
X25581432Y-61433700D01*
X25676670Y-61386081D01*
X25724289Y-61290843D01*
X25724289Y-60909891D01*
X25676670Y-60814653D01*
X25581432Y-60767034D01*
X25390956Y-60767034D01*
X25295718Y-60814653D01*
X25248099Y-60909891D01*
X25248099Y-61005129D01*
X25724289Y-61100367D01*
X24914765Y-60767034D02*
X24676670Y-61433700D01*
X24438575Y-60767034D02*
X24676670Y-61433700D01*
X24771908Y-61671796D01*
X24819527Y-61719415D01*
X24914765Y-61767034D01*
X31271908Y-62988462D02*
X31319527Y-63036081D01*
X31462384Y-63083700D01*
X31557622Y-63083700D01*
X31700480Y-63036081D01*
X31795718Y-62940843D01*
X31843337Y-62845605D01*
X31890956Y-62655129D01*
X31890956Y-62512272D01*
X31843337Y-62321796D01*
X31795718Y-62226558D01*
X31700480Y-62131320D01*
X31557622Y-62083700D01*
X31462384Y-62083700D01*
X31319527Y-62131320D01*
X31271908Y-62178939D01*
X30414765Y-63083700D02*
X30414765Y-62559891D01*
X30462384Y-62464653D01*
X30557622Y-62417034D01*
X30748099Y-62417034D01*
X30843337Y-62464653D01*
X30414765Y-63036081D02*
X30510003Y-63083700D01*
X30748099Y-63083700D01*
X30843337Y-63036081D01*
X30890956Y-62940843D01*
X30890956Y-62845605D01*
X30843337Y-62750367D01*
X30748099Y-62702748D01*
X30510003Y-62702748D01*
X30414765Y-62655129D01*
X29938575Y-63083700D02*
X29938575Y-62417034D01*
X29938575Y-62512272D02*
X29890956Y-62464653D01*
X29795718Y-62417034D01*
X29652860Y-62417034D01*
X29557622Y-62464653D01*
X29510003Y-62559891D01*
X29510003Y-63083700D01*
X29510003Y-62559891D02*
X29462384Y-62464653D01*
X29367146Y-62417034D01*
X29224289Y-62417034D01*
X29129051Y-62464653D01*
X29081432Y-62559891D01*
X29081432Y-63083700D01*
X28224289Y-63036081D02*
X28319527Y-63083700D01*
X28510003Y-63083700D01*
X28605241Y-63036081D01*
X28652860Y-62940843D01*
X28652860Y-62559891D01*
X28605241Y-62464653D01*
X28510003Y-62417034D01*
X28319527Y-62417034D01*
X28224289Y-62464653D01*
X28176670Y-62559891D01*
X28176670Y-62655129D01*
X28652860Y-62750367D01*
X27748099Y-63083700D02*
X27748099Y-62417034D01*
X27748099Y-62607510D02*
X27700480Y-62512272D01*
X27652860Y-62464653D01*
X27557622Y-62417034D01*
X27462384Y-62417034D01*
X26700480Y-63083700D02*
X26700480Y-62559891D01*
X26748099Y-62464653D01*
X26843337Y-62417034D01*
X27033813Y-62417034D01*
X27129051Y-62464653D01*
X26700480Y-63036081D02*
X26795718Y-63083700D01*
X27033813Y-63083700D01*
X27129051Y-63036081D01*
X27176670Y-62940843D01*
X27176670Y-62845605D01*
X27129051Y-62750367D01*
X27033813Y-62702748D01*
X26795718Y-62702748D01*
X26700480Y-62655129D01*
X26367146Y-62083700D02*
X25795718Y-62083700D01*
X26081432Y-63083700D02*
X26081432Y-62083700D01*
X25462384Y-63083700D02*
X25462384Y-62417034D01*
X25462384Y-62607510D02*
X25414765Y-62512272D01*
X25367146Y-62464653D01*
X25271908Y-62417034D01*
X25176670Y-62417034D01*
X24843337Y-63083700D02*
X24843337Y-62417034D01*
X24843337Y-62083700D02*
X24890956Y-62131320D01*
X24843337Y-62178939D01*
X24795718Y-62131320D01*
X24843337Y-62083700D01*
X24843337Y-62178939D01*
X23938575Y-62417034D02*
X23938575Y-63226558D01*
X23986194Y-63321796D01*
X24033813Y-63369415D01*
X24129051Y-63417034D01*
X24271908Y-63417034D01*
X24367146Y-63369415D01*
X23938575Y-63036081D02*
X24033813Y-63083700D01*
X24224289Y-63083700D01*
X24319527Y-63036081D01*
X24367146Y-62988462D01*
X24414765Y-62893224D01*
X24414765Y-62607510D01*
X24367146Y-62512272D01*
X24319527Y-62464653D01*
X24224289Y-62417034D01*
X24033813Y-62417034D01*
X23938575Y-62464653D01*
X23033813Y-62417034D02*
X23033813Y-63226558D01*
X23081432Y-63321796D01*
X23129051Y-63369415D01*
X23224289Y-63417034D01*
X23367146Y-63417034D01*
X23462384Y-63369415D01*
X23033813Y-63036081D02*
X23129051Y-63083700D01*
X23319527Y-63083700D01*
X23414765Y-63036081D01*
X23462384Y-62988462D01*
X23510003Y-62893224D01*
X23510003Y-62607510D01*
X23462384Y-62512272D01*
X23414765Y-62464653D01*
X23319527Y-62417034D01*
X23129051Y-62417034D01*
X23033813Y-62464653D01*
X22176670Y-63036081D02*
X22271908Y-63083700D01*
X22462384Y-63083700D01*
X22557622Y-63036081D01*
X22605241Y-62940843D01*
X22605241Y-62559891D01*
X22557622Y-62464653D01*
X22462384Y-62417034D01*
X22271908Y-62417034D01*
X22176670Y-62464653D01*
X22129051Y-62559891D01*
X22129051Y-62655129D01*
X22605241Y-62750367D01*
X21700480Y-63083700D02*
X21700480Y-62417034D01*
X21700480Y-62607510D02*
X21652860Y-62512272D01*
X21605241Y-62464653D01*
X21510003Y-62417034D01*
X21414765Y-62417034D01*
X29605241Y-64733700D02*
X29938575Y-64257510D01*
X30176670Y-64733700D02*
X30176670Y-63733700D01*
X29795718Y-63733700D01*
X29700480Y-63781320D01*
X29652860Y-63828939D01*
X29605241Y-63924177D01*
X29605241Y-64067034D01*
X29652860Y-64162272D01*
X29700480Y-64209891D01*
X29795718Y-64257510D01*
X30176670Y-64257510D01*
X28795718Y-64686081D02*
X28890956Y-64733700D01*
X29081432Y-64733700D01*
X29176670Y-64686081D01*
X29224289Y-64590843D01*
X29224289Y-64209891D01*
X29176670Y-64114653D01*
X29081432Y-64067034D01*
X28890956Y-64067034D01*
X28795718Y-64114653D01*
X28748099Y-64209891D01*
X28748099Y-64305129D01*
X29224289Y-64400367D01*
X28414765Y-64067034D02*
X28176670Y-64733700D01*
X27938575Y-64067034D01*
X27652860Y-63733700D02*
X27033813Y-63733700D01*
X27367146Y-64114653D01*
X27224289Y-64114653D01*
X27129051Y-64162272D01*
X27081432Y-64209891D01*
X27033813Y-64305129D01*
X27033813Y-64543224D01*
X27081432Y-64638462D01*
X27129051Y-64686081D01*
X27224289Y-64733700D01*
X27510003Y-64733700D01*
X27605241Y-64686081D01*
X27652860Y-64638462D01*
X25890956Y-64686081D02*
X25748099Y-64733700D01*
X25510003Y-64733700D01*
X25414765Y-64686081D01*
X25367146Y-64638462D01*
X25319527Y-64543224D01*
X25319527Y-64447986D01*
X25367146Y-64352748D01*
X25414765Y-64305129D01*
X25510003Y-64257510D01*
X25700479Y-64209891D01*
X25795718Y-64162272D01*
X25843337Y-64114653D01*
X25890956Y-64019415D01*
X25890956Y-63924177D01*
X25843337Y-63828939D01*
X25795718Y-63781320D01*
X25700479Y-63733700D01*
X25462384Y-63733700D01*
X25319527Y-63781320D01*
X24890956Y-64733700D02*
X24890956Y-63733700D01*
X24557622Y-64447986D01*
X24224289Y-63733700D01*
X24224289Y-64733700D01*
X23748099Y-64733700D02*
X23748099Y-63733700D01*
X23510003Y-63733700D01*
X23367146Y-63781320D01*
X23271908Y-63876558D01*
X23224289Y-63971796D01*
X23176670Y-64162272D01*
X23176670Y-64305129D01*
X23224289Y-64495605D01*
X23271908Y-64590843D01*
X23367146Y-64686081D01*
X23510003Y-64733700D01*
X23748099Y-64733700D01*
X14731952Y-72913548D02*
X13970047Y-72913548D01*
X14351000Y-73294500D02*
X14351000Y-72532596D01*
X18313352Y-78811428D02*
X17551447Y-78811428D01*
X17932400Y-79192380D02*
X17932400Y-78430476D01*
X89331800Y-83638140D02*
X89331800Y-83876236D01*
X89569895Y-83780998D02*
X89331800Y-83876236D01*
X89093704Y-83780998D01*
X89474657Y-84066712D02*
X89331800Y-83876236D01*
X89188942Y-84066712D01*
X79725520Y-82571340D02*
X79725520Y-82809436D01*
X79963615Y-82714198D02*
X79725520Y-82809436D01*
X79487424Y-82714198D01*
X79868377Y-82999912D02*
X79725520Y-82809436D01*
X79582662Y-82999912D01*
X55915560Y-87214460D02*
X55915560Y-87452556D01*
X56153655Y-87357318D02*
X55915560Y-87452556D01*
X55677464Y-87357318D01*
X56058417Y-87643032D02*
X55915560Y-87452556D01*
X55772702Y-87643032D01*
X39720520Y-86675980D02*
X39720520Y-86914076D01*
X39958615Y-86818838D02*
X39720520Y-86914076D01*
X39482424Y-86818838D01*
X39863377Y-87104552D02*
X39720520Y-86914076D01*
X39577662Y-87104552D01*
X30129480Y-91278460D02*
X30129480Y-91516556D01*
X30367575Y-91421318D02*
X30129480Y-91516556D01*
X29891384Y-91421318D01*
X30272337Y-91707032D02*
X30129480Y-91516556D01*
X29986622Y-91707032D01*
X23987712Y-94208908D02*
X23225807Y-94208908D01*
X23606760Y-94589860D02*
X23606760Y-93827956D01*
X73030080Y-37699700D02*
X73030080Y-37937796D01*
X73268175Y-37842558D02*
X73030080Y-37937796D01*
X72791984Y-37842558D01*
X73172937Y-38128272D02*
X73030080Y-37937796D01*
X72887222Y-38128272D01*
X59471512Y-31542028D02*
X58709607Y-31542028D01*
X59090560Y-31922980D02*
X59090560Y-31161076D01*
X67442032Y-32344668D02*
X66680127Y-32344668D01*
X67061080Y-32725620D02*
X67061080Y-31963716D01*
X67467432Y-27411988D02*
X66705527Y-27411988D01*
X67086480Y-27792940D02*
X67086480Y-27031036D01*
X71582280Y-25187660D02*
X71582280Y-25425756D01*
X71820375Y-25330518D02*
X71582280Y-25425756D01*
X71344184Y-25330518D01*
X71725137Y-25616232D02*
X71582280Y-25425756D01*
X71439422Y-25616232D01*
X70358000Y-21225260D02*
X70358000Y-21463356D01*
X70596095Y-21368118D02*
X70358000Y-21463356D01*
X70119904Y-21368118D01*
X70500857Y-21653832D02*
X70358000Y-21463356D01*
X70215142Y-21653832D01*
X80243632Y-10480348D02*
X79481727Y-10480348D01*
X79862680Y-10861300D02*
X79862680Y-10099396D01*
X68082160Y-691900D02*
X68082160Y-929996D01*
X68320255Y-834758D02*
X68082160Y-929996D01*
X67844064Y-834758D01*
X68225017Y-1120472D02*
X68082160Y-929996D01*
X67939302Y-1120472D01*
X59090560Y-31334460D02*
X59090560Y-31572556D01*
X59328655Y-31477318D02*
X59090560Y-31572556D01*
X58852464Y-31477318D01*
X59233417Y-31763032D02*
X59090560Y-31572556D01*
X58947702Y-31763032D01*
X40736520Y-56094380D02*
X40736520Y-56332476D01*
X40974615Y-56237238D02*
X40736520Y-56332476D01*
X40498424Y-56237238D01*
X40879377Y-56522952D02*
X40736520Y-56332476D01*
X40593662Y-56522952D01*
X33715960Y-25863300D02*
X33715960Y-26101396D01*
X33954055Y-26006158D02*
X33715960Y-26101396D01*
X33477864Y-26006158D01*
X33858817Y-26291872D02*
X33715960Y-26101396D01*
X33573102Y-26291872D01*
M02*
