G04 #@! TF.GenerationSoftware,KiCad,Pcbnew,(5.1.4)-1*
G04 #@! TF.CreationDate,2019-12-24T21:54:54-05:00*
G04 #@! TF.ProjectId,CameraTrigger,43616d65-7261-4547-9269-676765722e6b,rev?*
G04 #@! TF.SameCoordinates,Original*
G04 #@! TF.FileFunction,Soldermask,Top*
G04 #@! TF.FilePolarity,Negative*
%FSLAX46Y46*%
G04 Gerber Fmt 4.6, Leading zero omitted, Abs format (unit mm)*
G04 Created by KiCad (PCBNEW (5.1.4)-1) date 2019-12-24 21:54:54*
%MOMM*%
%LPD*%
G04 APERTURE LIST*
%ADD10C,4.000000*%
%ADD11C,1.800000*%
%ADD12O,1.600000X1.600000*%
%ADD13R,1.600000X1.600000*%
%ADD14O,1.905000X2.000000*%
%ADD15R,1.905000X2.000000*%
%ADD16C,1.778000*%
%ADD17C,1.600000*%
%ADD18R,1.500000X1.050000*%
%ADD19O,1.500000X1.050000*%
%ADD20C,2.100000*%
%ADD21R,2.100000X2.100000*%
%ADD22O,1.700000X1.700000*%
%ADD23R,1.700000X1.700000*%
%ADD24C,2.800000*%
%ADD25R,1.800000X1.800000*%
%ADD26C,2.000000*%
%ADD27R,2.000000X2.000000*%
G04 APERTURE END LIST*
D10*
X42560000Y-158110000D03*
X42560000Y-149310000D03*
D11*
X35560000Y-156210000D03*
X35560000Y-153710000D03*
X35560000Y-151210000D03*
D12*
X107950000Y-105410000D03*
X100330000Y-110490000D03*
X107950000Y-107950000D03*
X100330000Y-107950000D03*
X107950000Y-110490000D03*
D13*
X100330000Y-105410000D03*
D12*
X107950000Y-124460000D03*
X100330000Y-129540000D03*
X107950000Y-127000000D03*
X100330000Y-127000000D03*
X107950000Y-129540000D03*
D13*
X100330000Y-124460000D03*
D14*
X91440000Y-96520000D03*
X88900000Y-96520000D03*
D15*
X86360000Y-96520000D03*
D16*
X48260000Y-107950000D03*
X50800000Y-107950000D03*
X53340000Y-107950000D03*
X53340000Y-100330000D03*
X48260000Y-100330000D03*
X54610000Y-123190000D03*
X54610000Y-120650000D03*
X54610000Y-118110000D03*
X46990000Y-118110000D03*
X46990000Y-123190000D03*
X54610000Y-91440000D03*
X54610000Y-88900000D03*
X54610000Y-86360000D03*
X46990000Y-86360000D03*
X46990000Y-91440000D03*
D12*
X130810000Y-95250000D03*
D13*
X130810000Y-87630000D03*
D12*
X86360000Y-113030000D03*
D17*
X93980000Y-113030000D03*
D12*
X68580000Y-153670000D03*
D17*
X60960000Y-153670000D03*
D12*
X111760000Y-149860000D03*
D17*
X119380000Y-149860000D03*
D12*
X96520000Y-119380000D03*
D17*
X104140000Y-119380000D03*
D12*
X100330000Y-157480000D03*
D17*
X107950000Y-157480000D03*
D18*
X120650000Y-165100000D03*
D19*
X120650000Y-162560000D03*
X120650000Y-163830000D03*
D20*
X36830000Y-173990000D03*
D21*
X36830000Y-176530000D03*
D22*
X80010000Y-118110000D03*
X80010000Y-120650000D03*
X80010000Y-123190000D03*
X80010000Y-125730000D03*
X80010000Y-128270000D03*
X80010000Y-130810000D03*
X80010000Y-133350000D03*
X80010000Y-135890000D03*
X80010000Y-138430000D03*
X80010000Y-140970000D03*
X80010000Y-143510000D03*
D23*
X80010000Y-146050000D03*
D22*
X59721569Y-107420000D03*
X59721569Y-109960000D03*
X59721569Y-112500000D03*
X59721569Y-115040000D03*
X59721569Y-117580000D03*
X59721569Y-120120000D03*
X59721569Y-122660000D03*
X59721569Y-125200000D03*
X59721569Y-127740000D03*
X59721569Y-130280000D03*
X59721569Y-132820000D03*
X59721569Y-135360000D03*
X59721569Y-137900000D03*
X59721569Y-140440000D03*
X59721569Y-142980000D03*
D23*
X59721569Y-145520000D03*
D20*
X36830000Y-102870000D03*
D21*
X36830000Y-105410000D03*
D20*
X36830000Y-91440000D03*
D21*
X36830000Y-88900000D03*
D20*
X130810000Y-175260000D03*
X130810000Y-177800000D03*
D21*
X130810000Y-180340000D03*
D20*
X130810000Y-165100000D03*
D21*
X130810000Y-162560000D03*
D20*
X36830000Y-133350000D03*
D21*
X36830000Y-135890000D03*
D20*
X129540000Y-147320000D03*
D21*
X129540000Y-149860000D03*
D24*
X121640000Y-130270000D03*
X127140000Y-130270000D03*
X129540000Y-128270000D03*
D20*
X129540000Y-100330000D03*
D21*
X129540000Y-102870000D03*
D11*
X86360000Y-121920000D03*
D25*
X86360000Y-119380000D03*
D11*
X113030000Y-160020000D03*
D25*
X115570000Y-160020000D03*
D17*
X85170000Y-86360000D03*
D13*
X90170000Y-86360000D03*
D17*
X92630000Y-105410000D03*
D13*
X87630000Y-105410000D03*
D26*
X90090000Y-132080000D03*
D27*
X85090000Y-132080000D03*
M02*
