M48
; DRILL file {KiCad (5.1.4)-1} date 12/24/2019 9:54:58 PM
; FORMAT={-:-/ absolute / inch / decimal}
; #@! TF.CreationDate,2019-12-24T21:54:58-05:00
; #@! TF.GenerationSoftware,Kicad,Pcbnew,(5.1.4)-1
; #@! TF.FileFunction,Plated,1,2,PTH
FMAT,2
INCH
T1C0.0295
T2C0.0315
T3C0.0354
T4C0.0394
T5C0.0433
T6C0.0450
T7C0.0787
%
G90
G05
T1
X4.75Y-6.4
X4.75Y-6.45
X4.75Y-6.5
T2
X4.4Y-5.9
X4.7Y-5.9
X3.95Y-6.2
X4.25Y-6.2
X3.4Y-4.45
X3.7Y-4.45
X3.95Y-4.15
X3.95Y-4.25
X3.95Y-4.35
X4.25Y-4.15
X4.25Y-4.25
X4.25Y-4.35
X3.3531Y-3.4
X3.55Y-3.4
X3.45Y-4.15
X3.6469Y-4.15
X3.95Y-4.9
X3.95Y-5.0
X3.95Y-5.1
X4.25Y-4.9
X4.25Y-5.0
X4.25Y-5.1
X2.4Y-6.05
X2.7Y-6.05
X5.15Y-3.45
X5.15Y-3.75
X3.8Y-4.7
X4.1Y-4.7
T3
X3.4Y-4.7
X3.4Y-4.8
X4.45Y-6.3
X4.55Y-6.3
T4
X3.15Y-4.65
X3.15Y-4.75
X3.15Y-4.85
X3.15Y-4.95
X3.15Y-5.05
X3.15Y-5.15
X3.15Y-5.25
X3.15Y-5.35
X3.15Y-5.45
X3.15Y-5.55
X3.15Y-5.65
X3.15Y-5.75
X2.3512Y-4.2291
X2.3512Y-4.3291
X2.3512Y-4.4291
X2.3512Y-4.5291
X2.3512Y-4.6291
X2.3512Y-4.7291
X2.3512Y-4.8291
X2.3512Y-4.9291
X2.3512Y-5.0291
X2.3512Y-5.1291
X2.3512Y-5.2291
X2.3512Y-5.3291
X2.3512Y-5.4291
X2.3512Y-5.5291
X2.3512Y-5.6291
X2.3512Y-5.7291
X1.4Y-5.9531
X1.4Y-6.0516
X1.4Y-6.15
X3.35Y-5.2
X3.5469Y-5.2
T5
X5.15Y-6.9
X5.15Y-7.0
X5.15Y-7.1
X1.45Y-3.5
X1.45Y-3.6
X5.1Y-5.8
X5.1Y-5.9
X5.1Y-3.95
X5.1Y-4.05
X5.15Y-6.4
X5.15Y-6.5
X1.45Y-6.85
X1.45Y-6.95
X1.45Y-4.05
X1.45Y-4.15
X1.45Y-5.25
X1.45Y-5.35
X3.4Y-3.8
X3.5Y-3.8
X3.6Y-3.8
T6
X1.9Y-3.95
X1.9Y-4.25
X2.0Y-4.25
X2.1Y-3.95
X2.1Y-4.25
X1.85Y-3.4
X1.85Y-3.6
X2.15Y-3.4
X2.15Y-3.5
X2.15Y-3.6
X1.85Y-4.65
X1.85Y-4.85
X2.15Y-4.65
X2.15Y-4.75
X2.15Y-4.85
T7
X4.789Y-5.1287
X5.0055Y-5.1287
X5.1Y-5.05
T0
M30
