G04 #@! TF.GenerationSoftware,KiCad,Pcbnew,(5.1.4)-1*
G04 #@! TF.CreationDate,2019-12-24T21:54:54-05:00*
G04 #@! TF.ProjectId,CameraTrigger,43616d65-7261-4547-9269-676765722e6b,rev?*
G04 #@! TF.SameCoordinates,Original*
G04 #@! TF.FileFunction,Copper,L1,Top*
G04 #@! TF.FilePolarity,Positive*
%FSLAX46Y46*%
G04 Gerber Fmt 4.6, Leading zero omitted, Abs format (unit mm)*
G04 Created by KiCad (PCBNEW (5.1.4)-1) date 2019-12-24 21:54:54*
%MOMM*%
%LPD*%
G04 APERTURE LIST*
%ADD10C,0.300000*%
%ADD11C,4.000000*%
%ADD12C,1.800000*%
%ADD13O,1.600000X1.600000*%
%ADD14R,1.600000X1.600000*%
%ADD15O,1.905000X2.000000*%
%ADD16R,1.905000X2.000000*%
%ADD17C,1.778000*%
%ADD18C,1.600000*%
%ADD19R,1.500000X1.050000*%
%ADD20O,1.500000X1.050000*%
%ADD21C,2.100000*%
%ADD22R,2.100000X2.100000*%
%ADD23O,1.700000X1.700000*%
%ADD24R,1.700000X1.700000*%
%ADD25C,2.800000*%
%ADD26R,1.800000X1.800000*%
%ADD27C,2.000000*%
%ADD28R,2.000000X2.000000*%
%ADD29C,0.250000*%
G04 APERTURE END LIST*
D10*
X40660000Y-95142857D02*
X40160000Y-95142857D01*
X40160000Y-95928571D02*
X40160000Y-94428571D01*
X40874285Y-94428571D01*
X41445714Y-95928571D02*
X41445714Y-94928571D01*
X41445714Y-94428571D02*
X41374285Y-94500000D01*
X41445714Y-94571428D01*
X41517142Y-94500000D01*
X41445714Y-94428571D01*
X41445714Y-94571428D01*
X42160000Y-95928571D02*
X42160000Y-94928571D01*
X42160000Y-95214285D02*
X42231428Y-95071428D01*
X42302857Y-95000000D01*
X42445714Y-94928571D01*
X42588571Y-94928571D01*
X43660000Y-95857142D02*
X43517142Y-95928571D01*
X43231428Y-95928571D01*
X43088571Y-95857142D01*
X43017142Y-95714285D01*
X43017142Y-95142857D01*
X43088571Y-95000000D01*
X43231428Y-94928571D01*
X43517142Y-94928571D01*
X43660000Y-95000000D01*
X43731428Y-95142857D01*
X43731428Y-95285714D01*
X43017142Y-95428571D01*
X36278571Y-109470000D02*
X36992857Y-109470000D01*
X36135714Y-109898571D02*
X36635714Y-108398571D01*
X37135714Y-109898571D01*
X37635714Y-109898571D02*
X37635714Y-108898571D01*
X37635714Y-109184285D02*
X37707142Y-109041428D01*
X37778571Y-108970000D01*
X37921428Y-108898571D01*
X38064285Y-108898571D01*
X38564285Y-109898571D02*
X38564285Y-108898571D01*
X38564285Y-109041428D02*
X38635714Y-108970000D01*
X38778571Y-108898571D01*
X38992857Y-108898571D01*
X39135714Y-108970000D01*
X39207142Y-109112857D01*
X39207142Y-109898571D01*
X39207142Y-109112857D02*
X39278571Y-108970000D01*
X39421428Y-108898571D01*
X39635714Y-108898571D01*
X39778571Y-108970000D01*
X39850000Y-109112857D01*
X39850000Y-109898571D01*
X48942857Y-127678571D02*
X48942857Y-126178571D01*
X49514285Y-126178571D01*
X49657142Y-126250000D01*
X49728571Y-126321428D01*
X49800000Y-126464285D01*
X49800000Y-126678571D01*
X49728571Y-126821428D01*
X49657142Y-126892857D01*
X49514285Y-126964285D01*
X48942857Y-126964285D01*
X50657142Y-127678571D02*
X50514285Y-127607142D01*
X50442857Y-127535714D01*
X50371428Y-127392857D01*
X50371428Y-126964285D01*
X50442857Y-126821428D01*
X50514285Y-126750000D01*
X50657142Y-126678571D01*
X50871428Y-126678571D01*
X51014285Y-126750000D01*
X51085714Y-126821428D01*
X51157142Y-126964285D01*
X51157142Y-127392857D01*
X51085714Y-127535714D01*
X51014285Y-127607142D01*
X50871428Y-127678571D01*
X50657142Y-127678571D01*
X52014285Y-127678571D02*
X51871428Y-127607142D01*
X51800000Y-127464285D01*
X51800000Y-126178571D01*
X52800000Y-127678571D02*
X52657142Y-127607142D01*
X52585714Y-127464285D01*
X52585714Y-126178571D01*
X38358571Y-144188571D02*
X38358571Y-142688571D01*
X38715714Y-142688571D01*
X38929999Y-142760000D01*
X39072857Y-142902857D01*
X39144285Y-143045714D01*
X39215714Y-143331428D01*
X39215714Y-143545714D01*
X39144285Y-143831428D01*
X39072857Y-143974285D01*
X38929999Y-144117142D01*
X38715714Y-144188571D01*
X38358571Y-144188571D01*
X40429999Y-144117142D02*
X40287142Y-144188571D01*
X40001428Y-144188571D01*
X39858571Y-144117142D01*
X39787142Y-143974285D01*
X39787142Y-143402857D01*
X39858571Y-143260000D01*
X40001428Y-143188571D01*
X40287142Y-143188571D01*
X40429999Y-143260000D01*
X40501428Y-143402857D01*
X40501428Y-143545714D01*
X39787142Y-143688571D01*
X41358571Y-144188571D02*
X41215714Y-144117142D01*
X41144285Y-143974285D01*
X41144285Y-142688571D01*
X42572857Y-144188571D02*
X42572857Y-143402857D01*
X42501428Y-143260000D01*
X42358571Y-143188571D01*
X42072857Y-143188571D01*
X41929999Y-143260000D01*
X42572857Y-144117142D02*
X42429999Y-144188571D01*
X42072857Y-144188571D01*
X41929999Y-144117142D01*
X41858571Y-143974285D01*
X41858571Y-143831428D01*
X41929999Y-143688571D01*
X42072857Y-143617142D01*
X42429999Y-143617142D01*
X42572857Y-143545714D01*
X43144285Y-143188571D02*
X43501428Y-144188571D01*
X43858571Y-143188571D02*
X43501428Y-144188571D01*
X43358571Y-144545714D01*
X43287142Y-144617142D01*
X43144285Y-144688571D01*
X45572857Y-144188571D02*
X45572857Y-142688571D01*
X46072857Y-143760000D01*
X46572857Y-142688571D01*
X46572857Y-144188571D01*
X47215714Y-144117142D02*
X47429999Y-144188571D01*
X47787142Y-144188571D01*
X47929999Y-144117142D01*
X48001428Y-144045714D01*
X48072857Y-143902857D01*
X48072857Y-143760000D01*
X48001428Y-143617142D01*
X47929999Y-143545714D01*
X47787142Y-143474285D01*
X47501428Y-143402857D01*
X47358571Y-143331428D01*
X47287142Y-143260000D01*
X47215714Y-143117142D01*
X47215714Y-142974285D01*
X47287142Y-142831428D01*
X47358571Y-142760000D01*
X47501428Y-142688571D01*
X47858571Y-142688571D01*
X48072857Y-142760000D01*
X45367142Y-177137142D02*
X45581428Y-177208571D01*
X45938571Y-177208571D01*
X46081428Y-177137142D01*
X46152857Y-177065714D01*
X46224285Y-176922857D01*
X46224285Y-176780000D01*
X46152857Y-176637142D01*
X46081428Y-176565714D01*
X45938571Y-176494285D01*
X45652857Y-176422857D01*
X45510000Y-176351428D01*
X45438571Y-176280000D01*
X45367142Y-176137142D01*
X45367142Y-175994285D01*
X45438571Y-175851428D01*
X45510000Y-175780000D01*
X45652857Y-175708571D01*
X46010000Y-175708571D01*
X46224285Y-175780000D01*
X46867142Y-176208571D02*
X46867142Y-177708571D01*
X46867142Y-176280000D02*
X47010000Y-176208571D01*
X47295714Y-176208571D01*
X47438571Y-176280000D01*
X47510000Y-176351428D01*
X47581428Y-176494285D01*
X47581428Y-176922857D01*
X47510000Y-177065714D01*
X47438571Y-177137142D01*
X47295714Y-177208571D01*
X47010000Y-177208571D01*
X46867142Y-177137142D01*
X48867142Y-177208571D02*
X48867142Y-176422857D01*
X48795714Y-176280000D01*
X48652857Y-176208571D01*
X48367142Y-176208571D01*
X48224285Y-176280000D01*
X48867142Y-177137142D02*
X48724285Y-177208571D01*
X48367142Y-177208571D01*
X48224285Y-177137142D01*
X48152857Y-176994285D01*
X48152857Y-176851428D01*
X48224285Y-176708571D01*
X48367142Y-176637142D01*
X48724285Y-176637142D01*
X48867142Y-176565714D01*
X49581428Y-177208571D02*
X49581428Y-176208571D01*
X49581428Y-176494285D02*
X49652857Y-176351428D01*
X49724285Y-176280000D01*
X49867142Y-176208571D01*
X50010000Y-176208571D01*
X51081428Y-177137142D02*
X50938571Y-177208571D01*
X50652857Y-177208571D01*
X50510000Y-177137142D01*
X50438571Y-176994285D01*
X50438571Y-176422857D01*
X50510000Y-176280000D01*
X50652857Y-176208571D01*
X50938571Y-176208571D01*
X51081428Y-176280000D01*
X51152857Y-176422857D01*
X51152857Y-176565714D01*
X50438571Y-176708571D01*
X127611428Y-158158571D02*
X126897142Y-158158571D01*
X126897142Y-156658571D01*
X128754285Y-158158571D02*
X128754285Y-157372857D01*
X128682857Y-157230000D01*
X128540000Y-157158571D01*
X128254285Y-157158571D01*
X128111428Y-157230000D01*
X128754285Y-158087142D02*
X128611428Y-158158571D01*
X128254285Y-158158571D01*
X128111428Y-158087142D01*
X128040000Y-157944285D01*
X128040000Y-157801428D01*
X128111428Y-157658571D01*
X128254285Y-157587142D01*
X128611428Y-157587142D01*
X128754285Y-157515714D01*
X129397142Y-158087142D02*
X129540000Y-158158571D01*
X129825714Y-158158571D01*
X129968571Y-158087142D01*
X130040000Y-157944285D01*
X130040000Y-157872857D01*
X129968571Y-157730000D01*
X129825714Y-157658571D01*
X129611428Y-157658571D01*
X129468571Y-157587142D01*
X129397142Y-157444285D01*
X129397142Y-157372857D01*
X129468571Y-157230000D01*
X129611428Y-157158571D01*
X129825714Y-157158571D01*
X129968571Y-157230000D01*
X131254285Y-158087142D02*
X131111428Y-158158571D01*
X130825714Y-158158571D01*
X130682857Y-158087142D01*
X130611428Y-157944285D01*
X130611428Y-157372857D01*
X130682857Y-157230000D01*
X130825714Y-157158571D01*
X131111428Y-157158571D01*
X131254285Y-157230000D01*
X131325714Y-157372857D01*
X131325714Y-157515714D01*
X130611428Y-157658571D01*
X131968571Y-158158571D02*
X131968571Y-157158571D01*
X131968571Y-157444285D02*
X132040000Y-157301428D01*
X132111428Y-157230000D01*
X132254285Y-157158571D01*
X132397142Y-157158571D01*
X104835714Y-174668571D02*
X104121428Y-174668571D01*
X104121428Y-173168571D01*
X105550000Y-174668571D02*
X105407142Y-174597142D01*
X105335714Y-174525714D01*
X105264285Y-174382857D01*
X105264285Y-173954285D01*
X105335714Y-173811428D01*
X105407142Y-173740000D01*
X105550000Y-173668571D01*
X105764285Y-173668571D01*
X105907142Y-173740000D01*
X105978571Y-173811428D01*
X106050000Y-173954285D01*
X106050000Y-174382857D01*
X105978571Y-174525714D01*
X105907142Y-174597142D01*
X105764285Y-174668571D01*
X105550000Y-174668571D01*
X106550000Y-173668571D02*
X106835714Y-174668571D01*
X107121428Y-173954285D01*
X107407142Y-174668571D01*
X107692857Y-173668571D01*
X108264285Y-174668571D02*
X108264285Y-173168571D01*
X108264285Y-173882857D02*
X109121428Y-173882857D01*
X109121428Y-174668571D02*
X109121428Y-173168571D01*
X109835714Y-174668571D02*
X109835714Y-173668571D01*
X109835714Y-173168571D02*
X109764285Y-173240000D01*
X109835714Y-173311428D01*
X109907142Y-173240000D01*
X109835714Y-173168571D01*
X109835714Y-173311428D01*
X111192857Y-173668571D02*
X111192857Y-174882857D01*
X111121428Y-175025714D01*
X111050000Y-175097142D01*
X110907142Y-175168571D01*
X110692857Y-175168571D01*
X110550000Y-175097142D01*
X111192857Y-174597142D02*
X111050000Y-174668571D01*
X110764285Y-174668571D01*
X110621428Y-174597142D01*
X110550000Y-174525714D01*
X110478571Y-174382857D01*
X110478571Y-173954285D01*
X110550000Y-173811428D01*
X110621428Y-173740000D01*
X110764285Y-173668571D01*
X111050000Y-173668571D01*
X111192857Y-173740000D01*
X111907142Y-174668571D02*
X111907142Y-173168571D01*
X112550000Y-174668571D02*
X112550000Y-173882857D01*
X112478571Y-173740000D01*
X112335714Y-173668571D01*
X112121428Y-173668571D01*
X111978571Y-173740000D01*
X111907142Y-173811428D01*
X114335714Y-174597142D02*
X114550000Y-174668571D01*
X114907142Y-174668571D01*
X115050000Y-174597142D01*
X115121428Y-174525714D01*
X115192857Y-174382857D01*
X115192857Y-174240000D01*
X115121428Y-174097142D01*
X115050000Y-174025714D01*
X114907142Y-173954285D01*
X114621428Y-173882857D01*
X114478571Y-173811428D01*
X114407142Y-173740000D01*
X114335714Y-173597142D01*
X114335714Y-173454285D01*
X114407142Y-173311428D01*
X114478571Y-173240000D01*
X114621428Y-173168571D01*
X114978571Y-173168571D01*
X115192857Y-173240000D01*
X116407142Y-174597142D02*
X116264285Y-174668571D01*
X115978571Y-174668571D01*
X115835714Y-174597142D01*
X115764285Y-174454285D01*
X115764285Y-173882857D01*
X115835714Y-173740000D01*
X115978571Y-173668571D01*
X116264285Y-173668571D01*
X116407142Y-173740000D01*
X116478571Y-173882857D01*
X116478571Y-174025714D01*
X115764285Y-174168571D01*
X117121428Y-173668571D02*
X117121428Y-174668571D01*
X117121428Y-173811428D02*
X117192857Y-173740000D01*
X117335714Y-173668571D01*
X117550000Y-173668571D01*
X117692857Y-173740000D01*
X117764285Y-173882857D01*
X117764285Y-174668571D01*
X118407142Y-174597142D02*
X118550000Y-174668571D01*
X118835714Y-174668571D01*
X118978571Y-174597142D01*
X119050000Y-174454285D01*
X119050000Y-174382857D01*
X118978571Y-174240000D01*
X118835714Y-174168571D01*
X118621428Y-174168571D01*
X118478571Y-174097142D01*
X118407142Y-173954285D01*
X118407142Y-173882857D01*
X118478571Y-173740000D01*
X118621428Y-173668571D01*
X118835714Y-173668571D01*
X118978571Y-173740000D01*
X119907142Y-174668571D02*
X119764285Y-174597142D01*
X119692857Y-174525714D01*
X119621428Y-174382857D01*
X119621428Y-173954285D01*
X119692857Y-173811428D01*
X119764285Y-173740000D01*
X119907142Y-173668571D01*
X120121428Y-173668571D01*
X120264285Y-173740000D01*
X120335714Y-173811428D01*
X120407142Y-173954285D01*
X120407142Y-174382857D01*
X120335714Y-174525714D01*
X120264285Y-174597142D01*
X120121428Y-174668571D01*
X119907142Y-174668571D01*
X121050000Y-174668571D02*
X121050000Y-173668571D01*
X121050000Y-173954285D02*
X121121428Y-173811428D01*
X121192857Y-173740000D01*
X121335714Y-173668571D01*
X121478571Y-173668571D01*
X123121428Y-174668571D02*
X123121428Y-173168571D01*
X123835714Y-173668571D02*
X123835714Y-174668571D01*
X123835714Y-173811428D02*
X123907142Y-173740000D01*
X124050000Y-173668571D01*
X124264285Y-173668571D01*
X124407142Y-173740000D01*
X124478571Y-173882857D01*
X124478571Y-174668571D01*
X122892857Y-142490000D02*
X123607142Y-142490000D01*
X122750000Y-142918571D02*
X123250000Y-141418571D01*
X123750000Y-142918571D01*
X124892857Y-141918571D02*
X124892857Y-142918571D01*
X124250000Y-141918571D02*
X124250000Y-142704285D01*
X124321428Y-142847142D01*
X124464285Y-142918571D01*
X124678571Y-142918571D01*
X124821428Y-142847142D01*
X124892857Y-142775714D01*
X125464285Y-142918571D02*
X126250000Y-141918571D01*
X125464285Y-141918571D02*
X126250000Y-142918571D01*
X128250000Y-141418571D02*
X128535714Y-141418571D01*
X128678571Y-141490000D01*
X128821428Y-141632857D01*
X128892857Y-141918571D01*
X128892857Y-142418571D01*
X128821428Y-142704285D01*
X128678571Y-142847142D01*
X128535714Y-142918571D01*
X128250000Y-142918571D01*
X128107142Y-142847142D01*
X127964285Y-142704285D01*
X127892857Y-142418571D01*
X127892857Y-141918571D01*
X127964285Y-141632857D01*
X128107142Y-141490000D01*
X128250000Y-141418571D01*
X130178571Y-141918571D02*
X130178571Y-142918571D01*
X129535714Y-141918571D02*
X129535714Y-142704285D01*
X129607142Y-142847142D01*
X129750000Y-142918571D01*
X129964285Y-142918571D01*
X130107142Y-142847142D01*
X130178571Y-142775714D01*
X130678571Y-141918571D02*
X131250000Y-141918571D01*
X130892857Y-141418571D02*
X130892857Y-142704285D01*
X130964285Y-142847142D01*
X131107142Y-142918571D01*
X131250000Y-142918571D01*
X121460000Y-121185714D02*
X121388571Y-121257142D01*
X121174285Y-121328571D01*
X121031428Y-121328571D01*
X120817142Y-121257142D01*
X120674285Y-121114285D01*
X120602857Y-120971428D01*
X120531428Y-120685714D01*
X120531428Y-120471428D01*
X120602857Y-120185714D01*
X120674285Y-120042857D01*
X120817142Y-119900000D01*
X121031428Y-119828571D01*
X121174285Y-119828571D01*
X121388571Y-119900000D01*
X121460000Y-119971428D01*
X122745714Y-121328571D02*
X122745714Y-120542857D01*
X122674285Y-120400000D01*
X122531428Y-120328571D01*
X122245714Y-120328571D01*
X122102857Y-120400000D01*
X122745714Y-121257142D02*
X122602857Y-121328571D01*
X122245714Y-121328571D01*
X122102857Y-121257142D01*
X122031428Y-121114285D01*
X122031428Y-120971428D01*
X122102857Y-120828571D01*
X122245714Y-120757142D01*
X122602857Y-120757142D01*
X122745714Y-120685714D01*
X123460000Y-121328571D02*
X123460000Y-120328571D01*
X123460000Y-120471428D02*
X123531428Y-120400000D01*
X123674285Y-120328571D01*
X123888571Y-120328571D01*
X124031428Y-120400000D01*
X124102857Y-120542857D01*
X124102857Y-121328571D01*
X124102857Y-120542857D02*
X124174285Y-120400000D01*
X124317142Y-120328571D01*
X124531428Y-120328571D01*
X124674285Y-120400000D01*
X124745714Y-120542857D01*
X124745714Y-121328571D01*
X126031428Y-121257142D02*
X125888571Y-121328571D01*
X125602857Y-121328571D01*
X125460000Y-121257142D01*
X125388571Y-121114285D01*
X125388571Y-120542857D01*
X125460000Y-120400000D01*
X125602857Y-120328571D01*
X125888571Y-120328571D01*
X126031428Y-120400000D01*
X126102857Y-120542857D01*
X126102857Y-120685714D01*
X125388571Y-120828571D01*
X126745714Y-121328571D02*
X126745714Y-120328571D01*
X126745714Y-120614285D02*
X126817142Y-120471428D01*
X126888571Y-120400000D01*
X127031428Y-120328571D01*
X127174285Y-120328571D01*
X128317142Y-121328571D02*
X128317142Y-120542857D01*
X128245714Y-120400000D01*
X128102857Y-120328571D01*
X127817142Y-120328571D01*
X127674285Y-120400000D01*
X128317142Y-121257142D02*
X128174285Y-121328571D01*
X127817142Y-121328571D01*
X127674285Y-121257142D01*
X127602857Y-121114285D01*
X127602857Y-120971428D01*
X127674285Y-120828571D01*
X127817142Y-120757142D01*
X128174285Y-120757142D01*
X128317142Y-120685714D01*
X118650000Y-103548571D02*
X118650000Y-102048571D01*
X119221428Y-102048571D01*
X119364285Y-102120000D01*
X119435714Y-102191428D01*
X119507142Y-102334285D01*
X119507142Y-102548571D01*
X119435714Y-102691428D01*
X119364285Y-102762857D01*
X119221428Y-102834285D01*
X118650000Y-102834285D01*
X120007142Y-102048571D02*
X120364285Y-103548571D01*
X120650000Y-102477142D01*
X120935714Y-103548571D01*
X121292857Y-102048571D01*
X122721428Y-103548571D02*
X122221428Y-102834285D01*
X121864285Y-103548571D02*
X121864285Y-102048571D01*
X122435714Y-102048571D01*
X122578571Y-102120000D01*
X122650000Y-102191428D01*
X122721428Y-102334285D01*
X122721428Y-102548571D01*
X122650000Y-102691428D01*
X122578571Y-102762857D01*
X122435714Y-102834285D01*
X121864285Y-102834285D01*
X89511428Y-121098571D02*
X90368571Y-121098571D01*
X89940000Y-122598571D02*
X89940000Y-121098571D01*
X90868571Y-122598571D02*
X90868571Y-121598571D01*
X90868571Y-121884285D02*
X90940000Y-121741428D01*
X91011428Y-121670000D01*
X91154285Y-121598571D01*
X91297142Y-121598571D01*
X91797142Y-122598571D02*
X91797142Y-121598571D01*
X91797142Y-121098571D02*
X91725714Y-121170000D01*
X91797142Y-121241428D01*
X91868571Y-121170000D01*
X91797142Y-121098571D01*
X91797142Y-121241428D01*
X93154285Y-121598571D02*
X93154285Y-122812857D01*
X93082857Y-122955714D01*
X93011428Y-123027142D01*
X92868571Y-123098571D01*
X92654285Y-123098571D01*
X92511428Y-123027142D01*
X93154285Y-122527142D02*
X93011428Y-122598571D01*
X92725714Y-122598571D01*
X92582857Y-122527142D01*
X92511428Y-122455714D01*
X92440000Y-122312857D01*
X92440000Y-121884285D01*
X92511428Y-121741428D01*
X92582857Y-121670000D01*
X92725714Y-121598571D01*
X93011428Y-121598571D01*
X93154285Y-121670000D01*
X108668571Y-164080000D02*
X109382857Y-164080000D01*
X108525714Y-164508571D02*
X109025714Y-163008571D01*
X109525714Y-164508571D01*
X110025714Y-164508571D02*
X110025714Y-163508571D01*
X110025714Y-163794285D02*
X110097142Y-163651428D01*
X110168571Y-163580000D01*
X110311428Y-163508571D01*
X110454285Y-163508571D01*
X110954285Y-164508571D02*
X110954285Y-163508571D01*
X110954285Y-163651428D02*
X111025714Y-163580000D01*
X111168571Y-163508571D01*
X111382857Y-163508571D01*
X111525714Y-163580000D01*
X111597142Y-163722857D01*
X111597142Y-164508571D01*
X111597142Y-163722857D02*
X111668571Y-163580000D01*
X111811428Y-163508571D01*
X112025714Y-163508571D01*
X112168571Y-163580000D01*
X112240000Y-163722857D01*
X112240000Y-164508571D01*
X45431428Y-171985714D02*
X45360000Y-172057142D01*
X45145714Y-172128571D01*
X45002857Y-172128571D01*
X44788571Y-172057142D01*
X44645714Y-171914285D01*
X44574285Y-171771428D01*
X44502857Y-171485714D01*
X44502857Y-171271428D01*
X44574285Y-170985714D01*
X44645714Y-170842857D01*
X44788571Y-170700000D01*
X45002857Y-170628571D01*
X45145714Y-170628571D01*
X45360000Y-170700000D01*
X45431428Y-170771428D01*
X47217142Y-172128571D02*
X47217142Y-170628571D01*
X47217142Y-171342857D02*
X48074285Y-171342857D01*
X48074285Y-172128571D02*
X48074285Y-170628571D01*
X49360000Y-172057142D02*
X49217142Y-172128571D01*
X48931428Y-172128571D01*
X48788571Y-172057142D01*
X48717142Y-171914285D01*
X48717142Y-171342857D01*
X48788571Y-171200000D01*
X48931428Y-171128571D01*
X49217142Y-171128571D01*
X49360000Y-171200000D01*
X49431428Y-171342857D01*
X49431428Y-171485714D01*
X48717142Y-171628571D01*
X50074285Y-172128571D02*
X50074285Y-171128571D01*
X50074285Y-170628571D02*
X50002857Y-170700000D01*
X50074285Y-170771428D01*
X50145714Y-170700000D01*
X50074285Y-170628571D01*
X50074285Y-170771428D01*
X50717142Y-172057142D02*
X50860000Y-172128571D01*
X51145714Y-172128571D01*
X51288571Y-172057142D01*
X51360000Y-171914285D01*
X51360000Y-171842857D01*
X51288571Y-171700000D01*
X51145714Y-171628571D01*
X50931428Y-171628571D01*
X50788571Y-171557142D01*
X50717142Y-171414285D01*
X50717142Y-171342857D01*
X50788571Y-171200000D01*
X50931428Y-171128571D01*
X51145714Y-171128571D01*
X51288571Y-171200000D01*
X52574285Y-172057142D02*
X52431428Y-172128571D01*
X52145714Y-172128571D01*
X52002857Y-172057142D01*
X51931428Y-171914285D01*
X51931428Y-171342857D01*
X52002857Y-171200000D01*
X52145714Y-171128571D01*
X52431428Y-171128571D01*
X52574285Y-171200000D01*
X52645714Y-171342857D01*
X52645714Y-171485714D01*
X51931428Y-171628571D01*
X53145714Y-171128571D02*
X53502857Y-172128571D01*
X53860000Y-171128571D02*
X53502857Y-172128571D01*
X53360000Y-172485714D01*
X53288571Y-172557142D01*
X53145714Y-172628571D01*
X57574285Y-172128571D02*
X57074285Y-171414285D01*
X56717142Y-172128571D02*
X56717142Y-170628571D01*
X57288571Y-170628571D01*
X57431428Y-170700000D01*
X57502857Y-170771428D01*
X57574285Y-170914285D01*
X57574285Y-171128571D01*
X57502857Y-171271428D01*
X57431428Y-171342857D01*
X57288571Y-171414285D01*
X56717142Y-171414285D01*
X58788571Y-172057142D02*
X58645714Y-172128571D01*
X58360000Y-172128571D01*
X58217142Y-172057142D01*
X58145714Y-171914285D01*
X58145714Y-171342857D01*
X58217142Y-171200000D01*
X58360000Y-171128571D01*
X58645714Y-171128571D01*
X58788571Y-171200000D01*
X58860000Y-171342857D01*
X58860000Y-171485714D01*
X58145714Y-171628571D01*
X59360000Y-171128571D02*
X59717142Y-172128571D01*
X60074285Y-171128571D01*
X62574285Y-172128571D02*
X61717142Y-172128571D01*
X62145714Y-172128571D02*
X62145714Y-170628571D01*
X62002857Y-170842857D01*
X61860000Y-170985714D01*
X61717142Y-171057142D01*
X63217142Y-171985714D02*
X63288571Y-172057142D01*
X63217142Y-172128571D01*
X63145714Y-172057142D01*
X63217142Y-171985714D01*
X63217142Y-172128571D01*
X64217142Y-170628571D02*
X64360000Y-170628571D01*
X64502857Y-170700000D01*
X64574285Y-170771428D01*
X64645714Y-170914285D01*
X64717142Y-171200000D01*
X64717142Y-171557142D01*
X64645714Y-171842857D01*
X64574285Y-171985714D01*
X64502857Y-172057142D01*
X64360000Y-172128571D01*
X64217142Y-172128571D01*
X64074285Y-172057142D01*
X64002857Y-171985714D01*
X63931428Y-171842857D01*
X63860000Y-171557142D01*
X63860000Y-171200000D01*
X63931428Y-170914285D01*
X64002857Y-170771428D01*
X64074285Y-170700000D01*
X64217142Y-170628571D01*
D11*
X42560000Y-158110000D03*
X42560000Y-149310000D03*
D12*
X35560000Y-156210000D03*
X35560000Y-153710000D03*
X35560000Y-151210000D03*
D13*
X107950000Y-105410000D03*
X100330000Y-110490000D03*
X107950000Y-107950000D03*
X100330000Y-107950000D03*
X107950000Y-110490000D03*
D14*
X100330000Y-105410000D03*
D13*
X107950000Y-124460000D03*
X100330000Y-129540000D03*
X107950000Y-127000000D03*
X100330000Y-127000000D03*
X107950000Y-129540000D03*
D14*
X100330000Y-124460000D03*
D15*
X91440000Y-96520000D03*
X88900000Y-96520000D03*
D16*
X86360000Y-96520000D03*
D17*
X48260000Y-107950000D03*
X50800000Y-107950000D03*
X53340000Y-107950000D03*
X53340000Y-100330000D03*
X48260000Y-100330000D03*
X54610000Y-123190000D03*
X54610000Y-120650000D03*
X54610000Y-118110000D03*
X46990000Y-118110000D03*
X46990000Y-123190000D03*
X54610000Y-91440000D03*
X54610000Y-88900000D03*
X54610000Y-86360000D03*
X46990000Y-86360000D03*
X46990000Y-91440000D03*
D13*
X130810000Y-95250000D03*
D14*
X130810000Y-87630000D03*
D13*
X86360000Y-113030000D03*
D18*
X93980000Y-113030000D03*
D13*
X68580000Y-153670000D03*
D18*
X60960000Y-153670000D03*
D13*
X111760000Y-149860000D03*
D18*
X119380000Y-149860000D03*
D13*
X96520000Y-119380000D03*
D18*
X104140000Y-119380000D03*
D13*
X100330000Y-157480000D03*
D18*
X107950000Y-157480000D03*
D19*
X120650000Y-165100000D03*
D20*
X120650000Y-162560000D03*
X120650000Y-163830000D03*
D21*
X36830000Y-173990000D03*
D22*
X36830000Y-176530000D03*
D23*
X80010000Y-118110000D03*
X80010000Y-120650000D03*
X80010000Y-123190000D03*
X80010000Y-125730000D03*
X80010000Y-128270000D03*
X80010000Y-130810000D03*
X80010000Y-133350000D03*
X80010000Y-135890000D03*
X80010000Y-138430000D03*
X80010000Y-140970000D03*
X80010000Y-143510000D03*
D24*
X80010000Y-146050000D03*
D23*
X59721569Y-107420000D03*
X59721569Y-109960000D03*
X59721569Y-112500000D03*
X59721569Y-115040000D03*
X59721569Y-117580000D03*
X59721569Y-120120000D03*
X59721569Y-122660000D03*
X59721569Y-125200000D03*
X59721569Y-127740000D03*
X59721569Y-130280000D03*
X59721569Y-132820000D03*
X59721569Y-135360000D03*
X59721569Y-137900000D03*
X59721569Y-140440000D03*
X59721569Y-142980000D03*
D24*
X59721569Y-145520000D03*
D21*
X36830000Y-102870000D03*
D22*
X36830000Y-105410000D03*
D21*
X36830000Y-91440000D03*
D22*
X36830000Y-88900000D03*
D21*
X130810000Y-175260000D03*
X130810000Y-177800000D03*
D22*
X130810000Y-180340000D03*
D21*
X130810000Y-165100000D03*
D22*
X130810000Y-162560000D03*
D21*
X36830000Y-133350000D03*
D22*
X36830000Y-135890000D03*
D21*
X129540000Y-147320000D03*
D22*
X129540000Y-149860000D03*
D25*
X121640000Y-130270000D03*
X127140000Y-130270000D03*
X129540000Y-128270000D03*
D21*
X129540000Y-100330000D03*
D22*
X129540000Y-102870000D03*
D12*
X86360000Y-121920000D03*
D26*
X86360000Y-119380000D03*
D12*
X113030000Y-160020000D03*
D26*
X115570000Y-160020000D03*
D18*
X85170000Y-86360000D03*
D14*
X90170000Y-86360000D03*
D18*
X92630000Y-105410000D03*
D14*
X87630000Y-105410000D03*
D27*
X90090000Y-132080000D03*
D28*
X85090000Y-132080000D03*
D29*
X90090000Y-132080000D02*
X92710000Y-129460000D01*
X97870000Y-129460000D02*
X100330000Y-127000000D01*
X92710000Y-129460000D02*
X97870000Y-129460000D01*
X120650000Y-165100000D02*
X130810000Y-175260000D01*
X63001569Y-111760000D02*
X59721569Y-115040000D01*
X48260000Y-100330000D02*
X50800000Y-100330000D01*
X63500000Y-111760000D02*
X63001569Y-111760000D01*
X50800000Y-99060000D02*
X53340000Y-96520000D01*
X53340000Y-96520000D02*
X57150000Y-100330000D01*
X57150000Y-100330000D02*
X63500000Y-100330000D01*
X50800000Y-100330000D02*
X50800000Y-99060000D01*
X63500000Y-100330000D02*
X63500000Y-111760000D01*
X36830000Y-102870000D02*
X36830000Y-91440000D01*
X48260000Y-91440000D02*
X53340000Y-96520000D01*
X46990000Y-91440000D02*
X48260000Y-91440000D01*
X36830000Y-91440000D02*
X46990000Y-91440000D01*
X92630000Y-105410000D02*
X96520000Y-105410000D01*
X96520000Y-105410000D02*
X97790000Y-104140000D01*
X97790000Y-104140000D02*
X102870000Y-104140000D01*
X102870000Y-104140000D02*
X102870000Y-106680000D01*
X101600000Y-106680000D02*
X100330000Y-107950000D01*
X102870000Y-106680000D02*
X101600000Y-106680000D01*
X100330000Y-127000000D02*
X97790000Y-127000000D01*
X97790000Y-127000000D02*
X97790000Y-121920000D01*
X97790000Y-121920000D02*
X101600000Y-118110000D01*
X101600000Y-118110000D02*
X102870000Y-116840000D01*
X102870000Y-116840000D02*
X102870000Y-106680000D01*
X124245076Y-104140000D02*
X102870000Y-104140000D01*
X128055076Y-100330000D02*
X124245076Y-104140000D01*
X129540000Y-100330000D02*
X128055076Y-100330000D01*
X46990000Y-123190000D02*
X36830000Y-133350000D01*
X36830000Y-133350000D02*
X35345076Y-133350000D01*
X35560000Y-149937208D02*
X35560000Y-151210000D01*
X35345076Y-149722284D02*
X35560000Y-149937208D01*
X35345076Y-133350000D02*
X35345076Y-149722284D01*
X36830000Y-102870000D02*
X35345076Y-102870000D01*
X35345076Y-109833217D02*
X36001859Y-110490000D01*
X35345076Y-102870000D02*
X35345076Y-109833217D01*
X36001859Y-112201859D02*
X46990000Y-123190000D01*
X36001859Y-110490000D02*
X36001859Y-112201859D01*
X88900000Y-96472500D02*
X88900000Y-96520000D01*
X87697500Y-95270000D02*
X88900000Y-96472500D01*
X87650000Y-95270000D02*
X87697500Y-95270000D01*
X85170000Y-92790000D02*
X87650000Y-95270000D01*
X85170000Y-86360000D02*
X85170000Y-92790000D01*
X125730000Y-143510000D02*
X129540000Y-147320000D01*
X118110000Y-143510000D02*
X125730000Y-143510000D01*
X100330000Y-127000000D02*
X101600000Y-127000000D01*
X101600000Y-127000000D02*
X118110000Y-143510000D01*
X131859999Y-174210001D02*
X130810000Y-175260000D01*
X132872152Y-173197848D02*
X131859999Y-174210001D01*
X132872152Y-150507150D02*
X132872152Y-173197848D01*
X130735001Y-148369999D02*
X132872152Y-150507150D01*
X130589999Y-148369999D02*
X130735001Y-148369999D01*
X129540000Y-147320000D02*
X130589999Y-148369999D01*
X35560000Y-151210000D02*
X35480000Y-151210000D01*
X85090000Y-133330000D02*
X85090000Y-132080000D01*
X85070000Y-133350000D02*
X85090000Y-133330000D01*
X80010000Y-133350000D02*
X85070000Y-133350000D01*
X86580000Y-105410000D02*
X87630000Y-105410000D01*
X86360000Y-105190000D02*
X86580000Y-105410000D01*
X86360000Y-96520000D02*
X86360000Y-105190000D01*
X110490000Y-157480000D02*
X113030000Y-160020000D01*
X107950000Y-157480000D02*
X110490000Y-157480000D01*
X119650000Y-163830000D02*
X120650000Y-163830000D01*
X118230000Y-163830000D02*
X119650000Y-163830000D01*
X115570000Y-161170000D02*
X118230000Y-163830000D01*
X115570000Y-160020000D02*
X115570000Y-161170000D01*
X86360000Y-124460000D02*
X86360000Y-121920000D01*
X80010000Y-130810000D02*
X86360000Y-124460000D01*
X86360000Y-119380000D02*
X96520000Y-119380000D01*
X130810000Y-88680000D02*
X130810000Y-87630000D01*
X131935001Y-89805001D02*
X130810000Y-88680000D01*
X131935001Y-101774999D02*
X131935001Y-89805001D01*
X130840000Y-102870000D02*
X131935001Y-101774999D01*
X129540000Y-102870000D02*
X130840000Y-102870000D01*
X107950000Y-127000000D02*
X119380000Y-127000000D01*
X119380000Y-128010000D02*
X121640000Y-130270000D01*
X119380000Y-127000000D02*
X119380000Y-128010000D01*
X114300000Y-114300000D02*
X107950000Y-107950000D01*
X114300000Y-115411764D02*
X114300000Y-114300000D01*
X125740001Y-126851765D02*
X114300000Y-115411764D01*
X127140000Y-130270000D02*
X125740001Y-128870001D01*
X125740001Y-128870001D02*
X125740001Y-126851765D01*
X129540000Y-130423002D02*
X129540000Y-128270000D01*
X124073002Y-135890000D02*
X129540000Y-130423002D01*
X118110000Y-135890000D02*
X124073002Y-135890000D01*
X107950000Y-129540000D02*
X111760000Y-129540000D01*
X111760000Y-129540000D02*
X118110000Y-135890000D01*
X107950000Y-129540000D02*
X106680000Y-129540000D01*
X106680000Y-129540000D02*
X105410000Y-128270000D01*
X105410000Y-128270000D02*
X105410000Y-121920000D01*
X105410000Y-121920000D02*
X106680000Y-120650000D01*
X106680000Y-111760000D02*
X107950000Y-110490000D01*
X106680000Y-120650000D02*
X106680000Y-111760000D01*
X119380000Y-149860000D02*
X129540000Y-149860000D01*
X38130000Y-135890000D02*
X39370000Y-134650000D01*
X36830000Y-135890000D02*
X38130000Y-135890000D01*
X39370000Y-134650000D02*
X39370000Y-133350000D01*
X47520000Y-125200000D02*
X59721569Y-125200000D01*
X39370000Y-133350000D02*
X47520000Y-125200000D01*
X120650000Y-162560000D02*
X124460000Y-162560000D01*
X127000000Y-165100000D02*
X130810000Y-165100000D01*
X124460000Y-162560000D02*
X127000000Y-165100000D01*
X80010000Y-140970000D02*
X81280000Y-140970000D01*
X80010000Y-140970000D02*
X82550000Y-143510000D01*
X82550000Y-143510000D02*
X82550000Y-165100000D01*
X82550000Y-165100000D02*
X97790000Y-165100000D01*
X129325076Y-177800000D02*
X130810000Y-177800000D01*
X125581092Y-177800000D02*
X129325076Y-177800000D01*
X122646418Y-174865326D02*
X125581092Y-177800000D01*
X122646418Y-174164653D02*
X122646418Y-174865326D01*
X121175326Y-172693561D02*
X122646418Y-174164653D01*
X105383561Y-172693561D02*
X121175326Y-172693561D01*
X97790000Y-165100000D02*
X105383561Y-172693561D01*
X44450000Y-88900000D02*
X46990000Y-86360000D01*
X36830000Y-88900000D02*
X44450000Y-88900000D01*
X46990000Y-86360000D02*
X46990000Y-87630000D01*
X46990000Y-87630000D02*
X57150000Y-97790000D01*
X57150000Y-97790000D02*
X64770000Y-97790000D01*
X64770000Y-97790000D02*
X66040000Y-99060000D01*
X66040000Y-111261569D02*
X59721569Y-117580000D01*
X66040000Y-99060000D02*
X66040000Y-111261569D01*
X36830000Y-105410000D02*
X48260000Y-105410000D01*
X48260000Y-105410000D02*
X53340000Y-100330000D01*
X59721569Y-120120000D02*
X58420000Y-118818431D01*
X58420000Y-118818431D02*
X58420000Y-115570000D01*
X58420000Y-115570000D02*
X55880000Y-113030000D01*
X55880000Y-102870000D02*
X53340000Y-100330000D01*
X55880000Y-113030000D02*
X55880000Y-102870000D01*
X58519488Y-122660000D02*
X57779488Y-121920000D01*
X59721569Y-122660000D02*
X58519488Y-122660000D01*
X57779488Y-121920000D02*
X57779488Y-117469488D01*
X57779488Y-117469488D02*
X55880000Y-115570000D01*
X49530000Y-115570000D02*
X46990000Y-118110000D01*
X55880000Y-115570000D02*
X49530000Y-115570000D01*
X35560000Y-153710000D02*
X46950000Y-153710000D01*
X46950000Y-153710000D02*
X53340000Y-147320000D01*
X53340000Y-134121569D02*
X59721569Y-127740000D01*
X53340000Y-147320000D02*
X53340000Y-134121569D01*
X59721569Y-130280000D02*
X68580000Y-139138431D01*
X68580000Y-139138431D02*
X68580000Y-153670000D01*
X91440000Y-96472500D02*
X91440000Y-96520000D01*
X90237500Y-95270000D02*
X91440000Y-96472500D01*
X90190000Y-95270000D02*
X90237500Y-95270000D01*
X90170000Y-95250000D02*
X90190000Y-95270000D01*
X90170000Y-86360000D02*
X90170000Y-95250000D01*
X80010000Y-128270000D02*
X82550000Y-125730000D01*
X82550000Y-125730000D02*
X82550000Y-119380000D01*
X86360000Y-115570000D02*
X86360000Y-113030000D01*
X82550000Y-119380000D02*
X86360000Y-115570000D01*
X111760000Y-149860000D02*
X100330000Y-149860000D01*
X100330000Y-149860000D02*
X91440000Y-140970000D01*
X85090000Y-140970000D02*
X80010000Y-135890000D01*
X91440000Y-140970000D02*
X85090000Y-140970000D01*
X81280000Y-138430000D02*
X100330000Y-157480000D01*
X80010000Y-138430000D02*
X81280000Y-138430000D01*
X60960000Y-153700000D02*
X60960000Y-153670000D01*
X38130000Y-176530000D02*
X60960000Y-153700000D01*
X36830000Y-176530000D02*
X38130000Y-176530000D01*
X101380000Y-124460000D02*
X100330000Y-124460000D01*
X104140000Y-121700000D02*
X101380000Y-124460000D01*
X104140000Y-119380000D02*
X104140000Y-121700000D01*
X99280000Y-105410000D02*
X100330000Y-105410000D01*
X93980000Y-110710000D02*
X99280000Y-105410000D01*
X93980000Y-113030000D02*
X93980000Y-110710000D01*
M02*
