G04 #@! TF.GenerationSoftware,KiCad,Pcbnew,(5.1.4)-1*
G04 #@! TF.CreationDate,2019-12-24T21:54:54-05:00*
G04 #@! TF.ProjectId,CameraTrigger,43616d65-7261-4547-9269-676765722e6b,rev?*
G04 #@! TF.SameCoordinates,Original*
G04 #@! TF.FileFunction,Legend,Bot*
G04 #@! TF.FilePolarity,Positive*
%FSLAX46Y46*%
G04 Gerber Fmt 4.6, Leading zero omitted, Abs format (unit mm)*
G04 Created by KiCad (PCBNEW (5.1.4)-1) date 2019-12-24 21:54:54*
%MOMM*%
%LPD*%
G04 APERTURE LIST*
%ADD10C,0.120000*%
%ADD11C,0.150000*%
G04 APERTURE END LIST*
D10*
X78680000Y-147380000D02*
X80010000Y-147380000D01*
X78680000Y-146050000D02*
X78680000Y-147380000D01*
X78680000Y-144780000D02*
X81340000Y-144780000D01*
X81340000Y-144780000D02*
X81340000Y-116780000D01*
X78680000Y-144780000D02*
X78680000Y-116780000D01*
X78680000Y-116780000D02*
X81340000Y-116780000D01*
X58391569Y-146850000D02*
X59721569Y-146850000D01*
X58391569Y-145520000D02*
X58391569Y-146850000D01*
X58391569Y-144250000D02*
X61051569Y-144250000D01*
X61051569Y-144250000D02*
X61051569Y-106090000D01*
X58391569Y-144250000D02*
X58391569Y-106090000D01*
X58391569Y-106090000D02*
X61051569Y-106090000D01*
D11*
X80819523Y-147832380D02*
X80819523Y-148546666D01*
X80867142Y-148689523D01*
X80962380Y-148784761D01*
X81105238Y-148832380D01*
X81200476Y-148832380D01*
X79819523Y-148832380D02*
X80390952Y-148832380D01*
X80105238Y-148832380D02*
X80105238Y-147832380D01*
X80200476Y-147975238D01*
X80295714Y-148070476D01*
X80390952Y-148118095D01*
X79200476Y-147832380D02*
X79105238Y-147832380D01*
X79010000Y-147880000D01*
X78962380Y-147927619D01*
X78914761Y-148022857D01*
X78867142Y-148213333D01*
X78867142Y-148451428D01*
X78914761Y-148641904D01*
X78962380Y-148737142D01*
X79010000Y-148784761D01*
X79105238Y-148832380D01*
X79200476Y-148832380D01*
X79295714Y-148784761D01*
X79343333Y-148737142D01*
X79390952Y-148641904D01*
X79438571Y-148451428D01*
X79438571Y-148213333D01*
X79390952Y-148022857D01*
X79343333Y-147927619D01*
X79295714Y-147880000D01*
X79200476Y-147832380D01*
X60054902Y-147302380D02*
X60054902Y-148016666D01*
X60102521Y-148159523D01*
X60197759Y-148254761D01*
X60340616Y-148302380D01*
X60435854Y-148302380D01*
X59531092Y-148302380D02*
X59340616Y-148302380D01*
X59245378Y-148254761D01*
X59197759Y-148207142D01*
X59102521Y-148064285D01*
X59054902Y-147873809D01*
X59054902Y-147492857D01*
X59102521Y-147397619D01*
X59150140Y-147350000D01*
X59245378Y-147302380D01*
X59435854Y-147302380D01*
X59531092Y-147350000D01*
X59578711Y-147397619D01*
X59626330Y-147492857D01*
X59626330Y-147730952D01*
X59578711Y-147826190D01*
X59531092Y-147873809D01*
X59435854Y-147921428D01*
X59245378Y-147921428D01*
X59150140Y-147873809D01*
X59102521Y-147826190D01*
X59054902Y-147730952D01*
M02*
