M48
; DRILL file {KiCad (5.1.4)-1} date 1/5/2020 5:19:06 PM
; FORMAT={-:-/ absolute / inch / decimal}
; #@! TF.CreationDate,2020-01-05T17:19:06-05:00
; #@! TF.GenerationSoftware,Kicad,Pcbnew,(5.1.4)-1
; #@! TF.FileFunction,Plated,1,2,PTH
FMAT,2
INCH
T1C0.0295
T2C0.0315
T3C0.0354
T4C0.0394
T5C0.0433
T6C0.0450
T7C0.0630
T8C0.0787
T9C0.1063
T10C0.1457
%
G90
G05
T1
X3.45Y-1.85
X3.45Y-1.9
X3.45Y-1.95
X3.6Y-3.6
X3.6Y-3.65
X3.6Y-3.7
X3.45Y-1.55
X3.45Y-1.6
X3.45Y-1.65
T2
X2.9Y-2.6
X2.9Y-2.7
X2.9Y-2.8
X2.9Y-2.9
X3.2Y-2.6
X3.2Y-2.7
X3.2Y-2.8
X3.2Y-2.9
X3.5Y-1.35
X3.8Y-1.35
X2.85Y-1.6
X3.15Y-1.6
X2.75Y-3.7
X3.05Y-3.7
X3.75Y-1.65
X3.75Y-1.75
X3.75Y-1.85
X3.75Y-1.95
X4.05Y-1.65
X4.05Y-1.75
X4.05Y-1.85
X4.05Y-1.95
X2.5Y-0.65
X2.6969Y-0.65
X3.5Y-4.3
X3.8Y-4.3
X3.1Y-0.7
X3.4Y-0.7
X3.75Y-1.0
X4.05Y-1.0
X2.95Y-1.9
X3.25Y-1.9
X2.95Y-2.15
X3.25Y-2.15
X3.0Y-3.4
X3.3Y-3.4
X2.5031Y-1.2
X2.7Y-1.2
T3
X2.7Y-1.6
X3.2Y-3.75
X3.3Y-3.75
X2.6Y-1.9
X2.7Y-1.9
X2.6Y-1.6
X4.15Y-1.15
X4.25Y-1.15
T4
X0.75Y-3.8
X0.85Y-3.8
X0.95Y-3.8
X1.05Y-3.8
X1.15Y-3.8
X1.25Y-3.8
X1.35Y-3.8
X1.45Y-3.8
X1.55Y-3.8
X3.939Y-2.8787
X4.1555Y-2.8787
X4.25Y-2.8
X1.65Y-0.9
X1.65Y-1.0
X1.65Y-1.1
X1.65Y-1.2
X1.65Y-1.3
X1.65Y-1.4
X1.65Y-1.5
X1.65Y-1.6
X1.65Y-1.7
X1.65Y-1.8
X1.65Y-1.9
X1.65Y-2.0
X1.65Y-2.1
X1.65Y-2.2
X1.65Y-2.3
X1.65Y-2.4
X2.05Y-2.9
X2.05Y-3.0969
X2.35Y-1.3
X2.35Y-1.4
X2.35Y-1.5
X2.35Y-1.6
X2.35Y-1.7
X2.35Y-1.8
X2.35Y-1.9
X2.35Y-2.0
X2.35Y-2.1
X2.35Y-2.2
X2.35Y-2.3
X2.35Y-2.4
T5
X2.55Y-0.95
X2.65Y-0.95
X2.75Y-0.95
X4.0Y-3.25
X4.0Y-3.35
X4.0Y-3.65
X4.0Y-3.75
X2.65Y-4.2
X2.75Y-4.2
X2.85Y-4.2
X0.7Y-1.55
X0.7Y-1.65
X0.7Y-1.05
X0.7Y-1.15
X0.8Y-2.9
X0.8Y-3.0
X0.8Y-3.1
T6
X1.0Y-2.0
X1.0Y-2.3
X1.1Y-2.3
X1.2Y-2.0
X1.2Y-2.3
X1.0Y-0.95
X1.0Y-1.25
X1.1Y-1.25
X1.2Y-0.95
X1.2Y-1.25
X1.0Y-1.45
X1.0Y-1.75
X1.1Y-1.75
X1.2Y-1.45
X1.2Y-1.75
T7
X1.4Y-1.05
X2.7Y-3.95
X2.8Y-3.4
X2.4Y-4.2
X3.2Y-1.25
X1.4Y-1.55
X3.05Y-0.95
X3.55Y-0.95
X1.4Y-2.0
X2.8Y-1.35
X1.1Y-2.95
T8
X3.889Y-2.4287
X4.1055Y-2.4287
X4.2Y-2.35
T9
X3.75Y-0.7
X3.9469Y-0.7
T10
X0.7Y-0.7
X4.25Y-0.7
X4.1Y-4.15
X0.7Y-4.15
T0
M30
