G04 #@! TF.GenerationSoftware,KiCad,Pcbnew,(5.1.4)-1*
G04 #@! TF.CreationDate,2020-01-06T16:45:50-05:00*
G04 #@! TF.ProjectId,CameraTrigger,43616d65-7261-4547-9269-676765722e6b,rev?*
G04 #@! TF.SameCoordinates,Original*
G04 #@! TF.FileFunction,Copper,L2,Bot*
G04 #@! TF.FilePolarity,Positive*
%FSLAX46Y46*%
G04 Gerber Fmt 4.6, Leading zero omitted, Abs format (unit mm)*
G04 Created by KiCad (PCBNEW (5.1.4)-1) date 2020-01-06 16:45:50*
%MOMM*%
%LPD*%
G04 APERTURE LIST*
%ADD10O,1.600000X1.600000*%
%ADD11R,1.600000X1.600000*%
%ADD12C,4.000000*%
%ADD13R,3.800000X3.800000*%
%ADD14O,1.905000X2.000000*%
%ADD15R,1.905000X2.000000*%
%ADD16C,2.800000*%
%ADD17C,1.778000*%
%ADD18C,1.600000*%
%ADD19R,1.500000X1.050000*%
%ADD20O,1.500000X1.050000*%
%ADD21O,1.508000X3.016000*%
%ADD22O,1.700000X1.700000*%
%ADD23R,1.700000X1.700000*%
%ADD24C,2.100000*%
%ADD25R,2.100000X2.100000*%
%ADD26C,7.400000*%
%ADD27C,1.800000*%
%ADD28R,1.800000X1.800000*%
%ADD29O,3.200000X3.200000*%
%ADD30R,3.200000X3.200000*%
%ADD31C,2.000000*%
%ADD32R,2.000000X2.000000*%
%ADD33C,0.250000*%
G04 APERTURE END LIST*
D10*
X78740000Y-17780000D03*
D11*
X86360000Y-17780000D03*
D12*
X100250000Y-17780000D03*
D13*
X95250000Y-17780000D03*
D10*
X102870000Y-41910000D03*
X95250000Y-49530000D03*
X102870000Y-44450000D03*
X95250000Y-46990000D03*
X102870000Y-46990000D03*
X95250000Y-44450000D03*
X102870000Y-49530000D03*
D11*
X95250000Y-41910000D03*
D10*
X73660000Y-73660000D03*
X81280000Y-66040000D03*
X73660000Y-71120000D03*
X81280000Y-68580000D03*
X73660000Y-68580000D03*
X81280000Y-71120000D03*
X73660000Y-66040000D03*
D11*
X81280000Y-73660000D03*
D14*
X69850000Y-24130000D03*
X67310000Y-24130000D03*
D15*
X64770000Y-24130000D03*
D16*
X68580000Y-100330000D03*
X27940000Y-74930000D03*
X35560000Y-50800000D03*
X35560000Y-39370000D03*
X35560000Y-26670000D03*
X71120000Y-34290000D03*
X71120000Y-86360000D03*
X60960000Y-106680000D03*
X81280000Y-31750000D03*
D17*
X25400000Y-44450000D03*
X27940000Y-44450000D03*
X30480000Y-44450000D03*
X30480000Y-36830000D03*
X25400000Y-36830000D03*
X25400000Y-58420000D03*
X27940000Y-58420000D03*
X30480000Y-58420000D03*
X30480000Y-50800000D03*
X25400000Y-50800000D03*
X25400000Y-31750000D03*
X27940000Y-31750000D03*
X30480000Y-31750000D03*
X30480000Y-24130000D03*
X25400000Y-24130000D03*
D10*
X96520000Y-109220000D03*
D18*
X88900000Y-109220000D03*
D10*
X82550000Y-54610000D03*
D18*
X74930000Y-54610000D03*
D10*
X88900000Y-34290000D03*
D18*
X96520000Y-34290000D03*
D10*
X72390000Y-40640000D03*
D18*
X80010000Y-40640000D03*
D10*
X102870000Y-25400000D03*
D18*
X95250000Y-25400000D03*
D10*
X76200000Y-86360000D03*
D18*
X83820000Y-86360000D03*
D10*
X74930000Y-48260000D03*
D18*
X82550000Y-48260000D03*
D10*
X69850000Y-93980000D03*
D18*
X77470000Y-93980000D03*
D19*
X87630000Y-46990000D03*
D20*
X87630000Y-49530000D03*
X87630000Y-48260000D03*
D19*
X87630000Y-39370000D03*
D20*
X87630000Y-41910000D03*
X87630000Y-40640000D03*
D19*
X91440000Y-93980000D03*
D20*
X91440000Y-91440000D03*
X91440000Y-92710000D03*
D21*
X100050000Y-73120000D03*
X105550000Y-73120000D03*
X107950000Y-71120000D03*
D22*
X19050000Y-96520000D03*
X21590000Y-96520000D03*
X24130000Y-96520000D03*
X26670000Y-96520000D03*
X29210000Y-96520000D03*
X31750000Y-96520000D03*
X34290000Y-96520000D03*
X36830000Y-96520000D03*
D23*
X39370000Y-96520000D03*
D22*
X59690000Y-33020000D03*
X59690000Y-35560000D03*
X59690000Y-38100000D03*
X59690000Y-40640000D03*
X59690000Y-43180000D03*
X59690000Y-45720000D03*
X59690000Y-48260000D03*
X59690000Y-50800000D03*
X59690000Y-53340000D03*
X59690000Y-55880000D03*
X59690000Y-58420000D03*
D23*
X59690000Y-60960000D03*
D22*
X41910000Y-22860000D03*
X41910000Y-25400000D03*
X41910000Y-27940000D03*
X41910000Y-30480000D03*
X41910000Y-33020000D03*
X41910000Y-35560000D03*
X41910000Y-38100000D03*
X41910000Y-40640000D03*
X41910000Y-43180000D03*
X41910000Y-45720000D03*
X41910000Y-48260000D03*
X41910000Y-50800000D03*
X41910000Y-53340000D03*
X41910000Y-55880000D03*
X41910000Y-58420000D03*
D23*
X41910000Y-60960000D03*
D24*
X17780000Y-39370000D03*
D25*
X17780000Y-41910000D03*
D24*
X17780000Y-26670000D03*
D25*
X17780000Y-29210000D03*
D24*
X67310000Y-106680000D03*
X69850000Y-106680000D03*
D25*
X72390000Y-106680000D03*
D24*
X101600000Y-92710000D03*
D25*
X101600000Y-95250000D03*
D24*
X20320000Y-73660000D03*
X20320000Y-76200000D03*
D25*
X20320000Y-78740000D03*
D24*
X101600000Y-82550000D03*
D25*
X101600000Y-85090000D03*
D16*
X98780000Y-61690000D03*
X104280000Y-61690000D03*
X106680000Y-59690000D03*
D26*
X17780000Y-105410000D03*
X17780000Y-17780000D03*
X107950000Y-17780000D03*
X104140000Y-105410000D03*
D27*
X66040000Y-48260000D03*
D28*
X68580000Y-48260000D03*
D27*
X105410000Y-29210000D03*
D28*
X107950000Y-29210000D03*
D29*
X90170000Y-24130000D03*
D30*
X77470000Y-24130000D03*
D27*
X66040000Y-40640000D03*
D28*
X68580000Y-40640000D03*
D27*
X81280000Y-95250000D03*
D28*
X83820000Y-95250000D03*
D18*
X63580000Y-30480000D03*
D11*
X68580000Y-30480000D03*
D18*
X68500000Y-16510000D03*
D11*
X63500000Y-16510000D03*
D31*
X52070000Y-78660000D03*
D32*
X52070000Y-73660000D03*
D33*
X87630000Y-46990000D02*
X85090000Y-44450000D01*
X85090000Y-44450000D02*
X85090000Y-39370000D01*
X85090000Y-39370000D02*
X87630000Y-39370000D01*
X64770000Y-24177500D02*
X64770000Y-24130000D01*
X66047510Y-25455010D02*
X64770000Y-24177500D01*
X74294990Y-25455010D02*
X66047510Y-25455010D01*
X75620000Y-24130000D02*
X74294990Y-25455010D01*
X77470000Y-24130000D02*
X75620000Y-24130000D01*
X82550000Y-54610000D02*
X82550000Y-52070000D01*
X81280000Y-50800000D02*
X81280000Y-31750000D01*
X82550000Y-52070000D02*
X81280000Y-50800000D01*
X82550000Y-54610000D02*
X80010000Y-54610000D01*
X80010000Y-54610000D02*
X72390000Y-62230000D01*
X72390000Y-62230000D02*
X66040000Y-62230000D01*
X66040000Y-62230000D02*
X66040000Y-77470000D01*
X100300000Y-95250000D02*
X101600000Y-95250000D01*
X90284999Y-85234999D02*
X100300000Y-95250000D01*
X73804999Y-85234999D02*
X90284999Y-85234999D01*
X66040000Y-77470000D02*
X73804999Y-85234999D01*
X27484999Y-104954999D02*
X19050000Y-96520000D01*
X89684999Y-104954999D02*
X27484999Y-104954999D01*
X100300000Y-95250000D02*
X90140000Y-105410000D01*
X90140000Y-105410000D02*
X89684999Y-104954999D01*
X80550000Y-61690000D02*
X73660000Y-68580000D01*
X98780000Y-61690000D02*
X80550000Y-61690000D01*
X74459999Y-65240001D02*
X73660000Y-66040000D01*
X91295001Y-48404999D02*
X74459999Y-65240001D01*
X101744999Y-48404999D02*
X91295001Y-48404999D01*
X102870000Y-49530000D02*
X101744999Y-48404999D01*
X106680000Y-59690000D02*
X106680000Y-50800000D01*
X104140000Y-50800000D02*
X102870000Y-49530000D01*
X106680000Y-50800000D02*
X104140000Y-50800000D01*
X20320000Y-73660000D02*
X20320000Y-69850000D01*
X20320000Y-69850000D02*
X22860000Y-67310000D01*
X22860000Y-24873278D02*
X26143278Y-21590000D01*
X22860000Y-67310000D02*
X22860000Y-24873278D01*
X38100000Y-21590000D02*
X41910000Y-25400000D01*
X26143278Y-21590000D02*
X38100000Y-21590000D01*
X15240000Y-78740000D02*
X15240000Y-99060000D01*
X20320000Y-73660000D02*
X15240000Y-78740000D01*
X58980102Y-106680000D02*
X60960000Y-106680000D01*
X25007002Y-106680000D02*
X58980102Y-106680000D01*
X17387002Y-99060000D02*
X25007002Y-106680000D01*
X15240000Y-99060000D02*
X17387002Y-99060000D01*
X72390000Y-107980000D02*
X69880000Y-110490000D01*
X72390000Y-106680000D02*
X72390000Y-107980000D01*
X69880000Y-110490000D02*
X63500000Y-110490000D01*
X63500000Y-109220000D02*
X60960000Y-106680000D01*
X63500000Y-110490000D02*
X63500000Y-109220000D01*
X34290000Y-96520000D02*
X34290000Y-78740000D01*
X34290000Y-78740000D02*
X48260000Y-64770000D01*
X48260000Y-57150000D02*
X41910000Y-50800000D01*
X48260000Y-64770000D02*
X48260000Y-57150000D01*
X102870000Y-41910000D02*
X108775060Y-47815060D01*
X108775060Y-47815060D02*
X108775060Y-55435060D01*
X108775060Y-55435060D02*
X110490000Y-57150000D01*
X108584644Y-69794940D02*
X107584644Y-69794940D01*
X108775060Y-69985356D02*
X108584644Y-69794940D01*
X108775060Y-69024940D02*
X108775060Y-69985356D01*
X110490000Y-57150000D02*
X110490000Y-67310000D01*
X110490000Y-67310000D02*
X108775060Y-69024940D01*
M02*
