G04 #@! TF.GenerationSoftware,KiCad,Pcbnew,(5.1.4)-1*
G04 #@! TF.CreationDate,2020-01-29T06:20:51-05:00*
G04 #@! TF.ProjectId,CameraTrigger,43616d65-7261-4547-9269-676765722e6b,rev?*
G04 #@! TF.SameCoordinates,Original*
G04 #@! TF.FileFunction,Profile,NP*
%FSLAX46Y46*%
G04 Gerber Fmt 4.6, Leading zero omitted, Abs format (unit mm)*
G04 Created by KiCad (PCBNEW (5.1.4)-1) date 2020-01-29 06:20:51*
%MOMM*%
%LPD*%
G04 APERTURE LIST*
%ADD10C,0.100000*%
%ADD11C,0.001000*%
G04 APERTURE END LIST*
D10*
X111760000Y-12700000D02*
X16510000Y-12700000D01*
X111760000Y-12700000D02*
X111760000Y-102870000D01*
X16510000Y-12700000D02*
X16510000Y-102870000D01*
X111760000Y-102870000D02*
X16510000Y-102870000D01*
D11*
X104840000Y-69620000D02*
X104840000Y-68920000D01*
X106340000Y-69620000D02*
X104840000Y-69620000D01*
X106340000Y-68920000D02*
X106340000Y-69620000D01*
X104840000Y-68920000D02*
X106340000Y-68920000D01*
X104840000Y-73320000D02*
X104840000Y-72620000D01*
X106340000Y-73320000D02*
X104840000Y-73320000D01*
X106340000Y-72620000D02*
X106340000Y-73320000D01*
X104840000Y-72620000D02*
X106340000Y-72620000D01*
X103240000Y-70370000D02*
X103940000Y-70370000D01*
X103240000Y-71870000D02*
X103240000Y-70370000D01*
X103940000Y-71870000D02*
X103240000Y-71870000D01*
X103940000Y-70370000D02*
X103940000Y-71870000D01*
X110140000Y-70370000D02*
X110840000Y-70370000D01*
X110140000Y-71870000D02*
X110140000Y-70370000D01*
X110840000Y-71870000D02*
X110140000Y-71870000D01*
X110840000Y-70370000D02*
X110840000Y-71870000D01*
M02*
