G04 #@! TF.GenerationSoftware,KiCad,Pcbnew,(5.1.4)-1*
G04 #@! TF.CreationDate,2020-01-26T21:52:07-05:00*
G04 #@! TF.ProjectId,CameraTrigger,43616d65-7261-4547-9269-676765722e6b,rev?*
G04 #@! TF.SameCoordinates,Original*
G04 #@! TF.FileFunction,Soldermask,Top*
G04 #@! TF.FilePolarity,Negative*
%FSLAX46Y46*%
G04 Gerber Fmt 4.6, Leading zero omitted, Abs format (unit mm)*
G04 Created by KiCad (PCBNEW (5.1.4)-1) date 2020-01-26 21:52:07*
%MOMM*%
%LPD*%
G04 APERTURE LIST*
%ADD10C,2.000000*%
%ADD11C,1.778000*%
%ADD12C,4.000000*%
%ADD13R,3.800000X3.800000*%
%ADD14C,4.500000*%
%ADD15O,1.600000X1.600000*%
%ADD16C,1.600000*%
%ADD17C,1.800000*%
%ADD18R,1.800000X1.800000*%
%ADD19O,1.700000X1.700000*%
%ADD20R,1.700000X1.700000*%
%ADD21R,1.600000X1.600000*%
%ADD22O,1.208000X2.416000*%
%ADD23O,2.416000X1.208000*%
%ADD24C,1.200000*%
%ADD25C,2.800000*%
%ADD26C,2.100000*%
%ADD27R,2.100000X2.100000*%
%ADD28O,1.905000X2.000000*%
%ADD29R,1.905000X2.000000*%
%ADD30R,1.500000X1.050000*%
%ADD31O,1.500000X1.050000*%
%ADD32C,7.400000*%
%ADD33O,3.200000X3.200000*%
%ADD34R,3.200000X3.200000*%
%ADD35R,2.000000X2.000000*%
G04 APERTURE END LIST*
D10*
X21590000Y-57230000D03*
X21590000Y-62230000D03*
X53260000Y-86360000D03*
X48260000Y-86360000D03*
D11*
X27940000Y-31750000D03*
X30480000Y-31750000D03*
X33020000Y-31750000D03*
X33020000Y-24130000D03*
X27940000Y-24130000D03*
X27940000Y-44450000D03*
X30480000Y-44450000D03*
X33020000Y-44450000D03*
X33020000Y-36830000D03*
X27940000Y-36830000D03*
D12*
X94060000Y-17780000D03*
D13*
X99060000Y-17780000D03*
D14*
X43180000Y-78740000D03*
D15*
X91440000Y-96520000D03*
D16*
X83820000Y-96520000D03*
D17*
X81280000Y-91440000D03*
D18*
X83820000Y-91440000D03*
D19*
X39370000Y-22860000D03*
X39370000Y-25400000D03*
X39370000Y-27940000D03*
X39370000Y-30480000D03*
X39370000Y-33020000D03*
X39370000Y-35560000D03*
X39370000Y-38100000D03*
X39370000Y-40640000D03*
X39370000Y-43180000D03*
X39370000Y-45720000D03*
X39370000Y-48260000D03*
X39370000Y-50800000D03*
X39370000Y-53340000D03*
X39370000Y-55880000D03*
X39370000Y-58420000D03*
D20*
X39370000Y-60960000D03*
D21*
X77470000Y-15240000D03*
D15*
X72390000Y-15240000D03*
D22*
X102320000Y-71810000D03*
D23*
X104320000Y-73660000D03*
X104320000Y-69960000D03*
D22*
X109220000Y-71810000D03*
D24*
X106820000Y-71810000D03*
D25*
X80010000Y-34290000D03*
D26*
X83820000Y-21590000D03*
D27*
X81280000Y-21590000D03*
D26*
X91440000Y-81280000D03*
D27*
X88900000Y-81280000D03*
D15*
X102870000Y-41910000D03*
X95250000Y-49530000D03*
X102870000Y-44450000D03*
X95250000Y-46990000D03*
X102870000Y-46990000D03*
X95250000Y-44450000D03*
X102870000Y-49530000D03*
D21*
X95250000Y-41910000D03*
D15*
X73660000Y-73660000D03*
X81280000Y-66040000D03*
X73660000Y-71120000D03*
X81280000Y-68580000D03*
X73660000Y-68580000D03*
X81280000Y-71120000D03*
X73660000Y-66040000D03*
D21*
X81280000Y-73660000D03*
D28*
X69850000Y-24130000D03*
X67310000Y-24130000D03*
D29*
X64770000Y-24130000D03*
D25*
X58420000Y-85090000D03*
X27940000Y-63500000D03*
X20320000Y-46990000D03*
X22860000Y-34290000D03*
X34290000Y-17780000D03*
X71120000Y-34290000D03*
X71120000Y-86360000D03*
X60960000Y-99060000D03*
D11*
X25400000Y-58420000D03*
X27940000Y-58420000D03*
X30480000Y-58420000D03*
X30480000Y-50800000D03*
X25400000Y-50800000D03*
D15*
X82550000Y-54610000D03*
D16*
X74930000Y-54610000D03*
D15*
X88900000Y-34290000D03*
D16*
X96520000Y-34290000D03*
D15*
X72390000Y-40640000D03*
D16*
X80010000Y-40640000D03*
D15*
X102870000Y-25400000D03*
D16*
X95250000Y-25400000D03*
D15*
X76200000Y-86360000D03*
D16*
X83820000Y-86360000D03*
D15*
X74930000Y-48260000D03*
D16*
X82550000Y-48260000D03*
D15*
X69850000Y-91440000D03*
D16*
X77470000Y-91440000D03*
D30*
X87630000Y-46990000D03*
D31*
X87630000Y-49530000D03*
X87630000Y-48260000D03*
D30*
X87630000Y-39370000D03*
D31*
X87630000Y-41910000D03*
X87630000Y-40640000D03*
D30*
X91440000Y-91440000D03*
D31*
X91440000Y-88900000D03*
X91440000Y-90170000D03*
D19*
X19050000Y-87630000D03*
X21590000Y-87630000D03*
X24130000Y-87630000D03*
X26670000Y-87630000D03*
X29210000Y-87630000D03*
X31750000Y-87630000D03*
X34290000Y-87630000D03*
X36830000Y-87630000D03*
D20*
X39370000Y-87630000D03*
D19*
X59690000Y-33020000D03*
X59690000Y-35560000D03*
X59690000Y-38100000D03*
X59690000Y-40640000D03*
X59690000Y-43180000D03*
X59690000Y-45720000D03*
X59690000Y-48260000D03*
X59690000Y-50800000D03*
X59690000Y-53340000D03*
X59690000Y-55880000D03*
X59690000Y-58420000D03*
D20*
X59690000Y-60960000D03*
D26*
X21590000Y-39370000D03*
D27*
X21590000Y-41910000D03*
D26*
X21590000Y-26670000D03*
D27*
X21590000Y-29210000D03*
D26*
X67310000Y-97790000D03*
X69850000Y-97790000D03*
D27*
X72390000Y-97790000D03*
D26*
X100330000Y-90170000D03*
D27*
X100330000Y-92710000D03*
D26*
X20320000Y-73660000D03*
X20320000Y-76200000D03*
D27*
X20320000Y-78740000D03*
D26*
X101600000Y-82550000D03*
D27*
X101600000Y-85090000D03*
D25*
X98780000Y-61690000D03*
X104280000Y-61690000D03*
X106680000Y-59690000D03*
D32*
X21590000Y-97790000D03*
X21590000Y-17780000D03*
X106680000Y-17780000D03*
X106680000Y-97790000D03*
D17*
X66040000Y-48260000D03*
D18*
X68580000Y-48260000D03*
D17*
X105410000Y-29210000D03*
D18*
X107950000Y-29210000D03*
D33*
X87630000Y-29210000D03*
D34*
X74930000Y-29210000D03*
D17*
X66040000Y-40640000D03*
D18*
X68580000Y-40640000D03*
D16*
X63580000Y-30480000D03*
D21*
X68580000Y-30480000D03*
D16*
X68500000Y-16510000D03*
D21*
X63500000Y-16510000D03*
D10*
X54610000Y-77390000D03*
D35*
X54610000Y-72390000D03*
D10*
X29210000Y-17780000D03*
M02*
