G04 #@! TF.GenerationSoftware,KiCad,Pcbnew,(5.1.4)-1*
G04 #@! TF.CreationDate,2020-01-06T16:45:50-05:00*
G04 #@! TF.ProjectId,CameraTrigger,43616d65-7261-4547-9269-676765722e6b,rev?*
G04 #@! TF.SameCoordinates,Original*
G04 #@! TF.FileFunction,Legend,Top*
G04 #@! TF.FilePolarity,Positive*
%FSLAX46Y46*%
G04 Gerber Fmt 4.6, Leading zero omitted, Abs format (unit mm)*
G04 Created by KiCad (PCBNEW (5.1.4)-1) date 2020-01-06 16:45:50*
%MOMM*%
%LPD*%
G04 APERTURE LIST*
%ADD10C,0.150000*%
%ADD11C,0.120000*%
%ADD12C,0.340000*%
%ADD13C,0.127000*%
%ADD14C,0.050000*%
G04 APERTURE END LIST*
D10*
X110007619Y-58182380D02*
X110007619Y-58372857D01*
X110055238Y-58468095D01*
X110102857Y-58515714D01*
X110245714Y-58610952D01*
X110436190Y-58658571D01*
X110817142Y-58658571D01*
X110912380Y-58610952D01*
X110960000Y-58563333D01*
X111007619Y-58468095D01*
X111007619Y-58277619D01*
X110960000Y-58182380D01*
X110912380Y-58134761D01*
X110817142Y-58087142D01*
X110579047Y-58087142D01*
X110483809Y-58134761D01*
X110436190Y-58182380D01*
X110388571Y-58277619D01*
X110388571Y-58468095D01*
X110436190Y-58563333D01*
X110483809Y-58610952D01*
X110579047Y-58658571D01*
X110007619Y-59134761D02*
X110007619Y-59325238D01*
X110055238Y-59420476D01*
X110102857Y-59468095D01*
X110245714Y-59563333D01*
X110436190Y-59610952D01*
X110817142Y-59610952D01*
X110912380Y-59563333D01*
X110960000Y-59515714D01*
X111007619Y-59420476D01*
X111007619Y-59230000D01*
X110960000Y-59134761D01*
X110912380Y-59087142D01*
X110817142Y-59039523D01*
X110579047Y-59039523D01*
X110483809Y-59087142D01*
X110436190Y-59134761D01*
X110388571Y-59230000D01*
X110388571Y-59420476D01*
X110436190Y-59515714D01*
X110483809Y-59563333D01*
X110579047Y-59610952D01*
X110102857Y-60039523D02*
X110055238Y-60087142D01*
X110007619Y-60039523D01*
X110055238Y-59991904D01*
X110102857Y-60039523D01*
X110007619Y-60039523D01*
X111007619Y-60706190D02*
X111007619Y-60801428D01*
X110960000Y-60896666D01*
X110912380Y-60944285D01*
X110817142Y-60991904D01*
X110626666Y-61039523D01*
X110388571Y-61039523D01*
X110198095Y-60991904D01*
X110102857Y-60944285D01*
X110055238Y-60896666D01*
X110007619Y-60801428D01*
X110007619Y-60706190D01*
X110055238Y-60610952D01*
X110102857Y-60563333D01*
X110198095Y-60515714D01*
X110388571Y-60468095D01*
X110626666Y-60468095D01*
X110817142Y-60515714D01*
X110912380Y-60563333D01*
X110960000Y-60610952D01*
X111007619Y-60706190D01*
X111007619Y-61896666D02*
X111007619Y-61706190D01*
X110960000Y-61610952D01*
X110912380Y-61563333D01*
X110769523Y-61468095D01*
X110579047Y-61420476D01*
X110198095Y-61420476D01*
X110102857Y-61468095D01*
X110055238Y-61515714D01*
X110007619Y-61610952D01*
X110007619Y-61801428D01*
X110055238Y-61896666D01*
X110102857Y-61944285D01*
X110198095Y-61991904D01*
X110436190Y-61991904D01*
X110531428Y-61944285D01*
X110579047Y-61896666D01*
X110626666Y-61801428D01*
X110626666Y-61610952D01*
X110579047Y-61515714D01*
X110531428Y-61468095D01*
X110436190Y-61420476D01*
X111007619Y-62610952D02*
X111007619Y-62706190D01*
X110960000Y-62801428D01*
X110912380Y-62849047D01*
X110817142Y-62896666D01*
X110626666Y-62944285D01*
X110388571Y-62944285D01*
X110198095Y-62896666D01*
X110102857Y-62849047D01*
X110055238Y-62801428D01*
X110007619Y-62706190D01*
X110007619Y-62610952D01*
X110055238Y-62515714D01*
X110102857Y-62468095D01*
X110198095Y-62420476D01*
X110388571Y-62372857D01*
X110626666Y-62372857D01*
X110817142Y-62420476D01*
X110912380Y-62468095D01*
X110960000Y-62515714D01*
X111007619Y-62610952D01*
X110007619Y-64134761D02*
X110674285Y-64134761D01*
X110579047Y-64134761D02*
X110626666Y-64182380D01*
X110674285Y-64277619D01*
X110674285Y-64420476D01*
X110626666Y-64515714D01*
X110531428Y-64563333D01*
X110007619Y-64563333D01*
X110531428Y-64563333D02*
X110626666Y-64610952D01*
X110674285Y-64706190D01*
X110674285Y-64849047D01*
X110626666Y-64944285D01*
X110531428Y-64991904D01*
X110007619Y-64991904D01*
X110007619Y-65468095D02*
X110674285Y-65468095D01*
X110579047Y-65468095D02*
X110626666Y-65515714D01*
X110674285Y-65610952D01*
X110674285Y-65753809D01*
X110626666Y-65849047D01*
X110531428Y-65896666D01*
X110007619Y-65896666D01*
X110531428Y-65896666D02*
X110626666Y-65944285D01*
X110674285Y-66039523D01*
X110674285Y-66182380D01*
X110626666Y-66277619D01*
X110531428Y-66325238D01*
X110007619Y-66325238D01*
X111760000Y-12700000D02*
X111760000Y-111760000D01*
X111760000Y-12700000D02*
X111173579Y-12700000D01*
X111760000Y-111760000D02*
X111173579Y-111760000D01*
X111760000Y-111760000D02*
X111173579Y-110633496D01*
X111760000Y-111760000D02*
X112346421Y-110633496D01*
X111760000Y-12700000D02*
X111173579Y-13826504D01*
X111760000Y-12700000D02*
X112346421Y-13826504D01*
D11*
X88010000Y-18590000D02*
X88010000Y-16970000D01*
X89870000Y-18590000D02*
X89870000Y-16970000D01*
X89870000Y-16970000D02*
X88010000Y-16970000D01*
X89870000Y-18590000D02*
X88010000Y-18590000D01*
X88250000Y-20130000D02*
X88250000Y-18747000D01*
X88250000Y-20130000D02*
X86867000Y-20130000D01*
X77090000Y-19890000D02*
X77090000Y-15670000D01*
X88010000Y-19890000D02*
X88010000Y-15670000D01*
X88010000Y-15670000D02*
X77090000Y-15670000D01*
X88010000Y-19890000D02*
X77090000Y-19890000D01*
X92540000Y-16370000D02*
X92540000Y-19190000D01*
X92540000Y-19190000D02*
X94240000Y-20490000D01*
X92540000Y-16370000D02*
X94240000Y-15070000D01*
X94240000Y-20490000D02*
X102960000Y-20490000D01*
X102960000Y-15070000D02*
X102960000Y-20490000D01*
X94240000Y-15070000D02*
X102960000Y-15070000D01*
X101710000Y-40580000D02*
X100060000Y-40580000D01*
X101710000Y-50860000D02*
X101710000Y-40580000D01*
X96410000Y-50860000D02*
X101710000Y-50860000D01*
X96410000Y-40580000D02*
X96410000Y-50860000D01*
X98060000Y-40580000D02*
X96410000Y-40580000D01*
X100060000Y-40580000D02*
G75*
G02X98060000Y-40580000I-1000000J0D01*
G01*
X74820000Y-74990000D02*
X76470000Y-74990000D01*
X74820000Y-64710000D02*
X74820000Y-74990000D01*
X80120000Y-64710000D02*
X74820000Y-64710000D01*
X80120000Y-74990000D02*
X80120000Y-64710000D01*
X78470000Y-74990000D02*
X80120000Y-74990000D01*
X76470000Y-74990000D02*
G75*
G02X78470000Y-74990000I1000000J0D01*
G01*
X69161000Y-20860000D02*
X69161000Y-22370000D01*
X65460000Y-20860000D02*
X65460000Y-22370000D01*
X62190000Y-22370000D02*
X72430000Y-22370000D01*
X72430000Y-20860000D02*
X72430000Y-25501000D01*
X62190000Y-20860000D02*
X62190000Y-25501000D01*
X62190000Y-25501000D02*
X72430000Y-25501000D01*
X62190000Y-20860000D02*
X72430000Y-20860000D01*
D10*
X70330000Y-100330000D02*
G75*
G03X70330000Y-100330000I-1750000J0D01*
G01*
X29690000Y-74930000D02*
G75*
G03X29690000Y-74930000I-1750000J0D01*
G01*
X37310000Y-50800000D02*
G75*
G03X37310000Y-50800000I-1750000J0D01*
G01*
X37310000Y-39370000D02*
G75*
G03X37310000Y-39370000I-1750000J0D01*
G01*
X37310000Y-26670000D02*
G75*
G03X37310000Y-26670000I-1750000J0D01*
G01*
X72870000Y-34290000D02*
G75*
G03X72870000Y-34290000I-1750000J0D01*
G01*
X72870000Y-86360000D02*
G75*
G03X72870000Y-86360000I-1750000J0D01*
G01*
X62710000Y-106680000D02*
G75*
G03X62710000Y-106680000I-1750000J0D01*
G01*
X83030000Y-31750000D02*
G75*
G03X83030000Y-31750000I-1750000J0D01*
G01*
D11*
X29940000Y-40640000D02*
G75*
G03X29940000Y-40640000I-2000000J0D01*
G01*
X24130000Y-45720000D02*
X31750000Y-45720000D01*
X24130000Y-35560000D02*
X24130000Y-45720000D01*
X24130000Y-35560000D02*
X31750000Y-35560000D01*
X31750000Y-45720000D02*
X31750000Y-35560000D01*
X29940000Y-54610000D02*
G75*
G03X29940000Y-54610000I-2000000J0D01*
G01*
X24130000Y-59690000D02*
X31750000Y-59690000D01*
X24130000Y-49530000D02*
X24130000Y-59690000D01*
X24130000Y-49530000D02*
X31750000Y-49530000D01*
X31750000Y-59690000D02*
X31750000Y-49530000D01*
X29940000Y-27940000D02*
G75*
G03X29940000Y-27940000I-2000000J0D01*
G01*
X24130000Y-33020000D02*
X31750000Y-33020000D01*
X24130000Y-22860000D02*
X24130000Y-33020000D01*
X24130000Y-22860000D02*
X31750000Y-22860000D01*
X31750000Y-33020000D02*
X31750000Y-22860000D01*
X95980000Y-110590000D02*
X95980000Y-110260000D01*
X89440000Y-110590000D02*
X95980000Y-110590000D01*
X89440000Y-110260000D02*
X89440000Y-110590000D01*
X95980000Y-107850000D02*
X95980000Y-108180000D01*
X89440000Y-107850000D02*
X95980000Y-107850000D01*
X89440000Y-108180000D02*
X89440000Y-107850000D01*
X82010000Y-55980000D02*
X82010000Y-55650000D01*
X75470000Y-55980000D02*
X82010000Y-55980000D01*
X75470000Y-55650000D02*
X75470000Y-55980000D01*
X82010000Y-53240000D02*
X82010000Y-53570000D01*
X75470000Y-53240000D02*
X82010000Y-53240000D01*
X75470000Y-53570000D02*
X75470000Y-53240000D01*
X89440000Y-32920000D02*
X89440000Y-33250000D01*
X95980000Y-32920000D02*
X89440000Y-32920000D01*
X95980000Y-33250000D02*
X95980000Y-32920000D01*
X89440000Y-35660000D02*
X89440000Y-35330000D01*
X95980000Y-35660000D02*
X89440000Y-35660000D01*
X95980000Y-35330000D02*
X95980000Y-35660000D01*
X72930000Y-39270000D02*
X72930000Y-39600000D01*
X79470000Y-39270000D02*
X72930000Y-39270000D01*
X79470000Y-39600000D02*
X79470000Y-39270000D01*
X72930000Y-42010000D02*
X72930000Y-41680000D01*
X79470000Y-42010000D02*
X72930000Y-42010000D01*
X79470000Y-41680000D02*
X79470000Y-42010000D01*
X102330000Y-26770000D02*
X102330000Y-26440000D01*
X95790000Y-26770000D02*
X102330000Y-26770000D01*
X95790000Y-26440000D02*
X95790000Y-26770000D01*
X102330000Y-24030000D02*
X102330000Y-24360000D01*
X95790000Y-24030000D02*
X102330000Y-24030000D01*
X95790000Y-24360000D02*
X95790000Y-24030000D01*
X76740000Y-84990000D02*
X76740000Y-85320000D01*
X83280000Y-84990000D02*
X76740000Y-84990000D01*
X83280000Y-85320000D02*
X83280000Y-84990000D01*
X76740000Y-87730000D02*
X76740000Y-87400000D01*
X83280000Y-87730000D02*
X76740000Y-87730000D01*
X83280000Y-87400000D02*
X83280000Y-87730000D01*
X75470000Y-46890000D02*
X75470000Y-47220000D01*
X82010000Y-46890000D02*
X75470000Y-46890000D01*
X82010000Y-47220000D02*
X82010000Y-46890000D01*
X75470000Y-49630000D02*
X75470000Y-49300000D01*
X82010000Y-49630000D02*
X75470000Y-49630000D01*
X82010000Y-49300000D02*
X82010000Y-49630000D01*
X70390000Y-92610000D02*
X70390000Y-92940000D01*
X76930000Y-92610000D02*
X70390000Y-92610000D01*
X76930000Y-92940000D02*
X76930000Y-92610000D01*
X70390000Y-95350000D02*
X70390000Y-95020000D01*
X76930000Y-95350000D02*
X70390000Y-95350000D01*
X76930000Y-95020000D02*
X76930000Y-95350000D01*
X85791522Y-50098478D02*
G75*
G03X90230000Y-48260000I1838478J1838478D01*
G01*
X85791522Y-46421522D02*
G75*
G02X90230000Y-48260000I1838478J-1838478D01*
G01*
X85780000Y-46460000D02*
X85780000Y-50060000D01*
X85791522Y-42478478D02*
G75*
G03X90230000Y-40640000I1838478J1838478D01*
G01*
X85791522Y-38801522D02*
G75*
G02X90230000Y-40640000I1838478J-1838478D01*
G01*
X85780000Y-38840000D02*
X85780000Y-42440000D01*
X93278478Y-90871522D02*
G75*
G03X88840000Y-92710000I-1838478J-1838478D01*
G01*
X93278478Y-94548478D02*
G75*
G02X88840000Y-92710000I-1838478J1838478D01*
G01*
X93290000Y-94510000D02*
X93290000Y-90910000D01*
D12*
X108120000Y-75920000D02*
G75*
G03X108120000Y-75920000I-170000J0D01*
G01*
D13*
X109150000Y-75020000D02*
X109150000Y-75320000D01*
X113150000Y-75020000D02*
X109150000Y-75020000D01*
X113150000Y-69020000D02*
X113150000Y-75020000D01*
X109150000Y-69020000D02*
X113150000Y-69020000D01*
X109150000Y-67120000D02*
X109150000Y-69020000D01*
X95150000Y-67120000D02*
X109150000Y-67120000D01*
X95150000Y-75320000D02*
X95150000Y-67120000D01*
X109150000Y-75320000D02*
X95150000Y-75320000D01*
D11*
X40700000Y-95190000D02*
X40700000Y-96520000D01*
X39370000Y-95190000D02*
X40700000Y-95190000D01*
X38100000Y-95190000D02*
X38100000Y-97850000D01*
X38100000Y-97850000D02*
X17720000Y-97850000D01*
X38100000Y-95190000D02*
X17720000Y-95190000D01*
X17720000Y-95190000D02*
X17720000Y-97850000D01*
X21390000Y-43770000D02*
X21390000Y-43370000D01*
X20750000Y-43770000D02*
X21390000Y-43770000D01*
X14410000Y-37750000D02*
X21150000Y-37750000D01*
X14410000Y-43530000D02*
X21150000Y-43530000D01*
X21150000Y-43530000D02*
X21150000Y-37750000D01*
X14410000Y-43530000D02*
X14410000Y-37750000D01*
X15530000Y-43530000D02*
X15530000Y-37750000D01*
X20630000Y-43530000D02*
X20630000Y-37750000D01*
X21390000Y-31070000D02*
X21390000Y-30670000D01*
X20750000Y-31070000D02*
X21390000Y-31070000D01*
X14410000Y-25050000D02*
X21150000Y-25050000D01*
X14410000Y-30830000D02*
X21150000Y-30830000D01*
X21150000Y-30830000D02*
X21150000Y-25050000D01*
X14410000Y-30830000D02*
X14410000Y-25050000D01*
X15530000Y-30830000D02*
X15530000Y-25050000D01*
X20630000Y-30830000D02*
X20630000Y-25050000D01*
X74250000Y-103070000D02*
X73850000Y-103070000D01*
X74250000Y-103710000D02*
X74250000Y-103070000D01*
X65690000Y-110050000D02*
X65690000Y-103310000D01*
X74010000Y-110050000D02*
X74010000Y-103310000D01*
X74010000Y-103310000D02*
X65690000Y-103310000D01*
X74010000Y-110050000D02*
X65690000Y-110050000D01*
X74010000Y-108930000D02*
X65690000Y-108930000D01*
X74010000Y-103830000D02*
X65690000Y-103830000D01*
X105210000Y-97110000D02*
X105210000Y-96710000D01*
X104570000Y-97110000D02*
X105210000Y-97110000D01*
X98230000Y-91090000D02*
X104970000Y-91090000D01*
X98230000Y-96870000D02*
X104970000Y-96870000D01*
X104970000Y-96870000D02*
X104970000Y-91090000D01*
X98230000Y-96870000D02*
X98230000Y-91090000D01*
X99350000Y-96870000D02*
X99350000Y-91090000D01*
X104450000Y-96870000D02*
X104450000Y-91090000D01*
X23930000Y-80600000D02*
X23930000Y-80200000D01*
X23290000Y-80600000D02*
X23930000Y-80600000D01*
X16950000Y-72040000D02*
X23690000Y-72040000D01*
X16950000Y-80360000D02*
X23690000Y-80360000D01*
X23690000Y-80360000D02*
X23690000Y-72040000D01*
X16950000Y-80360000D02*
X16950000Y-72040000D01*
X18070000Y-80360000D02*
X18070000Y-72040000D01*
X23170000Y-80360000D02*
X23170000Y-72040000D01*
X105210000Y-86950000D02*
X105210000Y-86550000D01*
X104570000Y-86950000D02*
X105210000Y-86950000D01*
X98230000Y-80930000D02*
X104970000Y-80930000D01*
X98230000Y-86710000D02*
X104970000Y-86710000D01*
X104970000Y-86710000D02*
X104970000Y-80930000D01*
X98230000Y-86710000D02*
X98230000Y-80930000D01*
X99350000Y-86710000D02*
X99350000Y-80930000D01*
X104450000Y-86710000D02*
X104450000Y-80930000D01*
X108000000Y-57470000D02*
X112000000Y-57470000D01*
X108000000Y-55570000D02*
X108000000Y-57470000D01*
X93760000Y-55570000D02*
X108000000Y-55570000D01*
X93760000Y-64010000D02*
X93760000Y-55570000D01*
X108000000Y-64010000D02*
X93760000Y-64010000D01*
X108000000Y-63710000D02*
X108000000Y-64010000D01*
X112000000Y-63710000D02*
X108000000Y-63710000D01*
X112000000Y-57470000D02*
X112000000Y-63710000D01*
X68870000Y-47180000D02*
X68870000Y-47024000D01*
X68870000Y-49496000D02*
X68870000Y-49340000D01*
X66268870Y-47180163D02*
G75*
G02X68350961Y-47180000I1041130J-1079837D01*
G01*
X66268870Y-49339837D02*
G75*
G03X68350961Y-49340000I1041130J1079837D01*
G01*
X65637665Y-47181392D02*
G75*
G02X68870000Y-47024484I1672335J-1078608D01*
G01*
X65637665Y-49338608D02*
G75*
G03X68870000Y-49495516I1672335J1078608D01*
G01*
X108240000Y-28130000D02*
X108240000Y-27974000D01*
X108240000Y-30446000D02*
X108240000Y-30290000D01*
X105638870Y-28130163D02*
G75*
G02X107720961Y-28130000I1041130J-1079837D01*
G01*
X105638870Y-30289837D02*
G75*
G03X107720961Y-30290000I1041130J1079837D01*
G01*
X105007665Y-28131392D02*
G75*
G02X108240000Y-27974484I1672335J-1078608D01*
G01*
X105007665Y-30288608D02*
G75*
G03X108240000Y-30445516I1672335J1078608D01*
G01*
X80375000Y-21410000D02*
X80375000Y-26850000D01*
X80615000Y-21410000D02*
X80615000Y-26850000D01*
X80495000Y-21410000D02*
X80495000Y-26850000D01*
X88690000Y-26850000D02*
X88690000Y-25970000D01*
X78950000Y-26850000D02*
X88690000Y-26850000D01*
X78950000Y-25970000D02*
X78950000Y-26850000D01*
X88690000Y-21410000D02*
X88690000Y-22290000D01*
X78950000Y-21410000D02*
X88690000Y-21410000D01*
X78950000Y-22290000D02*
X78950000Y-21410000D01*
X68870000Y-39560000D02*
X68870000Y-39404000D01*
X68870000Y-41876000D02*
X68870000Y-41720000D01*
X66268870Y-39560163D02*
G75*
G02X68350961Y-39560000I1041130J-1079837D01*
G01*
X66268870Y-41719837D02*
G75*
G03X68350961Y-41720000I1041130J1079837D01*
G01*
X65637665Y-39561392D02*
G75*
G02X68870000Y-39404484I1672335J-1078608D01*
G01*
X65637665Y-41718608D02*
G75*
G03X68870000Y-41875516I1672335J1078608D01*
G01*
X84110000Y-94170000D02*
X84110000Y-94014000D01*
X84110000Y-96486000D02*
X84110000Y-96330000D01*
X81508870Y-94170163D02*
G75*
G02X83590961Y-94170000I1041130J-1079837D01*
G01*
X81508870Y-96329837D02*
G75*
G03X83590961Y-96330000I1041130J1079837D01*
G01*
X80877665Y-94171392D02*
G75*
G02X84110000Y-94014484I1672335J-1078608D01*
G01*
X80877665Y-96328608D02*
G75*
G03X84110000Y-96485516I1672335J1078608D01*
G01*
X68634775Y-32205000D02*
X68634775Y-31705000D01*
X68884775Y-31955000D02*
X68384775Y-31955000D01*
X63684003Y-29420000D02*
G75*
G02X68475997Y-29420000I2395997J-1060000D01*
G01*
X63684003Y-31540000D02*
G75*
G03X68475997Y-31540000I2395997J1060000D01*
G01*
X63445225Y-14785000D02*
X63445225Y-15285000D01*
X63195225Y-15035000D02*
X63695225Y-15035000D01*
X68395997Y-17570000D02*
G75*
G02X63604003Y-17570000I-2395997J1060000D01*
G01*
X68395997Y-15450000D02*
G75*
G03X63604003Y-15450000I-2395997J-1060000D01*
G01*
X50570001Y-69760000D02*
G75*
G02X53570000Y-69760000I1499999J-6400000D01*
G01*
X58300000Y-76160000D02*
G75*
G03X58300000Y-76160000I-6230000J0D01*
G01*
D10*
X81216666Y-21294761D02*
X81359523Y-21342380D01*
X81597619Y-21342380D01*
X81692857Y-21294761D01*
X81740476Y-21247142D01*
X81788095Y-21151904D01*
X81788095Y-21056666D01*
X81740476Y-20961428D01*
X81692857Y-20913809D01*
X81597619Y-20866190D01*
X81407142Y-20818571D01*
X81311904Y-20770952D01*
X81264285Y-20723333D01*
X81216666Y-20628095D01*
X81216666Y-20532857D01*
X81264285Y-20437619D01*
X81311904Y-20390000D01*
X81407142Y-20342380D01*
X81645238Y-20342380D01*
X81788095Y-20390000D01*
X82121428Y-20342380D02*
X82359523Y-21342380D01*
X82550000Y-20628095D01*
X82740476Y-21342380D01*
X82978571Y-20342380D01*
X83883333Y-21342380D02*
X83311904Y-21342380D01*
X83597619Y-21342380D02*
X83597619Y-20342380D01*
X83502380Y-20485238D01*
X83407142Y-20580476D01*
X83311904Y-20628095D01*
X97416666Y-13232380D02*
X97416666Y-13946666D01*
X97369047Y-14089523D01*
X97273809Y-14184761D01*
X97130952Y-14232380D01*
X97035714Y-14232380D01*
X98416666Y-14232380D02*
X97845238Y-14232380D01*
X98130952Y-14232380D02*
X98130952Y-13232380D01*
X98035714Y-13375238D01*
X97940476Y-13470476D01*
X97845238Y-13518095D01*
X90678571Y-17887142D02*
X91821428Y-17887142D01*
X103678571Y-17887142D02*
X104821428Y-17887142D01*
X104250000Y-18458571D02*
X104250000Y-17315714D01*
X98298095Y-39032380D02*
X98298095Y-39841904D01*
X98345714Y-39937142D01*
X98393333Y-39984761D01*
X98488571Y-40032380D01*
X98679047Y-40032380D01*
X98774285Y-39984761D01*
X98821904Y-39937142D01*
X98869523Y-39841904D01*
X98869523Y-39032380D01*
X99250476Y-39032380D02*
X99869523Y-39032380D01*
X99536190Y-39413333D01*
X99679047Y-39413333D01*
X99774285Y-39460952D01*
X99821904Y-39508571D01*
X99869523Y-39603809D01*
X99869523Y-39841904D01*
X99821904Y-39937142D01*
X99774285Y-39984761D01*
X99679047Y-40032380D01*
X99393333Y-40032380D01*
X99298095Y-39984761D01*
X99250476Y-39937142D01*
X76708095Y-75442380D02*
X76708095Y-76251904D01*
X76755714Y-76347142D01*
X76803333Y-76394761D01*
X76898571Y-76442380D01*
X77089047Y-76442380D01*
X77184285Y-76394761D01*
X77231904Y-76347142D01*
X77279523Y-76251904D01*
X77279523Y-75442380D01*
X77708095Y-75537619D02*
X77755714Y-75490000D01*
X77850952Y-75442380D01*
X78089047Y-75442380D01*
X78184285Y-75490000D01*
X78231904Y-75537619D01*
X78279523Y-75632857D01*
X78279523Y-75728095D01*
X78231904Y-75870952D01*
X77660476Y-76442380D01*
X78279523Y-76442380D01*
X66548095Y-19312380D02*
X66548095Y-20121904D01*
X66595714Y-20217142D01*
X66643333Y-20264761D01*
X66738571Y-20312380D01*
X66929047Y-20312380D01*
X67024285Y-20264761D01*
X67071904Y-20217142D01*
X67119523Y-20121904D01*
X67119523Y-19312380D01*
X68119523Y-20312380D02*
X67548095Y-20312380D01*
X67833809Y-20312380D02*
X67833809Y-19312380D01*
X67738571Y-19455238D01*
X67643333Y-19550476D01*
X67548095Y-19598095D01*
X67318095Y-97032380D02*
X67889523Y-97032380D01*
X67603809Y-98032380D02*
X67603809Y-97032380D01*
X68222857Y-98032380D02*
X68222857Y-97032380D01*
X68603809Y-97032380D01*
X68699047Y-97080000D01*
X68746666Y-97127619D01*
X68794285Y-97222857D01*
X68794285Y-97365714D01*
X68746666Y-97460952D01*
X68699047Y-97508571D01*
X68603809Y-97556190D01*
X68222857Y-97556190D01*
X69270476Y-98032380D02*
X69460952Y-98032380D01*
X69556190Y-97984761D01*
X69603809Y-97937142D01*
X69699047Y-97794285D01*
X69746666Y-97603809D01*
X69746666Y-97222857D01*
X69699047Y-97127619D01*
X69651428Y-97080000D01*
X69556190Y-97032380D01*
X69365714Y-97032380D01*
X69270476Y-97080000D01*
X69222857Y-97127619D01*
X69175238Y-97222857D01*
X69175238Y-97460952D01*
X69222857Y-97556190D01*
X69270476Y-97603809D01*
X69365714Y-97651428D01*
X69556190Y-97651428D01*
X69651428Y-97603809D01*
X69699047Y-97556190D01*
X69746666Y-97460952D01*
X26678095Y-71632380D02*
X27249523Y-71632380D01*
X26963809Y-72632380D02*
X26963809Y-71632380D01*
X27582857Y-72632380D02*
X27582857Y-71632380D01*
X27963809Y-71632380D01*
X28059047Y-71680000D01*
X28106666Y-71727619D01*
X28154285Y-71822857D01*
X28154285Y-71965714D01*
X28106666Y-72060952D01*
X28059047Y-72108571D01*
X27963809Y-72156190D01*
X27582857Y-72156190D01*
X28725714Y-72060952D02*
X28630476Y-72013333D01*
X28582857Y-71965714D01*
X28535238Y-71870476D01*
X28535238Y-71822857D01*
X28582857Y-71727619D01*
X28630476Y-71680000D01*
X28725714Y-71632380D01*
X28916190Y-71632380D01*
X29011428Y-71680000D01*
X29059047Y-71727619D01*
X29106666Y-71822857D01*
X29106666Y-71870476D01*
X29059047Y-71965714D01*
X29011428Y-72013333D01*
X28916190Y-72060952D01*
X28725714Y-72060952D01*
X28630476Y-72108571D01*
X28582857Y-72156190D01*
X28535238Y-72251428D01*
X28535238Y-72441904D01*
X28582857Y-72537142D01*
X28630476Y-72584761D01*
X28725714Y-72632380D01*
X28916190Y-72632380D01*
X29011428Y-72584761D01*
X29059047Y-72537142D01*
X29106666Y-72441904D01*
X29106666Y-72251428D01*
X29059047Y-72156190D01*
X29011428Y-72108571D01*
X28916190Y-72060952D01*
X34298095Y-47502380D02*
X34869523Y-47502380D01*
X34583809Y-48502380D02*
X34583809Y-47502380D01*
X35202857Y-48502380D02*
X35202857Y-47502380D01*
X35583809Y-47502380D01*
X35679047Y-47550000D01*
X35726666Y-47597619D01*
X35774285Y-47692857D01*
X35774285Y-47835714D01*
X35726666Y-47930952D01*
X35679047Y-47978571D01*
X35583809Y-48026190D01*
X35202857Y-48026190D01*
X36107619Y-47502380D02*
X36774285Y-47502380D01*
X36345714Y-48502380D01*
X34298095Y-36072380D02*
X34869523Y-36072380D01*
X34583809Y-37072380D02*
X34583809Y-36072380D01*
X35202857Y-37072380D02*
X35202857Y-36072380D01*
X35583809Y-36072380D01*
X35679047Y-36120000D01*
X35726666Y-36167619D01*
X35774285Y-36262857D01*
X35774285Y-36405714D01*
X35726666Y-36500952D01*
X35679047Y-36548571D01*
X35583809Y-36596190D01*
X35202857Y-36596190D01*
X36631428Y-36072380D02*
X36440952Y-36072380D01*
X36345714Y-36120000D01*
X36298095Y-36167619D01*
X36202857Y-36310476D01*
X36155238Y-36500952D01*
X36155238Y-36881904D01*
X36202857Y-36977142D01*
X36250476Y-37024761D01*
X36345714Y-37072380D01*
X36536190Y-37072380D01*
X36631428Y-37024761D01*
X36679047Y-36977142D01*
X36726666Y-36881904D01*
X36726666Y-36643809D01*
X36679047Y-36548571D01*
X36631428Y-36500952D01*
X36536190Y-36453333D01*
X36345714Y-36453333D01*
X36250476Y-36500952D01*
X36202857Y-36548571D01*
X36155238Y-36643809D01*
X34298095Y-23372380D02*
X34869523Y-23372380D01*
X34583809Y-24372380D02*
X34583809Y-23372380D01*
X35202857Y-24372380D02*
X35202857Y-23372380D01*
X35583809Y-23372380D01*
X35679047Y-23420000D01*
X35726666Y-23467619D01*
X35774285Y-23562857D01*
X35774285Y-23705714D01*
X35726666Y-23800952D01*
X35679047Y-23848571D01*
X35583809Y-23896190D01*
X35202857Y-23896190D01*
X36679047Y-23372380D02*
X36202857Y-23372380D01*
X36155238Y-23848571D01*
X36202857Y-23800952D01*
X36298095Y-23753333D01*
X36536190Y-23753333D01*
X36631428Y-23800952D01*
X36679047Y-23848571D01*
X36726666Y-23943809D01*
X36726666Y-24181904D01*
X36679047Y-24277142D01*
X36631428Y-24324761D01*
X36536190Y-24372380D01*
X36298095Y-24372380D01*
X36202857Y-24324761D01*
X36155238Y-24277142D01*
X69858095Y-30992380D02*
X70429523Y-30992380D01*
X70143809Y-31992380D02*
X70143809Y-30992380D01*
X70762857Y-31992380D02*
X70762857Y-30992380D01*
X71143809Y-30992380D01*
X71239047Y-31040000D01*
X71286666Y-31087619D01*
X71334285Y-31182857D01*
X71334285Y-31325714D01*
X71286666Y-31420952D01*
X71239047Y-31468571D01*
X71143809Y-31516190D01*
X70762857Y-31516190D01*
X72191428Y-31325714D02*
X72191428Y-31992380D01*
X71953333Y-30944761D02*
X71715238Y-31659047D01*
X72334285Y-31659047D01*
X69858095Y-83062380D02*
X70429523Y-83062380D01*
X70143809Y-84062380D02*
X70143809Y-83062380D01*
X70762857Y-84062380D02*
X70762857Y-83062380D01*
X71143809Y-83062380D01*
X71239047Y-83110000D01*
X71286666Y-83157619D01*
X71334285Y-83252857D01*
X71334285Y-83395714D01*
X71286666Y-83490952D01*
X71239047Y-83538571D01*
X71143809Y-83586190D01*
X70762857Y-83586190D01*
X71667619Y-83062380D02*
X72286666Y-83062380D01*
X71953333Y-83443333D01*
X72096190Y-83443333D01*
X72191428Y-83490952D01*
X72239047Y-83538571D01*
X72286666Y-83633809D01*
X72286666Y-83871904D01*
X72239047Y-83967142D01*
X72191428Y-84014761D01*
X72096190Y-84062380D01*
X71810476Y-84062380D01*
X71715238Y-84014761D01*
X71667619Y-83967142D01*
X59698095Y-103382380D02*
X60269523Y-103382380D01*
X59983809Y-104382380D02*
X59983809Y-103382380D01*
X60602857Y-104382380D02*
X60602857Y-103382380D01*
X60983809Y-103382380D01*
X61079047Y-103430000D01*
X61126666Y-103477619D01*
X61174285Y-103572857D01*
X61174285Y-103715714D01*
X61126666Y-103810952D01*
X61079047Y-103858571D01*
X60983809Y-103906190D01*
X60602857Y-103906190D01*
X61555238Y-103477619D02*
X61602857Y-103430000D01*
X61698095Y-103382380D01*
X61936190Y-103382380D01*
X62031428Y-103430000D01*
X62079047Y-103477619D01*
X62126666Y-103572857D01*
X62126666Y-103668095D01*
X62079047Y-103810952D01*
X61507619Y-104382380D01*
X62126666Y-104382380D01*
X80018095Y-28452380D02*
X80589523Y-28452380D01*
X80303809Y-29452380D02*
X80303809Y-28452380D01*
X80922857Y-29452380D02*
X80922857Y-28452380D01*
X81303809Y-28452380D01*
X81399047Y-28500000D01*
X81446666Y-28547619D01*
X81494285Y-28642857D01*
X81494285Y-28785714D01*
X81446666Y-28880952D01*
X81399047Y-28928571D01*
X81303809Y-28976190D01*
X80922857Y-28976190D01*
X82446666Y-29452380D02*
X81875238Y-29452380D01*
X82160952Y-29452380D02*
X82160952Y-28452380D01*
X82065714Y-28595238D01*
X81970476Y-28690476D01*
X81875238Y-28738095D01*
X26606666Y-35234761D02*
X26749523Y-35282380D01*
X26987619Y-35282380D01*
X27082857Y-35234761D01*
X27130476Y-35187142D01*
X27178095Y-35091904D01*
X27178095Y-34996666D01*
X27130476Y-34901428D01*
X27082857Y-34853809D01*
X26987619Y-34806190D01*
X26797142Y-34758571D01*
X26701904Y-34710952D01*
X26654285Y-34663333D01*
X26606666Y-34568095D01*
X26606666Y-34472857D01*
X26654285Y-34377619D01*
X26701904Y-34330000D01*
X26797142Y-34282380D01*
X27035238Y-34282380D01*
X27178095Y-34330000D01*
X27511428Y-34282380D02*
X27749523Y-35282380D01*
X27940000Y-34568095D01*
X28130476Y-35282380D01*
X28368571Y-34282380D01*
X29178095Y-34615714D02*
X29178095Y-35282380D01*
X28940000Y-34234761D02*
X28701904Y-34949047D01*
X29320952Y-34949047D01*
X26606666Y-49204761D02*
X26749523Y-49252380D01*
X26987619Y-49252380D01*
X27082857Y-49204761D01*
X27130476Y-49157142D01*
X27178095Y-49061904D01*
X27178095Y-48966666D01*
X27130476Y-48871428D01*
X27082857Y-48823809D01*
X26987619Y-48776190D01*
X26797142Y-48728571D01*
X26701904Y-48680952D01*
X26654285Y-48633333D01*
X26606666Y-48538095D01*
X26606666Y-48442857D01*
X26654285Y-48347619D01*
X26701904Y-48300000D01*
X26797142Y-48252380D01*
X27035238Y-48252380D01*
X27178095Y-48300000D01*
X27511428Y-48252380D02*
X27749523Y-49252380D01*
X27940000Y-48538095D01*
X28130476Y-49252380D01*
X28368571Y-48252380D01*
X28654285Y-48252380D02*
X29273333Y-48252380D01*
X28940000Y-48633333D01*
X29082857Y-48633333D01*
X29178095Y-48680952D01*
X29225714Y-48728571D01*
X29273333Y-48823809D01*
X29273333Y-49061904D01*
X29225714Y-49157142D01*
X29178095Y-49204761D01*
X29082857Y-49252380D01*
X28797142Y-49252380D01*
X28701904Y-49204761D01*
X28654285Y-49157142D01*
X26606666Y-22534761D02*
X26749523Y-22582380D01*
X26987619Y-22582380D01*
X27082857Y-22534761D01*
X27130476Y-22487142D01*
X27178095Y-22391904D01*
X27178095Y-22296666D01*
X27130476Y-22201428D01*
X27082857Y-22153809D01*
X26987619Y-22106190D01*
X26797142Y-22058571D01*
X26701904Y-22010952D01*
X26654285Y-21963333D01*
X26606666Y-21868095D01*
X26606666Y-21772857D01*
X26654285Y-21677619D01*
X26701904Y-21630000D01*
X26797142Y-21582380D01*
X27035238Y-21582380D01*
X27178095Y-21630000D01*
X27511428Y-21582380D02*
X27749523Y-22582380D01*
X27940000Y-21868095D01*
X28130476Y-22582380D01*
X28368571Y-21582380D01*
X28701904Y-21677619D02*
X28749523Y-21630000D01*
X28844761Y-21582380D01*
X29082857Y-21582380D01*
X29178095Y-21630000D01*
X29225714Y-21677619D01*
X29273333Y-21772857D01*
X29273333Y-21868095D01*
X29225714Y-22010952D01*
X28654285Y-22582380D01*
X29273333Y-22582380D01*
X92543333Y-107302380D02*
X92210000Y-106826190D01*
X91971904Y-107302380D02*
X91971904Y-106302380D01*
X92352857Y-106302380D01*
X92448095Y-106350000D01*
X92495714Y-106397619D01*
X92543333Y-106492857D01*
X92543333Y-106635714D01*
X92495714Y-106730952D01*
X92448095Y-106778571D01*
X92352857Y-106826190D01*
X91971904Y-106826190D01*
X93114761Y-106730952D02*
X93019523Y-106683333D01*
X92971904Y-106635714D01*
X92924285Y-106540476D01*
X92924285Y-106492857D01*
X92971904Y-106397619D01*
X93019523Y-106350000D01*
X93114761Y-106302380D01*
X93305238Y-106302380D01*
X93400476Y-106350000D01*
X93448095Y-106397619D01*
X93495714Y-106492857D01*
X93495714Y-106540476D01*
X93448095Y-106635714D01*
X93400476Y-106683333D01*
X93305238Y-106730952D01*
X93114761Y-106730952D01*
X93019523Y-106778571D01*
X92971904Y-106826190D01*
X92924285Y-106921428D01*
X92924285Y-107111904D01*
X92971904Y-107207142D01*
X93019523Y-107254761D01*
X93114761Y-107302380D01*
X93305238Y-107302380D01*
X93400476Y-107254761D01*
X93448095Y-107207142D01*
X93495714Y-107111904D01*
X93495714Y-106921428D01*
X93448095Y-106826190D01*
X93400476Y-106778571D01*
X93305238Y-106730952D01*
X78573333Y-52692380D02*
X78240000Y-52216190D01*
X78001904Y-52692380D02*
X78001904Y-51692380D01*
X78382857Y-51692380D01*
X78478095Y-51740000D01*
X78525714Y-51787619D01*
X78573333Y-51882857D01*
X78573333Y-52025714D01*
X78525714Y-52120952D01*
X78478095Y-52168571D01*
X78382857Y-52216190D01*
X78001904Y-52216190D01*
X78906666Y-51692380D02*
X79573333Y-51692380D01*
X79144761Y-52692380D01*
X91273333Y-34742380D02*
X90940000Y-34266190D01*
X90701904Y-34742380D02*
X90701904Y-33742380D01*
X91082857Y-33742380D01*
X91178095Y-33790000D01*
X91225714Y-33837619D01*
X91273333Y-33932857D01*
X91273333Y-34075714D01*
X91225714Y-34170952D01*
X91178095Y-34218571D01*
X91082857Y-34266190D01*
X90701904Y-34266190D01*
X92130476Y-33742380D02*
X91940000Y-33742380D01*
X91844761Y-33790000D01*
X91797142Y-33837619D01*
X91701904Y-33980476D01*
X91654285Y-34170952D01*
X91654285Y-34551904D01*
X91701904Y-34647142D01*
X91749523Y-34694761D01*
X91844761Y-34742380D01*
X92035238Y-34742380D01*
X92130476Y-34694761D01*
X92178095Y-34647142D01*
X92225714Y-34551904D01*
X92225714Y-34313809D01*
X92178095Y-34218571D01*
X92130476Y-34170952D01*
X92035238Y-34123333D01*
X91844761Y-34123333D01*
X91749523Y-34170952D01*
X91701904Y-34218571D01*
X91654285Y-34313809D01*
X76033333Y-43462380D02*
X75700000Y-42986190D01*
X75461904Y-43462380D02*
X75461904Y-42462380D01*
X75842857Y-42462380D01*
X75938095Y-42510000D01*
X75985714Y-42557619D01*
X76033333Y-42652857D01*
X76033333Y-42795714D01*
X75985714Y-42890952D01*
X75938095Y-42938571D01*
X75842857Y-42986190D01*
X75461904Y-42986190D01*
X76938095Y-42462380D02*
X76461904Y-42462380D01*
X76414285Y-42938571D01*
X76461904Y-42890952D01*
X76557142Y-42843333D01*
X76795238Y-42843333D01*
X76890476Y-42890952D01*
X76938095Y-42938571D01*
X76985714Y-43033809D01*
X76985714Y-43271904D01*
X76938095Y-43367142D01*
X76890476Y-43414761D01*
X76795238Y-43462380D01*
X76557142Y-43462380D01*
X76461904Y-43414761D01*
X76414285Y-43367142D01*
X98893333Y-23482380D02*
X98560000Y-23006190D01*
X98321904Y-23482380D02*
X98321904Y-22482380D01*
X98702857Y-22482380D01*
X98798095Y-22530000D01*
X98845714Y-22577619D01*
X98893333Y-22672857D01*
X98893333Y-22815714D01*
X98845714Y-22910952D01*
X98798095Y-22958571D01*
X98702857Y-23006190D01*
X98321904Y-23006190D01*
X99750476Y-22815714D02*
X99750476Y-23482380D01*
X99512380Y-22434761D02*
X99274285Y-23149047D01*
X99893333Y-23149047D01*
X79843333Y-89182380D02*
X79510000Y-88706190D01*
X79271904Y-89182380D02*
X79271904Y-88182380D01*
X79652857Y-88182380D01*
X79748095Y-88230000D01*
X79795714Y-88277619D01*
X79843333Y-88372857D01*
X79843333Y-88515714D01*
X79795714Y-88610952D01*
X79748095Y-88658571D01*
X79652857Y-88706190D01*
X79271904Y-88706190D01*
X80176666Y-88182380D02*
X80795714Y-88182380D01*
X80462380Y-88563333D01*
X80605238Y-88563333D01*
X80700476Y-88610952D01*
X80748095Y-88658571D01*
X80795714Y-88753809D01*
X80795714Y-88991904D01*
X80748095Y-89087142D01*
X80700476Y-89134761D01*
X80605238Y-89182380D01*
X80319523Y-89182380D01*
X80224285Y-89134761D01*
X80176666Y-89087142D01*
X78573333Y-51082380D02*
X78240000Y-50606190D01*
X78001904Y-51082380D02*
X78001904Y-50082380D01*
X78382857Y-50082380D01*
X78478095Y-50130000D01*
X78525714Y-50177619D01*
X78573333Y-50272857D01*
X78573333Y-50415714D01*
X78525714Y-50510952D01*
X78478095Y-50558571D01*
X78382857Y-50606190D01*
X78001904Y-50606190D01*
X78954285Y-50177619D02*
X79001904Y-50130000D01*
X79097142Y-50082380D01*
X79335238Y-50082380D01*
X79430476Y-50130000D01*
X79478095Y-50177619D01*
X79525714Y-50272857D01*
X79525714Y-50368095D01*
X79478095Y-50510952D01*
X78906666Y-51082380D01*
X79525714Y-51082380D01*
X73493333Y-96802380D02*
X73160000Y-96326190D01*
X72921904Y-96802380D02*
X72921904Y-95802380D01*
X73302857Y-95802380D01*
X73398095Y-95850000D01*
X73445714Y-95897619D01*
X73493333Y-95992857D01*
X73493333Y-96135714D01*
X73445714Y-96230952D01*
X73398095Y-96278571D01*
X73302857Y-96326190D01*
X72921904Y-96326190D01*
X74445714Y-96802380D02*
X73874285Y-96802380D01*
X74160000Y-96802380D02*
X74160000Y-95802380D01*
X74064761Y-95945238D01*
X73969523Y-96040476D01*
X73874285Y-96088095D01*
X91737619Y-48355238D02*
X91690000Y-48450476D01*
X91594761Y-48545714D01*
X91451904Y-48688571D01*
X91404285Y-48783809D01*
X91404285Y-48879047D01*
X91642380Y-48831428D02*
X91594761Y-48926666D01*
X91499523Y-49021904D01*
X91309047Y-49069523D01*
X90975714Y-49069523D01*
X90785238Y-49021904D01*
X90690000Y-48926666D01*
X90642380Y-48831428D01*
X90642380Y-48640952D01*
X90690000Y-48545714D01*
X90785238Y-48450476D01*
X90975714Y-48402857D01*
X91309047Y-48402857D01*
X91499523Y-48450476D01*
X91594761Y-48545714D01*
X91642380Y-48640952D01*
X91642380Y-48831428D01*
X90642380Y-48069523D02*
X90642380Y-47450476D01*
X91023333Y-47783809D01*
X91023333Y-47640952D01*
X91070952Y-47545714D01*
X91118571Y-47498095D01*
X91213809Y-47450476D01*
X91451904Y-47450476D01*
X91547142Y-47498095D01*
X91594761Y-47545714D01*
X91642380Y-47640952D01*
X91642380Y-47926666D01*
X91594761Y-48021904D01*
X91547142Y-48069523D01*
X91737619Y-40735238D02*
X91690000Y-40830476D01*
X91594761Y-40925714D01*
X91451904Y-41068571D01*
X91404285Y-41163809D01*
X91404285Y-41259047D01*
X91642380Y-41211428D02*
X91594761Y-41306666D01*
X91499523Y-41401904D01*
X91309047Y-41449523D01*
X90975714Y-41449523D01*
X90785238Y-41401904D01*
X90690000Y-41306666D01*
X90642380Y-41211428D01*
X90642380Y-41020952D01*
X90690000Y-40925714D01*
X90785238Y-40830476D01*
X90975714Y-40782857D01*
X91309047Y-40782857D01*
X91499523Y-40830476D01*
X91594761Y-40925714D01*
X91642380Y-41020952D01*
X91642380Y-41211428D01*
X90737619Y-40401904D02*
X90690000Y-40354285D01*
X90642380Y-40259047D01*
X90642380Y-40020952D01*
X90690000Y-39925714D01*
X90737619Y-39878095D01*
X90832857Y-39830476D01*
X90928095Y-39830476D01*
X91070952Y-39878095D01*
X91642380Y-40449523D01*
X91642380Y-39830476D01*
X88427619Y-92805238D02*
X88380000Y-92900476D01*
X88284761Y-92995714D01*
X88141904Y-93138571D01*
X88094285Y-93233809D01*
X88094285Y-93329047D01*
X88332380Y-93281428D02*
X88284761Y-93376666D01*
X88189523Y-93471904D01*
X87999047Y-93519523D01*
X87665714Y-93519523D01*
X87475238Y-93471904D01*
X87380000Y-93376666D01*
X87332380Y-93281428D01*
X87332380Y-93090952D01*
X87380000Y-92995714D01*
X87475238Y-92900476D01*
X87665714Y-92852857D01*
X87999047Y-92852857D01*
X88189523Y-92900476D01*
X88284761Y-92995714D01*
X88332380Y-93090952D01*
X88332380Y-93281428D01*
X88332380Y-91900476D02*
X88332380Y-92471904D01*
X88332380Y-92186190D02*
X87332380Y-92186190D01*
X87475238Y-92281428D01*
X87570476Y-92376666D01*
X87618095Y-92471904D01*
D14*
X104458938Y-77145315D02*
X104458938Y-78145808D01*
X104392238Y-78345906D01*
X104258839Y-78479305D01*
X104058740Y-78546005D01*
X103925341Y-78546005D01*
X105859628Y-78546005D02*
X105059233Y-78546005D01*
X105459430Y-78546005D02*
X105459430Y-77145315D01*
X105326031Y-77345414D01*
X105192632Y-77478813D01*
X105059233Y-77545512D01*
X106393224Y-77278714D02*
X106459923Y-77212015D01*
X106593322Y-77145315D01*
X106926820Y-77145315D01*
X107060219Y-77212015D01*
X107126919Y-77278714D01*
X107193618Y-77412113D01*
X107193618Y-77545512D01*
X107126919Y-77745611D01*
X106326524Y-78546005D01*
X107193618Y-78546005D01*
X97836892Y-65630231D02*
X97770216Y-65696907D01*
X97570187Y-65763583D01*
X97436835Y-65763583D01*
X97236806Y-65696907D01*
X97103454Y-65563555D01*
X97036778Y-65430202D01*
X96970101Y-65163498D01*
X96970101Y-64963469D01*
X97036778Y-64696764D01*
X97103454Y-64563412D01*
X97236806Y-64430060D01*
X97436835Y-64363383D01*
X97570187Y-64363383D01*
X97770216Y-64430060D01*
X97836892Y-64496736D01*
X99037063Y-65763583D02*
X99037063Y-65030145D01*
X98970387Y-64896793D01*
X98837035Y-64830117D01*
X98570330Y-64830117D01*
X98436978Y-64896793D01*
X99037063Y-65696907D02*
X98903711Y-65763583D01*
X98570330Y-65763583D01*
X98436978Y-65696907D01*
X98370301Y-65563555D01*
X98370301Y-65430202D01*
X98436978Y-65296850D01*
X98570330Y-65230174D01*
X98903711Y-65230174D01*
X99037063Y-65163498D01*
X99703825Y-65763583D02*
X99703825Y-64830117D01*
X99703825Y-64963469D02*
X99770501Y-64896793D01*
X99903854Y-64830117D01*
X100103882Y-64830117D01*
X100237235Y-64896793D01*
X100303911Y-65030145D01*
X100303911Y-65763583D01*
X100303911Y-65030145D02*
X100370587Y-64896793D01*
X100503940Y-64830117D01*
X100703968Y-64830117D01*
X100837320Y-64896793D01*
X100903997Y-65030145D01*
X100903997Y-65763583D01*
X102104168Y-65696907D02*
X101970816Y-65763583D01*
X101704111Y-65763583D01*
X101570759Y-65696907D01*
X101504082Y-65563555D01*
X101504082Y-65030145D01*
X101570759Y-64896793D01*
X101704111Y-64830117D01*
X101970816Y-64830117D01*
X102104168Y-64896793D01*
X102170844Y-65030145D01*
X102170844Y-65163498D01*
X101504082Y-65296850D01*
X102770930Y-65763583D02*
X102770930Y-64830117D01*
X102770930Y-65096821D02*
X102837606Y-64963469D01*
X102904282Y-64896793D01*
X103037635Y-64830117D01*
X103170987Y-64830117D01*
X104237806Y-65763583D02*
X104237806Y-65030145D01*
X104171130Y-64896793D01*
X104037778Y-64830117D01*
X103771073Y-64830117D01*
X103637720Y-64896793D01*
X104237806Y-65696907D02*
X104104454Y-65763583D01*
X103771073Y-65763583D01*
X103637720Y-65696907D01*
X103571044Y-65563555D01*
X103571044Y-65430202D01*
X103637720Y-65296850D01*
X103771073Y-65230174D01*
X104104454Y-65230174D01*
X104237806Y-65163498D01*
X105904711Y-64496736D02*
X105971387Y-64430060D01*
X106104740Y-64363383D01*
X106438120Y-64363383D01*
X106571473Y-64430060D01*
X106638149Y-64496736D01*
X106704825Y-64630088D01*
X106704825Y-64763440D01*
X106638149Y-64963469D01*
X105838035Y-65763583D01*
X106704825Y-65763583D01*
X107304911Y-65630231D02*
X107371587Y-65696907D01*
X107304911Y-65763583D01*
X107238235Y-65696907D01*
X107304911Y-65630231D01*
X107304911Y-65763583D01*
X108638435Y-64363383D02*
X107971673Y-64363383D01*
X107904997Y-65030145D01*
X107971673Y-64963469D01*
X108105025Y-64896793D01*
X108438406Y-64896793D01*
X108571759Y-64963469D01*
X108638435Y-65030145D01*
X108705111Y-65163498D01*
X108705111Y-65496879D01*
X108638435Y-65630231D01*
X108571759Y-65696907D01*
X108438406Y-65763583D01*
X108105025Y-65763583D01*
X107971673Y-65696907D01*
X107904997Y-65630231D01*
X109305197Y-65763583D02*
X109305197Y-64830117D01*
X109305197Y-64963469D02*
X109371873Y-64896793D01*
X109505225Y-64830117D01*
X109705254Y-64830117D01*
X109838606Y-64896793D01*
X109905282Y-65030145D01*
X109905282Y-65763583D01*
X109905282Y-65030145D02*
X109971959Y-64896793D01*
X110105311Y-64830117D01*
X110305340Y-64830117D01*
X110438692Y-64896793D01*
X110505368Y-65030145D01*
X110505368Y-65763583D01*
X111172130Y-65763583D02*
X111172130Y-64830117D01*
X111172130Y-64963469D02*
X111238806Y-64896793D01*
X111372159Y-64830117D01*
X111572187Y-64830117D01*
X111705540Y-64896793D01*
X111772216Y-65030145D01*
X111772216Y-65763583D01*
X111772216Y-65030145D02*
X111838892Y-64896793D01*
X111972244Y-64830117D01*
X112172273Y-64830117D01*
X112305625Y-64896793D01*
X112372301Y-65030145D01*
X112372301Y-65763583D01*
D10*
X41152380Y-97329523D02*
X41866666Y-97329523D01*
X42009523Y-97377142D01*
X42104761Y-97472380D01*
X42152380Y-97615238D01*
X42152380Y-97710476D01*
X42152380Y-96329523D02*
X42152380Y-96900952D01*
X42152380Y-96615238D02*
X41152380Y-96615238D01*
X41295238Y-96710476D01*
X41390476Y-96805714D01*
X41438095Y-96900952D01*
X42152380Y-95377142D02*
X42152380Y-95948571D01*
X42152380Y-95662857D02*
X41152380Y-95662857D01*
X41295238Y-95758095D01*
X41390476Y-95853333D01*
X41438095Y-95948571D01*
X12862380Y-40973333D02*
X13576666Y-40973333D01*
X13719523Y-41020952D01*
X13814761Y-41116190D01*
X13862380Y-41259047D01*
X13862380Y-41354285D01*
X13290952Y-40354285D02*
X13243333Y-40449523D01*
X13195714Y-40497142D01*
X13100476Y-40544761D01*
X13052857Y-40544761D01*
X12957619Y-40497142D01*
X12910000Y-40449523D01*
X12862380Y-40354285D01*
X12862380Y-40163809D01*
X12910000Y-40068571D01*
X12957619Y-40020952D01*
X13052857Y-39973333D01*
X13100476Y-39973333D01*
X13195714Y-40020952D01*
X13243333Y-40068571D01*
X13290952Y-40163809D01*
X13290952Y-40354285D01*
X13338571Y-40449523D01*
X13386190Y-40497142D01*
X13481428Y-40544761D01*
X13671904Y-40544761D01*
X13767142Y-40497142D01*
X13814761Y-40449523D01*
X13862380Y-40354285D01*
X13862380Y-40163809D01*
X13814761Y-40068571D01*
X13767142Y-40020952D01*
X13671904Y-39973333D01*
X13481428Y-39973333D01*
X13386190Y-40020952D01*
X13338571Y-40068571D01*
X13290952Y-40163809D01*
X12862380Y-28273333D02*
X13576666Y-28273333D01*
X13719523Y-28320952D01*
X13814761Y-28416190D01*
X13862380Y-28559047D01*
X13862380Y-28654285D01*
X12862380Y-27892380D02*
X12862380Y-27225714D01*
X13862380Y-27654285D01*
X69516666Y-110502380D02*
X69516666Y-111216666D01*
X69469047Y-111359523D01*
X69373809Y-111454761D01*
X69230952Y-111502380D01*
X69135714Y-111502380D01*
X70421428Y-110502380D02*
X70230952Y-110502380D01*
X70135714Y-110550000D01*
X70088095Y-110597619D01*
X69992857Y-110740476D01*
X69945238Y-110930952D01*
X69945238Y-111311904D01*
X69992857Y-111407142D01*
X70040476Y-111454761D01*
X70135714Y-111502380D01*
X70326190Y-111502380D01*
X70421428Y-111454761D01*
X70469047Y-111407142D01*
X70516666Y-111311904D01*
X70516666Y-111073809D01*
X70469047Y-110978571D01*
X70421428Y-110930952D01*
X70326190Y-110883333D01*
X70135714Y-110883333D01*
X70040476Y-110930952D01*
X69992857Y-110978571D01*
X69945238Y-111073809D01*
X96682380Y-94313333D02*
X97396666Y-94313333D01*
X97539523Y-94360952D01*
X97634761Y-94456190D01*
X97682380Y-94599047D01*
X97682380Y-94694285D01*
X96682380Y-93360952D02*
X96682380Y-93837142D01*
X97158571Y-93884761D01*
X97110952Y-93837142D01*
X97063333Y-93741904D01*
X97063333Y-93503809D01*
X97110952Y-93408571D01*
X97158571Y-93360952D01*
X97253809Y-93313333D01*
X97491904Y-93313333D01*
X97587142Y-93360952D01*
X97634761Y-93408571D01*
X97682380Y-93503809D01*
X97682380Y-93741904D01*
X97634761Y-93837142D01*
X97587142Y-93884761D01*
X15402380Y-76533333D02*
X16116666Y-76533333D01*
X16259523Y-76580952D01*
X16354761Y-76676190D01*
X16402380Y-76819047D01*
X16402380Y-76914285D01*
X15735714Y-75628571D02*
X16402380Y-75628571D01*
X15354761Y-75866666D02*
X16069047Y-76104761D01*
X16069047Y-75485714D01*
X96682380Y-84153333D02*
X97396666Y-84153333D01*
X97539523Y-84200952D01*
X97634761Y-84296190D01*
X97682380Y-84439047D01*
X97682380Y-84534285D01*
X96682380Y-83772380D02*
X96682380Y-83153333D01*
X97063333Y-83486666D01*
X97063333Y-83343809D01*
X97110952Y-83248571D01*
X97158571Y-83200952D01*
X97253809Y-83153333D01*
X97491904Y-83153333D01*
X97587142Y-83200952D01*
X97634761Y-83248571D01*
X97682380Y-83343809D01*
X97682380Y-83629523D01*
X97634761Y-83724761D01*
X97587142Y-83772380D01*
X112582380Y-60123333D02*
X113296666Y-60123333D01*
X113439523Y-60170952D01*
X113534761Y-60266190D01*
X113582380Y-60409047D01*
X113582380Y-60504285D01*
X112677619Y-59694761D02*
X112630000Y-59647142D01*
X112582380Y-59551904D01*
X112582380Y-59313809D01*
X112630000Y-59218571D01*
X112677619Y-59170952D01*
X112772857Y-59123333D01*
X112868095Y-59123333D01*
X113010952Y-59170952D01*
X113582380Y-59742380D01*
X113582380Y-59123333D01*
X17018095Y-101162380D02*
X17018095Y-100162380D01*
X17018095Y-100638571D02*
X17589523Y-100638571D01*
X17589523Y-101162380D02*
X17589523Y-100162380D01*
X18494285Y-100495714D02*
X18494285Y-101162380D01*
X18256190Y-100114761D02*
X18018095Y-100829047D01*
X18637142Y-100829047D01*
X17018095Y-13532380D02*
X17018095Y-12532380D01*
X17018095Y-13008571D02*
X17589523Y-13008571D01*
X17589523Y-13532380D02*
X17589523Y-12532380D01*
X17970476Y-12532380D02*
X18589523Y-12532380D01*
X18256190Y-12913333D01*
X18399047Y-12913333D01*
X18494285Y-12960952D01*
X18541904Y-13008571D01*
X18589523Y-13103809D01*
X18589523Y-13341904D01*
X18541904Y-13437142D01*
X18494285Y-13484761D01*
X18399047Y-13532380D01*
X18113333Y-13532380D01*
X18018095Y-13484761D01*
X17970476Y-13437142D01*
X107188095Y-13532380D02*
X107188095Y-12532380D01*
X107188095Y-13008571D02*
X107759523Y-13008571D01*
X107759523Y-13532380D02*
X107759523Y-12532380D01*
X108188095Y-12627619D02*
X108235714Y-12580000D01*
X108330952Y-12532380D01*
X108569047Y-12532380D01*
X108664285Y-12580000D01*
X108711904Y-12627619D01*
X108759523Y-12722857D01*
X108759523Y-12818095D01*
X108711904Y-12960952D01*
X108140476Y-13532380D01*
X108759523Y-13532380D01*
X103378095Y-101162380D02*
X103378095Y-100162380D01*
X103378095Y-100638571D02*
X103949523Y-100638571D01*
X103949523Y-101162380D02*
X103949523Y-100162380D01*
X104949523Y-101162380D02*
X104378095Y-101162380D01*
X104663809Y-101162380D02*
X104663809Y-100162380D01*
X104568571Y-100305238D01*
X104473333Y-100400476D01*
X104378095Y-100448095D01*
X66571904Y-51672380D02*
X66571904Y-50672380D01*
X66810000Y-50672380D01*
X66952857Y-50720000D01*
X67048095Y-50815238D01*
X67095714Y-50910476D01*
X67143333Y-51100952D01*
X67143333Y-51243809D01*
X67095714Y-51434285D01*
X67048095Y-51529523D01*
X66952857Y-51624761D01*
X66810000Y-51672380D01*
X66571904Y-51672380D01*
X68048095Y-50672380D02*
X67571904Y-50672380D01*
X67524285Y-51148571D01*
X67571904Y-51100952D01*
X67667142Y-51053333D01*
X67905238Y-51053333D01*
X68000476Y-51100952D01*
X68048095Y-51148571D01*
X68095714Y-51243809D01*
X68095714Y-51481904D01*
X68048095Y-51577142D01*
X68000476Y-51624761D01*
X67905238Y-51672380D01*
X67667142Y-51672380D01*
X67571904Y-51624761D01*
X67524285Y-51577142D01*
X105941904Y-32622380D02*
X105941904Y-31622380D01*
X106180000Y-31622380D01*
X106322857Y-31670000D01*
X106418095Y-31765238D01*
X106465714Y-31860476D01*
X106513333Y-32050952D01*
X106513333Y-32193809D01*
X106465714Y-32384285D01*
X106418095Y-32479523D01*
X106322857Y-32574761D01*
X106180000Y-32622380D01*
X105941904Y-32622380D01*
X107370476Y-31955714D02*
X107370476Y-32622380D01*
X107132380Y-31574761D02*
X106894285Y-32289047D01*
X107513333Y-32289047D01*
X83081904Y-20862380D02*
X83081904Y-19862380D01*
X83320000Y-19862380D01*
X83462857Y-19910000D01*
X83558095Y-20005238D01*
X83605714Y-20100476D01*
X83653333Y-20290952D01*
X83653333Y-20433809D01*
X83605714Y-20624285D01*
X83558095Y-20719523D01*
X83462857Y-20814761D01*
X83320000Y-20862380D01*
X83081904Y-20862380D01*
X83986666Y-19862380D02*
X84605714Y-19862380D01*
X84272380Y-20243333D01*
X84415238Y-20243333D01*
X84510476Y-20290952D01*
X84558095Y-20338571D01*
X84605714Y-20433809D01*
X84605714Y-20671904D01*
X84558095Y-20767142D01*
X84510476Y-20814761D01*
X84415238Y-20862380D01*
X84129523Y-20862380D01*
X84034285Y-20814761D01*
X83986666Y-20767142D01*
X77208095Y-21982380D02*
X77208095Y-20982380D01*
X77779523Y-21982380D02*
X77350952Y-21410952D01*
X77779523Y-20982380D02*
X77208095Y-21553809D01*
X66571904Y-44052380D02*
X66571904Y-43052380D01*
X66810000Y-43052380D01*
X66952857Y-43100000D01*
X67048095Y-43195238D01*
X67095714Y-43290476D01*
X67143333Y-43480952D01*
X67143333Y-43623809D01*
X67095714Y-43814285D01*
X67048095Y-43909523D01*
X66952857Y-44004761D01*
X66810000Y-44052380D01*
X66571904Y-44052380D01*
X67524285Y-43147619D02*
X67571904Y-43100000D01*
X67667142Y-43052380D01*
X67905238Y-43052380D01*
X68000476Y-43100000D01*
X68048095Y-43147619D01*
X68095714Y-43242857D01*
X68095714Y-43338095D01*
X68048095Y-43480952D01*
X67476666Y-44052380D01*
X68095714Y-44052380D01*
X81811904Y-98662380D02*
X81811904Y-97662380D01*
X82050000Y-97662380D01*
X82192857Y-97710000D01*
X82288095Y-97805238D01*
X82335714Y-97900476D01*
X82383333Y-98090952D01*
X82383333Y-98233809D01*
X82335714Y-98424285D01*
X82288095Y-98519523D01*
X82192857Y-98614761D01*
X82050000Y-98662380D01*
X81811904Y-98662380D01*
X83335714Y-98662380D02*
X82764285Y-98662380D01*
X83050000Y-98662380D02*
X83050000Y-97662380D01*
X82954761Y-97805238D01*
X82859523Y-97900476D01*
X82764285Y-97948095D01*
X65913333Y-34587142D02*
X65865714Y-34634761D01*
X65722857Y-34682380D01*
X65627619Y-34682380D01*
X65484761Y-34634761D01*
X65389523Y-34539523D01*
X65341904Y-34444285D01*
X65294285Y-34253809D01*
X65294285Y-34110952D01*
X65341904Y-33920476D01*
X65389523Y-33825238D01*
X65484761Y-33730000D01*
X65627619Y-33682380D01*
X65722857Y-33682380D01*
X65865714Y-33730000D01*
X65913333Y-33777619D01*
X66294285Y-33777619D02*
X66341904Y-33730000D01*
X66437142Y-33682380D01*
X66675238Y-33682380D01*
X66770476Y-33730000D01*
X66818095Y-33777619D01*
X66865714Y-33872857D01*
X66865714Y-33968095D01*
X66818095Y-34110952D01*
X66246666Y-34682380D01*
X66865714Y-34682380D01*
X65833333Y-13117142D02*
X65785714Y-13164761D01*
X65642857Y-13212380D01*
X65547619Y-13212380D01*
X65404761Y-13164761D01*
X65309523Y-13069523D01*
X65261904Y-12974285D01*
X65214285Y-12783809D01*
X65214285Y-12640952D01*
X65261904Y-12450476D01*
X65309523Y-12355238D01*
X65404761Y-12260000D01*
X65547619Y-12212380D01*
X65642857Y-12212380D01*
X65785714Y-12260000D01*
X65833333Y-12307619D01*
X66785714Y-13212380D02*
X66214285Y-13212380D01*
X66500000Y-13212380D02*
X66500000Y-12212380D01*
X66404761Y-12355238D01*
X66309523Y-12450476D01*
X66214285Y-12498095D01*
X59168571Y-77040952D02*
X59216190Y-76898095D01*
X59263809Y-76850476D01*
X59359047Y-76802857D01*
X59501904Y-76802857D01*
X59597142Y-76850476D01*
X59644761Y-76898095D01*
X59692380Y-76993333D01*
X59692380Y-77374285D01*
X58692380Y-77374285D01*
X58692380Y-77040952D01*
X58740000Y-76945714D01*
X58787619Y-76898095D01*
X58882857Y-76850476D01*
X58978095Y-76850476D01*
X59073333Y-76898095D01*
X59120952Y-76945714D01*
X59168571Y-77040952D01*
X59168571Y-77374285D01*
X58692380Y-76469523D02*
X58692380Y-75802857D01*
X59692380Y-76469523D01*
X59692380Y-75802857D01*
X59692380Y-74898095D02*
X59692380Y-75469523D01*
X59692380Y-75183809D02*
X58692380Y-75183809D01*
X58835238Y-75279047D01*
X58930476Y-75374285D01*
X58978095Y-75469523D01*
M02*
