G04 #@! TF.GenerationSoftware,KiCad,Pcbnew,(5.1.4)-1*
G04 #@! TF.CreationDate,2020-01-26T21:52:07-05:00*
G04 #@! TF.ProjectId,CameraTrigger,43616d65-7261-4547-9269-676765722e6b,rev?*
G04 #@! TF.SameCoordinates,Original*
G04 #@! TF.FileFunction,Copper,L1,Top*
G04 #@! TF.FilePolarity,Positive*
%FSLAX46Y46*%
G04 Gerber Fmt 4.6, Leading zero omitted, Abs format (unit mm)*
G04 Created by KiCad (PCBNEW (5.1.4)-1) date 2020-01-26 21:52:07*
%MOMM*%
%LPD*%
G04 APERTURE LIST*
%ADD10C,2.000000*%
%ADD11C,1.778000*%
%ADD12C,4.000000*%
%ADD13R,3.800000X3.800000*%
%ADD14O,1.600000X1.600000*%
%ADD15C,1.600000*%
%ADD16C,1.800000*%
%ADD17R,1.800000X1.800000*%
%ADD18O,1.700000X1.700000*%
%ADD19R,1.700000X1.700000*%
%ADD20R,1.600000X1.600000*%
%ADD21O,1.208000X2.416000*%
%ADD22O,2.416000X1.208000*%
%ADD23C,2.800000*%
%ADD24C,2.100000*%
%ADD25R,2.100000X2.100000*%
%ADD26O,1.905000X2.000000*%
%ADD27R,1.905000X2.000000*%
%ADD28R,1.500000X1.050000*%
%ADD29O,1.500000X1.050000*%
%ADD30C,7.400000*%
%ADD31O,3.200000X3.200000*%
%ADD32R,3.200000X3.200000*%
%ADD33R,2.000000X2.000000*%
%ADD34C,0.250000*%
%ADD35C,1.270000*%
G04 APERTURE END LIST*
D10*
X21590000Y-57230000D03*
X21590000Y-62230000D03*
X53260000Y-86360000D03*
X48260000Y-86360000D03*
D11*
X27940000Y-31750000D03*
X30480000Y-31750000D03*
X33020000Y-31750000D03*
X33020000Y-24130000D03*
X27940000Y-24130000D03*
X27940000Y-44450000D03*
X30480000Y-44450000D03*
X33020000Y-44450000D03*
X33020000Y-36830000D03*
X27940000Y-36830000D03*
D12*
X94060000Y-17780000D03*
D13*
X99060000Y-17780000D03*
D14*
X91440000Y-96520000D03*
D15*
X83820000Y-96520000D03*
D16*
X81280000Y-91440000D03*
D17*
X83820000Y-91440000D03*
D18*
X39370000Y-22860000D03*
X39370000Y-25400000D03*
X39370000Y-27940000D03*
X39370000Y-30480000D03*
X39370000Y-33020000D03*
X39370000Y-35560000D03*
X39370000Y-38100000D03*
X39370000Y-40640000D03*
X39370000Y-43180000D03*
X39370000Y-45720000D03*
X39370000Y-48260000D03*
X39370000Y-50800000D03*
X39370000Y-53340000D03*
X39370000Y-55880000D03*
X39370000Y-58420000D03*
D19*
X39370000Y-60960000D03*
D20*
X77470000Y-15240000D03*
D14*
X72390000Y-15240000D03*
D21*
X102320000Y-71810000D03*
D22*
X104320000Y-73660000D03*
X104320000Y-69960000D03*
D21*
X109220000Y-71810000D03*
D23*
X80010000Y-34290000D03*
D24*
X83820000Y-21590000D03*
D25*
X81280000Y-21590000D03*
D24*
X91440000Y-81280000D03*
D25*
X88900000Y-81280000D03*
D14*
X102870000Y-41910000D03*
X95250000Y-49530000D03*
X102870000Y-44450000D03*
X95250000Y-46990000D03*
X102870000Y-46990000D03*
X95250000Y-44450000D03*
X102870000Y-49530000D03*
D20*
X95250000Y-41910000D03*
D14*
X73660000Y-73660000D03*
X81280000Y-66040000D03*
X73660000Y-71120000D03*
X81280000Y-68580000D03*
X73660000Y-68580000D03*
X81280000Y-71120000D03*
X73660000Y-66040000D03*
D20*
X81280000Y-73660000D03*
D26*
X69850000Y-24130000D03*
X67310000Y-24130000D03*
D27*
X64770000Y-24130000D03*
D23*
X58420000Y-85090000D03*
X27940000Y-63500000D03*
X20320000Y-46990000D03*
X22860000Y-34290000D03*
X34290000Y-17780000D03*
X71120000Y-34290000D03*
X71120000Y-86360000D03*
X60960000Y-99060000D03*
D11*
X25400000Y-58420000D03*
X27940000Y-58420000D03*
X30480000Y-58420000D03*
X30480000Y-50800000D03*
X25400000Y-50800000D03*
D14*
X82550000Y-54610000D03*
D15*
X74930000Y-54610000D03*
D14*
X88900000Y-34290000D03*
D15*
X96520000Y-34290000D03*
D14*
X72390000Y-40640000D03*
D15*
X80010000Y-40640000D03*
D14*
X102870000Y-25400000D03*
D15*
X95250000Y-25400000D03*
D14*
X76200000Y-86360000D03*
D15*
X83820000Y-86360000D03*
D14*
X74930000Y-48260000D03*
D15*
X82550000Y-48260000D03*
D14*
X69850000Y-91440000D03*
D15*
X77470000Y-91440000D03*
D28*
X87630000Y-46990000D03*
D29*
X87630000Y-49530000D03*
X87630000Y-48260000D03*
D28*
X87630000Y-39370000D03*
D29*
X87630000Y-41910000D03*
X87630000Y-40640000D03*
D28*
X91440000Y-91440000D03*
D29*
X91440000Y-88900000D03*
X91440000Y-90170000D03*
D18*
X19050000Y-87630000D03*
X21590000Y-87630000D03*
X24130000Y-87630000D03*
X26670000Y-87630000D03*
X29210000Y-87630000D03*
X31750000Y-87630000D03*
X34290000Y-87630000D03*
X36830000Y-87630000D03*
D19*
X39370000Y-87630000D03*
D18*
X59690000Y-33020000D03*
X59690000Y-35560000D03*
X59690000Y-38100000D03*
X59690000Y-40640000D03*
X59690000Y-43180000D03*
X59690000Y-45720000D03*
X59690000Y-48260000D03*
X59690000Y-50800000D03*
X59690000Y-53340000D03*
X59690000Y-55880000D03*
X59690000Y-58420000D03*
D19*
X59690000Y-60960000D03*
D24*
X21590000Y-39370000D03*
D25*
X21590000Y-41910000D03*
D24*
X21590000Y-26670000D03*
D25*
X21590000Y-29210000D03*
D24*
X67310000Y-97790000D03*
X69850000Y-97790000D03*
D25*
X72390000Y-97790000D03*
D24*
X100330000Y-90170000D03*
D25*
X100330000Y-92710000D03*
D24*
X20320000Y-73660000D03*
X20320000Y-76200000D03*
D25*
X20320000Y-78740000D03*
D24*
X101600000Y-82550000D03*
D25*
X101600000Y-85090000D03*
D23*
X98780000Y-61690000D03*
X104280000Y-61690000D03*
X106680000Y-59690000D03*
D30*
X21590000Y-97790000D03*
X21590000Y-17780000D03*
X106680000Y-17780000D03*
X106680000Y-97790000D03*
D16*
X66040000Y-48260000D03*
D17*
X68580000Y-48260000D03*
D16*
X105410000Y-29210000D03*
D17*
X107950000Y-29210000D03*
D31*
X87630000Y-29210000D03*
D32*
X74930000Y-29210000D03*
D16*
X66040000Y-40640000D03*
D17*
X68580000Y-40640000D03*
D15*
X63580000Y-30480000D03*
D20*
X68580000Y-30480000D03*
D15*
X68500000Y-16510000D03*
D20*
X63500000Y-16510000D03*
D10*
X54610000Y-77390000D03*
D33*
X54610000Y-72390000D03*
D10*
X29210000Y-17780000D03*
D34*
X107839999Y-100440001D02*
X109220000Y-99060000D01*
X103084924Y-82550000D02*
X101600000Y-82550000D01*
X109220000Y-88685076D02*
X103084924Y-82550000D01*
X109220000Y-99060000D02*
X109220000Y-88685076D01*
X107950000Y-21590000D02*
X105410000Y-19050000D01*
X107950000Y-29210000D02*
X107950000Y-21590000D01*
X104140000Y-17780000D02*
X105410000Y-19050000D01*
X107950000Y-30360000D02*
X107950000Y-29210000D01*
X107874999Y-30435001D02*
X107950000Y-30360000D01*
X97564999Y-30435001D02*
X107874999Y-30435001D01*
X88630000Y-39370000D02*
X97564999Y-30435001D01*
X87630000Y-39370000D02*
X88630000Y-39370000D01*
X67310000Y-24177500D02*
X67310000Y-24130000D01*
X66107500Y-25380000D02*
X67310000Y-24177500D01*
X66060000Y-25380000D02*
X66107500Y-25380000D01*
X63580000Y-27860000D02*
X66060000Y-25380000D01*
X63580000Y-30480000D02*
X63580000Y-27860000D01*
X20320000Y-80040000D02*
X20320000Y-78740000D01*
D35*
X63580000Y-30480000D02*
X57230000Y-24130000D01*
X57230000Y-24130000D02*
X48260000Y-24130000D01*
D34*
X99060000Y-15240000D02*
X99060000Y-17780000D01*
X100330000Y-81280000D02*
X101600000Y-82550000D01*
X91440000Y-81280000D02*
X100330000Y-81280000D01*
D35*
X46990000Y-17780000D02*
X48260000Y-19050000D01*
X48260000Y-19050000D02*
X48260000Y-24130000D01*
X48260000Y-26670000D02*
X48260000Y-19050000D01*
X45720000Y-29210000D02*
X48260000Y-26670000D01*
D34*
X46990000Y-17780000D02*
X49530000Y-17780000D01*
X49530000Y-17780000D02*
X52070000Y-15240000D01*
X67230000Y-15240000D02*
X68500000Y-16510000D01*
X52070000Y-15240000D02*
X67230000Y-15240000D01*
X97400000Y-13970000D02*
X99060000Y-15630000D01*
X96520000Y-13970000D02*
X97400000Y-13970000D01*
X95625010Y-13075010D02*
X96520000Y-13970000D01*
X67310000Y-24130000D02*
X71120000Y-20320000D01*
X71120000Y-20320000D02*
X71120000Y-17780000D01*
X71120000Y-17780000D02*
X68500000Y-17780000D01*
X68500000Y-17780000D02*
X68500000Y-15320000D01*
X68500000Y-15320000D02*
X70744990Y-13075010D01*
X99060000Y-15630000D02*
X99060000Y-17780000D01*
X70744990Y-13075010D02*
X95625010Y-13075010D01*
D35*
X99060000Y-17780000D02*
X107950000Y-17780000D01*
D34*
X91440000Y-91440000D02*
X91440000Y-95250000D01*
X91440000Y-93980000D02*
X91440000Y-95250000D01*
X22860000Y-91440000D02*
X26670000Y-91440000D01*
X26670000Y-91440000D02*
X26670000Y-87630000D01*
X91440000Y-95250000D02*
X91440000Y-96520000D01*
X67310000Y-97790000D02*
X69850000Y-100330000D01*
X69850000Y-100330000D02*
X87630000Y-100330000D01*
X87630000Y-100330000D02*
X91440000Y-96520000D01*
X91440000Y-96520000D02*
X91440000Y-99060000D01*
X91440000Y-99060000D02*
X92710000Y-100330000D01*
X92710000Y-100330000D02*
X99060000Y-100330000D01*
X101447410Y-97790000D02*
X106680000Y-97790000D01*
X99060000Y-100177410D02*
X101447410Y-97790000D01*
X99060000Y-100330000D02*
X99060000Y-100177410D01*
X63500000Y-93980000D02*
X67310000Y-97790000D01*
X57150000Y-93980000D02*
X63500000Y-93980000D01*
X21479999Y-101489999D02*
X43290001Y-101489999D01*
X43290001Y-101489999D02*
X52070000Y-92710000D01*
X52070000Y-92710000D02*
X55880000Y-92710000D01*
X55880000Y-92710000D02*
X57150000Y-93980000D01*
X21590000Y-17780000D02*
X30480000Y-17780000D01*
X21590000Y-17780000D02*
X27940000Y-24130000D01*
X21590000Y-23012590D02*
X21590000Y-26670000D01*
X21590000Y-17780000D02*
X21590000Y-23012590D01*
X19050000Y-36830000D02*
X21590000Y-39370000D01*
X19050000Y-22860000D02*
X19050000Y-36830000D01*
X21590000Y-17780000D02*
X21590000Y-20320000D01*
X21590000Y-20320000D02*
X19050000Y-22860000D01*
X21590000Y-93980000D02*
X22860000Y-92710000D01*
X22860000Y-92710000D02*
X22860000Y-91440000D01*
X21590000Y-90170000D02*
X21590000Y-87630000D01*
X22860000Y-91440000D02*
X21590000Y-90170000D01*
X21590000Y-87630000D02*
X21590000Y-83820000D01*
X21590000Y-83820000D02*
X20320000Y-82550000D01*
X20320000Y-82550000D02*
X20320000Y-78740000D01*
X20105076Y-39370000D02*
X19050000Y-40425076D01*
X21590000Y-39370000D02*
X20105076Y-39370000D01*
X44450000Y-15240000D02*
X46990000Y-17780000D01*
X29210000Y-17780000D02*
X31750000Y-15240000D01*
X31750000Y-15240000D02*
X44450000Y-15240000D01*
X19050000Y-40425076D02*
X19050000Y-40640000D01*
X19050000Y-40640000D02*
X17780000Y-41910000D01*
X17780000Y-41910000D02*
X17780000Y-48260000D01*
X17780000Y-48260000D02*
X20320000Y-50800000D01*
X20320000Y-50800000D02*
X21590000Y-50800000D01*
X21590000Y-50800000D02*
X25400000Y-50800000D01*
X53340000Y-78660000D02*
X54610000Y-77390000D01*
X52070000Y-78660000D02*
X53340000Y-78660000D01*
X21590000Y-93980000D02*
X21590000Y-97790000D01*
X39370000Y-30480000D02*
X44450000Y-30480000D01*
X44450000Y-30480000D02*
X45720000Y-29210000D01*
X21479999Y-97900001D02*
X21590000Y-97790000D01*
X21479999Y-101489999D02*
X21479999Y-97900001D01*
X52070000Y-86360000D02*
X53260000Y-86360000D01*
X52070000Y-86360000D02*
X52070000Y-78660000D01*
X52070000Y-92710000D02*
X52070000Y-86360000D01*
X21590000Y-57230000D02*
X21590000Y-50800000D01*
X59690000Y-48260000D02*
X55880000Y-48260000D01*
X55880000Y-48260000D02*
X52070000Y-52070000D01*
X54610000Y-72390000D02*
X52070000Y-69850000D01*
X52070000Y-69850000D02*
X52070000Y-52070000D01*
X64550000Y-17780000D02*
X63500000Y-17780000D01*
X64770000Y-18000000D02*
X64550000Y-17780000D01*
X64770000Y-24130000D02*
X64770000Y-18000000D01*
X63500000Y-16510000D02*
X63500000Y-17780000D01*
X88900000Y-31750000D02*
X95250000Y-25400000D01*
X88900000Y-34290000D02*
X88900000Y-31750000D01*
X68580000Y-31530000D02*
X68580000Y-30480000D01*
X62010000Y-38100000D02*
X68580000Y-31530000D01*
X59690000Y-38100000D02*
X62010000Y-38100000D01*
X69850000Y-24177500D02*
X69850000Y-24130000D01*
X68647500Y-25380000D02*
X69850000Y-24177500D01*
X68600000Y-25380000D02*
X68647500Y-25380000D01*
X68580000Y-25400000D02*
X68600000Y-25380000D01*
X68580000Y-30480000D02*
X68580000Y-25400000D01*
X81409999Y-32890001D02*
X80010000Y-34290000D01*
X88900000Y-31750000D02*
X87630000Y-33020000D01*
X87630000Y-33020000D02*
X81280000Y-33020000D01*
X81280000Y-33020000D02*
X80010000Y-34290000D01*
X68580000Y-30480000D02*
X71120000Y-30480000D01*
X74930000Y-34290000D02*
X80010000Y-34290000D01*
X71120000Y-30480000D02*
X74930000Y-34290000D01*
X77470000Y-91440000D02*
X81280000Y-91440000D01*
X83820000Y-91440000D02*
X86360000Y-91440000D01*
X87630000Y-90170000D02*
X91440000Y-90170000D01*
X86360000Y-91440000D02*
X87630000Y-90170000D01*
X63500000Y-43180000D02*
X66040000Y-40640000D01*
X59690000Y-43180000D02*
X63500000Y-43180000D01*
X71120000Y-35560000D02*
X71120000Y-34290000D01*
X66040000Y-40640000D02*
X71120000Y-35560000D01*
X68580000Y-40640000D02*
X72390000Y-40640000D01*
X79980000Y-21590000D02*
X81280000Y-21590000D01*
X78740000Y-20350000D02*
X79980000Y-21590000D01*
X81280000Y-21590000D02*
X81280000Y-25400000D01*
X83820000Y-25400000D02*
X87630000Y-29210000D01*
X81280000Y-25400000D02*
X83820000Y-25400000D01*
X78740000Y-20350000D02*
X78740000Y-20320000D01*
X78740000Y-20320000D02*
X77470000Y-19050000D01*
X76200000Y-19050000D02*
X72390000Y-15240000D01*
X77470000Y-19050000D02*
X76200000Y-19050000D01*
X102870000Y-26670000D02*
X105410000Y-29210000D01*
X102870000Y-25400000D02*
X102870000Y-26670000D01*
X63500000Y-45720000D02*
X66040000Y-48260000D01*
X59690000Y-45720000D02*
X63500000Y-45720000D01*
X68580000Y-48260000D02*
X74930000Y-48260000D01*
X83820000Y-21590000D02*
X86360000Y-19050000D01*
X87630000Y-17780000D02*
X94060000Y-17780000D01*
X86360000Y-19050000D02*
X87630000Y-17780000D01*
X77470000Y-15240000D02*
X80010000Y-15240000D01*
X83820000Y-19050000D02*
X83820000Y-21590000D01*
X80010000Y-15240000D02*
X83820000Y-19050000D01*
X104280000Y-61690000D02*
X100330000Y-57740000D01*
X100330000Y-57740000D02*
X100330000Y-48260000D01*
X101600000Y-48260000D02*
X102870000Y-46990000D01*
X100330000Y-48260000D02*
X101600000Y-48260000D01*
X100330000Y-86360000D02*
X101600000Y-85090000D01*
X83820000Y-86360000D02*
X100330000Y-86360000D01*
X26670000Y-76200000D02*
X27940000Y-74930000D01*
X20320000Y-76200000D02*
X26670000Y-76200000D01*
X33020000Y-55880000D02*
X33020000Y-60960000D01*
X33020000Y-60960000D02*
X31750000Y-62230000D01*
X31750000Y-71120000D02*
X27940000Y-74930000D01*
X31750000Y-62230000D02*
X31750000Y-71120000D01*
X33020000Y-55880000D02*
X33020000Y-57150000D01*
X31620001Y-62100001D02*
X31750000Y-62230000D01*
X29339999Y-62100001D02*
X31620001Y-62100001D01*
X27940000Y-63500000D02*
X29339999Y-62100001D01*
X36830000Y-40640000D02*
X39370000Y-40640000D01*
X34290000Y-43180000D02*
X36830000Y-40640000D01*
X34290000Y-46990000D02*
X34290000Y-43180000D01*
X33020000Y-55880000D02*
X33020000Y-48260000D01*
X33020000Y-48260000D02*
X34290000Y-46990000D01*
X99060000Y-88900000D02*
X100330000Y-90170000D01*
X91440000Y-88900000D02*
X99060000Y-88900000D01*
X58420000Y-91440000D02*
X58420000Y-72390000D01*
X58420000Y-72390000D02*
X54610000Y-68580000D01*
X54610000Y-68580000D02*
X54610000Y-58420000D01*
X57150000Y-58420000D02*
X59690000Y-55880000D01*
X54610000Y-58420000D02*
X57150000Y-58420000D01*
X63500000Y-91440000D02*
X69850000Y-97790000D01*
X58420000Y-91440000D02*
X63500000Y-91440000D01*
X82550000Y-95250000D02*
X83820000Y-96520000D01*
X70905076Y-95250000D02*
X82550000Y-95250000D01*
X69850000Y-97790000D02*
X69850000Y-96305076D01*
X69850000Y-96305076D02*
X70905076Y-95250000D01*
X27940000Y-29210000D02*
X33020000Y-24130000D01*
X21590000Y-29210000D02*
X27940000Y-29210000D01*
X36830000Y-30480000D02*
X39370000Y-33020000D01*
X35560000Y-30480000D02*
X36830000Y-30480000D01*
X33020000Y-24130000D02*
X35560000Y-26670000D01*
X35560000Y-26670000D02*
X35560000Y-30480000D01*
X33020000Y-19050000D02*
X34290000Y-17780000D01*
X33020000Y-24130000D02*
X33020000Y-19050000D01*
X30480000Y-34290000D02*
X33020000Y-36830000D01*
X22860000Y-34290000D02*
X30480000Y-34290000D01*
X33020000Y-36830000D02*
X36830000Y-36830000D01*
X36830000Y-36830000D02*
X38100000Y-35560000D01*
X38100000Y-35560000D02*
X39370000Y-35560000D01*
X24130000Y-41910000D02*
X21590000Y-41910000D01*
X22860000Y-34290000D02*
X24130000Y-35560000D01*
X24130000Y-35560000D02*
X24130000Y-41910000D01*
X30480000Y-50800000D02*
X30480000Y-46990000D01*
X38100000Y-38100000D02*
X39370000Y-38100000D01*
X33020000Y-43180000D02*
X38100000Y-38100000D01*
X32493278Y-43180000D02*
X33020000Y-43180000D01*
X31750000Y-43923278D02*
X32493278Y-43180000D01*
X30480000Y-46990000D02*
X31750000Y-45720000D01*
X31750000Y-45720000D02*
X31750000Y-43923278D01*
X20320000Y-46990000D02*
X30480000Y-46990000D01*
X35560000Y-44450000D02*
X35560000Y-48260000D01*
X33020000Y-72390000D02*
X29210000Y-76200000D01*
X33020000Y-64770000D02*
X33020000Y-72390000D01*
X35560000Y-62230000D02*
X33020000Y-64770000D01*
X35560000Y-46990000D02*
X35560000Y-44450000D01*
X35560000Y-58420000D02*
X35560000Y-46990000D01*
X35560000Y-58420000D02*
X35560000Y-62230000D01*
X35560000Y-48260000D02*
X35560000Y-58420000D01*
X29210000Y-76200000D02*
X29210000Y-87630000D01*
X35560000Y-44450000D02*
X36830000Y-43180000D01*
X36830000Y-43180000D02*
X39370000Y-43180000D01*
X31750000Y-77470000D02*
X31750000Y-87630000D01*
X36830000Y-72390000D02*
X31750000Y-77470000D01*
X36830000Y-46990000D02*
X36830000Y-72390000D01*
X36830000Y-46990000D02*
X38100000Y-45720000D01*
X38100000Y-45720000D02*
X39370000Y-45720000D01*
X49530000Y-57150000D02*
X49530000Y-59690000D01*
X49530000Y-52070000D02*
X49530000Y-57150000D01*
X45720000Y-48260000D02*
X49530000Y-52070000D01*
X39370000Y-48260000D02*
X45720000Y-48260000D01*
X49530000Y-55880000D02*
X49530000Y-59690000D01*
X49530000Y-82550000D02*
X49530000Y-59690000D01*
X50800000Y-83820000D02*
X49530000Y-82550000D01*
X50800000Y-91440000D02*
X50800000Y-83820000D01*
X45720000Y-96520000D02*
X50800000Y-91440000D01*
X39370000Y-87630000D02*
X39370000Y-96520000D01*
X39370000Y-96520000D02*
X45720000Y-96520000D01*
X41910000Y-53340000D02*
X39370000Y-53340000D01*
X45720000Y-57150000D02*
X41910000Y-53340000D01*
X45720000Y-64770000D02*
X45720000Y-57150000D01*
X38100000Y-72390000D02*
X45720000Y-64770000D01*
X36830000Y-87630000D02*
X38100000Y-86360000D01*
X38100000Y-86360000D02*
X38100000Y-72390000D01*
X59690000Y-50800000D02*
X60960000Y-50800000D01*
X60960000Y-50800000D02*
X66040000Y-55880000D01*
X66040000Y-55880000D02*
X66040000Y-66040000D01*
X66040000Y-66040000D02*
X72390000Y-72390000D01*
X72390000Y-82550000D02*
X76200000Y-86360000D01*
X72390000Y-72390000D02*
X72390000Y-82550000D01*
X69850000Y-87630000D02*
X71120000Y-86360000D01*
X63500000Y-78740000D02*
X71120000Y-86360000D01*
X59690000Y-53340000D02*
X63500000Y-57150000D01*
X63500000Y-57150000D02*
X63500000Y-78740000D01*
X69850000Y-87630000D02*
X69850000Y-91440000D01*
X73660000Y-71120000D02*
X76200000Y-73660000D01*
X76200000Y-73660000D02*
X76200000Y-74930000D01*
X76200000Y-74930000D02*
X77470000Y-76200000D01*
X77470000Y-76200000D02*
X98660416Y-76200000D01*
X98660416Y-76200000D02*
X98660416Y-75469584D01*
X101835170Y-72885510D02*
X102535170Y-72885510D01*
X98660416Y-75469584D02*
X101244490Y-72885510D01*
X101244490Y-72885510D02*
X101835170Y-72885510D01*
X104295510Y-69984490D02*
X103895510Y-69984490D01*
X104320000Y-69960000D02*
X104295510Y-69984490D01*
X103895510Y-69984490D02*
X103895510Y-69935510D01*
X105395510Y-69864490D02*
X105395510Y-73175170D01*
X103230340Y-67310000D02*
X105410000Y-69489660D01*
X102870000Y-44450000D02*
X99060000Y-44450000D01*
X105395510Y-73175170D02*
X105395510Y-73875170D01*
X99060000Y-44450000D02*
X99060000Y-53340000D01*
X91440000Y-67310000D02*
X103230340Y-67310000D01*
X99060000Y-53340000D02*
X91440000Y-53340000D01*
X105410000Y-69489660D02*
X105410000Y-69850000D01*
X91440000Y-53340000D02*
X90170000Y-54610000D01*
X105410000Y-69850000D02*
X105395510Y-69864490D01*
X90170000Y-54610000D02*
X90170000Y-66040000D01*
X90170000Y-66040000D02*
X91440000Y-67310000D01*
X107950000Y-78740000D02*
X108775060Y-77914940D01*
X76200000Y-78740000D02*
X107950000Y-78740000D01*
X73660000Y-73660000D02*
X73660000Y-76200000D01*
X73660000Y-76200000D02*
X76200000Y-78740000D01*
X108775060Y-77914940D02*
X108775060Y-72885510D01*
X90170000Y-41910000D02*
X95250000Y-46990000D01*
X87630000Y-41910000D02*
X90170000Y-41910000D01*
X80010000Y-40640000D02*
X87630000Y-40640000D01*
X87630000Y-40640000D02*
X88630000Y-40640000D01*
X87630000Y-49530000D02*
X87630000Y-68580000D01*
X85090000Y-71120000D02*
X81280000Y-71120000D01*
X87630000Y-68580000D02*
X85090000Y-71120000D01*
X82550000Y-48260000D02*
X87630000Y-48260000D01*
X95250000Y-35560000D02*
X96520000Y-34290000D01*
X95250000Y-41910000D02*
X95250000Y-35560000D01*
X81280000Y-60960000D02*
X74930000Y-54610000D01*
X81280000Y-66040000D02*
X81280000Y-60960000D01*
X81280000Y-68580000D02*
X80010000Y-68580000D01*
X80010000Y-68580000D02*
X78740000Y-69850000D01*
X80230000Y-73660000D02*
X81280000Y-73660000D01*
X78740000Y-72170000D02*
X80230000Y-73660000D01*
X78740000Y-69850000D02*
X78740000Y-72170000D01*
X95250000Y-44450000D02*
X96520000Y-44450000D01*
X96520000Y-44450000D02*
X97790000Y-45720000D01*
X97790000Y-45720000D02*
X97790000Y-49530000D01*
X97790000Y-49530000D02*
X95250000Y-49530000D01*
M02*
