M48
; DRILL file {KiCad (5.1.4)-1} date 1/29/2020 6:20:53 AM
; FORMAT={-:-/ absolute / inch / decimal}
; #@! TF.CreationDate,2020-01-29T06:20:53-05:00
; #@! TF.GenerationSoftware,Kicad,Pcbnew,(5.1.4)-1
; #@! TF.FileFunction,Plated,1,2,PTH
FMAT,2
INCH
T1C0.0157
T2C0.0276
T3C0.0295
T4C0.0315
T5C0.0354
T6C0.0394
T7C0.0433
T8C0.0437
T9C0.0450
T10C0.0630
T11C0.0787
T12C0.1000
T13C0.1063
T14C0.1457
%
G90
G05
T1
X4.1Y-2.1
X4.15Y-2.6
T2
X4.0783Y-2.8
X4.1571Y-2.7272
X4.1571Y-2.8728
X4.35Y-2.8
T3
X3.45Y-1.55
X3.45Y-1.6
X3.45Y-1.65
X3.6Y-3.5
X3.6Y-3.55
X3.6Y-3.6
X3.45Y-1.85
X3.45Y-1.9
X3.45Y-1.95
T4
X2.95Y-0.7
X2.95Y-0.8
X3.05Y-0.7
X3.15Y-0.7
X3.25Y-0.7
X3.35Y-0.7
X3.35Y-0.8
X3.3Y-3.8
X3.6Y-3.8
X3.75Y-1.65
X3.75Y-1.75
X3.75Y-1.85
X3.75Y-1.95
X4.05Y-1.65
X4.05Y-1.75
X4.05Y-1.85
X4.05Y-1.95
X2.75Y-3.6
X3.05Y-3.6
X2.5Y-0.65
X2.6969Y-0.65
X3.7Y-1.1
X4.0Y-1.1
X3.5Y-1.35
X3.8Y-1.35
X3.0Y-3.4
X3.3Y-3.4
X2.5031Y-1.2
X2.7Y-1.2
X2.95Y-2.15
X3.25Y-2.15
X2.85Y-1.6
X3.15Y-1.6
X2.95Y-1.9
X3.25Y-1.9
X2.9Y-2.6
X2.9Y-2.7
X2.9Y-2.8
X2.9Y-2.9
X3.2Y-2.6
X3.2Y-2.7
X3.2Y-2.8
X3.2Y-2.9
T5
X2.6Y-1.9
X2.7Y-1.9
X2.6Y-1.6
X2.7Y-1.6
X4.15Y-1.15
X4.25Y-1.15
X3.2Y-3.6
X3.3Y-3.6
T6
X1.05Y-2.9
X1.05Y-3.0969
X3.0Y-3.85
X3.1969Y-3.85
X1.9Y-3.4
X2.0969Y-3.4
X1.15Y-0.7
X1.7Y-3.0
X0.75Y-3.45
X0.85Y-3.45
X0.95Y-3.45
X1.05Y-3.45
X1.15Y-3.45
X1.25Y-3.45
X1.35Y-3.45
X1.45Y-3.45
X1.55Y-3.45
X0.85Y-2.2531
X0.85Y-2.45
X2.15Y-2.85
X2.15Y-3.0469
T7
X3.95Y-3.55
X3.95Y-3.65
X2.65Y-3.85
X2.75Y-3.85
X2.85Y-3.85
X2.55Y-0.95
X2.65Y-0.95
X2.75Y-0.95
X0.85Y-1.05
X0.85Y-1.15
X0.8Y-2.9
X0.8Y-3.0
X0.8Y-3.1
X3.55Y-0.75
X3.65Y-0.75
X3.5Y-3.2
X3.6Y-3.2
X0.85Y-1.55
X0.85Y-1.65
X4.0Y-3.25
X4.0Y-3.35
T8
X1.55Y-0.9
X1.55Y-1.0
X1.55Y-1.1
X1.55Y-1.2
X1.55Y-1.3
X1.55Y-1.4
X1.55Y-1.5
X1.55Y-1.6
X1.55Y-1.7
X1.55Y-1.8
X1.55Y-1.9
X1.55Y-2.0
X1.55Y-2.1
X1.55Y-2.2
X1.55Y-2.3
X1.55Y-2.4
X2.35Y-1.3
X2.35Y-1.4
X2.35Y-1.5
X2.35Y-1.6
X2.35Y-1.7
X2.35Y-1.8
X2.35Y-1.9
X2.35Y-2.0
X2.35Y-2.1
X2.35Y-2.2
X2.35Y-2.3
X2.35Y-2.4
T9
X1.1Y-1.45
X1.1Y-1.75
X1.2Y-1.75
X1.3Y-1.45
X1.3Y-1.75
X1.1Y-0.95
X1.1Y-1.25
X1.2Y-1.25
X1.3Y-0.95
X1.3Y-1.25
X1.0Y-2.0
X1.0Y-2.3
X1.1Y-2.3
X1.2Y-2.0
X1.2Y-2.3
T10
X2.3Y-3.35
X2.8Y-3.4
X2.95Y-1.15
X3.45Y-1.15
X1.35Y-0.7
X3.15Y-1.35
X1.1Y-2.5
X0.8Y-1.85
X0.9Y-1.35
X2.8Y-1.35
X2.4Y-3.9
T11
X4.039Y-2.4287
X4.2555Y-2.4287
X4.35Y-2.35
T12
X1.6Y-0.75
X1.6Y-2.55
X2.3Y-0.75
X2.3Y-2.55
T13
X3.9Y-0.7
X3.9Y-0.8969
T14
X4.2Y-0.7
X0.85Y-0.7
X0.85Y-3.85
X4.2Y-3.85
T0
M30
